<svg width="30" height="34" viewBox="0 0 30 34" fill="none" xmlns="http://www.w3.org/2000/svg">
<path d="M3.83292 22.8757C3.43106 22.5031 3.05722 22.1759 2.70208 21.8396C1.84227 21.0035 1.55255 20.0128 1.91704 18.8859C2.28152 17.7771 3.1133 17.1409 4.29087 16.9228C4.29087 16.8046 4.18807 16.7592 4.1133 16.6955C3.62732 16.2229 3.14134 15.7503 2.65535 15.2777C1.1133 13.7418 1.64601 11.3424 3.70208 10.5517C3.73947 10.5336 3.7862 10.5154 3.85162 10.479C3.75816 10.379 3.67405 10.2882 3.58993 10.2064C2.65535 9.28843 1.68339 8.39776 0.786195 7.45256C-0.709133 5.87116 0.0291849 3.35365 2.15068 2.7629C3.16937 2.48116 4.14134 2.73563 5.04788 3.51724C5.15068 3.45362 5.09461 3.35365 5.09461 3.27185C5.10395 2.82652 5.09461 2.39027 5.09461 1.94494C5.10395 0.727079 5.85162 0 7.09461 0C10.8703 0 14.646 0 18.4217 0C20.132 0 21.8516 0 23.5619 0C24.7675 0 25.5245 0.736167 25.5245 1.90858C25.5245 5.2077 25.5245 8.50682 25.5245 11.8059C25.5245 11.915 25.5245 12.0241 25.5245 12.1967C26.1881 11.606 26.9264 11.2425 27.7488 11.0516C28.2535 10.9334 28.7582 10.8698 29.2722 10.8789C29.7114 10.888 29.9825 11.1516 30.0012 11.5787C30.0012 11.6696 30.0012 11.7605 30.0012 11.8514C30.0012 18.9131 30.0012 25.9749 30.0012 33.0366C30.0012 33.6728 29.7582 34.0091 29.2909 34C28.8329 33.9909 28.5993 33.6728 28.5993 33.0457C28.5993 26.2475 28.5993 19.4403 28.6086 12.6421C28.6086 12.2876 28.5058 12.2695 28.1974 12.3422C26.5152 12.7239 25.5619 13.8418 25.5339 15.614C25.5058 17.4499 25.5152 19.2858 25.5245 21.1216C25.5245 21.5215 25.3843 21.8033 25.0479 22.0396C24.2535 22.594 23.4871 23.1847 22.6927 23.7482C21.5712 24.548 21.0292 25.6204 21.0292 26.9837C21.0385 29.0195 21.0292 31.0644 21.0292 33.1003C21.0292 33.7819 20.8049 34 20.1133 34C15.7675 34 11.4217 34 7.07592 34C5.82358 34 5.08526 33.2729 5.08526 32.0551C5.08526 31.6007 5.20676 31.1008 5.03853 30.71C4.87031 30.3192 4.42171 30.0465 4.09461 29.7284C3.48713 29.1377 2.889 28.5287 2.26283 27.9562C1.36563 27.12 0.973111 26.1294 1.32825 24.9479C1.68339 23.7846 2.53386 23.1302 3.83292 22.8757Z" fill="#002046"/>
<path d="M7.86089 12.3876C7.44033 11.9423 7.02912 11.497 6.60856 11.0607C6.5151 10.9698 6.49641 10.8699 6.49641 10.7608C6.49641 8.97036 6.50575 7.17993 6.48706 5.3895C6.48706 5.12593 6.62725 5.16229 6.78613 5.16229C9.11323 5.16229 11.4497 5.16229 13.7768 5.16229C17.1132 5.16229 20.4403 5.16229 23.7768 5.1532C24.0385 5.1532 24.1226 5.19864 24.1226 5.48038C24.1132 10.5608 24.1132 15.6322 24.1226 20.7127C24.1226 20.9308 24.0665 21.058 23.8796 21.1944C23.16 21.7033 22.459 22.2123 21.7581 22.7394C20.3656 23.7755 19.6553 25.1569 19.6459 26.8656C19.6459 27.1382 19.5899 27.22 19.2908 27.22C16.2067 27.2109 13.1132 27.2109 10.0291 27.22C9.82351 27.22 9.70201 27.1564 9.56183 27.011C9.13192 26.5838 8.66463 26.1839 8.14127 25.7204C8.37491 25.6568 8.47772 25.6295 8.58052 25.6023C10.7861 25.0388 11.5525 22.4668 9.98239 20.8581C9.42164 20.2855 8.82351 19.7493 8.20669 19.1585C8.62725 19.0768 8.97304 18.995 9.28145 18.8041C9.46837 18.6859 9.52444 18.8314 9.6179 18.9313C10.7768 20.1855 12.216 20.949 13.9263 21.258C17.8235 21.9578 21.7768 19.2949 22.4497 15.4868C23.1693 11.4242 20.5244 7.76159 16.3469 7.0436C12.7301 6.4165 9.11323 8.64317 8.04781 12.1695C8.02912 12.224 8.01977 12.2695 8.00108 12.324C7.95435 12.3331 7.90762 12.3604 7.86089 12.3876Z" fill="#F8F8F8"/>
<path d="M21.188 14.1326C21.188 16.5864 19.6273 18.7768 17.2628 19.6311C14.9357 20.4763 12.2908 19.8219 10.646 18.0042C10.4871 17.8225 10.4497 17.6952 10.5525 17.4498C11.0385 16.3229 10.8516 15.2868 10.0291 14.3598C9.84223 14.1507 9.65531 13.9508 9.44036 13.7872C9.2254 13.6236 9.20671 13.4237 9.2441 13.1874C9.674 10.5063 12.1506 8.37955 14.9263 8.30684C17.9076 8.22504 20.4684 10.1427 21.0572 12.8965C21.1413 13.2964 21.1974 13.7145 21.188 14.1326Z" fill="#F8F8F8"/>
<path d="M15.2909 3.80803C12.4685 3.80803 9.65538 3.80803 6.83296 3.81712C6.56193 3.81712 6.47782 3.7535 6.49651 3.48993C6.52454 2.98098 6.50585 2.47202 6.50585 1.96307C6.50585 1.48138 6.62735 1.37231 7.12268 1.37231C11.9358 1.37231 16.7395 1.37231 21.5526 1.37231C22.2255 1.37231 22.9077 1.37231 23.5806 1.37231C23.9825 1.37231 24.1227 1.50864 24.1227 1.90853C24.1227 2.45384 24.104 2.99915 24.132 3.53537C24.1414 3.78985 24.0479 3.8262 23.8143 3.8262C20.9731 3.80803 18.132 3.80803 15.2909 3.80803Z" fill="#F8F8F8"/>
<path d="M6.50581 31.5643C8.5245 31.9914 10.1974 30.7372 10.2441 28.7923C10.2441 28.6105 10.2909 28.5651 10.4684 28.5651C13.4497 28.5742 16.431 28.5742 19.4123 28.5651C19.6273 28.5651 19.6553 28.6378 19.6553 28.8195C19.646 30.0101 19.646 31.2007 19.6553 32.3822C19.6553 32.6185 19.5712 32.6458 19.3563 32.6458C15.2722 32.6367 11.1787 32.6458 7.09459 32.6458C6.6273 32.6458 6.50581 32.5186 6.49646 32.0641C6.50581 31.9005 6.50581 31.746 6.50581 31.5643Z" fill="#F8F8F8"/>
<path d="M4.71142 11.7241C5.10394 11.7332 5.46843 11.8423 5.7488 12.1149C6.83292 13.1601 7.91703 14.2053 8.98245 15.2686C9.40301 15.6867 9.55254 16.2047 9.32824 16.7682C9.10395 17.3499 8.66469 17.6953 8.03852 17.7861C7.57123 17.8588 7.15067 17.6953 6.82357 17.3862C5.73011 16.3411 4.63665 15.2868 3.56188 14.2144C3.10394 13.7599 3.03852 13.1783 3.30955 12.6057C3.58058 12.0331 4.05721 11.7514 4.71142 11.7241Z" fill="#F8F8F8"/>
<path d="M4.75817 18.2588C5.16004 18.2769 5.50583 18.4133 5.79555 18.6859C6.84228 19.7038 7.89836 20.7127 8.92639 21.7397C9.58994 22.394 9.5806 23.2756 8.93574 23.8845C8.30023 24.4844 7.42172 24.4844 6.74882 23.8482C5.70209 22.8485 4.66471 21.8396 3.63667 20.8217C3.15069 20.34 3.03854 19.7038 3.30022 19.1313C3.56191 18.5769 4.15069 18.2315 4.75817 18.2588Z" fill="#F8F8F8"/>
<path d="M4.14134 24.239C4.55255 24.248 4.92639 24.3753 5.21611 24.657C6.27218 25.684 7.3376 26.6928 8.37498 27.738C9.02919 28.3833 9.0105 29.2558 8.39368 29.8647C7.76751 30.4737 6.87966 30.4827 6.21611 29.8556C5.15069 28.8468 4.09461 27.8198 3.05723 26.7837C2.58994 26.3202 2.48713 25.7476 2.74882 25.1478C3.00115 24.548 3.49648 24.2662 4.14134 24.239Z" fill="#F8F8F8"/>
<path d="M5.10395 9.72466C3.97311 8.62496 2.889 7.58887 1.82357 6.53461C1.23479 5.94386 1.26283 5.0441 1.83292 4.48061C2.43105 3.88986 3.33759 3.85351 3.97311 4.4079C4.32825 4.71691 4.65535 5.06228 4.9918 5.38037C5.07591 5.45308 5.10395 5.53488 5.10395 5.64394C5.10395 6.98903 5.10395 8.31595 5.10395 9.72466Z" fill="#F8F8F8"/>
<path d="M15.0012 14.8233C14.7302 14.8052 14.4218 14.8415 14.104 14.7779C12.9638 14.5507 12.1694 13.6237 12.1694 12.5149C12.1694 11.4061 12.9545 10.4609 14.0947 10.2518C14.3937 10.1973 14.5152 10.1155 14.4872 9.79741C14.4592 9.39752 14.7956 9.10669 15.1881 9.10669C15.562 9.11578 15.8891 9.39752 15.861 9.77924C15.833 10.161 15.9919 10.1973 16.3283 10.1973C17.3096 10.2064 18.076 10.988 18.0573 11.9241C18.0479 12.3149 17.8143 12.5967 17.4498 12.633C17.0666 12.6785 16.7582 12.4422 16.6741 12.0604C16.562 11.5515 16.562 11.5424 16.0106 11.5424C15.5339 11.5424 15.0573 11.5333 14.5806 11.5424C13.9919 11.5515 13.5713 11.9605 13.5713 12.4967C13.5713 13.0329 14.0012 13.4237 14.59 13.451C15.1227 13.4692 15.6648 13.3965 16.1881 13.5055C17.3096 13.7327 18.104 14.6779 18.1134 15.7867C18.1227 16.8955 17.3377 17.8589 16.2162 18.077C15.9638 18.1316 15.8423 18.1861 15.861 18.4769C15.8891 18.9313 15.5713 19.2403 15.1601 19.2313C14.7582 19.2222 14.4498 18.9222 14.4872 18.486C14.5152 18.1406 14.3563 18.1406 14.0947 18.1406C13.0106 18.1497 12.2068 17.4227 12.1881 16.432C12.1788 16.1412 12.2722 15.8958 12.5433 15.7413C12.7769 15.605 13.0106 15.605 13.2349 15.7322C13.4685 15.8594 13.5806 16.0594 13.5806 16.3229C13.5806 16.641 13.7489 16.7955 14.0853 16.7865C14.6087 16.7774 15.1321 16.7865 15.6554 16.7865C16.2722 16.7774 16.7115 16.3502 16.7115 15.7958C16.7021 15.2323 16.2629 14.8324 15.6367 14.8143C15.4405 14.8233 15.2442 14.8233 15.0012 14.8233Z" fill="#002046"/>
<path d="M15.3282 31.2826C14.7674 31.2826 14.216 31.2826 13.6553 31.2826C13.188 31.2826 12.8702 30.9917 12.8796 30.5918C12.8889 30.2101 13.1974 29.9284 13.646 29.9193C14.7861 29.9102 15.9263 29.9102 17.0665 29.9193C17.5431 29.9193 17.8516 30.201 17.8422 30.61C17.8329 31.0099 17.5245 31.2735 17.0478 31.2735C16.4684 31.2826 15.8983 31.2826 15.3282 31.2826Z" fill="#002046"/>
</svg>
