<svg width="17" height="20" viewBox="0 0 17 20" fill="none" xmlns="http://www.w3.org/2000/svg">
<path d="M5.96234 19.8291C5.85947 19.8291 5.75659 19.8291 5.65372 19.8291C5.59045 19.7883 5.52049 19.8183 5.45414 19.809C4.98091 19.8053 4.58793 19.5848 4.21912 19.3224C3.64251 18.9112 3.177 18.3869 2.7727 17.8074C1.86997 16.5144 1.25992 15.0867 0.823727 13.5768C0.639066 12.9374 0.491955 12.2891 0.418399 11.6274C0.257399 10.1826 0.395766 8.77245 1.05983 7.46301C1.9106 5.78424 3.31845 4.87408 5.15426 4.59102C5.7103 4.50527 6.24062 4.60961 6.76734 4.76716C7.24777 4.91076 7.71071 5.1055 8.18702 5.26304C8.46941 5.35654 8.73843 5.38185 9.03008 5.27028C9.50999 5.0869 9.98322 4.88597 10.477 4.73875C11.7614 4.35547 13.0005 4.48409 14.2114 5.03473C15.1172 5.44693 15.7792 6.11638 16.2884 6.95938C16.3743 7.10143 16.3553 7.18769 16.2277 7.28274C15.8615 7.55496 15.4932 7.82511 15.1707 8.1526C14.6167 8.71512 14.288 9.37888 14.2201 10.1723C14.1327 11.194 14.3863 12.1037 15.0899 12.8625C15.3224 13.113 15.6012 13.3124 15.8934 13.4911C16.0796 13.6047 16.2694 13.7158 16.4278 13.8692C16.6326 14.067 16.6989 14.2948 16.5976 14.5717C16.0997 15.9318 15.451 17.2102 14.5154 18.3213C14.1306 18.7785 13.7052 19.2056 13.1667 19.4928C12.8056 19.6855 12.4306 19.8291 12.0114 19.8095C11.9229 19.8193 11.8309 19.7873 11.745 19.8296C11.7321 19.8296 11.7192 19.8296 11.7064 19.8296C11.101 19.8214 10.5588 19.5884 10.0156 19.356C9.6818 19.2129 9.32945 19.14 8.96887 19.1147C8.741 19.0987 8.52393 19.17 8.30944 19.2366C7.88611 19.3684 7.47358 19.5326 7.05231 19.6705C6.77557 19.7614 6.49369 19.8152 6.20204 19.81C6.12334 19.8193 6.04001 19.7868 5.96234 19.8291Z" fill="black"/>
<path d="M12.1709 0C12.266 1.58889 11.4574 3.35806 9.91224 4.07348C9.52852 4.25117 9.12679 4.33795 8.70449 4.35758C8.53063 4.36584 8.48536 4.29714 8.47765 4.14373C8.44421 3.48203 8.60315 2.86528 8.92207 2.29191C9.50331 1.24746 10.3253 0.480387 11.4785 0.108991C11.6004 0.0697336 11.7244 0.0356416 11.854 0.0325424C11.9173 -0.00154964 11.9939 0.0459725 12.0556 0C12.0937 0 12.1323 0 12.1709 0Z" fill="black"/>
</svg>
