<svg width="17" height="15" viewBox="0 0 17 15" fill="none" xmlns="http://www.w3.org/2000/svg">
<path d="M14.1602 8.22524C14.1024 8.22524 14.0445 8.22524 13.9822 8.22524C9.91834 8.22524 5.85451 8.22524 1.79513 8.22524C1.34558 8.22524 1.06516 7.97354 1.00729 7.52048C0.94943 7.09259 1.2432 6.66974 1.62599 6.62947C1.70166 6.6194 1.78178 6.62443 1.85745 6.62443C5.89902 6.62443 9.9406 6.62443 13.9822 6.62443C14.04 6.62443 14.1024 6.62443 14.178 6.62443C14.1558 6.53886 14.1068 6.50362 14.0667 6.45831C12.8828 5.11927 11.6988 3.7752 10.5103 2.43617C10.3145 2.21467 10.2121 1.968 10.2655 1.6559C10.3189 1.34883 10.4836 1.1374 10.7507 1.04175C11.0089 0.951142 11.2448 1.01155 11.4451 1.21794C11.4807 1.25318 11.5163 1.29849 11.5519 1.33876C13.1409 3.15099 14.7389 4.95315 16.3368 6.76035C16.7329 7.20838 16.7329 7.63626 16.3412 8.07925C14.7255 9.90659 13.1053 11.7339 11.4896 13.5663C11.2759 13.8079 11.0356 13.9237 10.7373 13.823C10.2522 13.667 10.0652 12.9924 10.3857 12.5494C10.4347 12.484 10.4925 12.4185 10.5459 12.3581C11.7121 11.0443 12.8783 9.7304 14.0445 8.4115C14.089 8.36116 14.1424 8.32592 14.1869 8.28565C14.178 8.26551 14.1691 8.24537 14.1602 8.22524Z" fill="#002046" stroke="#002046" stroke-width="0.5"/>
</svg>
