<svg width="56" height="52" viewBox="0 0 56 52" fill="none" xmlns="http://www.w3.org/2000/svg">
<path d="M51.2272 36.3038C52.0701 36.3038 52.7444 36.3038 53.4398 36.3038C54.5777 36.325 54.9991 36.7291 54.9991 37.8989C54.9991 40.834 54.9991 43.7904 54.9991 46.7255C54.9991 47.6613 54.9991 48.5759 54.9991 49.5117C54.9781 50.6177 54.5566 51.0856 53.4819 51.0856C46.781 51.0856 40.0801 51.0856 33.3792 51.0856C32.3046 51.0856 31.8621 50.5964 31.8621 49.5117C31.8621 47.874 31.8621 46.215 31.8621 44.5773C31.8621 43.4926 32.3046 43.0247 33.4003 43.0247C35.1282 43.0034 36.8772 42.9822 38.6051 43.046C39.2583 43.0672 39.3637 42.8333 39.3637 42.2378C39.3216 40.7702 39.3426 39.3239 39.3637 37.8564C39.3637 36.6866 39.7851 36.2825 40.923 36.2612C41.5973 36.2612 42.2716 36.2612 43.1988 36.2612C40.4594 34.4534 39.2583 32.0287 39.4058 28.9235C39.5112 26.7541 40.333 24.925 41.9766 23.5C45.1585 20.735 50.3633 21.1179 53.1659 24.2444C55.4838 26.903 56.1792 33.0284 51.2272 36.3038Z" fill="#AC8C3A" stroke="#AC8C3A"/>
<path d="M18.2916 19.7779C17.3223 18.523 17.2591 17.97 18.0809 16.6301C18.2494 16.3749 18.123 16.2898 17.9966 16.1197C17.1958 14.9711 17.3644 13.7376 18.4812 13.0144C18.9448 12.7167 18.8395 12.504 18.6919 12.1424C17.6594 9.63268 16.648 7.1017 15.5944 4.61325C15.2994 3.93265 15.4469 3.54981 16.0579 3.18824C18.0598 2.03973 19.9563 2.20988 21.8528 3.54981C22.6113 2.35876 23.6228 1.46547 25.0346 1.14644C27.1418 0.678528 28.8697 1.33786 30.1762 3.03936C30.4712 3.4222 30.5976 3.52854 31.0612 3.23078C32.6416 2.20988 34.3063 2.16734 35.9921 2.97556C36.5821 3.25205 36.7296 3.59235 36.4557 4.23041C35.3599 6.86774 34.3063 9.50507 33.2316 12.1424C33.0631 12.5252 33.0209 12.7379 33.4634 13.0144C34.496 13.6738 34.7277 14.9711 34.0324 15.992C33.8427 16.2685 33.7163 16.4174 33.9902 16.779C34.6224 17.6085 34.6224 18.5868 33.927 19.3951C33.5688 19.8204 33.8006 19.8842 34.0956 20.0544C35.971 21.1178 37.5725 22.5003 38.9211 24.2018C39.1529 24.4996 39.5532 24.8399 39.1318 25.2227C38.6682 25.6268 38.4364 25.1164 38.2046 24.8399C36.7296 22.9682 34.9174 21.5007 32.7891 20.4372C32.4309 20.2458 32.0727 20.182 31.6512 20.182C27.8793 20.182 24.0864 20.2033 20.3145 20.182C19.3452 20.182 18.6498 20.7775 17.8701 21.1816C17.5541 21.3518 17.1958 21.6708 16.9219 21.2242C16.648 20.7775 17.0273 20.5648 17.3644 20.3734C17.6805 20.1607 17.9755 19.9693 18.2916 19.7779Z" fill="#AC8C3A" stroke="#AC8C3A" stroke-width="0.5"/>
<path d="M0.0221961 32.9007C0.0221961 31.3694 0.0432681 29.8167 0.0011241 28.2854C-0.0199479 27.5835 0.253988 27.307 0.928292 27.3921C1.11794 27.4134 1.30759 27.3708 1.47616 27.3921C1.98189 27.4772 2.15047 27.2858 2.15047 26.754C2.10833 25.3503 2.10833 23.9466 2.15047 22.5428C2.21369 18.7995 4.55268 16.0984 8.17706 15.5667C11.8647 15.0137 15.5733 18.0338 15.763 21.7984C15.8473 23.4361 15.8262 25.0951 15.7841 26.7328C15.763 27.307 15.9526 27.4984 16.5005 27.4134C16.6902 27.3921 16.8798 27.4346 17.0484 27.4134C17.6805 27.3496 17.9545 27.6048 17.9545 28.2641C17.9334 31.3694 17.9755 34.4746 17.9334 37.5586C17.8913 40.0683 16.1001 41.9399 13.6136 41.9825C10.5371 42.0463 7.46061 42.025 4.40517 41.9825C1.85546 41.9399 0.0432681 40.0257 0.0221961 37.431C0.0011241 35.9209 0.0221961 34.4108 0.0221961 32.9007Z" fill="#AC8C3A"/>
<path d="M26.5097 29.5404C26.5097 31.2206 26.5097 32.8796 26.5097 34.5385C26.5097 34.8576 26.6362 34.9852 26.9312 35.0915C27.458 35.2829 27.9637 35.4956 28.4484 35.7509C30.1763 36.6441 31.0402 38.2393 30.7663 39.9621C30.5345 41.3871 29.1227 42.7057 27.3948 42.9822C26.7205 43.0886 26.4044 43.28 26.5308 44.0031C26.594 44.3434 26.4887 44.6837 26.0672 44.6625C25.6669 44.6625 25.5194 44.3222 25.6037 43.9819C25.7722 43.1949 25.3508 43.046 24.7186 42.8759C23.075 42.4293 21.895 41.4083 21.4314 39.6856C21.3682 39.4729 21.3471 39.2602 21.326 39.0688C21.305 38.7285 21.326 38.4095 21.7685 38.3882C22.1478 38.3669 22.2321 38.6434 22.2743 38.9624C22.4429 40.6427 23.5175 41.4934 24.9926 42.0039C25.4772 42.174 25.6247 42.0464 25.6037 41.5147C25.5826 39.7494 25.5826 37.9628 25.6037 36.1975C25.6037 35.7509 25.4772 35.5594 25.0769 35.3893C23.9811 34.9426 23.0118 34.3471 22.5482 33.1561C21.8528 31.3482 22.8854 29.3064 24.8872 28.7534C25.5194 28.5833 25.6879 28.3068 25.6037 27.7325C25.5615 27.4135 25.5826 27.0945 25.6037 26.7754C25.6247 26.4777 25.7933 26.2862 26.1094 26.3075C26.3833 26.3288 26.4887 26.5202 26.5308 26.7967C26.6783 27.6687 27.3737 28.5833 28.1112 28.9448C29.228 29.4978 30.0077 30.3273 30.2184 31.6247C30.2816 31.9863 30.3027 32.3691 29.8813 32.4755C29.4177 32.5818 29.3545 32.199 29.2913 31.8374C28.9752 30.4337 28.048 29.6467 26.5097 29.5404Z" fill="#AC8C3A" stroke="#AC8C3A" stroke-width="0.5"/>
<path d="M18.4813 51.0855C14.6672 51.0855 10.8743 51.1068 7.06022 51.0855C4.78445 51.0642 3.33048 49.065 4.11014 47.0657C4.42622 46.2575 4.9741 45.662 5.7959 45.4067C6.25949 45.2579 6.38592 44.9814 6.42806 44.556C6.47021 44.1093 6.53342 43.6627 6.61771 43.216C6.65986 42.9396 6.8495 42.8119 7.12344 42.8332C7.39738 42.8757 7.54488 43.0672 7.52381 43.3224C7.43952 44.1306 7.35523 44.9601 7.2288 45.7683C7.18666 46.0873 6.87058 46.1086 6.61771 46.1511C5.41661 46.3851 4.78445 47.172 4.86874 48.278C4.95302 49.3415 5.77483 50.0859 6.97594 50.0859C9.67315 50.1071 12.3914 50.0859 15.0887 50.0859C19.9984 50.0859 24.9082 50.0859 29.818 50.0859C30.0287 50.0859 30.2394 50.0859 30.4502 50.0859C30.7662 50.0859 30.9559 50.2347 30.9559 50.5538C30.9559 50.8728 30.7241 51.0217 30.4291 51.043C30.2184 51.0642 30.0076 51.043 29.7969 51.043C26.0461 51.0855 22.2742 51.0855 18.4813 51.0855Z" fill="#AC8C3A" stroke="#AC8C3A" stroke-width="0.5"/>
<path d="M40.2908 29.4764C40.2697 25.5417 43.1776 22.6492 47.1392 22.6492C51.1007 22.6492 54.0086 25.5205 54.0297 29.4552C54.0297 33.3899 51.1218 36.3037 47.1813 36.3037C43.2198 36.3037 40.3118 33.4112 40.2908 29.4764Z" fill="#F4F4F4"/>
<path d="M47.1813 37.2608C49.2042 37.2608 51.2272 37.282 53.2501 37.2395C53.819 37.2395 54.0297 37.3671 54.0297 37.9839C54.0297 39.6641 54.0508 39.6641 52.4072 39.6641C51.4589 39.6641 50.5107 39.6641 49.5625 39.6641C49.2042 39.6641 48.8249 39.6641 48.846 40.1746C48.8671 40.6 49.2042 40.6212 49.5414 40.6212C50.8268 40.6212 52.1122 40.6425 53.3976 40.6C53.9033 40.5787 54.0087 40.7489 54.0087 41.238C54.0087 43.1948 54.0297 43.1948 52.1122 43.1948C51.2482 43.1948 50.3843 43.1948 49.5203 43.1948C49.1832 43.1948 48.8671 43.2586 48.846 43.6839C48.846 44.1306 49.1832 44.1519 49.5203 44.1519C50.8057 44.1519 52.0911 44.1731 53.3765 44.1519C53.8401 44.1519 54.0087 44.2582 54.0087 44.7686C54.0297 46.7679 54.0508 46.7679 52.07 46.7679C51.2061 46.7679 50.3421 46.7679 49.4782 46.7679C49.1832 46.7679 48.8671 46.8105 48.846 47.1933C48.8249 47.6399 49.141 47.7037 49.4782 47.7037C50.7636 47.7037 52.049 47.725 53.3344 47.7037C53.8612 47.6825 54.0087 47.8526 53.9876 48.3843C53.9244 50.4687 54.2404 50.1071 52.3018 50.1284C51.0164 50.1496 49.731 50.1071 48.4456 50.1496C47.8767 50.1709 47.6871 50.0646 47.7081 49.4265C47.7503 47.8314 47.7292 46.2362 47.7292 44.6623C47.7292 43.5138 47.2867 43.0671 46.1699 43.0459C44.3998 43.0459 42.6508 43.0246 40.8808 43.0459C40.354 43.0459 40.2276 42.897 40.2276 42.3865C40.2276 40.6212 40.2065 40.6212 41.9765 40.6212C42.8405 40.6212 43.7044 40.6212 44.5684 40.6212C44.9477 40.6212 45.3691 40.6638 45.3691 40.1108C45.3481 39.6216 44.9477 39.6641 44.6105 39.6641C43.3462 39.6641 42.0819 39.6429 40.8176 39.6641C40.3961 39.6641 40.2276 39.5791 40.2276 39.1112C40.1854 37.2608 40.1643 37.2608 42.0187 37.2608C43.7677 37.2608 45.4745 37.2608 47.1813 37.2608Z" fill="#F4F4F4"/>
<path d="M39.8272 44.003C41.8712 44.003 43.9152 44.0242 45.9802 43.9817C46.6124 43.9817 46.8652 44.1093 46.8442 44.8112C46.802 46.4701 46.8442 46.4701 45.2216 46.4701C44.2945 46.4701 43.3884 46.4701 42.4612 46.4701C42.0819 46.4701 41.5762 46.3425 41.5972 46.9593C41.6183 47.5548 42.1451 47.4272 42.5033 47.4272C43.7466 47.4272 44.9688 47.4485 46.212 47.4272C46.6545 47.4272 46.8442 47.491 46.8442 48.0228C46.8442 50.1284 46.8652 50.1284 44.8002 50.1284C41.0915 50.1284 37.4039 50.1071 33.6952 50.1496C33.0209 50.1496 32.7681 50.0008 32.7891 49.2776C32.8313 47.4698 32.7891 47.4698 34.5592 47.4698C35.4231 47.4698 36.2871 47.4698 37.151 47.4698C37.5303 47.4698 38.0361 47.5761 38.015 46.9593C38.015 46.4063 37.5303 46.5127 37.1721 46.5127C35.8867 46.5127 34.6013 46.4914 33.3159 46.5127C32.9156 46.5127 32.7681 46.4276 32.7681 45.981C32.8313 43.5776 32.4098 44.0455 34.6013 44.003C36.3714 43.9817 38.0993 44.003 39.8272 44.003Z" fill="#F4F4F4"/>
<path d="M21.642 12.6315C19.9352 12.6315 19.9352 12.6315 19.282 11.0151C18.418 8.88821 17.5752 6.76133 16.6901 4.63446C16.4794 4.14527 16.6058 3.91132 17.0484 3.74117C18.6498 3.08184 20.1249 3.29452 21.4524 4.44304C22.1267 5.01729 22.2531 4.99603 22.6535 4.23035C23.4121 2.7628 24.6132 1.95459 26.2568 1.95459C27.9004 1.95459 29.1015 2.7628 29.8391 4.23035C30.2184 4.99603 30.3869 5.01729 31.0402 4.42177C32.1991 3.40087 33.5267 3.12437 35.0017 3.54975C35.4442 3.67736 35.6128 3.84751 35.4021 4.37923C34.3274 6.93148 33.2949 9.50501 32.2623 12.0785C32.0938 12.4826 31.9041 12.6528 31.4616 12.6102C30.9348 12.5677 30.408 12.5677 29.8812 12.6102C29.249 12.6741 29.0805 12.5039 29.249 11.8446C29.6073 10.4621 29.8601 9.05836 30.1762 7.67589C30.2605 7.31432 30.3448 6.95275 29.8812 6.84641C29.3966 6.74006 29.3333 7.14417 29.249 7.4632C28.9119 8.99455 28.5537 10.5046 28.2587 12.036C28.1744 12.5039 27.9847 12.6315 27.5211 12.6102C26.6572 12.5677 25.7932 12.5677 24.9293 12.6102C24.4657 12.6315 24.3182 12.4614 24.2339 12.0147C23.9178 10.4834 23.5596 8.97329 23.2224 7.44193C23.1382 7.08037 23.0539 6.7188 22.5903 6.82514C22.1056 6.93148 22.2321 7.33559 22.2953 7.67589C22.6114 9.12217 22.8853 10.5684 23.2646 12.0147C23.4121 12.589 23.2225 12.6315 22.7589 12.6102C22.3796 12.6102 22.0003 12.6315 21.642 12.6315Z" fill="#F4F4F4"/>
<path d="M26.025 15.9282C23.981 15.9282 21.937 15.9282 19.872 15.9282C19.0291 15.9282 18.5234 15.5029 18.4812 14.8435C18.418 14.1204 18.9869 13.6099 19.893 13.5887C21.7474 13.5674 23.6228 13.5887 25.4771 13.5887C27.6897 13.5887 29.8812 13.5887 32.0937 13.5887C32.9366 13.5887 33.4213 13.9928 33.4634 14.6947C33.5056 15.4603 32.9788 15.9282 32.0727 15.9495C30.0708 15.9495 28.0479 15.9282 26.025 15.9282Z" fill="#F4F4F4"/>
<path d="M26.025 19.1821C23.9178 19.1821 21.8316 19.1821 19.7244 19.1821C19.0923 19.1821 18.6708 18.8844 18.5233 18.2676C18.3969 17.7571 18.6287 17.353 19.0712 17.0552C19.303 16.8851 19.5559 16.9064 19.8298 16.9064C23.9599 16.9064 28.069 16.9064 32.1991 16.9064C33.042 16.9064 33.5055 17.3317 33.5055 18.0549C33.5055 18.7567 33.042 19.1821 32.1991 19.2034C30.1129 19.2034 28.069 19.1821 26.025 19.1821Z" fill="#F4F4F4"/>
<path d="M8.97778 28.3704C11.4432 28.3704 13.9086 28.3916 16.3741 28.3704C16.8376 28.3704 17.0062 28.4554 17.0062 28.9659C16.9851 31.7946 17.0062 34.6447 16.9851 37.4734C16.9641 39.5365 15.5944 41.004 13.5504 41.0466C10.516 41.1104 7.46059 41.1104 4.40515 41.0466C2.31902 40.9828 0.970413 39.4939 0.970413 37.3883C0.949341 34.6021 0.991485 31.8159 0.949341 29.051C0.949341 28.4767 1.11792 28.3704 1.64472 28.3704C4.08907 28.3704 6.53342 28.3704 8.97778 28.3704Z" fill="#F4F4F4" stroke="#AC8C3A" stroke-width="0.5"/>
<path d="M3.09861 24.1381C3.14076 23.181 2.99325 22.0325 3.28826 20.9053C4.02578 18.1403 6.70193 16.2049 9.42022 16.4813C12.4967 16.8004 14.7514 19.1612 14.8357 22.2026C14.8779 23.734 14.8357 25.2866 14.8568 26.818C14.8568 27.2433 14.7936 27.4135 14.3089 27.4135C12.6232 27.4348 12.6232 27.456 12.6232 25.7545C12.6232 24.606 12.6442 23.4788 12.6232 22.3303C12.581 20.3097 10.9374 18.7146 8.95663 18.7358C6.99694 18.7571 5.39546 20.3097 5.35332 22.309C5.31117 23.8191 5.33225 25.3292 5.35332 26.8392C5.35332 27.3071 5.22689 27.4135 4.78437 27.4135C3.09861 27.4348 3.09861 27.456 3.09861 25.7333C3.09861 25.2653 3.09861 24.7762 3.09861 24.1381Z" fill="#F4F4F4"/>
<path d="M6.30172 24.5421C6.30172 23.7977 6.28065 23.0533 6.30172 22.3089C6.34387 20.8413 7.50283 19.7141 8.93573 19.6928C10.4108 19.6715 11.6329 20.7988 11.654 22.3089C11.6962 23.8402 11.654 25.3716 11.6751 26.9242C11.6751 27.307 11.5487 27.4134 11.1904 27.4134C9.71539 27.3921 8.24035 27.3921 6.78638 27.4134C6.3228 27.4134 6.28065 27.2219 6.30172 26.8391C6.30172 26.0734 6.30172 25.3078 6.30172 24.5421Z" fill="#F4F4F4"/>
<path d="M26.5097 35.9849C27.9215 36.5166 29.228 37.0058 29.7126 38.5371C30.2394 40.2599 28.4694 42.408 26.7415 42.1103C26.3832 42.0465 26.5307 41.8125 26.5097 41.6424C26.4886 41.536 26.5097 41.4297 26.5097 41.3233C26.5097 39.5793 26.5097 37.8352 26.5097 35.9849Z" fill="#F4F4F4"/>
<path d="M25.5193 34.4961C23.9389 33.9218 23.1382 32.986 23.2225 31.8587C23.3278 30.689 24.2339 29.7957 25.5193 29.6042C25.5193 31.2207 25.5193 32.8371 25.5193 34.4961Z" fill="#F4F4F4"/>
<path d="M49.5204 27.392C49.5625 27.711 49.415 27.945 49.1411 27.9875C48.8039 28.0513 48.6775 27.7961 48.5721 27.4771C48.2982 26.605 47.371 26.2222 46.5703 26.6476C45.8538 27.0092 45.7696 27.8812 46.4439 28.3065C46.9074 28.6043 47.4342 28.7745 47.94 28.9872C48.4036 29.1786 48.8461 29.3913 49.2043 29.7528C50.3422 30.9864 49.8575 32.7092 48.1928 33.2622C47.8978 33.3685 47.5817 33.3685 47.6028 33.8364C47.6028 34.0704 47.3921 34.198 47.1603 34.2193C46.9285 34.2193 46.7178 34.0704 46.7178 33.8577C46.7389 33.3898 46.4228 33.326 46.1067 33.1984C45.2638 32.8581 44.716 32.2625 44.5263 31.3693C44.4631 31.0502 44.442 30.6887 44.8424 30.5823C45.2428 30.476 45.3692 30.7312 45.4535 31.0928C45.7274 32.1349 46.6546 32.6667 47.6871 32.3902C48.256 32.2413 48.7618 31.986 48.825 31.348C48.8882 30.7312 48.5089 30.3058 47.961 30.0506C47.4553 29.8166 46.9496 29.6465 46.4439 29.4125C45.6221 29.051 44.9899 28.498 44.9899 27.5196C44.9899 26.605 45.4956 25.967 46.3385 25.6692C46.7599 25.5203 46.6335 25.2226 46.6335 24.9674C46.6546 24.6483 46.7599 24.3718 47.1182 24.3718C47.4764 24.3718 47.6239 24.6483 47.5817 24.9674C47.5396 25.3927 47.7292 25.5416 48.1085 25.6692C48.9093 25.9883 49.3939 26.5625 49.5204 27.392Z" fill="#AC8C3A"/>
<path d="M13.9719 36.4314C13.9508 36.7929 13.9508 37.1758 13.9086 37.5374C13.7611 38.6008 12.9393 39.3452 11.8857 39.3665C10.8321 39.3877 9.94711 38.7071 9.75746 37.6437C9.60996 36.878 9.63103 36.1123 9.73639 35.3467C9.88389 34.2194 10.8111 33.4112 11.8857 33.4538C12.9815 33.4963 13.8244 34.3045 13.9297 35.453C13.9508 35.772 13.9297 36.0911 13.9297 36.4101C13.9297 36.4314 13.9508 36.4314 13.9719 36.4314Z" fill="#AC8C3A" stroke="#AC8C3A" stroke-width="0.5"/>
<path d="M7.90307 32.5605C7.90307 32.8796 7.92414 33.1986 7.90307 33.5176C7.81878 34.5811 7.01804 35.368 5.96444 35.4531C4.97406 35.5381 4.02582 34.9001 3.77295 33.9005C3.56223 33.0497 3.58331 32.1564 3.73081 31.3057C3.92046 30.1997 4.84763 29.4978 5.9223 29.5616C7.03912 29.6254 7.83985 30.4549 7.92414 31.6034C7.92414 31.9437 7.92414 32.2628 7.90307 32.5605Z" fill="#AC8C3A"/>
<path d="M11.7382 29.9444C11.675 30.0933 11.6118 30.2634 11.5275 30.4336C9.92605 33.2411 8.34565 36.0698 6.74417 38.8773C6.5756 39.1963 6.36488 39.5366 5.96451 39.3239C5.50093 39.0687 5.75379 38.7071 5.92237 38.3881C7.50277 35.6019 9.08317 32.7944 10.6846 30.0082C10.7689 29.8593 10.8743 29.6892 11.0007 29.5616C11.1482 29.4127 11.3379 29.434 11.5064 29.519C11.675 29.6041 11.6961 29.753 11.7382 29.9444Z" fill="#AC8C3A"/>
<path d="M12.9815 36.4739C12.9815 36.7716 13.0026 37.0481 12.9815 37.3459C12.9183 37.9839 12.5601 38.3668 11.9279 38.4093C11.2536 38.4519 10.8111 38.1328 10.7057 37.4522C10.6004 36.7716 10.6004 36.091 10.7057 35.4104C10.8111 34.7724 11.2536 34.4321 11.8647 34.4533C12.5179 34.4746 12.9394 34.8574 13.0026 35.538C13.0026 35.8571 12.9815 36.1761 12.9815 36.4739Z" fill="#F4F4F4"/>
<path d="M6.97591 32.4755C6.97591 32.7733 6.99698 33.0498 6.97591 33.3475C6.93377 34.0281 6.55447 34.4322 5.90124 34.496C5.248 34.5598 4.76335 34.1983 4.67906 33.5389C4.59477 32.8583 4.59477 32.1777 4.67906 31.4971C4.76335 30.8378 5.248 30.4975 5.92231 30.5613C6.57554 30.6251 6.95484 31.0292 6.97591 31.7098C6.97591 31.9438 6.97591 32.2203 6.97591 32.4755Z" fill="#F4F4F4"/>
</svg>
