<svg width="47" height="44" viewBox="0 0 47 44" fill="none" xmlns="http://www.w3.org/2000/svg">
<path d="M28.2735 36.3421H7.43361C5.46278 36.3399 3.57332 35.556 2.17973 34.1624C0.786142 32.7688 0.00224073 30.8793 0 28.9085L0 7.43361C0.00224073 5.46278 0.786142 3.57332 2.17973 2.17973C3.57332 0.786142 5.46278 0.00224073 7.43361 0L38.82 0C40.7908 0.00224073 42.6803 0.786142 44.0739 2.17973C45.4675 3.57332 46.2514 5.46278 46.2536 7.43361V18.4841C45.3172 18.31 44.3668 18.2224 43.4144 18.2226C43.26 18.2226 43.1037 18.2248 42.9498 18.2295V13.6489H3.30383V28.9085C3.30506 30.0034 3.74055 31.0531 4.51477 31.8273C5.28899 32.6016 6.3387 33.0371 7.43361 33.0383H28.0412C28.0344 33.2252 28.0309 33.4162 28.0309 33.6061C28.0308 34.5235 28.112 35.4391 28.2735 36.3421ZM7.43361 3.30383C6.3387 3.30506 5.28899 3.74055 4.51477 4.51477C3.74055 5.28899 3.30506 6.3387 3.30383 7.43361V9.47786H42.9498V7.43361C42.9485 6.33871 42.513 5.28902 41.7388 4.5148C40.9646 3.74059 39.9149 3.30509 38.82 3.30383H7.43361ZM13.1711 28.2154H9.54259C8.94116 28.2154 8.36437 27.9764 7.9391 27.5512C7.51384 27.1259 7.27493 26.5491 7.27493 25.9476V24.4357C7.27491 24.1379 7.33356 23.843 7.44751 23.5679C7.56147 23.2928 7.7285 23.0428 7.93907 22.8322C8.14965 22.6216 8.39964 22.4546 8.67477 22.3406C8.9499 22.2266 9.24479 22.168 9.54259 22.168H13.1712C13.469 22.168 13.7639 22.2266 14.039 22.3406C14.3142 22.4546 14.5642 22.6216 14.7747 22.8322C14.9853 23.0428 15.1524 23.2928 15.2663 23.5679C15.3803 23.843 15.4389 24.1379 15.4389 24.4357V25.9475C15.4389 26.549 15.2 27.1258 14.7747 27.5511C14.3494 27.9763 13.7726 28.2154 13.1711 28.2154Z" fill="#AC8C3A"/>
<path d="M43.79 43.059H32.8285C32.4763 43.0602 32.1278 42.9871 31.8058 42.8444C31.4838 42.7017 31.1955 42.4926 30.9598 42.2309C30.7423 41.989 30.5783 41.7038 30.4786 41.3942C30.3788 41.0845 30.3455 40.7573 30.3809 40.4339C30.8132 36.6287 32.549 35.058 33.8167 33.911C34.7051 33.1072 35.1321 32.6875 35.1321 31.9376C35.1321 31.1975 34.7063 30.7856 33.8209 29.9966C32.5383 28.8545 30.7818 27.2904 30.3804 23.4333C30.3478 23.1086 30.3838 22.7805 30.4859 22.4705C30.588 22.1605 30.754 21.8753 30.9731 21.6334C31.2081 21.3751 31.4946 21.1689 31.8142 21.0282C32.1338 20.8875 32.4793 20.8153 32.8285 20.8163H43.79C44.14 20.8151 44.4863 20.8875 44.8066 21.0287C45.1269 21.1699 45.4139 21.3768 45.6491 21.636C45.8679 21.8779 46.0335 22.1631 46.1351 22.4731C46.2366 22.7831 46.272 23.111 46.2388 23.4355C45.8361 27.303 44.0732 28.8788 42.7858 30.0293C41.9083 30.8134 41.4869 31.222 41.4869 31.9376C41.4869 32.6629 41.9102 33.0793 42.79 33.8786C44.0623 35.0341 45.8047 36.6166 46.2383 40.4346C46.2736 40.7581 46.2402 41.0854 46.1403 41.395C46.0404 41.7047 45.8763 41.9898 45.6587 42.2317C45.4229 42.4933 45.1346 42.7021 44.8126 42.8447C44.4906 42.9872 44.1421 43.0603 43.79 43.059ZM32.8285 22.405C32.7017 22.4038 32.576 22.4291 32.4596 22.4794C32.3432 22.5297 32.2386 22.6039 32.1526 22.6971C32.0817 22.7733 32.0279 22.8637 31.9947 22.9623C31.9615 23.0608 31.9496 23.1654 31.9598 23.2689C32.2975 26.5136 33.6677 27.7337 34.8766 28.8103C35.7831 29.6175 36.7204 30.4519 36.7204 31.9377C36.7204 33.4259 35.7859 34.271 34.8822 35.0892C33.6829 36.1745 32.3235 37.4044 31.959 40.6137C31.9486 40.7147 31.9598 40.8169 31.9919 40.9133C32.0239 41.0097 32.076 41.0983 32.1448 41.173C32.2315 41.2679 32.3372 41.3434 32.455 41.3946C32.5728 41.4458 32.7001 41.4716 32.8286 41.4703H43.7901C43.9186 41.4716 44.0459 41.4458 44.1637 41.3946C44.2816 41.3434 44.3873 41.268 44.474 41.1731C44.5428 41.0983 44.5949 41.0097 44.6269 40.9133C44.6589 40.8168 44.6702 40.7147 44.6598 40.6136C44.2934 37.3905 42.9271 36.1496 41.7215 35.0548C40.8249 34.2405 39.8979 33.3985 39.8979 31.9377C39.8979 30.4795 40.8277 29.6485 41.7269 28.8448C42.9421 27.7587 44.3194 26.5277 44.659 23.2696C44.6696 23.1663 44.658 23.062 44.6251 22.9636C44.5922 22.8651 44.5386 22.7749 44.468 22.6988C44.3819 22.6052 44.277 22.5307 44.1603 22.4802C44.0435 22.4297 43.9175 22.4043 43.7903 22.4055L32.8285 22.405Z" fill="#AC8C3A"/>
<path d="M42.6428 40.6763H33.9955C33.2212 40.6763 33.0025 39.7826 33.5457 39.2285C34.8604 37.8959 37.5141 36.9416 37.5141 35.4135V30.3494C37.5141 29.3638 35.6274 28.6117 34.4602 27.0129C34.2675 26.7493 34.287 26.3774 34.7764 26.3774H41.8628C42.2804 26.3774 42.3707 26.7463 42.1806 27.0104C41.0303 28.6117 39.1029 29.3588 39.1029 30.3494V35.4135C39.1029 36.9292 41.8688 37.7468 43.0946 39.2301C43.5886 39.8273 43.4158 40.6763 42.6428 40.6763Z" fill="#AC8C3A"/>
</svg>
