<svg width="20" height="20" viewBox="0 0 20 20" fill="none" xmlns="http://www.w3.org/2000/svg">
<path d="M0.036544 2.14352C0.0939702 2.58702 0.318455 2.94077 0.626468 3.247C2.79823 5.43813 4.95954 7.63454 7.13652 9.82039C7.27225 9.95767 7.29314 10.0263 7.14174 10.1741C4.98042 12.3547 2.82955 14.5353 0.673453 16.7159C-0.0835291 17.4762 -0.0939703 18.68 0.636909 19.4244C1.39911 20.1953 2.57374 20.19 3.34638 19.4139C5.51814 17.2333 7.68468 15.0527 9.85121 12.8669C9.96607 12.7507 10.0183 12.7507 10.1331 12.8669C12.2631 15.0316 14.4036 17.191 16.5388 19.3505C17.5985 20.417 19.3213 20.0158 19.7338 18.5955C19.9374 17.8827 19.7912 17.2386 19.2639 16.7053C17.1182 14.53 14.9674 12.3547 12.8113 10.1847C12.686 10.058 12.6964 9.99991 12.8165 9.88375C14.9987 7.6979 17.1757 5.50149 19.3579 3.31564C19.7755 2.89325 20.0104 2.40223 19.9948 1.80561C19.9687 0.818279 19.1804 0.0315838 18.1989 0.0104656C17.5307 -0.00537491 16.9773 0.2111 16.5022 0.696844C14.3774 2.86157 12.2422 5.01047 10.1122 7.16992C10.0026 7.2808 9.94518 7.29136 9.83033 7.1752C7.6638 4.97879 5.49726 2.78766 3.33072 0.591248C2.64161 -0.105692 1.44088 -0.200727 0.663012 0.390614C0.360219 0.617647 0.18272 0.939714 0.073088 1.29874C0.0522057 1.37266 0.0626468 1.45714 0 1.51522C0 1.65777 0 1.80561 0 1.94816C0.0469851 2.00624 -0.00522057 2.08544 0.036544 2.14352Z" fill="#002046"/>
</svg>
