<svg width="41" height="12" viewBox="0 0 41 12" fill="none" xmlns="http://www.w3.org/2000/svg">
<path d="M2.28882e-05 7.86555C0.155128 8.2185 0.310238 8.57144 0.517048 8.92438C0.827259 9.42858 1.24088 9.7311 1.8096 9.78152C2.74025 9.88236 3.67089 10.0336 4.60154 10.1345C4.75665 10.1345 4.91175 10.1849 5.06686 10.1345C4.75665 9.12606 4.86005 8.11765 5.42878 7.21009C6.15261 6.05043 7.23836 5.44539 8.58262 5.44539C9.97859 5.44539 11.0643 6.05043 11.7365 7.21009C12.3052 8.16807 12.4086 9.17648 12.0467 10.2353C11.9433 10.5378 11.9433 10.5882 12.3052 10.5882C14.942 10.5882 17.5788 10.5882 20.2157 10.5882C23.5763 10.5882 26.8853 10.5882 30.2459 10.5882C30.6078 10.5882 30.6595 10.4874 30.5044 10.1849C29.5738 7.71429 31.7453 5.09244 34.3821 5.39497C36.7604 5.69749 38.3115 8.11765 37.4326 10.2857C37.4326 10.3361 37.3809 10.3866 37.3809 10.5378C38.1047 10.4874 38.7768 10.3866 39.449 10.3361C39.6041 10.3361 39.8109 10.2857 39.966 10.2857C40.3796 10.2353 40.7415 9.9832 40.8449 9.57984C41.2068 8.2185 41.0517 6.90757 40.1211 5.79833C39.449 4.9916 38.5183 4.63866 37.536 4.38656C35.2611 3.78152 32.8828 3.479 30.5044 3.37816C29.8323 3.32774 29.1085 3.32774 28.4363 3.32774C28.2295 3.32774 28.0227 3.27732 27.8159 3.17648C26.5234 2.57144 25.2308 1.91597 23.9382 1.36135C21.6116 0.352948 19.1816 -0.0504133 16.6999 0.0504271C12.9773 0.100847 9.46156 0.90757 6.10091 2.4706C5.42878 2.77312 4.75665 2.92438 4.03281 2.92438C3.36068 2.92438 2.74025 3.02522 2.06812 3.07564C1.7062 3.12606 1.39599 3.32774 1.29258 3.63026C0.930664 4.53782 0.620453 5.44538 0.155132 6.25211C0.103428 6.35295 0.103428 6.45379 0.103428 6.55463C0.0517273 6.70589 0.155132 6.85715 0.0517273 6.95799C2.67029e-05 7.31093 2.28882e-05 7.61345 2.28882e-05 7.86555Z" fill="#002046"/>
<path d="M30.918 8.97479C30.8663 10.5882 32.2623 11.9496 33.9685 12C35.623 12.0504 37.0706 10.6891 37.0706 9.07563C37.1223 7.41176 35.7264 6.05042 34.0202 6C32.314 6 30.9697 7.31092 30.918 8.97479Z" fill="#002046"/>
<path d="M11.6331 9.02522C11.6331 7.36135 10.1854 6.00001 8.53091 6.05043C6.82474 6.10085 5.48048 7.41177 5.53218 9.07564C5.53218 10.6891 6.92814 12 8.58262 12C10.2371 12 11.6331 10.6387 11.6331 9.02522Z" fill="#002046"/>
<path d="M17.2686 3.32777C19.4918 3.32777 21.715 3.32777 23.9382 3.32777C24.0416 3.32777 24.2484 3.42861 24.3001 3.27735C24.3518 3.02525 24.4553 2.82357 24.5587 2.62189C24.5587 2.62189 24.4035 2.52105 24.3518 2.47063C22.9042 1.71433 21.3531 1.26054 19.7503 1.00844C16.9584 0.605082 14.2182 0.806763 11.478 1.61349C10.8575 1.81517 10.2888 2.06727 9.72007 2.31937C9.46156 2.42021 9.51326 2.52105 9.66837 2.67231C9.82347 2.82357 9.92688 2.92441 10.0303 3.07567C10.1337 3.27735 10.3405 3.32777 10.5473 3.32777C12.7705 3.32777 14.9937 3.32777 17.2686 3.32777Z" fill="#FEFEFE"/>
<path d="M35.5196 10.1345C35.5713 10.0337 35.623 9.98324 35.623 9.93282C35.7264 9.73114 35.9332 9.47903 35.8298 9.32777C35.7264 9.12609 35.3645 9.27735 35.106 9.27735C34.8991 9.27735 34.7957 9.42861 34.9508 9.6303C35.1577 9.78156 35.3128 9.98324 35.5196 10.1345Z" fill="#F9F9F9"/>
<path d="M35.1577 7.51263C35.0542 7.46221 35.0025 7.41179 34.9508 7.36137C34.744 7.26053 34.4855 7.05884 34.2787 7.15969C34.1236 7.26053 34.227 7.61347 34.227 7.81515C34.227 7.91599 34.2787 7.96641 34.3821 8.01683C34.4855 8.06725 34.5372 8.01683 34.6406 7.96641C34.7957 7.86557 35.0025 7.71431 35.1577 7.51263Z" fill="#F9F9F9"/>
<path d="M32.7793 7.51256C32.9861 7.66382 33.1412 7.81508 33.2963 7.96634C33.348 8.01676 33.3997 8.1176 33.5032 8.06718C33.6066 8.06718 33.71 8.01676 33.71 7.91592C33.71 7.66382 33.71 7.41172 33.71 7.15962C33.71 7.1092 33.5549 7.15962 33.4514 7.15962C33.2446 7.26046 33.0378 7.3613 32.7793 7.51256Z" fill="#FAFAFA"/>
<path d="M35.5196 7.8656C35.3644 8.06728 35.2093 8.21854 35.0542 8.3698C35.0025 8.42022 34.8991 8.52106 34.9508 8.6219C35.0025 8.72274 35.1059 8.77316 35.2093 8.77316C35.4161 8.77316 35.6747 8.77316 35.8815 8.77316C35.8298 8.42022 35.7264 8.16812 35.5196 7.8656Z" fill="#FAFAFA"/>
<path d="M32.5208 8.77308C32.7276 8.72266 32.9861 8.87392 33.0378 8.5714C33.0378 8.52098 32.5208 7.91594 32.4691 7.96636C32.2106 8.11762 32.1072 8.42014 32.1072 8.67224C32.1072 8.92434 32.4174 8.67224 32.5208 8.77308Z" fill="#F9F9F9"/>
<path d="M32.4691 10.1345C32.6242 9.98323 32.7793 9.83197 32.9344 9.68071C32.9861 9.63029 33.0896 9.57986 33.0378 9.47902C33.0378 9.37818 32.9861 9.27734 32.8827 9.27734C32.6242 9.27734 32.3657 9.27734 32.1072 9.27734C32.0555 9.27734 32.1072 9.4286 32.1072 9.52944C32.2106 9.78155 32.314 9.93281 32.4691 10.1345Z" fill="#F9F9F9"/>
<path d="M35.1577 10.437C34.9508 10.2857 34.7957 10.1344 34.6406 9.98318C34.4855 9.83192 34.3304 9.88234 34.2787 10.0336C34.227 10.2857 34.227 10.5378 34.2787 10.7899C34.2787 10.8907 34.3821 10.8403 34.4855 10.8403C34.6923 10.7395 34.8991 10.6891 35.1577 10.437Z" fill="#F8F8F8"/>
<path d="M32.831 10.4874C32.9344 10.5378 32.9861 10.5882 33.0378 10.6386C33.2446 10.7395 33.5032 10.9411 33.6583 10.8403C33.8651 10.7395 33.71 10.3865 33.71 10.1344C33.71 9.93274 33.5549 9.88232 33.3481 9.98316C33.1929 10.1344 33.0378 10.2857 32.831 10.4874Z" fill="#FAFAFA"/>
<path d="M8.32412 7.21008C7.9622 7.21008 7.70369 7.36134 7.39348 7.61344C7.60029 7.7647 7.75539 7.91597 7.9622 8.06723C8.01391 8.11765 8.11731 8.16807 8.22072 8.11765C8.32412 8.06723 8.37582 8.01681 8.37582 7.86555C8.32412 7.61344 8.32412 7.41176 8.32412 7.21008Z" fill="#F6F6F6"/>
<path d="M7.08326 9.27729C6.97985 9.37813 6.72134 9.12603 6.72134 9.42855C6.72134 9.68065 6.82475 9.98317 7.08326 10.1344C7.13496 10.1848 7.65198 9.63023 7.65198 9.52939C7.54857 9.12603 7.29006 9.32771 7.08326 9.27729Z" fill="#F7F7F7"/>
<path d="M9.72009 10.4874C9.51328 10.3361 9.35818 10.1849 9.20307 10.0336C9.04796 9.88236 8.89285 9.9832 8.89285 10.0336C8.78945 10.2857 8.84115 10.5378 8.84115 10.7899C8.84115 10.8908 8.99626 10.8403 9.04796 10.8403C9.25477 10.7395 9.51328 10.6891 9.72009 10.4874Z" fill="#F5F5F5"/>
<path d="M7.39347 10.4874C7.54858 10.5882 7.60028 10.6386 7.65198 10.6386C7.85879 10.7395 8.11731 10.9411 8.27241 10.7899C8.42752 10.6386 8.32411 10.3361 8.32411 10.084C8.32411 9.93273 8.16901 9.83189 7.9622 9.98315C7.75539 10.1344 7.60028 10.2857 7.39347 10.4874Z" fill="#F5F5F5"/>
<path d="M9.72009 7.56302C9.40988 7.31092 9.15136 7.21008 8.78945 7.21008C8.78945 7.46218 8.78945 7.66386 8.78945 7.91597C8.78945 8.01681 8.84115 8.06723 8.94455 8.11765C9.04796 8.16807 9.15136 8.11765 9.20307 8.06723C9.40988 7.86555 9.56498 7.71428 9.72009 7.56302Z" fill="#F6F6F6"/>
<path d="M10.4439 9.27734C10.1854 9.27734 9.97859 9.27734 9.72007 9.27734C9.51326 9.27734 9.46156 9.4286 9.51326 9.52945C9.61667 9.78155 9.82348 9.93281 10.0303 10.0841C10.082 10.1345 10.1337 10.0336 10.1854 9.98323C10.3405 9.78155 10.4439 9.57987 10.4439 9.27734Z" fill="#FBFBFB"/>
<path d="M10.0303 8.77309C10.1337 8.67225 10.3922 8.87393 10.3922 8.62183C10.3922 8.36973 10.2888 8.11763 10.082 7.96637C10.0303 7.91595 9.51327 8.47057 9.51327 8.57141C9.56497 8.87393 9.82349 8.72267 10.0303 8.77309Z" fill="#FBFBFB"/>
<path d="M7.13495 8.77309C7.34176 8.72267 7.60028 8.87393 7.65198 8.57141C7.65198 8.47057 7.13496 7.91595 7.08325 7.96637C6.87644 8.11763 6.72134 8.36973 6.77304 8.62183C6.72134 8.92435 7.03155 8.67225 7.13495 8.77309Z" fill="#FCFCFC"/>
</svg>
