<svg width="51" height="51" viewBox="0 0 51 51" fill="none" xmlns="http://www.w3.org/2000/svg">
<path d="M3.37563 29.6093C2.96141 29.6093 2.65828 29.6203 2.35653 29.6079C1.02883 29.5503 -0.0135821 28.4426 0.000133809 27.1128C0.0138498 25.8103 1.06312 24.7163 2.37162 24.6875C3.51965 24.6615 4.66767 24.6793 5.81569 24.6848C5.96794 24.6848 6.13802 24.6875 6.26832 24.752C6.7621 24.9932 6.99801 24.8164 7.21609 24.3393C7.57682 23.5482 8.01162 22.7901 8.43956 22.0306C8.59455 21.7564 8.56026 21.622 8.3024 21.4219C5.64425 19.364 4.4825 16.6358 5.08738 13.34C5.70734 9.96195 7.80314 7.75469 11.1265 6.84848C16.0807 5.49945 21.1254 9.21889 21.3641 14.3532C21.3819 14.7384 21.4752 14.8289 21.851 14.8207C23.0292 14.7946 24.2074 14.8111 25.4912 14.8111C23.2089 12.9328 22.0801 10.5953 22.2323 7.7259C22.3462 5.57211 23.2144 3.71719 24.7972 2.24066C28.0904 -0.830307 33.1502 -0.724743 36.2898 2.43534C39.4486 5.61598 39.7243 11.4165 35.3406 14.8741C37.3349 15.2621 38.4665 16.5577 39.2291 18.3166C39.8669 19.7877 40.6213 21.208 41.2961 22.664C41.4346 22.9628 41.5951 23.0424 41.9092 23.041C44.5646 23.0273 47.2214 23.0328 49.8768 23.0341C50.7464 23.0341 50.9988 23.2905 50.9988 24.1693C50.9988 32.7337 50.9988 41.2982 50.9988 49.8626C50.9988 50.7345 50.7423 50.9909 49.8672 50.9909C42.9448 50.9909 36.0223 50.9909 29.0985 50.9909C28.2207 50.9909 27.9669 50.7373 27.9656 49.8653C27.9642 48.7178 27.956 47.5703 27.9711 46.4228C27.9752 46.1404 27.9066 46.0499 27.609 46.0513C22.914 46.0609 18.219 46.0609 13.5241 46.0527C13.2415 46.0527 13.1496 46.1157 13.1496 46.4132C13.1496 47.0617 13.2223 47.7143 13.0838 48.3586C12.7518 49.8969 11.4763 50.9649 9.90579 50.9868C8.7756 51.0019 7.64403 51.006 6.51247 50.9854C4.74311 50.9539 3.32625 49.539 3.29196 47.7732C3.27276 46.7464 3.28099 45.7182 3.29059 44.6899C3.29333 44.4363 3.23024 44.2416 3.05879 44.0442C2.11925 42.9721 1.65428 41.7108 1.64468 40.2891C1.63233 38.3876 1.66662 36.4861 1.6337 34.5859C1.60353 32.7529 2.08907 31.1119 3.37563 29.6093Z" fill="#AC8C3A"/>
<path d="M17.3723 44.4146C14.134 44.4146 10.8957 44.4159 7.65734 44.4146C5.02113 44.4132 3.29018 42.6789 3.28881 40.0384C3.28744 38.1026 3.28058 36.1682 3.29018 34.2324C3.29978 32.1746 4.19818 30.624 5.99497 29.6095C6.27752 29.4504 6.45994 29.2297 6.60944 28.9487C7.68889 26.9114 8.78891 24.8851 9.85738 22.8424C10.0288 22.5147 10.1715 22.4517 10.513 22.5929C10.9533 22.7752 11.4237 22.9013 11.9024 22.9315C12.2714 22.9548 12.222 23.1015 12.0972 23.3428C11.7653 23.9789 11.4402 24.6178 11.1247 25.2621C9.8903 27.7902 11.5211 30.4307 14.3315 30.4362C18.7 30.4458 23.0699 30.4444 27.4385 30.4293C27.8445 30.4279 28.0036 30.4896 27.9775 30.9421C27.9336 31.7098 27.935 32.4844 27.9775 33.2535C28.0022 33.6881 27.8321 33.7361 27.4618 33.7361C23.3662 33.7251 19.272 33.7292 15.1764 33.7292C14.0942 33.7292 13.8035 34.1419 14.1491 35.1783C14.636 36.6357 15.1353 38.0889 15.603 39.5517C15.7758 40.0933 16.0981 40.314 16.6591 40.3113C20.2568 40.3003 23.8559 40.314 27.4536 40.2948C27.887 40.2921 27.9899 40.4017 27.9761 40.824C27.9432 41.8851 27.9501 42.9476 27.9734 44.0088C27.9816 44.3529 27.876 44.4255 27.5482 44.4242C24.1563 44.4091 20.7643 44.4146 17.3723 44.4146Z" fill="#FEFEFE"/>
<path d="M29.6112 37.014C29.6112 33.0574 29.6167 29.0994 29.6016 25.1428C29.6002 24.7603 29.6894 24.6684 30.0748 24.6698C36.3471 24.6835 42.618 24.6835 48.8903 24.6698C49.2744 24.6684 49.3635 24.7576 49.3635 25.1428C49.3512 33.0574 49.3512 40.9706 49.3635 48.8852C49.3635 49.2677 49.2757 49.3596 48.8917 49.3582C42.6194 49.3445 36.3485 49.3445 30.0761 49.3582C29.6935 49.3596 29.6016 49.2705 29.6029 48.8852C29.6167 44.9272 29.6112 40.9706 29.6112 37.014Z" fill="#FEFEFE"/>
<path d="M30.4573 1.65671C34.103 1.6759 37.0245 4.63034 37.0108 8.2826C36.9985 11.9047 34.0125 14.8345 30.3558 14.8111C26.7636 14.7878 23.8257 11.7936 23.8517 8.18252C23.8792 4.56727 26.8446 1.63752 30.4573 1.65671Z" fill="#FEFEFE"/>
<path d="M6.57916 14.7933C6.59425 11.1699 9.54317 8.22641 13.1505 8.23464C16.8222 8.24286 19.7574 11.2042 19.7369 14.8797C19.7163 18.4799 16.7468 21.4 13.1148 21.3904C9.52123 21.3795 6.56407 18.3962 6.57916 14.7933Z" fill="#FEFEFE"/>
<path d="M35.3674 23.0343C33.2154 23.0343 31.1443 23.0329 29.0732 23.0343C28.2283 23.0343 27.9663 23.2934 27.9649 24.1297C27.9636 25.5335 27.954 26.936 27.9732 28.3399C27.9773 28.6799 27.9211 28.8047 27.5411 28.8006C25.5043 28.7786 23.4675 28.791 21.4348 28.791C21.3237 28.636 21.4718 28.5634 21.5281 28.4798C23.4702 25.6665 25.4193 22.8588 27.3587 20.0428C27.511 19.8207 27.6687 19.7357 27.9403 19.7385C29.8235 19.7522 31.7067 19.7522 33.5899 19.7385C33.882 19.7371 34.037 19.8098 34.1508 20.099C34.5294 21.0642 34.9423 22.017 35.3674 23.0343Z" fill="#FEFEFE"/>
<path d="M15.9502 35.3689C16.9364 35.3689 17.8759 35.3689 18.8155 35.3689C21.7095 35.3689 24.605 35.3771 27.499 35.3593C27.8762 35.3566 27.9928 35.4361 27.9763 35.8296C27.942 36.6672 27.9571 37.5076 27.9708 38.3453C27.975 38.5866 27.9119 38.6634 27.6609 38.6634C24.2182 38.6551 20.7755 38.6579 17.3328 38.6592C17.1737 38.6592 17.0365 38.6647 16.972 38.4646C16.6415 37.4432 16.3 36.4273 15.9502 35.3689Z" fill="#FEFEFE"/>
<path d="M20.707 18.1001C20.8003 17.8478 20.8703 17.6751 20.9279 17.4982C21.0376 17.1624 21.0444 16.662 21.2721 16.5262C21.5657 16.3507 22.032 16.4577 22.4243 16.4577C26.3799 16.4549 30.337 16.4645 34.2927 16.4522C35.7863 16.4481 36.8288 17.102 37.4597 18.4552C38.1016 19.8316 38.7709 21.1957 39.4279 22.5653C39.4924 22.6997 39.5473 22.8382 39.6323 23.0342C38.8285 23.0342 38.0824 23.026 37.3362 23.0383C37.088 23.0424 37.0784 22.8546 37.018 22.7107C36.468 21.4055 35.9125 20.1031 35.3845 18.7897C35.1828 18.2893 34.8564 18.0932 34.3242 18.0946C29.9914 18.1056 25.6585 18.1001 21.3256 18.1001C21.1391 18.1001 20.9525 18.1001 20.707 18.1001Z" fill="#FEFEFE"/>
<path d="M21.4581 19.7453C19.8314 22.0938 18.2664 24.3545 16.7014 26.6139C16.2639 27.2459 15.8181 27.8752 15.3929 28.5154C15.2544 28.7252 15.1007 28.8156 14.8484 28.7937C14.4918 28.7622 14.1214 28.8102 13.7758 28.7334C12.6319 28.4825 12.0133 27.2925 12.4947 26.2259C12.9583 25.199 13.4905 24.2051 13.9897 23.1933C14.0734 23.0247 14.19 22.9548 14.382 22.9246C16.4271 22.6093 18.1196 21.6537 19.446 20.0702C19.6572 19.8194 19.8615 19.7138 20.1811 19.7357C20.5707 19.7659 20.9629 19.7453 21.4581 19.7453Z" fill="#FEFEFE"/>
<path d="M4.93219 45.4771C6.29967 46.1804 7.69321 46.0583 9.07166 46.0625C9.77255 46.0638 10.4734 46.0748 11.1743 46.057C11.4404 46.0501 11.5309 46.1242 11.5172 46.397C11.4953 46.8576 11.5268 47.321 11.5049 47.7803C11.4665 48.6234 10.8026 49.3171 9.96183 49.3377C8.80009 49.3665 7.6356 49.3679 6.47386 49.3377C5.63582 49.3158 4.96785 48.6166 4.93631 47.7762C4.91436 47.2127 4.93082 46.6479 4.92945 46.0844C4.93219 45.913 4.93219 45.743 4.93219 45.4771Z" fill="#FEFEFE"/>
<path d="M17.2012 28.791C17.8156 27.8999 18.3739 27.0869 18.9349 26.2766C20.3668 24.2106 21.8029 22.1473 23.2252 20.0744C23.3871 19.8386 23.5448 19.7234 23.8424 19.7385C24.3842 19.7645 24.9274 19.7467 25.4733 19.7467C25.5007 19.9606 25.3539 20.0538 25.2744 20.1703C23.3692 22.9287 21.4559 25.6803 19.5562 28.4428C19.3834 28.6937 19.2133 28.817 18.8978 28.7992C18.3711 28.7704 17.839 28.791 17.2012 28.791Z" fill="#FEFEFE"/>
<path d="M4.08833 26.3245C4.59994 26.3245 5.11292 26.3314 5.62452 26.3218C5.98251 26.3149 6.08126 26.3465 5.9249 26.7728C5.56966 27.7407 4.98261 28.1575 3.94295 27.982C3.47797 27.9039 2.98969 27.9793 2.51237 27.9656C1.99117 27.9505 1.64827 27.6174 1.64552 27.1512C1.64278 26.6837 1.98431 26.3437 2.50277 26.3286C3.03083 26.3136 3.56027 26.3245 4.08833 26.3245Z" fill="#FEFEFE"/>
<path d="M12.335 37.036C12.3295 38.8251 10.8537 40.2975 9.06101 40.3017C7.23816 40.3058 5.75821 38.8347 5.75684 37.0154C5.75547 35.1962 7.23679 33.7183 9.05552 33.7251C10.8756 33.732 12.3405 35.2113 12.335 37.036Z" fill="#AC8C3A"/>
<path d="M47.7077 37.0168C47.7077 40.2016 47.7077 43.3863 47.7077 46.5711C47.7077 47.4471 47.4526 47.7035 46.583 47.7035C41.8551 47.7035 37.1286 47.7035 32.4007 47.7035C31.5147 47.7035 31.2568 47.454 31.2568 46.5903C31.2568 40.2043 31.2568 33.817 31.2568 27.431C31.2568 26.5879 31.5174 26.3246 32.3555 26.3246C37.1177 26.3233 41.8785 26.3233 46.6406 26.3246C47.4389 26.3246 47.7077 26.6002 47.7077 27.4104C47.7077 30.613 47.7077 33.8142 47.7077 37.0168Z" fill="#AC8C3A"/>
<path d="M32.0496 6.58819C31.6477 6.57997 31.2376 6.69924 31.0579 6.10287C30.9578 5.77109 30.5339 5.68609 30.1691 5.81908C29.7878 5.95755 29.5889 6.24682 29.6205 6.65126C29.6506 7.05569 29.8975 7.30795 30.2884 7.39432C30.5367 7.44916 30.8014 7.43956 31.0469 7.50126C32.0304 7.74803 32.7422 8.55142 32.8835 9.55085C33.0179 10.4996 32.5543 11.5292 31.6806 11.9706C31.2897 12.168 31.2074 12.4052 31.2595 12.763C31.3103 13.1113 31.1621 13.2182 30.8384 13.1716C30.7205 13.1551 30.5984 13.1716 30.4791 13.1688C30.2075 13.162 29.8783 13.2429 29.6822 13.1167C29.4888 12.9934 29.6122 12.6424 29.6191 12.3942C29.6259 12.1502 29.4463 12.131 29.305 12.0556C28.5575 11.658 28.1378 11.0288 27.9841 10.2062C27.943 9.98408 27.9732 9.84972 28.2544 9.8744C28.5095 9.89771 28.7687 9.89085 29.0238 9.87714C29.3557 9.85932 29.6054 9.8648 29.7453 10.2843C29.8687 10.6545 30.2596 10.7806 30.6505 10.6668C31.0332 10.5558 31.2581 10.2775 31.2485 9.86892C31.2389 9.43843 30.9921 9.16972 30.5792 9.07513C30.3309 9.01892 30.0676 9.02989 29.8207 8.96819C28.8387 8.72416 28.1254 7.9194 27.9828 6.91997C27.8456 5.95618 28.3353 4.9115 29.2254 4.46868C29.5807 4.29319 29.6602 4.08343 29.6067 3.75989C29.5423 3.36505 29.7014 3.2348 30.0772 3.29924C30.1773 3.31569 30.2829 3.29924 30.3844 3.30198C30.656 3.30884 30.9852 3.22795 31.1827 3.35271C31.3775 3.4761 31.254 3.82706 31.2472 4.07521C31.2403 4.31787 31.4186 4.33843 31.5599 4.41521C32.2484 4.78537 32.664 5.35158 32.8506 6.11247C32.9425 6.48948 32.8807 6.66085 32.461 6.59505C32.3266 6.57174 32.1867 6.58819 32.0496 6.58819Z" fill="#AC8C3A"/>
<path d="M14.706 13.1675C14.3603 13.2113 13.9776 13.2346 13.7719 12.6657C13.6526 12.3353 13.237 12.2599 12.8749 12.4025C12.4991 12.5505 12.3043 12.8425 12.3454 13.247C12.3866 13.6487 12.6349 13.8968 13.0299 13.9763C13.2795 14.0271 13.5429 14.0202 13.7884 14.0833C14.7677 14.3328 15.5015 15.1458 15.6044 16.1466C15.7113 17.1721 15.3314 18.0125 14.433 18.5321C14.0654 18.7446 13.9077 18.9612 13.9818 19.3601C14.0394 19.6727 13.92 19.8002 13.5977 19.7508C13.4468 19.7275 13.2905 19.7467 13.1355 19.7467C12.4003 19.7467 12.3811 19.7481 12.3468 19.0037C12.3345 18.7446 12.1726 18.7089 12.0149 18.6239C11.3072 18.2428 10.8943 17.645 10.7242 16.8663C10.6639 16.5908 10.6762 16.4029 11.0493 16.4509C11.3017 16.4825 11.5636 16.4715 11.8188 16.4537C12.1274 16.4317 12.3304 16.4729 12.4538 16.8321C12.5841 17.2118 12.9544 17.3489 13.344 17.2516C13.7513 17.1501 13.99 16.8581 13.9735 16.4262C13.9557 15.9971 13.702 15.7339 13.2864 15.6475C13.0367 15.5954 12.7734 15.6023 12.5279 15.5406C11.5527 15.2938 10.8161 14.4767 10.7119 13.4773C10.6049 12.4504 10.9862 11.6114 11.8846 11.0918C12.2522 10.8793 12.4099 10.6641 12.3372 10.2651C12.2796 9.95117 12.4003 9.82504 12.7226 9.87439C12.8735 9.8977 13.0299 9.8785 13.1849 9.8785C13.92 9.8785 13.9351 9.87713 13.9749 10.6216C13.9872 10.8464 14.1066 10.9026 14.2588 10.9808C14.9364 11.3276 15.3492 11.8719 15.5577 12.6081C15.6867 13.0619 15.6112 13.2511 15.1147 13.1688C15.0132 13.1524 14.9076 13.1675 14.706 13.1675Z" fill="#AC8C3A"/>
<path d="M10.6887 37.0141C10.6914 37.8997 9.95625 38.6469 9.07157 38.6565C8.15535 38.6661 7.40234 37.9258 7.40234 37.0127C7.40234 36.1216 8.13066 35.3812 9.01945 35.3703C9.93431 35.3579 10.6859 36.0983 10.6887 37.0141Z" fill="#FEFEFE"/>
<path d="M39.4825 31.2574C37.4265 31.2574 35.3705 31.2491 33.3145 31.2656C32.9812 31.2683 32.8824 31.1847 32.8934 30.8461C32.9194 30.007 32.914 29.168 32.8948 28.329C32.8879 28.0383 32.9716 27.9615 33.2623 27.9615C37.4087 27.9711 41.555 27.9711 45.7013 27.9615C45.9907 27.9615 46.0772 28.0356 46.0703 28.3276C46.0511 29.1666 46.047 30.007 46.0717 30.8447C46.0813 31.1806 45.9866 31.267 45.652 31.2656C43.5946 31.2491 41.5385 31.2574 39.4825 31.2574Z" fill="#FEFEFE"/>
<path d="M42.7717 41.896C42.7717 40.6635 42.7813 39.4296 42.7648 38.1971C42.7607 37.9065 42.8416 37.8229 43.1324 37.8297C43.9883 37.8489 44.8455 37.8489 45.7028 37.8297C45.9949 37.8229 46.0703 37.9079 46.069 38.1971C46.058 40.6978 46.058 43.1984 46.069 45.6991C46.0703 45.9897 45.9922 46.0734 45.7014 46.0665C44.8455 46.0473 43.9883 46.0473 43.131 46.0665C42.8389 46.0734 42.7607 45.9884 42.7648 45.6991C42.7813 44.4309 42.7717 43.1628 42.7717 41.896Z" fill="#FEFEFE"/>
<path d="M36.1671 34.5957C36.141 35.118 36.4235 35.8186 36.0875 36.1147C35.7954 36.3711 35.1096 36.1997 34.5993 36.186C34.0411 36.1709 33.2936 36.4314 32.9808 36.0832C32.7065 35.7774 32.8931 35.0412 32.9054 34.497C32.9177 33.9732 32.6777 33.2727 33.0055 32.9779C33.2922 32.7202 33.9821 32.8929 34.4923 32.9066C35.0506 32.9217 35.7995 32.6612 36.1108 33.0095C36.3824 33.3138 36.1671 34.0514 36.1671 34.5957Z" fill="#FEFEFE"/>
<path d="M41.1271 34.5107C41.1271 34.9562 41.1148 35.4018 41.1312 35.846C41.1408 36.0955 41.0928 36.2052 40.802 36.1983C39.9283 36.1778 39.0546 36.1833 38.1809 36.1956C37.9313 36.1997 37.8216 36.1572 37.8284 35.8666C37.849 34.9933 37.8435 34.12 37.8312 33.2466C37.8271 32.9971 37.8696 32.8875 38.1604 32.8943C39.0341 32.9149 39.9078 32.9162 40.7815 32.8943C41.0969 32.8861 41.1449 33.0081 41.1326 33.2782C41.112 33.6881 41.1271 34.0994 41.1271 34.5107Z" fill="#FEFEFE"/>
<path d="M42.795 34.5449C42.795 34.0171 42.5865 33.3028 42.8498 33.0081C43.1516 32.6708 43.8772 32.919 44.4176 32.9053C44.9456 32.8929 45.6589 32.712 45.9551 32.9779C46.2925 33.2809 46.0443 34.0061 46.058 34.5463C46.0703 35.0741 46.2514 35.787 45.9853 36.0832C45.6822 36.4204 44.958 36.1723 44.4162 36.186C43.8881 36.1983 43.1763 36.3793 42.8786 36.1133C42.5385 35.8103 42.8155 35.0851 42.795 34.5449Z" fill="#FEFEFE"/>
<path d="M32.9236 39.4297C32.9511 38.9074 32.6671 38.2068 33.0046 37.9107C33.2981 37.6543 33.9825 37.8257 34.4941 37.8408C35.0523 37.8572 35.7999 37.5954 36.1126 37.9449C36.3869 38.252 36.199 38.9869 36.1867 39.5312C36.1743 40.0549 36.4157 40.7554 36.0865 41.0502C35.7985 41.3079 35.11 41.1352 34.5983 41.1201C34.0401 41.1037 33.2912 41.3655 32.9812 41.0159C32.7097 40.7116 32.9236 39.9754 32.9236 39.4297Z" fill="#FEFEFE"/>
<path d="M39.4826 37.8585C40.0107 37.8585 40.7253 37.6501 41.0202 37.9134C41.359 38.2136 41.1093 38.9402 41.1231 39.4804C41.1354 40.0082 41.3165 40.7211 41.0504 41.0172C40.7472 41.3545 40.023 41.1063 39.4813 41.1201C38.9532 41.1324 38.24 41.3134 37.9437 41.0474C37.6063 40.7444 37.8546 40.0205 37.8408 39.479C37.8285 38.9512 37.6474 38.2397 37.9135 37.9422C38.218 37.6022 38.9422 37.8791 39.4826 37.8585Z" fill="#FEFEFE"/>
<path d="M34.4995 42.7693C34.9617 42.7693 35.4253 42.783 35.8862 42.7638C36.1399 42.7529 36.2003 42.842 36.1962 43.0833C36.1824 43.973 36.1811 44.8642 36.1962 45.7539C36.2003 46.0075 36.118 46.0679 35.8766 46.0637C34.9864 46.05 34.0949 46.0487 33.2047 46.0637C32.951 46.0679 32.8906 45.9856 32.8947 45.7443C32.9084 44.8546 32.9098 43.9634 32.8947 43.0737C32.8906 42.82 32.9729 42.7542 33.2143 42.7638C33.6422 42.783 34.0702 42.7693 34.4995 42.7693Z" fill="#FEFEFE"/>
<path d="M41.1271 44.4213C41.1271 44.8491 41.1189 45.2782 41.1312 45.7059C41.1381 45.9417 41.1162 46.0747 40.8117 46.0665C39.9215 46.0432 39.03 46.0487 38.1398 46.0638C37.8806 46.0679 37.8298 45.9774 37.8326 45.7416C37.8449 44.8518 37.8476 43.9607 37.8312 43.0709C37.8271 42.8118 37.9176 42.7611 38.1535 42.7638C39.0437 42.7762 39.9352 42.7789 40.8254 42.7625C41.0846 42.7583 41.1408 42.8488 41.1312 43.0846C41.1148 43.5302 41.1271 43.9758 41.1271 44.4213Z" fill="#FEFEFE"/>
</svg>
