<svg width="14" height="14" viewBox="0 0 14 14" fill="none" xmlns="http://www.w3.org/2000/svg">
<g clip-path="url(#clip0_1_17025)">
<path d="M10.9294 14.0001C9.85766 13.9875 8.84877 13.7008 7.89953 13.2336C4.67242 11.6451 2.25693 9.23523 0.710095 5.9814C0.215066 4.94022 -0.0795417 3.83625 0.0188361 2.66636C0.118784 1.48024 0.65829 0.584511 1.79539 0.118856C2.44374 -0.146934 3.16902 0.0398524 3.58555 0.60544C4.10884 1.32014 4.62323 2.04635 5.11094 2.78722C5.55992 3.46739 5.38409 4.3537 4.73574 4.85337C4.55564 4.99431 4.36821 5.12565 4.17425 5.24682C4.03453 5.3321 4.01046 5.39018 4.11512 5.5372C4.91104 6.65477 5.83673 7.65462 6.84772 8.57808C7.37307 9.05874 7.92853 9.50542 8.51073 9.9154C8.6112 9.98604 8.65463 9.97662 8.72004 9.87773C8.85923 9.66479 9.00314 9.45393 9.16013 9.25407C9.6651 8.61052 10.551 8.44676 11.2297 8.89724C11.9576 9.38068 12.6735 9.88453 13.3799 10.3999C13.9597 10.8232 14.1491 11.5551 13.877 12.2207C13.471 13.2148 12.7085 13.7563 11.6703 13.9431C11.4251 13.9806 11.1774 13.9996 10.9294 14.0001Z" fill="white"/>
</g>
<defs>
<clipPath id="clip0_1_17025">
<rect width="14" height="14" fill="white"/>
</clipPath>
</defs>
</svg>
