<svg width="14" height="14" viewBox="0 0 14 14" fill="none" xmlns="http://www.w3.org/2000/svg">
<path d="M10.9294 14.0001C9.85769 13.9876 8.8488 13.7008 7.89956 13.2336C4.67245 11.6452 2.25696 9.23526 0.710126 5.98143C0.215097 4.94025 -0.0795112 3.83628 0.0188666 2.66639C0.118814 1.48027 0.65832 0.584541 1.79542 0.118886C2.44377 -0.146903 3.16905 0.039883 3.58559 0.605471C4.10887 1.32017 4.62326 2.04638 5.11097 2.78725C5.55995 3.46742 5.38412 4.35373 4.73577 4.8534C4.55567 4.99434 4.36824 5.12568 4.17428 5.24685C4.03456 5.33213 4.01049 5.39021 4.11515 5.53723C4.91107 6.6548 5.83676 7.65465 6.84775 8.57811C7.3731 9.05877 7.92856 9.50545 8.51076 9.91543C8.61123 9.98607 8.65466 9.97665 8.72007 9.87776C8.85927 9.66482 9.00317 9.45396 9.16016 9.2541C9.66513 8.61055 10.551 8.44679 11.2297 8.89727C11.9576 9.38071 12.6735 9.88457 13.3799 10.3999C13.9597 10.8232 14.1492 11.5552 13.8771 12.2207C13.471 13.2148 12.7086 13.7563 11.6704 13.9431C11.4251 13.9806 11.1775 13.9997 10.9294 14.0001Z" fill="#002046"/>
</svg>
