<svg width="183" height="169" viewBox="0 0 183 169" fill="none" xmlns="http://www.w3.org/2000/svg">
<path d="M145.245 47.7311L145.863 50.6021L148.682 55.0591L145.821 100.352L161.114 96.9992L161.094 53.6939L161.876 51.4252L165.56 43.6556L166.713 40.6441L164.531 34.5408C159.53 35.5446 149.609 37.5322 146.336 38.1546L145.245 47.7311Z" fill="#937051"/>
<path d="M37.1027 57.1269C36.9792 56.6049 36.7322 56.1632 36.1559 55.8821C35.6825 55.6412 34.571 55.2598 34.0359 55.2196C32.9244 55.1594 32.4304 56.0829 31.3601 56.4242C30.3927 56.7454 30.4339 56.1632 29.6518 55.7014C28.2521 54.8382 26.8937 55.2397 25.9469 56.5246C25.9469 56.5246 23.1476 54.4165 20.9864 57.408C20.9864 57.408 18.784 55.7617 17.158 58.6326C16.417 59.9175 17.1374 63.17 17.3227 64.5753C17.7961 68.0887 18.64 71.7226 19.8338 75.0754C20.0808 75.7379 21.3157 77.2838 21.2951 77.9463C21.1305 81.2991 20.9452 84.672 20.7806 88.0248C20.6982 89.6711 20.266 91.6587 20.513 93.305C20.6365 94.1281 20.3895 93.9474 21.3569 94.4493C23.1064 95.3728 25.3705 95.7543 27.3259 95.8346C29.0549 95.8948 30.8044 95.6941 32.451 95.2122C33.3361 94.9512 34.3035 94.5095 34.5299 93.6262C34.6328 93.1845 34.5505 92.7428 34.4681 92.3011C33.8506 88.2256 32.6363 84.2906 31.7512 80.1949L36.6499 73.1681V73.148C36.7322 70.4377 36.8146 67.7273 36.8763 65.017C36.9381 63.2302 36.9792 61.4434 37.041 59.6565C37.1027 58.8736 37.2674 57.9099 37.1027 57.1269Z" fill="#D6B492"/>
<path d="M42.9692 135.747L34.3244 86.9006L36.4445 86.7801V83.4072H15.7382L16.9731 88.0048L18.6815 87.9044L11.7451 138.417L14.3591 167.669H50.379L42.9692 135.747Z" fill="#F1CC76"/>
<path d="M169.224 168.07L137.465 167.669L144.669 65.4387L162.699 66.3422L169.224 168.07Z" fill="#C1E8D0"/>
<path d="M137.444 167.669L137.238 134.502V111.876L138.535 98.3443C138.535 98.3443 143.022 88.1253 143.31 87.8442C143.598 87.5632 160.414 85.3547 160.414 85.3547L165.19 87.0211L171.138 103.865L173.032 120.429L173.649 134.342L174.411 147.632L173.114 167.669H137.444Z" fill="#C1E8D0"/>
<path d="M145.678 85.957H146.707L147.53 67.6873H146.089L145.678 85.957Z" fill="#A3D3B4"/>
<path d="M148.765 85.957H149.794L150.823 67.6873L149.382 68.0888L148.765 85.957Z" fill="#A3D3B4"/>
<path d="M153.293 67.6873L152.47 85.957L153.252 86.4188L154.734 67.6873H153.293Z" fill="#A3D3B4"/>
<path d="M154.734 86.238L155.352 85.957L157.616 68.2896H156.793L154.734 86.238Z" fill="#A3D3B4"/>
<path d="M158.645 85.3547H159.468L160.291 68.2896H159.344L158.645 85.3547Z" fill="#A3D3B4"/>
<path d="M162.35 68.2896H161.526V84.7524H162.35V68.2896Z" fill="#A3D3B4"/>
<path d="M108.752 90.2533L108.134 85.997L98.6659 83.6882L98.1514 86.76L102.144 89.7112L98.1308 90.3738L87.0161 88.3661V92.9837L90.1652 101.858L84.752 163.453H103.482L102.247 102.119L109.266 93.9072L108.752 90.2533Z" fill="#ECC192"/>
<path d="M108.443 168.07L106.241 116.413L83.7647 113.542L74.3584 168.07H108.443Z" fill="#DCEFFA"/>
<path d="M79.2362 163.995C79.9523 163.995 80.5329 163.429 80.5329 162.73C80.5329 162.032 79.9523 161.465 79.2362 161.465C78.52 161.465 77.9395 162.032 77.9395 162.73C77.9395 163.429 78.52 163.995 79.2362 163.995Z" fill="white"/>
<path d="M86.2967 157.49C87.0129 157.49 87.5934 156.924 87.5934 156.225C87.5934 155.527 87.0129 154.96 86.2967 154.96C85.5806 154.96 85 155.527 85 156.225C85 156.924 85.5806 157.49 86.2967 157.49Z" fill="white"/>
<path d="M97.1432 149.64C97.1432 148.937 96.5669 148.375 95.8465 148.375C95.1261 148.375 94.5498 148.937 94.5498 149.64C94.5498 150.343 95.1261 150.905 95.8465 150.905C96.5463 150.905 97.1432 150.343 97.1432 149.64Z" fill="white"/>
<path d="M84.9997 146.348C84.9997 145.645 84.4234 145.083 83.703 145.083C82.9826 145.083 82.4062 145.645 82.4062 146.348C82.4062 147.05 82.9826 147.612 83.703 147.612C84.4234 147.612 84.9997 147.05 84.9997 146.348Z" fill="white"/>
<path d="M93.2537 139.662C93.9699 139.662 94.5504 139.096 94.5504 138.397C94.5504 137.699 93.9699 137.133 93.2537 137.133C92.5376 137.133 91.957 137.699 91.957 138.397C91.957 139.096 92.5376 139.662 93.2537 139.662Z" fill="white"/>
<path d="M102.701 165.621C103.417 165.621 103.998 165.055 103.998 164.356C103.998 163.658 103.417 163.092 102.701 163.092C101.985 163.092 101.404 163.658 101.404 164.356C101.404 165.055 101.985 165.621 102.701 165.621Z" fill="white"/>
<path d="M94.5291 162.248C95.2453 162.248 95.8259 161.682 95.8259 160.984C95.8259 160.285 95.2453 159.719 94.5291 159.719C93.813 159.719 93.2324 160.285 93.2324 160.984C93.2324 161.682 93.813 162.248 94.5291 162.248Z" fill="white"/>
<path d="M104.059 155.844C104.776 155.844 105.356 155.278 105.356 154.579C105.356 153.881 104.776 153.314 104.059 153.314C103.343 153.314 102.763 153.881 102.763 154.579C102.763 155.278 103.343 155.844 104.059 155.844Z" fill="white"/>
<path d="M104.265 143.236C104.982 143.236 105.562 142.669 105.562 141.971C105.562 141.272 104.982 140.706 104.265 140.706C103.549 140.706 102.969 141.272 102.969 141.971C102.969 142.669 103.549 143.236 104.265 143.236Z" fill="white"/>
<path d="M85.6999 132.475C85.6999 131.772 85.1235 131.21 84.4032 131.21C83.6828 131.21 83.1064 131.772 83.1064 132.475C83.1064 133.177 83.6828 133.74 84.4032 133.74C85.1235 133.74 85.6999 133.177 85.6999 132.475Z" fill="white"/>
<path d="M100.293 131.21C101.009 131.21 101.59 130.644 101.59 129.945C101.59 129.246 101.009 128.68 100.293 128.68C99.5767 128.68 98.9961 129.246 98.9961 129.945C98.9961 130.644 99.5767 131.21 100.293 131.21Z" fill="white"/>
<path d="M91.5448 125.388C92.2609 125.388 92.8415 124.821 92.8415 124.123C92.8415 123.424 92.2609 122.858 91.5448 122.858C90.8286 122.858 90.248 123.424 90.248 124.123C90.248 124.821 90.8286 125.388 91.5448 125.388Z" fill="white"/>
<path d="M102.186 121.794C102.186 121.091 101.61 120.529 100.889 120.529C100.169 120.529 99.5928 121.091 99.5928 121.794C99.5928 122.497 100.169 123.059 100.889 123.059C101.61 123.059 102.186 122.497 102.186 121.794Z" fill="white"/>
<path d="M83.5591 114.325L80.9039 111.053H76.5198L78.3105 106.777L82.0977 104.829C82.0977 104.829 84.2795 104.829 84.6911 105.793C85.0822 106.756 87.7992 108.282 87.7992 108.282L91.4629 110.631L94.8385 109.467L97.0202 108.885L99.4079 110.832L102.001 112.117L103.977 110.451L106.365 109.487L109.555 110.27L111.943 113.181L111.552 115.51L108.567 118.802L106.324 116.915L101.425 116.855L95.6618 116.273L91.3188 114.325L87.3052 114.345L83.5591 114.325Z" fill="white"/>
<path d="M86.9549 118.461C87.6711 118.461 88.2516 117.895 88.2516 117.196C88.2516 116.498 87.6711 115.931 86.9549 115.931C86.2388 115.931 85.6582 116.498 85.6582 117.196C85.6582 117.895 86.2388 118.461 86.9549 118.461Z" fill="white"/>
<path d="M108.752 79.8136L108.134 75.5574L98.6659 73.2485L98.1514 76.3203L102.144 79.2715L109.266 83.4676L108.752 79.8136Z" fill="#ECC192"/>
<path d="M55.566 68.5505L1.70084 59.0744C0.589364 58.8736 -0.172199 57.8296 0.033629 56.7254L6.12614 23.8398C6.33196 22.7356 7.40227 22.0129 8.53432 22.2136L62.3995 31.7099C63.511 31.9107 64.2725 32.9546 64.0667 34.0589L57.9742 66.9444C57.7684 68.0285 56.6775 68.7513 55.566 68.5505Z" fill="#363636"/>
<g opacity="0.3">
<path opacity="0.3" d="M2.0918 58.4722L55.0102 67.7877C56.1216 67.9885 57.2125 67.2457 57.4183 66.1615L60.8763 47.4702C43.8337 60.0783 15.0384 59.476 2.0918 58.4722Z" fill="#363636"/>
</g>
<path d="M15.1622 44.1376L6.39394 42.5917C6.02345 42.5315 5.75587 42.1701 5.8382 41.8088L6.97026 35.7456C7.032 35.3842 7.40249 35.1232 7.77298 35.2036L16.5413 36.7495C16.9117 36.8097 17.1793 37.1711 17.097 37.5324L15.9649 43.5755C15.9032 43.9569 15.5327 44.1979 15.1622 44.1376Z" fill="#E0C173"/>
<path d="M16.0879 42.9127L16.6436 39.8811C13.7415 41.7482 9.028 42.0896 6.16699 42.1096C6.37282 42.4108 6.68156 42.6316 7.07263 42.6919L14.503 43.9968C15.2234 44.1374 15.9438 43.6555 16.0879 42.9127Z" fill="#C5A45D"/>
<path d="M16.9507 47.0242L5.24316 44.9622L4.56654 48.6172L16.274 50.6793L16.9507 47.0242Z" fill="#C4C2C2"/>
<path d="M30.019 49.3338L18.3115 47.2717L17.6349 50.9268L29.3424 52.9889L30.019 49.3338Z" fill="#C4C2C2"/>
<path d="M43.0923 51.6238L31.3848 49.5618L30.7081 53.2168L42.4156 55.2789L43.0923 51.6238Z" fill="#C4C2C2"/>
<path d="M56.1401 53.9298L44.4326 51.8677L43.756 55.5227L55.4635 57.5848L56.1401 53.9298Z" fill="#C4C2C2"/>
<path d="M11.6218 31.9309C11.169 32.2521 10.5721 32.3726 10.0164 32.2923C8.86372 32.0915 8.10216 31.0074 8.30799 29.8831C8.51382 28.7588 9.62529 27.9959 10.7779 28.1966C11.3337 28.297 11.8482 28.6182 12.157 29.08L11.8482 29.2808C11.5189 28.8592 11.1278 28.6584 10.7162 28.5781C9.78995 28.4175 8.86372 29.0198 8.69906 29.9433C8.5344 30.8668 9.15188 31.7502 10.0987 31.9108C10.5103 31.9911 10.9426 31.9309 11.416 31.6297L11.6218 31.9309Z" fill="#F5F5F5" stroke="#F5F5F5" stroke-miterlimit="10"/>
<path d="M12.1777 32.6137L12.9187 28.6184L14.1331 28.8393C14.7506 28.9396 15.1622 29.5419 15.0593 30.1442C14.977 30.6261 14.5653 30.9874 14.0714 31.0678L14.6683 33.0553L14.236 32.975L13.6597 31.0477L12.8776 30.9071L12.5482 32.6739L12.1777 32.6137ZM12.9599 30.5458L13.8038 30.6863C14.2154 30.7666 14.6271 30.4855 14.6888 30.084C14.7712 29.6825 14.483 29.2809 14.0714 29.2207L13.2275 29.0802L12.9599 30.5458Z" fill="#F5F5F5" stroke="#F5F5F5" stroke-miterlimit="10"/>
<path d="M16.2323 29.6021L16.0265 30.7264L17.4879 30.9874L17.4261 31.3688L15.9648 31.1078L15.6354 32.8545L17.3026 33.1356L17.2409 33.517L15.1826 33.1557L15.9236 29.1604L17.9819 29.5218L17.9201 29.9032L16.2323 29.6021Z" fill="#F5F5F5" stroke="#F5F5F5" stroke-miterlimit="10"/>
<path d="M17.9199 33.6173L18.6609 29.6221L19.5666 29.7827C20.8221 30.0035 21.5219 30.8869 21.2955 32.1316C21.0691 33.3764 20.0811 33.9787 18.8256 33.7578L17.9199 33.6173ZM18.3727 33.3162L18.9079 33.4165C19.9576 33.5972 20.7398 33.1355 20.925 32.0915C21.1103 31.0475 20.5545 30.3649 19.5048 30.1842L18.9696 30.0838L18.3727 33.3162Z" fill="#F5F5F5" stroke="#F5F5F5" stroke-miterlimit="10"/>
<path d="M21.9545 34.3404L21.584 34.2802L22.325 30.2849L22.6955 30.3451L21.9545 34.3404Z" fill="#F5F5F5" stroke="#F5F5F5" stroke-miterlimit="10"/>
<path d="M25.5765 31.2486L24.5062 31.0679L23.827 34.6817L23.4565 34.6215L24.1357 31.0077L23.0654 30.827L23.1272 30.4456L25.6383 30.8872L25.5765 31.2486Z" fill="#F5F5F5" stroke="#F5F5F5" stroke-miterlimit="10"/>
<path d="M30.4138 35.2436C29.961 35.5649 29.3641 35.6853 28.8083 35.605C27.6557 35.4042 26.8942 34.3201 27.1 33.1958C27.3058 32.0715 28.4173 31.3086 29.5699 31.5094C30.1256 31.6098 30.6402 31.931 30.949 32.3928L30.6402 32.5935C30.3109 32.1719 29.9198 31.9711 29.5082 31.8908C28.5819 31.7302 27.6557 32.3325 27.4911 33.256C27.3264 34.1796 27.9439 35.0629 28.8907 35.2236C29.3023 35.3039 29.7346 35.2436 30.208 34.9425L30.4138 35.2436Z" fill="#F5F5F5" stroke="#F5F5F5" stroke-miterlimit="10"/>
<path d="M33.3783 32.232L34.5927 36.5686L34.181 36.4882L33.8105 35.123L31.8757 34.7817L31.0318 35.9261L30.5996 35.8458L33.296 32.2119L33.3783 32.232ZM32.1022 34.4404L33.687 34.7215L33.193 32.9748L32.1022 34.4404Z" fill="#F5F5F5" stroke="#F5F5F5" stroke-miterlimit="10"/>
<path d="M35.0654 36.6491L35.8064 32.6538L37.0208 32.8746C37.6383 32.975 38.0499 33.5773 37.947 34.1796C37.8647 34.6615 37.453 35.0229 36.959 35.1032L37.5559 37.0907L37.1237 37.0104L36.5474 35.0831L35.7652 34.9425L35.4359 36.7093L35.0654 36.6491ZM35.8476 34.5812L36.6915 34.7217C37.1031 34.802 37.5148 34.5209 37.5765 34.1194C37.6589 33.7179 37.3707 33.3163 36.959 33.2561L36.1152 33.1156L35.8476 34.5812Z" fill="#F5F5F5" stroke="#F5F5F5" stroke-miterlimit="10"/>
<path d="M38.0498 37.1711L38.7908 33.1758L39.6964 33.3364C40.952 33.5572 41.6518 34.4406 41.4254 35.6854C41.199 36.9301 40.211 37.5324 38.9554 37.3116L38.0498 37.1711ZM38.5026 36.8699L39.0378 36.9703C40.0875 37.151 40.8696 36.6892 41.0549 35.6452C41.2401 34.6012 40.6844 33.9186 39.6347 33.7379L39.0995 33.6375L38.5026 36.8699Z" fill="#F5F5F5" stroke="#F5F5F5" stroke-miterlimit="10"/>
<path d="M47.9707 37.2509C48.1765 36.0865 48.9792 35.163 49.9878 34.7012C49.4938 34.2194 48.8557 33.8781 48.1148 33.7375C46.2006 33.3962 44.3481 34.661 43.9982 36.5482C43.6483 38.4354 44.9244 40.2423 46.8386 40.5836C47.5796 40.7041 48.3 40.6037 48.9175 40.3226C48.1765 39.5397 47.7649 38.4154 47.9707 37.2509Z" fill="#C72B2C"/>
<path d="M51.9229 37.9537C52.1287 36.7892 52.9315 35.8657 53.94 35.4039C53.446 34.9221 52.808 34.5808 52.067 34.4403C51.326 34.3198 50.6056 34.4202 49.9881 34.7013C50.7909 35.4842 51.1819 36.6085 50.9761 37.773C50.7703 38.9374 49.9675 39.861 48.959 40.3227C49.453 40.8046 50.091 41.1459 50.832 41.2864C51.573 41.4069 52.2934 41.3065 52.9109 41.0254C52.1081 40.2424 51.7171 39.1181 51.9229 37.9537Z" fill="#F3CC30"/>
<path d="M50.9771 37.7816C51.264 36.2321 50.8254 34.8579 49.9976 34.7121C49.1698 34.5663 48.2662 35.7041 47.9793 37.2536C47.6925 38.803 48.131 40.1773 48.9588 40.3231C49.7867 40.4689 50.6903 39.331 50.9771 37.7816Z" fill="#D66D2E"/>
<path d="M56.0387 35.1429C55.2977 35.0224 54.5773 35.1228 53.9598 35.4039C54.7625 36.1869 55.1536 37.3112 54.9478 38.4756C54.742 39.6401 53.9392 40.5636 52.9307 41.0254C53.4247 41.5072 54.0627 41.8485 54.8037 41.989C56.7179 42.3303 58.5704 41.0655 58.9203 39.1783C59.229 37.2911 57.9529 35.4842 56.0387 35.1429Z" fill="#60ACBE"/>
<path d="M54.9351 38.4781C55.222 36.9287 54.7834 35.5544 53.9556 35.4086C53.1278 35.2628 52.2242 36.4007 51.9374 37.9501C51.6505 39.4995 52.089 40.8738 52.9169 41.0196C53.7447 41.1654 54.6483 40.0275 54.9351 38.4781Z" fill="#58595A"/>
<path d="M54.9971 60.1823L30.2246 55.8191L30.0198 56.9255L54.7923 61.2887L54.9971 60.1823Z" fill="#EBECEC"/>
<path d="M54.5486 62.5763L35.6299 59.2441L35.4251 60.3506L54.3438 63.6827L54.5486 62.5763Z" fill="#C5C6C7"/>
<path d="M16.9316 38.3153L16.9728 38.0543L12.0329 37.191L12.2593 35.9864L11.9918 35.9463L11.7654 37.1509L6.82549 36.2876L6.78432 36.5486L11.7242 37.4119L11.5184 38.5563L6.5785 37.693L6.53733 37.954L11.4772 38.8172L11.6213 38.8373C11.6624 38.8373 12.8357 38.9779 12.7945 39.8612C12.7945 39.8612 12.7739 40.1222 12.5475 40.3029C12.3005 40.5037 11.8889 40.5639 11.3537 40.4635L6.26975 39.5601L6.22859 39.8211L11.189 40.6844L10.9832 41.8488L5.9816 41.0056L5.94043 41.2666L10.9009 42.1299L10.6745 43.3345L10.942 43.3746L11.1685 42.17L16.0672 43.0333L16.1083 42.7723L11.2096 41.9091L11.4155 40.7446C11.9712 40.8249 12.4034 40.7245 12.7122 40.5037C12.918 40.3431 13.0209 40.1222 13.0415 40.0018L16.52 40.6041L16.5612 40.3431L13.0621 39.7207C13.0209 38.9779 12.3005 38.6566 11.8065 38.5563L12.0124 37.4119L16.9316 38.3153Z" fill="#EBECEC"/>
<path d="M54.7841 61.303L54.9899 60.1988L36.9182 57.0066C35.8274 57.2074 34.7365 57.4081 33.625 57.5687L54.7841 61.303Z" fill="#C5C6C7"/>
<path d="M56.1428 53.9348L50.853 53.0112C48.5683 53.9548 46.2013 54.7378 43.7725 55.4204L43.752 55.5409L55.4636 57.6088L56.1428 53.9348Z" fill="#9B9C9D"/>
<path d="M6.74406 24.2818L5.69434 30.0037C6.29124 27.5945 8.47301 22.5351 15.9034 23.8401L9.15224 22.6556C8.04077 22.4548 6.94989 23.1977 6.74406 24.2818Z" fill="#4E4E4E"/>
<path d="M36.5886 73.1078L40.7052 67.8879L37.2061 59.6565L33.2954 57.8496L31.0312 61.4634L33.707 64.0734L31.6487 70.2971L36.5886 73.1078Z" fill="#D6B492"/>
<path d="M123.943 87.7438L72.1151 92.9436C71.0447 93.044 70.0774 92.2811 69.9539 91.2171L66.6194 59.5763C66.5165 58.5122 67.2987 57.5686 68.369 57.4682L120.196 52.2684C121.267 52.168 122.234 52.9309 122.358 53.995L125.692 85.6358C125.795 86.6998 125.013 87.6434 123.943 87.7438Z" fill="#A53E39"/>
<g opacity="0.3">
<path opacity="0.3" d="M72.3213 92.3014L123.243 87.2019C124.313 87.1016 125.096 86.1379 124.993 85.0939L123.099 67.1052C110.914 83.026 84.424 89.8721 72.3213 92.3014Z" fill="#A53E39"/>
</g>
<path d="M80.3275 75.8184L71.9709 76.6616C71.5798 76.7018 71.2505 76.4207 71.2093 76.0593L70.5918 70.2974C70.5506 69.9159 70.8388 69.5947 71.2093 69.5546L79.5659 68.7113C79.957 68.6712 80.2863 68.9523 80.3275 69.3136L80.945 75.0756C80.9861 75.437 80.7186 75.7783 80.3275 75.8184Z" fill="#E0C173"/>
<path d="M80.8835 74.4731L80.5748 71.562C78.4341 74.0314 74.1941 75.5372 71.5801 76.3001C71.8477 76.5209 72.1976 76.6414 72.568 76.6012L79.7103 75.8785C80.4513 75.7982 80.9658 75.1758 80.8835 74.4731Z" fill="#C5A45D"/>
<path d="M82.793 77.9943L71.5312 79.1228L71.9015 82.6379L83.1632 81.5094L82.793 77.9943Z" fill="#C4C2C2"/>
<path d="M95.3711 76.7482L84.1094 77.8767L84.4796 81.3919L95.7413 80.2634L95.3711 76.7482Z" fill="#C4C2C2"/>
<path d="M107.946 75.4823L96.6846 76.6108L97.0548 80.126L108.316 78.9974L107.946 75.4823Z" fill="#C4C2C2"/>
<path d="M120.502 74.2184L109.24 75.3469L109.61 78.862L120.872 77.7335L120.502 74.2184Z" fill="#C4C2C2"/>
<path d="M73.8437 65.5791C73.5144 66.0007 72.9998 66.2617 72.4646 66.3219C71.3532 66.4424 70.3652 65.6393 70.2623 64.5552C70.1388 63.4711 70.9621 62.4873 72.053 62.3869C72.5881 62.3267 73.1439 62.4873 73.5555 62.8286L73.3291 63.0896C72.9175 62.7885 72.5058 62.6881 72.1147 62.7282C71.2091 62.8085 70.5504 63.6116 70.6534 64.495C70.7563 65.3783 71.559 66.0408 72.4646 65.9405C72.8557 65.9003 73.2468 65.7397 73.5967 65.3582L73.8437 65.5791Z" fill="#F5F5F5" stroke="#F5F5F5" stroke-miterlimit="10"/>
<path d="M74.523 66.0407L74.1113 62.206L75.2845 62.0856C75.8814 62.0253 76.4166 62.467 76.4783 63.0493C76.5195 63.511 76.2519 63.9527 75.8197 64.1334L76.89 65.7998L76.4783 65.8399L75.4286 64.2338L74.6671 64.3141L74.8523 66.0206L74.523 66.0407ZM74.6671 63.9527L75.4698 63.8724C75.8609 63.8322 76.1696 63.4909 76.1284 63.0894C76.0873 62.708 75.7168 62.4068 75.3257 62.447L74.523 62.5273L74.6671 63.9527Z" fill="#F5F5F5" stroke="#F5F5F5" stroke-miterlimit="10"/>
<path d="M77.4049 62.2464L77.5078 63.3104L78.9074 63.1699L78.9486 63.5313L77.549 63.6718L77.7342 65.3582L79.3397 65.1976L79.3809 65.559L77.3843 65.7598L76.9727 61.9251L78.9692 61.7244L79.0104 62.0857L77.4049 62.2464Z" fill="#F5F5F5" stroke="#F5F5F5" stroke-miterlimit="10"/>
<path d="M80.0601 65.4988L79.6484 61.6641L80.5335 61.5838C81.7479 61.4634 82.6329 62.0857 82.7564 63.2903C82.8799 64.4949 82.1595 65.298 80.9452 65.4185L80.0601 65.4988ZM80.3894 65.0972L80.904 65.037C81.9126 64.9366 82.4889 64.3142 82.386 63.3104C82.283 62.3066 81.5832 61.8247 80.5747 61.9251L80.0601 61.9854L80.3894 65.0972Z" fill="#F5F5F5" stroke="#F5F5F5" stroke-miterlimit="10"/>
<path d="M83.9501 65.0971L83.5796 65.1372L83.168 61.3026L83.5385 61.2625L83.9501 65.0971Z" fill="#F5F5F5" stroke="#F5F5F5" stroke-miterlimit="10"/>
<path d="M86.3996 61.3428L85.3705 61.4432L85.741 64.9165L85.3705 64.9566L85 61.4834L83.9708 61.5837L83.9297 61.2224L86.3379 60.9814L86.3996 61.3428Z" fill="#F5F5F5" stroke="#F5F5F5" stroke-miterlimit="10"/>
<path d="M91.936 63.752C91.6067 64.1736 91.0921 64.4346 90.5569 64.4948C89.4455 64.6152 88.4575 63.8122 88.3546 62.728C88.2517 61.6439 89.0544 60.6602 90.1453 60.5598C90.6804 60.4996 91.2362 60.6602 91.6478 61.0015L91.4214 61.2625C91.0098 60.9613 90.5981 60.8609 90.207 60.9011C89.3014 60.9814 88.6427 61.7845 88.7457 62.6678C88.8486 63.5512 89.6513 64.2137 90.5569 64.1133C90.948 64.0732 91.3391 63.9126 91.689 63.5311L91.936 63.752Z" fill="#F5F5F5" stroke="#F5F5F5" stroke-miterlimit="10"/>
<path d="M93.8095 60.2388L96.0736 63.8927L95.6825 63.9328L94.9621 62.7885L93.0891 62.9692L92.6363 64.234L92.2246 64.2742L93.686 60.2588L93.8095 60.2388ZM93.2538 62.6078L94.7769 62.4472L93.8507 60.9615L93.2538 62.6078Z" fill="#F5F5F5" stroke="#F5F5F5" stroke-miterlimit="10"/>
<path d="M96.5669 63.8524L96.1553 60.0178L97.3285 59.8973C97.9254 59.8371 98.4606 60.2788 98.5223 60.861C98.5635 61.3228 98.2959 61.7645 97.8636 61.9452L98.934 63.6115L98.5223 63.6517L97.4726 62.0255L96.711 62.1058L96.8963 63.8123L96.5669 63.8524ZM96.711 61.7444L97.5137 61.6641C97.9048 61.6239 98.2136 61.2826 98.1724 60.8811C98.1312 60.4796 97.7607 60.1985 97.3697 60.2387L96.5669 60.319L96.711 61.7444Z" fill="#F5F5F5" stroke="#F5F5F5" stroke-miterlimit="10"/>
<path d="M99.4283 63.5513L99.0166 59.7166L99.9017 59.6363C101.116 59.5159 102.001 60.1382 102.125 61.3428C102.248 62.5474 101.528 63.3505 100.313 63.471L99.4283 63.5513ZM99.7576 63.1698L100.272 63.1096C101.281 63.0092 101.857 62.3868 101.754 61.383C101.651 60.3792 100.951 59.8973 99.9428 59.9977L99.4283 60.0379L99.7576 63.1698Z" fill="#F5F5F5" stroke="#F5F5F5" stroke-miterlimit="10"/>
<path d="M108.526 61.0622C108.403 59.9379 108.876 58.8939 109.679 58.2113C109.102 57.8901 108.423 57.7495 107.723 57.8098C105.871 57.9905 104.533 59.6167 104.718 61.4236C104.904 63.2305 106.571 64.5555 108.403 64.3748C109.102 64.2945 109.741 64.0135 110.234 63.5919C109.308 63.1301 108.65 62.1865 108.526 61.0622Z" fill="#C72B2C"/>
<path d="M112.313 60.7006C112.19 59.5763 112.663 58.5323 113.466 57.8497C112.89 57.5285 112.21 57.388 111.511 57.4482C110.811 57.5285 110.173 57.8096 109.679 58.2312C110.605 58.7331 111.284 59.6767 111.408 60.7809C111.531 61.8851 111.058 62.9492 110.255 63.6318C110.831 63.953 111.511 64.0936 112.21 64.0333C112.91 63.953 113.548 63.672 114.042 63.2504C113.116 62.7484 112.437 61.8048 112.313 60.7006Z" fill="#F3CC30"/>
<path d="M110.256 63.6155C111.059 63.5351 111.583 62.2628 111.426 60.7737C111.269 59.2847 110.491 58.1428 109.688 58.2232C108.885 58.3037 108.362 59.576 108.518 61.0651C108.675 62.5541 109.453 63.696 110.256 63.6155Z" fill="#D66D2E"/>
<path d="M115.318 57.0668C114.618 57.1471 113.98 57.4282 113.486 57.8498C114.413 58.3517 115.092 59.2953 115.215 60.3995C115.339 61.5238 114.865 62.5678 114.063 63.2504C114.639 63.5716 115.318 63.7121 116.018 63.6519C117.87 63.4712 119.208 61.845 119.023 60.0381C118.817 58.2111 117.171 56.8861 115.318 57.0668Z" fill="#60ACBE"/>
<path d="M114.064 63.2332C114.867 63.1527 115.39 61.8804 115.233 60.3914C115.077 58.9023 114.299 57.7604 113.496 57.8409C112.693 57.9214 112.169 59.1937 112.326 60.6827C112.483 62.1718 113.261 63.3136 114.064 63.2332Z" fill="#58595A"/>
<path d="M121.155 80.2467L97.3213 82.635L97.4328 83.6935L121.266 81.3052L121.155 80.2467Z" fill="#EBECEC"/>
<path d="M121.396 82.5367L103.193 84.3608L103.305 85.4194L121.508 83.5953L121.396 82.5367Z" fill="#C5C6C7"/>
<path d="M80.4301 70.0363L80.4095 69.7753L75.6754 70.2572L75.5519 69.1128L75.2844 69.1329L75.4079 70.2772L70.6738 70.7591L70.6944 71.0201L75.4285 70.5382L75.5519 71.6424L70.8179 72.1243L70.8385 72.3853L75.5725 71.9034L75.7166 71.8834C75.7578 71.8834 76.8692 71.7027 77.0545 72.5258C77.0545 72.5258 77.1162 72.7667 76.9516 73.0077C76.7663 73.2486 76.4164 73.4092 75.9019 73.4694L71.0032 73.9513L71.0237 74.2123L75.7989 73.7304L75.9224 74.8547L71.1472 75.3365L71.1678 75.5975L75.943 75.1157L76.0665 76.2601L76.3341 76.24L76.2106 75.0956L80.9241 74.6138L80.9035 74.3528L76.19 74.8346L76.0665 73.7103C76.6017 73.63 76.9722 73.4493 77.178 73.1482C77.3221 72.9474 77.3427 72.7266 77.3427 72.586L80.6771 72.2447L80.6565 71.9837L77.3015 72.3251C77.0751 71.6625 76.3135 71.5421 75.8401 71.5822L75.7166 70.4981L80.4301 70.0363Z" fill="#EBECEC"/>
<path d="M121.266 81.2994L121.164 80.2354L103.771 81.982C102.824 82.4438 101.878 82.9056 100.91 83.3472L121.266 81.2994Z" fill="#C5C6C7"/>
<path d="M120.506 74.2322L115.401 74.7341C113.569 76.1796 111.614 77.5247 109.576 78.7494L109.597 78.8498L120.856 77.7255L120.506 74.2322Z" fill="#9B9C9D"/>
<path d="M67.3192 59.8377L67.8955 65.3387C67.7926 62.9897 68.4101 57.7899 75.5729 57.0671L69.0687 57.7096C67.9984 57.83 67.1957 58.7737 67.3192 59.8377Z" fill="#BB615E"/>
<path d="M109.143 92.9436L108.011 83.9693L98.9543 79.7332L96.4844 82.3431L97.5135 84.5515L103.688 87.7638L99.366 92.9837L109.143 92.9436Z" fill="#ECC192"/>
<path d="M180.565 34.0589L130.858 42.7722C129.829 42.9529 128.841 42.2703 128.655 41.2664L123.057 10.9306C122.872 9.9268 123.551 8.94304 124.6 8.76235L174.287 0.0290182C175.317 -0.151672 176.305 0.530934 176.49 1.53477L182.088 31.8906C182.294 32.9145 181.594 33.8782 180.565 34.0589Z" fill="#3990A5"/>
<path d="M131.002 42.15L179.845 33.5773C180.874 33.3966 181.574 32.4128 181.389 31.409L178.198 14.1431C167.619 30.4252 142.528 38.9377 131.002 42.15Z" fill="#2C828F"/>
<path d="M137.506 25.6468L129.52 27.0522C129.149 27.1124 128.779 26.8715 128.717 26.5101L127.709 21.0091C127.647 20.6477 127.894 20.2863 128.264 20.2261L136.251 18.8207C136.621 18.7605 136.992 19.0014 137.053 19.3628L138.062 24.8638C138.124 25.2252 137.877 25.5866 137.506 25.6468Z" fill="#E0C173"/>
<path d="M137.959 24.3016L137.444 21.511C135.551 24.0406 131.578 25.8074 129.108 26.7309C129.376 26.9317 129.726 27.012 130.076 26.9518L136.93 25.7472C137.63 25.6267 138.083 24.9642 137.959 24.3016Z" fill="#C5A45D"/>
<path d="M140.068 27.5761L129.251 29.4727L129.874 32.8515L140.691 30.955L140.068 27.5761Z" fill="#C4C2C2"/>
<path d="M152.131 25.4675L141.313 27.364L141.936 30.7429L152.754 28.8463L152.131 25.4675Z" fill="#C4C2C2"/>
<path d="M164.19 23.3393L153.372 25.2358L153.995 28.6147L164.812 26.7182L164.19 23.3393Z" fill="#C4C2C2"/>
<path d="M176.251 21.2304L165.434 23.127L166.056 26.5058L176.874 24.6093L176.251 21.2304Z" fill="#C4C2C2"/>
<path d="M130.487 16.1905C130.199 16.6121 129.725 16.9133 129.211 16.9936C128.161 17.1743 127.132 16.4917 126.947 15.4477C126.761 14.4037 127.461 13.3999 128.532 13.2192C129.046 13.1389 129.602 13.2393 130.013 13.5404L129.808 13.8215C129.396 13.5605 128.984 13.5003 128.593 13.5605C127.729 13.7211 127.153 14.5242 127.297 15.3875C127.461 16.2307 128.285 16.8129 129.149 16.6523C129.52 16.5921 129.89 16.4114 130.199 16.0098L130.487 16.1905Z" fill="#F5F5F5" stroke="#F5F5F5" stroke-miterlimit="10"/>
<path d="M131.167 16.612L130.487 12.938L131.619 12.7372C132.196 12.6369 132.751 13.0183 132.854 13.5805C132.937 14.0221 132.71 14.4638 132.319 14.6847L133.492 16.2105L133.101 16.2707L131.969 14.7851L131.249 14.9055L131.558 16.5317L131.167 16.612ZM131.167 14.5642L131.949 14.4237C132.319 14.3635 132.587 14.0021 132.525 13.6206C132.463 13.2392 132.093 12.9982 131.702 13.0585L130.92 13.199L131.167 14.5642Z" fill="#F5F5F5" stroke="#F5F5F5" stroke-miterlimit="10"/>
<path d="M133.677 12.7374L133.863 13.7613L135.221 13.5204L135.283 13.8617L133.924 14.1026L134.213 15.7288L135.756 15.4678L135.818 15.8091L133.904 16.1504L133.245 12.4563L135.159 12.115L135.221 12.4563L133.677 12.7374Z" fill="#F5F5F5" stroke="#F5F5F5" stroke-miterlimit="10"/>
<path d="M136.476 15.6886L135.797 12.0146L136.641 11.8741C137.793 11.6733 138.699 12.2154 138.905 13.3597C139.111 14.5041 138.473 15.3473 137.32 15.5481L136.476 15.6886ZM136.764 15.267L137.258 15.1867C138.226 15.0261 138.74 14.3636 138.555 13.3999C138.37 12.4362 137.67 12.0146 136.703 12.1953L136.209 12.2756L136.764 15.267Z" fill="#F5F5F5" stroke="#F5F5F5" stroke-miterlimit="10"/>
<path d="M140.202 15.0261L139.852 15.0863L139.173 11.4123L139.523 11.3521L140.202 15.0261Z" fill="#F5F5F5" stroke="#F5F5F5" stroke-miterlimit="10"/>
<path d="M142.302 11.2116L141.314 11.3923L141.931 14.725L141.581 14.7852L140.964 11.4525L139.976 11.6332L139.914 11.2919L142.219 10.8904L142.302 11.2116Z" fill="#F5F5F5" stroke="#F5F5F5" stroke-miterlimit="10"/>
<path d="M147.818 13.159C147.53 13.5806 147.056 13.8818 146.542 13.9621C145.492 14.1428 144.463 13.4602 144.278 12.4162C144.093 11.3722 144.792 10.3684 145.863 10.1877C146.377 10.1074 146.933 10.2078 147.345 10.5089L147.139 10.79C146.727 10.529 146.315 10.4688 145.924 10.529C145.06 10.6896 144.484 11.4927 144.628 12.356C144.792 13.1992 145.616 13.7814 146.48 13.6208C146.851 13.5605 147.221 13.3799 147.53 12.9783L147.818 13.159Z" fill="#F5F5F5" stroke="#F5F5F5" stroke-miterlimit="10"/>
<path d="M149.381 9.62549L151.851 12.9984L151.46 13.0586L150.678 12.0146L148.887 12.3358L148.538 13.5806L148.146 13.6408L149.258 9.64556L149.381 9.62549ZM149.011 11.9343L150.472 11.6733L149.464 10.3081L149.011 11.9343Z" fill="#F5F5F5" stroke="#F5F5F5" stroke-miterlimit="10"/>
<path d="M152.304 12.8979L151.625 9.22389L152.757 9.02312C153.333 8.92274 153.889 9.30419 153.992 9.86634C154.074 10.308 153.848 10.7497 153.457 10.9706L154.63 12.4964L154.239 12.5566L153.107 11.0709L152.387 11.1914L152.695 12.8176L152.304 12.8979ZM152.284 10.8702L153.066 10.7296C153.436 10.6694 153.704 10.308 153.642 9.92657C153.58 9.54511 153.21 9.30419 152.819 9.36442L152.037 9.50496L152.284 10.8702Z" fill="#F5F5F5" stroke="#F5F5F5" stroke-miterlimit="10"/>
<path d="M155.063 12.4161L154.384 8.74213L155.228 8.6016C156.38 8.40083 157.286 8.9429 157.492 10.0873C157.698 11.2316 157.06 12.0748 155.907 12.2756L155.063 12.4161ZM155.351 12.0146L155.845 11.9343C156.813 11.7737 157.327 11.1112 157.142 10.1475C156.957 9.18382 156.257 8.76221 155.289 8.9429L154.795 9.02321L155.351 12.0146Z" fill="#F5F5F5" stroke="#F5F5F5" stroke-miterlimit="10"/>
<path d="M163.666 9.36473C163.46 8.28059 163.851 7.23661 164.572 6.53393C163.996 6.27293 163.316 6.17255 162.637 6.29301C160.867 6.59416 159.694 8.26052 160.002 10.0072C160.332 11.7539 162.02 12.8982 163.79 12.5971C164.469 12.4766 165.066 12.1554 165.519 11.7137C164.592 11.2921 163.872 10.4489 163.666 9.36473Z" fill="#C72B2C"/>
<path d="M167.309 8.74242C167.103 7.65828 167.494 6.61429 168.215 5.91161C167.638 5.65061 166.959 5.55023 166.28 5.67069C165.6 5.79115 165.004 6.11238 164.551 6.55406C165.498 6.97567 166.218 7.81889 166.424 8.90303C166.63 9.98717 166.239 11.0312 165.518 11.7338C166.094 11.9948 166.774 12.0952 167.453 11.9748C168.132 11.8543 168.729 11.5331 169.182 11.0914C168.235 10.6698 167.515 9.80648 167.309 8.74242Z" fill="#F3CC30"/>
<path d="M166.444 8.8829C166.239 7.79876 165.518 6.95554 164.571 6.53394C163.83 7.25669 163.46 8.30068 163.666 9.36474C163.872 10.4489 164.592 11.2921 165.539 11.7137C166.259 11.011 166.63 9.96704 166.444 8.8829Z" fill="#D66D2E"/>
<path d="M169.944 5.00813C169.265 5.12859 168.668 5.44982 168.215 5.8915C169.162 6.31311 169.882 7.15633 170.088 8.24047C170.294 9.32461 169.903 10.3686 169.182 11.0713C169.759 11.3323 170.438 11.4327 171.117 11.3122C172.887 11.011 174.06 9.34469 173.752 7.59802C173.422 5.87143 171.714 4.70698 169.944 5.00813Z" fill="#60ACBE"/>
<path d="M170.088 8.24057C169.882 7.15643 169.162 6.31321 168.215 5.8916C167.474 6.61436 167.103 7.65835 167.309 8.72241C167.515 9.80655 168.236 10.6498 169.182 11.0714C169.903 10.3687 170.294 9.32471 170.088 8.24057Z" fill="#58595A"/>
<path d="M177.297 27.0042L154.427 31.0139L154.616 32.0414L177.487 28.0317L177.297 27.0042Z" fill="#EBECEC"/>
<path d="M177.711 29.2027L160.249 32.2642L160.438 33.2916L177.9 30.2302L177.711 29.2027Z" fill="#C5C6C7"/>
<path d="M137.177 20.0452L137.136 19.8043L132.587 20.6074L132.381 19.5032L132.134 19.5433L132.34 20.6475L127.791 21.4506L127.832 21.6915L132.381 20.8885L132.566 21.9325L128.017 22.7355L128.059 22.9764L132.607 22.1734L132.731 22.1332C132.772 22.1131 133.842 21.8722 134.089 22.6552C134.089 22.6552 134.151 22.8961 134.007 23.117C133.863 23.378 133.513 23.5386 133.019 23.639L128.326 24.4621L128.367 24.703L132.937 23.9L133.143 24.964L128.573 25.7671L128.614 26.008L133.184 25.2049L133.39 26.3092L133.637 26.269L133.431 25.1648L137.959 24.3617L137.918 24.1208L133.39 24.9239L133.184 23.8397C133.698 23.7193 134.048 23.5185 134.213 23.2174C134.336 22.9965 134.357 22.7957 134.336 22.6753L137.547 22.1131L137.506 21.8722L134.275 22.4344C134.007 21.812 133.266 21.7518 132.793 21.8321L132.607 20.7881L137.177 20.0452Z" fill="#EBECEC"/>
<path d="M177.498 28.0361L177.313 27.0122L160.641 29.9434C159.755 30.4654 158.87 30.9673 157.985 31.4692L177.498 28.0361Z" fill="#C5C6C7"/>
<path d="M176.243 21.23L171.365 22.0933C169.698 23.6191 167.907 25.0445 166.055 26.3897L166.075 26.4901L176.881 24.6029L176.243 21.23Z" fill="#9B9C9D"/>
<path d="M123.736 11.1113L124.704 16.3915C124.436 14.1228 124.642 9.06349 131.496 7.85889L125.26 8.94303C124.23 9.12372 123.551 10.1075 123.736 11.1113Z" fill="#5EACBB"/>
<path d="M166.672 40.5837L163.194 30.8867L155.969 28.7385L154.734 32.7539L159.057 34.5607L158.439 41.9891L155.969 45.4021L166.672 40.5837Z" fill="#937051"/>
</svg>
