<svg width="57" height="53" viewBox="0 0 57 53" fill="none" xmlns="http://www.w3.org/2000/svg">
<path d="M0.691503 3.67493C1.02195 2.28099 1.614 1.1405 2.78432 0.475207C3.34883 0.158402 3.95465 0.0158402 4.588 0.0158402C18.866 0 33.1577 0 47.4357 0C49.7351 0 51.2909 1.88499 51.3185 4.59366C51.3322 6.06681 51.3322 7.53995 51.3047 9.01309C51.3047 9.40909 51.4148 9.51997 51.7177 9.5675C52.3511 9.6467 52.9982 9.7259 53.6178 9.83678C55.7932 10.2328 57.115 12.3237 56.9085 14.8581C56.4266 20.5923 55.9722 26.3423 55.5041 32.0923C55.0497 37.6681 54.5678 43.2438 54.1548 48.8196C53.962 51.4174 51.9518 53.1123 49.68 52.8113C44.5168 52.1302 39.3536 51.4807 34.1904 50.7996C29.4815 50.1818 24.7727 49.5641 20.0638 48.9621C15.9884 48.4394 11.9129 47.9167 7.85115 47.394C7.10765 47.2989 6.35038 47.2831 5.64818 46.9346C4.34017 46.2693 3.56913 45.1288 3.41768 43.4814C3.39014 43.1329 3.30753 42.9428 2.99085 42.7844C1.80676 42.1984 1.04949 41.1846 0.774114 39.7114C0.663966 39.5214 0.801651 39.2679 0.677734 39.062C0.691503 27.261 0.691503 15.4601 0.691503 3.67493Z" fill="#AC8C3A"/>
<path d="M25.9844 16.1888C33.6122 16.1888 41.2538 16.1888 48.8815 16.173C49.3359 16.173 49.4598 16.2839 49.4598 16.8224C49.446 23.9981 49.4323 31.1895 49.4598 38.3652C49.4598 40.0284 48.6062 40.9946 47.1742 40.9946C33.0615 40.963 18.9487 40.963 4.82218 40.9946C3.2388 40.9946 2.5366 39.7908 2.55037 38.4127C2.59167 31.2054 2.57791 23.9981 2.55037 16.8066C2.55037 16.2522 2.70182 16.173 3.12865 16.173C10.7427 16.1888 18.3567 16.1888 25.9844 16.1888Z" fill="#F4F4F4"/>
<path d="M51.3183 25.392C51.3183 20.9884 51.3321 16.5849 51.3046 12.1813C51.3046 11.6269 51.4285 11.5001 51.8829 11.5952C52.351 11.6902 52.8329 11.7061 53.301 11.7377C54.4438 11.8328 55.1598 12.7515 55.0634 14.0504C54.8844 16.4423 54.6779 18.8342 54.4851 21.226C54.2097 24.6159 53.9344 28.0215 53.659 31.4113C53.3423 35.2605 53.0256 39.1255 52.709 42.9747C52.5575 44.8597 52.4061 46.7447 52.2408 48.6297C52.1169 50.0078 51.2495 50.8156 50.0516 50.673C48.0277 50.4354 46.0175 50.1503 43.9935 49.8969C40.5789 49.4534 37.1643 49.0098 33.7359 48.5505C30.28 48.1069 26.8241 47.6476 23.382 47.204C19.9811 46.7605 16.5803 46.3328 13.1795 45.8893C11.1417 45.62 9.10397 45.3666 7.06622 45.0973C6.24011 44.9864 5.64806 44.4954 5.37269 43.5449C5.27631 43.2281 5.29008 43.0697 5.62053 43.1173C5.73068 43.1331 5.84082 43.1173 5.95097 43.1173C19.7058 43.1173 33.4468 43.1173 47.2015 43.1173C48.8675 43.1173 50.1342 42.3886 50.9053 40.6462C51.222 39.9334 51.2908 39.1572 51.2908 38.381C51.3183 34.0566 51.3183 29.7164 51.3183 25.392Z" fill="#F4F4F4"/>
<path d="M25.9567 14.0344C18.3565 14.0344 10.77 14.0344 3.16976 14.0502C2.66032 14.0502 2.53641 13.8918 2.55018 13.3374C2.57771 11.6583 2.57771 9.96341 2.55018 8.28432C2.53641 7.72991 2.64656 7.55566 3.15599 7.55566C16.7318 7.5715 30.3213 7.5715 43.8971 7.5715C45.5769 7.5715 47.2704 7.58734 48.9502 7.55566C49.3357 7.55566 49.4459 7.66655 49.4321 8.11008C49.4045 9.88421 49.4045 11.6425 49.4321 13.4166C49.4459 13.9077 49.3219 14.0344 48.8951 14.0344C41.2536 14.0186 33.612 14.0344 25.9567 14.0344Z" fill="#F4F4F4"/>
<path d="M25.9567 5.40155C18.3565 5.40155 10.7562 5.40156 3.15598 5.4174C2.68785 5.4174 2.5364 5.30651 2.55017 4.73626C2.59147 2.97799 3.2799 2.1543 4.80821 2.1543C18.921 2.1543 33.0475 2.1543 47.1603 2.1543C48.785 2.1543 49.5698 3.15223 49.4458 5.03723C49.4321 5.29067 49.377 5.43324 49.1292 5.4174C49.0052 5.40156 48.8676 5.4174 48.7436 5.4174C41.1434 5.40156 33.5569 5.40155 25.9567 5.40155Z" fill="#F4F4F4"/>
<path d="M38.1558 36.6701C35.7601 36.6701 33.3644 36.6701 30.9686 36.6701C30.0461 36.6701 29.7432 36.3375 29.7432 35.2762C29.7295 32.2507 29.7295 29.2094 29.7432 26.1839C29.7432 25.1701 30.0599 24.8058 30.9411 24.8058C35.7739 24.8058 40.6066 24.8058 45.4394 24.8058C46.3206 24.8058 46.6235 25.1701 46.6235 26.1839C46.6235 29.2411 46.6235 32.2982 46.6235 35.3396C46.6235 36.3216 46.3206 36.6701 45.4669 36.6701C43.0299 36.6701 40.5929 36.6701 38.1558 36.6701Z" fill="#AC8C3A"/>
<path d="M11.4585 26.9601C9.47586 26.9601 7.50696 26.9601 5.52429 26.9601C5.01485 26.9601 4.62933 26.7858 4.49165 26.168C4.35396 25.5503 4.62933 25.0117 5.15254 24.8691C5.35907 24.8058 5.59313 24.8058 5.79966 24.8058C9.57224 24.8058 13.3448 24.8058 17.1174 24.8058C17.1863 24.8058 17.2689 24.8058 17.3377 24.8058C18.1087 24.8216 18.4943 25.186 18.4943 25.8988C18.4943 26.6116 18.1087 26.9601 17.3377 26.9601C15.3688 26.9601 13.4137 26.9601 11.4585 26.9601Z" fill="#AC8C3A"/>
<path d="M9.11786 22.6357C7.93376 22.6357 6.7359 22.6357 5.5518 22.6357C4.83584 22.6357 4.45032 22.2397 4.45032 21.5586C4.45032 20.8774 4.84961 20.4814 5.56557 20.4814C7.94753 20.4814 10.3157 20.4814 12.6977 20.4814C13.4549 20.4814 13.8267 20.8616 13.8129 21.5902C13.7992 22.2872 13.4412 22.6198 12.6977 22.6198C11.486 22.6515 10.302 22.6357 9.11786 22.6357Z" fill="#AC8C3A"/>
<path d="M20.3668 22.6357C19.1827 22.6357 17.9848 22.6357 16.8007 22.6357C16.071 22.6357 15.713 22.2555 15.713 21.5586C15.713 20.8616 16.0848 20.4814 16.8145 20.4814C19.1965 20.4814 21.5646 20.4814 23.9466 20.4814C24.6626 20.4814 25.0618 20.8616 25.0756 21.5269C25.0894 22.2238 24.6901 22.6198 23.9328 22.6198C22.735 22.6515 21.5509 22.6515 20.3668 22.6357Z" fill="#AC8C3A"/>
<path d="M22.7211 26.9441C22.2254 26.9441 21.7297 26.9599 21.2478 26.9441C20.7246 26.9124 20.3942 26.5006 20.3942 25.9303C20.4079 25.3601 20.6282 24.9166 21.1514 24.869C22.2116 24.7582 23.2718 24.7582 24.3182 24.869C24.8001 24.9166 25.0892 25.3918 25.0755 25.9303C25.0617 26.5164 24.7313 26.9124 24.2081 26.9441C23.6986 26.9599 23.2167 26.9441 22.7211 26.9441Z" fill="#AC8C3A"/>
<path d="M38.1558 34.5159C36.1456 34.5159 34.1216 34.5 32.1114 34.5317C31.7534 34.5317 31.6157 34.4684 31.6157 33.9932C31.6433 31.8231 31.6295 29.653 31.6157 27.4829C31.6157 27.071 31.7121 26.9443 32.0839 26.9602C36.1731 26.976 40.2486 26.976 44.3379 26.9602C44.6821 26.9602 44.7647 27.0552 44.7647 27.4512C44.7509 29.6371 44.7509 31.8389 44.7647 34.0248C44.7647 34.4525 44.6545 34.5476 44.3103 34.5317C42.2588 34.5 40.2073 34.5159 38.1558 34.5159Z" fill="#F4F4F4"/>
</svg>
