<svg width="24" height="24" viewBox="0 0 24 24" fill="none" xmlns="http://www.w3.org/2000/svg">
<path d="M23.0046 4.15556V20.7171C22.8764 21.7097 22.3152 22.3789 21.4425 22.8204C21.1839 22.9508 20.9033 22.966 20.6261 23.0065H2.31554C1.33546 22.9019 0.679264 22.348 0.231679 21.5039C0.0478087 21.1569 0.00676122 20.7801 0.00676122 20.3955C0.00676122 15.071 0.0163205 9.746 1.39722e-05 4.42437C-0.00448438 3.06626 1.07793 2.01127 2.19296 1.80938C2.60287 1.73515 3.01278 1.76271 3.42326 1.75315C3.71396 1.74752 3.72746 1.7374 3.72971 1.44947C3.73252 1.05301 3.72408 0.656543 3.73364 0.260078C3.73926 0.0278224 3.76738 0.00532803 3.99623 0.00532803C4.46743 0.00532803 4.9392 0.0137637 5.40984 0.000266983C5.60383 -0.00535664 5.66118 0.077872 5.66231 0.24883C5.66512 0.652606 5.66231 1.05638 5.66231 1.46016C5.66231 1.73178 5.68255 1.75202 5.95864 1.75202C9.66753 1.75202 13.3764 1.75202 17.0853 1.75202C17.3507 1.75202 17.3664 1.73234 17.3704 1.47365C17.3704 1.06988 17.3659 0.666102 17.3738 0.262326C17.3783 0.0261341 17.4036 0.00532749 17.6307 0.00476512H19.0438C19.2687 0.00476512 19.2962 0.0278223 19.3019 0.263452C19.3109 0.652044 19.3019 1.0412 19.3052 1.43035C19.3052 1.74359 19.3142 1.74809 19.6364 1.75315C20.03 1.7599 20.4293 1.72391 20.8217 1.80601C21.8052 2.01071 22.4811 2.58601 22.8797 3.50041C22.9708 3.71017 22.9528 3.93905 23.0046 4.15556Z" fill="black"/>
<path d="M11.5174 8.46438C14.673 8.46438 17.8287 8.46269 20.9847 8.45932C21.1714 8.45932 21.2147 8.50262 21.2141 8.68876C21.2077 12.5185 21.2062 16.3478 21.2096 20.1767C21.2096 20.8605 20.8587 21.2109 20.1744 21.2109H2.85579C2.17429 21.2109 1.82398 20.8588 1.82342 20.1739C1.82342 16.3446 1.82173 12.5153 1.81836 8.68595C1.81836 8.49362 1.87009 8.46101 2.05115 8.46101C5.20449 8.46588 8.3599 8.46701 11.5174 8.46438Z" fill="#FEFEFE"/>
<path d="M11.5157 6.66875C8.36081 6.66875 5.20541 6.67025 2.04944 6.67325C1.86838 6.67325 1.81215 6.63951 1.81665 6.4483C1.83071 5.83533 1.82003 5.22179 1.82227 4.60881C1.82227 3.98459 2.18777 3.6213 2.81022 3.61793C3.08687 3.61793 3.36408 3.62468 3.64017 3.61456C3.7695 3.61006 3.80098 3.65167 3.7993 3.77652C3.79255 4.26971 3.7993 4.76346 3.79368 5.25722C3.79368 5.386 3.83022 5.41805 3.95505 5.41581C4.44875 5.40906 4.94225 5.40906 5.43557 5.41581C5.5649 5.41581 5.59639 5.37869 5.5947 5.25384C5.58739 4.77527 5.60033 4.29783 5.58683 3.81813C5.58233 3.64942 5.63069 3.61287 5.79544 3.61343C9.45147 3.61831 13.1079 3.61962 16.7647 3.61737C16.9289 3.61737 17.0942 3.62693 17.2578 3.61456C17.4017 3.60331 17.4467 3.64492 17.4434 3.79507C17.4332 4.28096 17.4434 4.7674 17.4372 5.25328C17.4372 5.37756 17.4658 5.41749 17.5952 5.41581C18.0889 5.40793 18.5824 5.40793 19.0757 5.41581C19.2 5.41581 19.2399 5.38712 19.2382 5.25778C19.2303 4.76403 19.2382 4.27027 19.232 3.77708C19.232 3.6528 19.2607 3.60837 19.3906 3.61456C19.6892 3.62468 19.9889 3.61456 20.2902 3.61905C20.8295 3.62918 21.2045 4.0009 21.2102 4.54077C21.2169 5.19142 21.2062 5.84208 21.2158 6.49273C21.2158 6.64401 21.1708 6.67437 21.0297 6.67325C20.2425 6.6665 19.4592 6.66987 18.6742 6.66987L11.5157 6.66875Z" fill="#FEFEFE"/>
<path d="M3.43797 11.2464C3.43797 10.9922 3.44303 10.7403 3.43797 10.4838C3.4346 10.3753 3.46834 10.3455 3.57573 10.3466C4.08405 10.3522 4.59255 10.3522 5.10124 10.3466C5.20976 10.3466 5.239 10.3775 5.23787 10.4844C5.233 10.9928 5.233 11.5013 5.23787 12.0101C5.23787 12.1186 5.20751 12.1479 5.10011 12.1467C4.5918 12.1419 4.08348 12.1419 3.57517 12.1467C3.46665 12.1467 3.43516 12.1164 3.43797 12.0084C3.44303 11.7553 3.43797 11.5006 3.43797 11.2464Z" fill="black"/>
<path d="M8.82288 11.247C8.82288 11.5011 8.81782 11.7559 8.82288 12.0095C8.82625 12.1181 8.79364 12.1479 8.68568 12.1467C8.17736 12.1419 7.66887 12.1419 7.16018 12.1467C7.05222 12.1467 7.02185 12.1175 7.02298 12.0095C7.0286 11.5011 7.0286 10.9926 7.02298 10.4838C7.02298 10.3764 7.05278 10.3455 7.16074 10.3466C7.66905 10.3522 8.17736 10.3522 8.68568 10.3466C8.79364 10.3466 8.82625 10.3764 8.82288 10.4844C8.81782 10.7386 8.82288 10.9928 8.82288 11.247Z" fill="black"/>
<path d="M11.5157 10.3494C11.7699 10.3494 12.0218 10.3545 12.2787 10.3466C12.3867 10.3466 12.4171 10.3764 12.4159 10.4844C12.4103 10.9928 12.4103 11.5011 12.4159 12.0095C12.4159 12.118 12.3861 12.1479 12.2782 12.1467C11.7699 12.1419 11.2614 12.1419 10.7527 12.1467C10.6447 12.1467 10.6143 12.1169 10.616 12.0095C10.6209 11.5011 10.6209 10.9926 10.616 10.4838C10.616 10.3758 10.6458 10.3438 10.7538 10.3466C11.0074 10.3545 11.2615 10.3494 11.5157 10.3494Z" fill="black"/>
<path d="M15.1251 12.1445C14.8709 12.1445 14.619 12.1411 14.3626 12.1445C14.2597 12.1445 14.2024 12.1377 14.2052 12.0045C14.2136 11.4983 14.2119 10.9877 14.2052 10.4793C14.2052 10.3669 14.2428 10.3444 14.3463 10.3455C14.8524 10.35 15.3629 10.3511 15.8713 10.3455C15.9837 10.3455 16.0062 10.3832 16.0051 10.4861C16.0006 10.995 15.9995 11.5034 16.0051 12.0118C16.0051 12.1242 15.9674 12.1484 15.8645 12.1456C15.6188 12.14 15.3719 12.1445 15.1251 12.1445Z" fill="black"/>
<path d="M17.7988 11.2239C17.7988 10.977 17.8039 10.7301 17.7988 10.4838C17.7954 10.3753 17.8281 10.3449 17.936 10.346C18.4443 10.3517 18.9528 10.3517 19.4615 10.346C19.5689 10.346 19.5998 10.3758 19.5987 10.4838C19.5931 10.9922 19.5931 11.5006 19.5987 12.0089C19.5987 12.1169 19.5689 12.1478 19.4615 12.1462C18.9532 12.1413 18.4447 12.1413 17.936 12.1462C17.8281 12.1462 17.7954 12.1169 17.7988 12.0089C17.8022 11.748 17.7988 11.4859 17.7988 11.2239Z" fill="black"/>
<path d="M4.33532 13.9401C4.58948 13.9401 4.84139 13.9452 5.09779 13.9401C5.20631 13.9401 5.23612 13.9705 5.23499 14.0779C5.23012 14.5862 5.23012 15.0948 5.23499 15.6036C5.23499 15.7115 5.20519 15.7413 5.09779 15.7402C4.58948 15.7353 4.08098 15.7353 3.57229 15.7402C3.46433 15.7402 3.43396 15.7099 3.43509 15.6024C3.44071 15.0941 3.44071 14.5855 3.43509 14.0767C3.43509 13.9688 3.46489 13.9367 3.57285 13.9395C3.82701 13.9452 4.08229 13.9401 4.33532 13.9401Z" fill="black"/>
<path d="M8.82288 14.8601C8.82288 15.107 8.81782 15.3539 8.82288 15.6002C8.82625 15.7082 8.79364 15.7391 8.68568 15.7374C8.17737 15.7325 7.66905 15.7325 7.16074 15.7374C7.05278 15.7374 7.02185 15.7082 7.02298 15.6002C7.0286 15.0918 7.0286 14.5834 7.02298 14.0751C7.02298 13.9671 7.05278 13.9362 7.16074 13.9373C7.66905 13.9429 8.17737 13.9429 8.68568 13.9373C8.79364 13.9373 8.82625 13.9671 8.82288 14.0751C8.81782 14.3366 8.82288 14.5981 8.82288 14.8601Z" fill="black"/>
<path d="M12.4131 14.8376C12.4131 15.0918 12.4081 15.3438 12.4159 15.6002C12.4159 15.7087 12.3861 15.7385 12.2782 15.7374C11.7699 15.7325 11.2614 15.7325 10.7527 15.7374C10.6447 15.7374 10.6143 15.7076 10.616 15.6002C10.6209 15.0918 10.6209 14.5833 10.616 14.0745C10.616 13.9665 10.6464 13.9362 10.7538 13.9373C11.2621 13.9429 11.7706 13.9429 12.2793 13.9373C12.3873 13.9373 12.4193 13.9671 12.4165 14.0751C12.4081 14.3293 12.4131 14.5834 12.4131 14.8376Z" fill="black"/>
<path d="M15.0953 15.7352C14.8412 15.7352 14.5893 15.7312 14.3328 15.7352C14.235 15.7352 14.2052 15.7087 14.2063 15.6098C14.2108 15.0935 14.2108 14.5775 14.2063 14.0616C14.2063 13.9643 14.2328 13.9345 14.3317 13.9356C14.8479 13.9401 15.3639 13.9401 15.8797 13.9356C15.9776 13.9356 16.0068 13.962 16.0057 14.061C16.0012 14.5765 16.0012 15.0926 16.0057 15.6092C16.0057 15.7065 15.9798 15.738 15.8803 15.7352C15.6188 15.7307 15.3568 15.7352 15.0953 15.7352Z" fill="black"/>
<path d="M19.5941 14.8506C19.5941 15.0974 19.5868 15.3443 19.5969 15.5906C19.6014 15.7127 19.5598 15.7391 19.4457 15.738C18.9452 15.732 18.4444 15.732 17.9432 15.738C17.8218 15.738 17.7948 15.7014 17.7965 15.5873C17.8021 15.086 17.8021 14.5849 17.7965 14.0841C17.7965 13.9632 17.8336 13.9362 17.9472 13.9373C18.4483 13.9433 18.9494 13.9433 19.4502 13.9373C19.5716 13.9373 19.6003 13.9744 19.5969 14.0886C19.5885 14.3422 19.5941 14.5981 19.5941 14.8506Z" fill="black"/>
<path d="M4.33588 17.5308C4.59004 17.5308 4.84195 17.5359 5.09892 17.5308C5.208 17.5274 5.23612 17.5628 5.23499 17.6691C5.23012 18.1775 5.23012 18.6861 5.23499 19.1948C5.23499 19.3039 5.2035 19.332 5.09723 19.3309C4.58854 19.3257 4.08004 19.3257 3.57173 19.3309C3.46264 19.3309 3.43397 19.2989 3.43509 19.1926C3.44071 18.6842 3.44071 18.1756 3.43509 17.6669C3.43509 17.5578 3.46658 17.5274 3.57342 17.5308C3.82757 17.5359 4.08229 17.5308 4.33588 17.5308Z" fill="black"/>
<path d="M7.93739 17.5308C8.19155 17.5308 8.44345 17.5353 8.69986 17.5308C8.79938 17.528 8.82581 17.5595 8.82525 17.6573C8.82075 18.1728 8.82075 18.6887 8.82525 19.2049C8.82525 19.3045 8.79601 19.3309 8.69873 19.3303C8.18292 19.3258 7.66712 19.3258 7.15131 19.3303C7.05178 19.3303 7.02479 19.3017 7.02591 19.2038C7.03041 18.6883 7.03041 18.1724 7.02591 17.6562C7.02591 17.5566 7.05459 17.5285 7.15243 17.5308C7.41389 17.5347 7.67536 17.5308 7.93739 17.5308Z" fill="black"/>
<path d="M11.5303 17.5308C11.7698 17.5308 12.0088 17.5359 12.2478 17.5308C12.3636 17.5269 12.4165 17.5426 12.4165 17.6826C12.4069 18.1831 12.408 18.6842 12.4165 19.1853C12.4165 19.3096 12.3749 19.3315 12.2641 19.3304C11.7631 19.3253 11.2621 19.3236 10.7611 19.3304C10.6368 19.3304 10.6149 19.2888 10.616 19.1774C10.6211 18.6769 10.6228 18.1753 10.616 17.6748C10.616 17.5505 10.6571 17.5263 10.7689 17.5297C11.0214 17.5353 11.2761 17.5308 11.5303 17.5308Z" fill="black"/>
<path d="M15.0891 19.3258C14.8496 19.3258 14.6101 19.3202 14.3711 19.3258C14.2519 19.3298 14.2024 19.3067 14.2024 19.1712C14.2108 18.6774 14.2091 18.1837 14.2024 17.6905C14.2024 17.5713 14.2221 17.5218 14.357 17.5246C14.8507 17.533 15.3444 17.5313 15.8375 17.5246C15.9567 17.5246 16.0062 17.5437 16.0062 17.6792C15.9978 18.173 15.9961 18.6667 16.0062 19.1599C16.0096 19.3095 15.9556 19.3286 15.8274 19.3253C15.5828 19.3219 15.336 19.3258 15.0891 19.3258Z" fill="black"/>
</svg>
