<svg width="18" height="12" viewBox="0 0 18 12" fill="none" xmlns="http://www.w3.org/2000/svg">
<path d="M0.00044451 1.26726C0.0324493 1.17525 0.0684546 1.08368 0.0960142 0.990331C0.131131 0.871202 0.162691 0.836086 0.270707 0.946769C0.786783 1.47529 1.31175 1.99537 1.83316 2.51856C2.95066 3.63961 4.06638 4.762 5.18788 5.87906C5.28567 5.9764 5.28656 6.02263 5.18832 6.12087C3.55297 7.75311 1.92295 9.3898 0.291599 11.0256C0.151578 11.1656 0.154245 11.1647 0.0840125 10.978C0.0537858 10.8967 0.0542303 10.8051 0 10.7322C0.00044451 7.57709 0.00044451 4.4224 0.00044451 1.26726Z" fill="#002046"/>
<path d="M17.0637 10.7322C17.0313 10.8242 16.9953 10.9153 16.9677 11.0087C16.9326 11.1296 16.9006 11.1611 16.793 11.0513C16.2734 10.5192 15.7449 9.99561 15.2194 9.46842C14.1064 8.35181 12.9947 7.23342 11.8776 6.12081C11.7794 6.02302 11.7789 5.97679 11.8772 5.87856C13.5112 4.24631 15.1408 2.60963 16.7717 0.974273C16.9117 0.833808 16.913 0.833363 16.9775 1.02139C17.009 1.1134 17.0348 1.20764 17.0637 1.30054C17.0637 4.44457 17.0637 7.58814 17.0637 10.7322Z" fill="#002046"/>
<path d="M0.896484 0.139132C1.09918 0.0373389 1.31521 0.000889021 1.53969 0.000889021C2.15623 0.00133353 2.77276 0.000889021 3.38885 0.000889021C7.40945 0.000889021 11.43 0.00133353 15.4506 0C15.6973 0 15.936 0.0271151 16.1627 0.133798C16.1645 0.196918 16.113 0.219144 16.081 0.251148C13.7179 2.62306 11.3536 4.99452 8.98924 7.36598C8.70342 7.65269 8.36515 7.65491 8.08288 7.37176C5.71853 5.0003 3.35418 2.62883 0.990721 0.256927C0.956493 0.2227 0.910709 0.196474 0.896484 0.139132Z" fill="#002046"/>
<path d="M16.1781 11.8569C15.963 11.9605 15.7478 11.9987 15.5234 11.9987C14.9513 11.9978 14.3792 11.9983 13.8071 11.9987C9.74161 11.9987 5.67612 11.9983 1.61063 11.9996C1.36348 11.9996 1.12523 11.9707 0.899414 11.8645C0.904748 11.8018 0.954089 11.7787 0.986983 11.7462C2.621 10.1051 4.25725 8.46617 5.8886 6.82237C5.98995 6.72058 6.03707 6.73036 6.13041 6.82682C6.53625 7.24555 6.95053 7.65583 7.3626 8.06878C8.05159 8.75911 9.01128 8.76044 9.70072 8.07056C10.1208 7.6505 10.5408 7.22999 10.9578 6.80637C11.0267 6.73658 11.0654 6.71214 11.1503 6.79793C12.8096 8.4684 14.4734 10.1353 16.1355 11.8031C16.147 11.8138 16.1555 11.828 16.1781 11.8569Z" fill="#002046"/>
</svg>
