<svg width="30" height="25" viewBox="0 0 30 25" fill="none" xmlns="http://www.w3.org/2000/svg">
<path d="M29.4649 11.8089V21.6973C29.342 22.7637 28.7604 23.5373 27.8876 24.1074C27.3951 24.4308 26.818 24.6013 26.2289 24.5976C18.5733 24.5976 10.9174 24.5955 3.26133 24.5914C1.99751 24.5876 1.07559 23.9345 0.414868 22.8789C0.100644 22.3742 0 21.8218 0 21.2333C0.00563402 18.2339 0.00563402 15.2349 0 12.236C0 11.7036 0 11.7021 0.497842 11.868C2.89793 12.667 5.29751 13.4668 7.69658 14.2673C9.70562 14.9365 11.717 15.5988 13.7222 16.2802C14.3856 16.5142 15.1092 16.5142 15.7727 16.2802C20.1872 14.799 24.6045 13.326 29.0247 11.8611C29.1668 11.8142 29.3066 11.7159 29.4649 11.8089Z" fill="#002046"/>
<path d="M29.4649 9.8546C27.7004 10.4472 25.9355 11.0395 24.17 11.6316C21.2083 12.6204 18.2443 13.6015 15.2887 14.6002C14.9373 14.7228 14.5543 14.7201 14.2047 14.5925C9.57658 13.0401 4.94644 11.4977 0.314253 9.96523C0.101441 9.89455 0.016931 9.81157 0.0230772 9.57264C0.0422841 8.74905 0.0276868 7.92469 0.0307599 7.1011C0.0376744 5.17657 1.49816 3.70148 3.42654 3.69073C5.46707 3.67997 7.50761 3.68458 9.54815 3.69073C9.77863 3.69073 9.85546 3.64079 9.85546 3.39571C9.85546 2.89018 9.79707 2.38005 9.91615 1.87913C10.1681 0.819683 11.0947 0.035274 12.1833 0.0176037C13.8981 -0.00390799 15.6129 -0.00774936 17.3308 0.0176037C18.5731 0.0414202 19.591 1.07859 19.6402 2.32012C19.6548 2.68352 19.6625 3.04845 19.6402 3.41107C19.6271 3.64156 19.7071 3.69457 19.9283 3.6938C21.9591 3.6856 23.9899 3.6856 26.0207 3.6938C27.4728 3.69918 28.5153 4.37603 29.1591 5.66903C29.292 5.93367 29.3768 6.21982 29.4096 6.51414C29.468 6.60479 29.3927 6.71927 29.4618 6.80762L29.4649 9.8546Z" fill="#002046"/>
<path d="M14.7201 3.69073C13.9841 3.69073 13.2474 3.68535 12.5114 3.69534C12.3339 3.69534 12.2809 3.6454 12.2863 3.46485C12.3001 3.18827 12.2955 2.91016 12.2863 2.63281C12.2824 2.49913 12.3239 2.44843 12.4645 2.44843C13.9852 2.45201 15.5056 2.45201 17.0257 2.44843C17.1625 2.44843 17.2101 2.49375 17.2063 2.63051C17.1986 2.89787 17.1917 3.1683 17.2063 3.43335C17.2186 3.6308 17.161 3.69534 16.9551 3.69226C16.2106 3.68151 15.4661 3.69073 14.7201 3.69073Z" fill="#FDFDFD"/>
</svg>
