<svg width="265" height="173" viewBox="0 0 265 173" fill="none" xmlns="http://www.w3.org/2000/svg">
<path d="M131.858 172.027C193.468 172.027 243.414 169.634 243.414 166.682C243.414 163.73 193.468 161.336 131.858 161.336C70.2474 161.336 20.3022 163.73 20.3022 166.682C20.3022 169.634 70.2474 172.027 131.858 172.027Z" fill="#E9ECF2"/>
<path d="M58.2678 148.61C38.9053 142.565 12.709 112.403 23.3394 82.9723C29.3823 66.2368 48.4283 64.996 63.3615 62.1961C84.1477 58.3145 93.5125 46.0333 107.243 30.8887C122.619 13.9941 157.548 -5.76392 188.427 20.5483C196.747 27.6434 198.076 41.3245 208.801 50.9649C219.59 60.6371 233.669 60.6689 239.997 79.8225C244.932 94.7444 223.671 125.797 209.276 135.056C182.668 152.173 101.897 162.227 58.2678 148.61Z" fill="#F3FAFF"/>
<path d="M252.019 86.9177C252.019 87.0132 252.019 87.1404 252.019 87.2359C251.703 100.758 249.773 111.226 247.02 119.307L239.87 123.284L245.596 122.711L245.755 122.679C242.211 131.524 237.624 137.124 233.384 140.688C230.758 142.883 228.259 144.283 226.202 145.174C226.076 145.237 225.949 145.301 225.791 145.333C225.475 145.46 225.158 145.587 224.842 145.715H221.014C220.982 145.524 220.919 145.365 220.887 145.174C220.855 145.046 220.824 144.951 220.824 144.824C220.792 144.665 220.761 144.537 220.729 144.378C217.122 126.688 223.545 113.071 231.454 103.558C231.486 103.526 231.518 103.494 231.518 103.462C234.27 100.153 237.212 97.3535 239.996 95.0309L241.452 99.4216L242.021 93.4083C246.83 89.6539 250.753 87.5222 251.734 87.045C251.956 86.9495 252.019 86.9177 252.019 86.9177Z" fill="#9AADE5"/>
<path d="M252.145 86.9813L252.019 87.2676L243.35 103.303L243.192 103.589L240.819 107.98L240.724 108.107L233.194 122.075V122.107L220.887 144.856L220.697 145.174L220.412 145.715H220.064L220.381 145.174L220.792 144.41L232.941 121.948L233.163 121.534L251.797 87.0449L251.892 86.854L252.145 86.9813Z" fill="white"/>
<path d="M250.746 101.835L240.687 108.04L240.819 108.257L250.878 102.052L250.746 101.835Z" fill="white"/>
<path d="M250.972 98.5971L243.098 103.454L243.23 103.671L251.105 98.814L250.972 98.5971Z" fill="white"/>
<path d="M231.764 103.485L231.512 103.504L232.934 122.126L233.186 122.107L231.764 103.485Z" fill="white"/>
<path d="M219.4 148.642C219.4 148.642 228.196 153.414 241.452 146.383L237.402 144.187L244.173 144.824C249.361 141.547 255.151 136.488 261.289 128.693L259.739 127.866L261.795 128.056C262.839 126.72 263.883 125.32 264.927 123.825C264.927 123.825 261.162 123.284 255.752 123.634L252.778 127.261L253.759 123.793C242.622 124.843 226.266 129.806 219.4 148.642Z" fill="#BAC8F3"/>
<path d="M264.838 123.654L218.681 147.623L218.812 147.878L264.969 123.909L264.838 123.654Z" fill="white"/>
<path d="M252.916 130.02L252.877 130.272L259.253 131.274L259.293 131.023L252.916 130.02Z" fill="white"/>
<path d="M249.749 131.6L249.692 131.848L257.088 133.578L257.145 133.33L249.749 131.6Z" fill="white"/>
<path d="M230.822 132.638L230.6 132.383C234.523 129.234 239.237 126.847 244.616 125.32L244.711 125.638C239.395 127.134 234.713 129.488 230.822 132.638Z" fill="#2E4882"/>
<path d="M228.385 46.8608V163.405C228.385 165.027 227.088 166.364 225.443 166.364H168.495C166.881 166.364 165.552 165.059 165.552 163.405V46.8608C165.552 45.2381 166.849 43.9019 168.495 43.9019H225.443C227.088 43.9019 228.385 45.2381 228.385 46.8608Z" fill="#446BD0"/>
<path d="M225.665 46.8608V163.405C225.665 165.027 224.367 166.364 222.722 166.364H165.774C164.16 166.364 162.832 165.059 162.832 163.405V46.8608C162.832 45.2381 164.129 43.9019 165.774 43.9019H222.722C224.367 43.9019 225.665 45.2381 225.665 46.8608Z" fill="#A2C3F2"/>
<path d="M221.362 58.951V151.314C221.362 153.191 219.938 154.719 218.198 154.719H170.33C168.59 154.719 167.166 153.191 167.166 151.314V58.951C167.166 57.0738 168.59 55.5466 170.33 55.5466H218.167C219.938 55.5466 221.362 57.0738 221.362 58.951Z" fill="#E1EAFF"/>
<path d="M202.189 49.5331H186.37C186.212 49.5331 186.085 49.4059 186.085 49.2468C186.085 49.0877 186.212 48.9604 186.37 48.9604H202.189C202.347 48.9604 202.474 49.0877 202.474 49.2468C202.474 49.4059 202.347 49.5331 202.189 49.5331Z" fill="#2E4882"/>
<path d="M208.295 124.047H180.232C178.492 124.047 177.069 122.616 177.069 120.866V119.657C177.069 117.907 178.492 116.475 180.232 116.475H208.295C210.035 116.475 211.459 117.907 211.459 119.657V120.866C211.428 122.616 210.035 124.047 208.295 124.047Z" fill="#608BE2"/>
<path d="M218.799 155.387H169.729C167.577 155.387 165.805 153.541 165.805 151.314V58.9509C165.805 56.692 167.577 54.8784 169.729 54.8784H218.799C220.95 54.8784 222.722 56.7238 222.722 58.9509V151.314C222.722 153.573 220.95 155.387 218.799 155.387ZM169.729 56.2147C168.305 56.2147 167.166 57.4237 167.166 58.9509V151.314C167.166 152.81 168.305 154.05 169.729 154.05H218.799C220.223 154.05 221.362 152.841 221.362 151.314V58.9509C221.362 57.4556 220.223 56.2147 218.799 56.2147H169.729Z" fill="white"/>
<path d="M171.595 104.512H216.932C217.882 104.512 218.641 103.749 218.641 102.794V73.4276C218.641 72.4731 217.882 71.7095 216.932 71.7095H171.595C170.646 71.7095 169.887 72.4731 169.887 73.4276V102.794C169.918 103.749 170.678 104.512 171.595 104.512Z" fill="#446BD0"/>
<path d="M182.162 94.2675H173.999C173.746 94.2675 173.525 94.0448 173.525 93.7902V92.1994C173.525 91.9449 173.746 91.7222 173.999 91.7222H182.162C182.415 91.7222 182.637 91.9449 182.637 92.1994V93.7902C182.637 94.0766 182.415 94.2675 182.162 94.2675Z" fill="white"/>
<path d="M192.982 94.2675H184.82C184.567 94.2675 184.345 94.0448 184.345 93.7902V92.1994C184.345 91.9449 184.567 91.7222 184.82 91.7222H192.982C193.235 91.7222 193.457 91.9449 193.457 92.1994V93.7902C193.425 94.0766 193.235 94.2675 192.982 94.2675Z" fill="white"/>
<path d="M203.771 94.2675H195.608C195.355 94.2675 195.134 94.0448 195.134 93.7902V92.1994C195.134 91.9449 195.355 91.7222 195.608 91.7222H203.771C204.024 91.7222 204.246 91.9449 204.246 92.1994V93.7902C204.214 94.0766 204.024 94.2675 203.771 94.2675Z" fill="white"/>
<path d="M214.56 94.2675H206.397C206.144 94.2675 205.922 94.0448 205.922 93.7902V92.1994C205.922 91.9449 206.144 91.7222 206.397 91.7222H214.56C214.813 91.7222 215.034 91.9449 215.034 92.1994V93.7902C215.002 94.0766 214.813 94.2675 214.56 94.2675Z" fill="white"/>
<path d="M214.465 99.1671H203.708C203.391 99.1671 203.138 98.9125 203.138 98.5944V97.2263C203.138 96.9081 203.391 96.6536 203.708 96.6536H214.465C214.781 96.6536 215.034 96.9081 215.034 97.2263V98.5944C215.002 98.9125 214.749 99.1671 214.465 99.1671Z" fill="white"/>
<path d="M175.613 81.4136V78.1365C175.613 77.4047 176.183 76.832 176.91 76.832H183.269C183.997 76.832 184.567 77.4047 184.567 78.1365V81.4136C184.567 82.1454 183.997 82.7181 183.269 82.7181H176.91C176.214 82.7181 175.613 82.1454 175.613 81.4136ZM176.91 77.182C176.372 77.182 175.961 77.5956 175.961 78.1365V81.4136C175.961 81.9545 176.372 82.3681 176.91 82.3681H183.269C183.807 82.3681 184.219 81.9545 184.219 81.4136V78.1365C184.219 77.5956 183.807 77.182 183.269 77.182H176.91Z" fill="white"/>
<path d="M213.515 79.3136C213.515 79.2818 213.515 79.2182 213.547 79.1863C214.971 77.7546 214.971 75.4002 213.547 73.9684C213.484 73.9048 213.484 73.8094 213.547 73.7457C213.61 73.6821 213.705 73.6821 213.768 73.7457C215.319 75.3047 215.319 77.8501 213.768 79.4091C213.705 79.4727 213.61 79.4727 213.547 79.4091C213.515 79.3772 213.515 79.3454 213.515 79.3136Z" fill="white"/>
<path d="M212.724 74.7956C212.724 74.7638 212.724 74.7001 212.756 74.6683C212.819 74.6047 212.914 74.6047 212.977 74.6683C214.021 75.7183 214.021 77.4682 212.977 78.5181C212.914 78.5817 212.819 78.5817 212.756 78.5181C212.693 78.4545 212.693 78.359 212.756 78.2954C213.673 77.3727 213.673 75.8455 212.756 74.891C212.724 74.8592 212.724 74.8274 212.724 74.7956Z" fill="white"/>
<path d="M211.965 77.5638C211.965 77.532 211.965 77.4683 211.997 77.4365C212.471 76.9593 212.471 76.1957 211.997 75.7184C211.933 75.6548 211.933 75.5594 211.997 75.4957C212.06 75.4321 212.155 75.4321 212.218 75.4957C212.819 76.1002 212.819 77.0547 212.218 77.6592C212.155 77.7229 212.06 77.7229 211.997 77.6592C211.965 77.6592 211.965 77.5956 211.965 77.5638Z" fill="white"/>
<path d="M225.918 140.338H225.411V46.8607C225.411 45.3653 224.209 44.1563 222.722 44.1563H165.774C164.287 44.1563 163.084 45.3653 163.084 46.8607V126.911H162.61V46.8607C162.61 45.079 164.034 43.6472 165.805 43.6472H222.754C224.526 43.6472 225.949 45.079 225.949 46.8607V140.338H225.918Z" fill="#2E4882"/>
<path d="M172.323 166.586H165.774C164.002 166.586 162.578 165.155 162.578 163.373V149.883H163.085V163.373C163.085 164.868 164.287 166.077 165.774 166.077H172.323V166.586Z" fill="#2E4882"/>
<path d="M198.329 166.077H192.255V166.586H198.329V166.077Z" fill="#2E4882"/>
<path d="M229.682 165.822C229.682 166.713 223.26 167.413 215.319 167.413C207.378 167.413 200.955 166.681 200.955 165.822C200.955 165.79 200.955 165.79 200.955 165.759V161.432H229.682V165.727C229.682 165.79 229.682 165.79 229.682 165.822Z" fill="#F49B51"/>
<path d="M215.319 163.086C223.252 163.086 229.682 162.374 229.682 161.495C229.682 160.617 223.252 159.905 215.319 159.905C207.386 159.905 200.955 160.617 200.955 161.495C200.955 162.374 207.386 163.086 215.319 163.086Z" fill="#FCC659"/>
<path d="M233.068 160.605C233.068 161.496 226.645 162.196 218.704 162.196C210.763 162.196 204.34 161.464 204.34 160.605C204.34 160.573 204.34 160.573 204.34 160.541V156.246H233.036V160.541C233.068 160.573 233.068 160.605 233.068 160.605Z" fill="#F49B51"/>
<path d="M218.704 157.868C226.637 157.868 233.068 157.156 233.068 156.278C233.068 155.399 226.637 154.687 218.704 154.687C210.771 154.687 204.34 155.399 204.34 156.278C204.34 157.156 210.771 157.868 218.704 157.868Z" fill="#FCC659"/>
<path d="M229.682 155.418C229.682 156.309 223.26 157.009 215.319 157.009C207.378 157.009 200.955 156.277 200.955 155.418C200.955 155.386 200.955 155.386 200.955 155.355V151.028H229.682V155.323C229.682 155.386 229.682 155.386 229.682 155.418Z" fill="#F49B51"/>
<path d="M215.319 152.682C223.252 152.682 229.682 151.97 229.682 151.091C229.682 150.213 223.252 149.5 215.319 149.5C207.386 149.5 200.955 150.213 200.955 151.091C200.955 151.97 207.386 152.682 215.319 152.682Z" fill="#FCC659"/>
<path d="M215.319 167.604C209.466 167.604 200.797 167.127 200.797 165.823H201.145C201.145 166.332 206.017 167.254 215.319 167.254C215.667 167.254 215.983 167.254 216.331 167.254V167.604C216.015 167.572 215.667 167.604 215.319 167.604Z" fill="#2E4882"/>
<path d="M221.014 167.445L220.982 167.095C222.437 167.032 223.766 166.936 224.937 166.809L224.968 167.159C223.829 167.286 222.469 167.382 221.014 167.445Z" fill="#2E4882"/>
<path d="M209.656 162.004C204.277 161.495 204.277 160.827 204.277 160.604H204.625C204.625 160.764 205.543 161.273 209.719 161.654L209.656 162.004Z" fill="#2E4882"/>
<path d="M218.799 162.354C217.185 162.354 215.604 162.323 214.085 162.259V161.909C216.774 162.004 219.78 162.036 222.564 161.941V162.291C221.33 162.354 220.065 162.354 218.799 162.354Z" fill="#2E4882"/>
<path d="M226.139 162.132L226.107 161.782C227.626 161.686 228.986 161.559 230.062 161.4L230.125 161.75C229.018 161.909 227.658 162.036 226.139 162.132Z" fill="#2E4882"/>
<path d="M205.669 152.46C200.892 151.982 200.892 151.346 200.892 151.123H201.24C201.24 151.123 201.366 151.696 205.732 152.141L205.669 152.46Z" fill="#2E4882"/>
<path d="M215.413 152.873C213.768 152.873 212.155 152.841 210.604 152.778V152.428C212.123 152.491 213.737 152.523 215.382 152.523C218.324 152.523 221.172 152.428 223.576 152.237L223.608 152.587C221.203 152.778 218.356 152.873 215.413 152.873Z" fill="#2E4882"/>
<path d="M234.776 150.2C234.776 151.091 228.354 151.791 220.412 151.791C212.471 151.791 206.049 151.06 206.049 150.2C206.049 150.169 206.049 150.169 206.049 150.137V145.81H234.744V150.105C234.776 150.169 234.776 150.169 234.776 150.2Z" fill="#F49B51"/>
<path d="M220.412 147.464C228.345 147.464 234.776 146.752 234.776 145.874C234.776 144.995 228.345 144.283 220.412 144.283C212.48 144.283 206.049 144.995 206.049 145.874C206.049 146.752 212.48 147.464 220.412 147.464Z" fill="#FCC659"/>
<path d="M232.087 145.874C232.087 146.478 226.867 146.955 220.381 146.955C213.927 146.955 208.675 146.478 208.675 145.874C208.675 145.269 213.895 144.792 220.381 144.792C226.867 144.792 232.087 145.301 232.087 145.874Z" fill="#F49B51"/>
<path d="M183.175 138.206C175.17 137.983 168.495 144.346 168.273 152.396C168.052 160.446 174.379 167.159 182.384 167.382C190.388 167.604 197.064 161.241 197.285 153.191C197.475 145.11 191.179 138.429 183.175 138.206ZM194.438 153.096C194.343 156.214 193.046 159.141 190.799 161.305C188.522 163.468 185.579 164.614 182.447 164.518C176.025 164.327 170.931 158.95 171.089 152.46C171.184 149.342 172.449 146.415 174.727 144.251C176.91 142.183 179.758 141.038 182.732 141.038C182.827 141.038 182.953 141.038 183.048 141.038C189.376 141.197 194.406 146.446 194.406 152.778C194.438 152.873 194.438 152.969 194.438 153.096Z" fill="#FCC659"/>
<path d="M194.438 152.778C194.438 152.873 194.438 153.001 194.438 153.096C194.343 156.214 193.046 159.141 190.799 161.305C188.522 163.468 185.579 164.614 182.447 164.518C176.025 164.327 170.931 158.95 171.089 152.46C171.184 149.342 172.449 146.415 174.727 144.251C176.91 142.183 179.758 141.038 182.732 141.038C182.827 141.038 182.953 141.038 183.048 141.038C189.407 141.197 194.438 146.446 194.438 152.778Z" fill="#F49B51"/>
<path d="M182.036 161.75V159.555C180.77 159.523 179.473 159.141 178.714 158.6L179.22 157.137C180.011 157.646 181.118 158.091 182.352 158.091C183.902 158.091 184.946 157.2 184.946 155.959C184.946 154.75 184.092 154.019 182.479 153.351C180.264 152.491 178.903 151.473 178.903 149.564C178.903 147.751 180.201 146.383 182.194 146.033V143.837H183.554V145.969C184.851 146.001 185.737 146.351 186.37 146.733L185.832 148.164C185.389 147.91 184.472 147.433 183.08 147.433C181.403 147.433 180.77 148.451 180.77 149.31C180.77 150.455 181.561 151.028 183.459 151.792C185.706 152.714 186.845 153.86 186.845 155.8C186.845 157.518 185.642 159.141 183.396 159.523V161.782H182.036V161.75Z" fill="#FCC659"/>
<path d="M193.963 149.819C193.931 149.723 193.9 149.628 193.9 149.533C192.982 146.319 190.704 143.678 187.699 142.247L187.825 141.96C190.926 143.424 193.235 146.128 194.185 149.437C194.216 149.564 194.248 149.66 194.279 149.755L193.963 149.819Z" fill="#2E4882"/>
<path d="M187.699 142.278C185.263 141.133 182.51 140.878 179.947 141.547L179.853 141.228C182.51 140.528 185.358 140.783 187.825 141.96L187.699 142.278Z" fill="#2E4882"/>
<path d="M193.014 158.759L192.729 158.6C193.52 157.264 193.995 155.832 194.216 154.337L194.533 154.369C194.343 155.928 193.805 157.391 193.014 158.759Z" fill="#2E4882"/>
<path d="M192.223 141.928C191.116 140.942 189.85 140.147 188.49 139.542L188.616 139.224C190.008 139.828 191.306 140.656 192.444 141.674L192.223 141.928Z" fill="#2E4882"/>
<path d="M190.958 165.027L190.768 164.741C194.596 162.132 196.969 157.805 197.095 153.16C197.159 150.264 196.399 147.464 194.881 145.046L195.165 144.855C196.747 147.337 197.538 150.201 197.443 153.16C197.317 157.932 194.881 162.355 190.958 165.027Z" fill="#2E4882"/>
<path d="M218.831 79.7588H218.483V73.2683C218.483 72.4092 217.787 71.7411 216.964 71.7411H188.079V71.3911H216.964C218.008 71.3911 218.831 72.2183 218.831 73.2683V79.7588Z" fill="#2E4882"/>
<path d="M218.831 83.1631H218.483V86.9174H218.831V83.1631Z" fill="#2E4882"/>
<path d="M184.345 71.3911H178.461V71.7411H184.345V71.3911Z" fill="#2E4882"/>
<path d="M79.0542 36.234C81.3954 34.325 83.5468 32.0024 84.5908 29.1389C85.6032 26.2754 85.2552 22.7756 83.1038 20.6439C81.3637 18.894 78.7061 18.3213 76.27 18.5758C73.8339 18.8622 71.5243 19.9121 69.3413 21.0575C65.1651 23.2529 40.8355 38.3975 49.2828 43.3927C57.4454 48.197 72.7582 41.3883 79.0542 36.234Z" fill="#F3FAFF"/>
<path d="M23.1495 76.6727L22.8647 76.4818C26.2817 70.7231 31.8183 66.8096 40.2657 64.2007L40.3606 64.5188C32.0081 67.1596 26.5348 71.0094 23.1495 76.6727Z" fill="#2E4882"/>
<path d="M18.7519 78.9317L18.4355 78.8045C22.8649 66.5551 34.2229 62.6417 44.7584 60.4146L44.8217 60.7327C34.3811 62.9599 23.118 66.8415 18.7519 78.9317Z" fill="#2E4882"/>
<path d="M172.07 7.63102C164.287 3.62214 157.706 2.54038 151.347 4.22666L151.252 3.90849C157.706 2.1904 164.382 3.27216 172.228 7.31286L172.07 7.63102Z" fill="#2E4882"/>
<path d="M177.923 8.07635C168.906 2.31756 158.149 -2.8049 146.633 2.76299L146.475 2.44483C158.149 -3.21851 169.001 1.96758 178.081 7.75818L177.923 8.07635Z" fill="#2E4882"/>
<path d="M135.496 23.6028C127.492 23.3801 120.816 29.7434 120.595 37.793C120.373 45.8426 126.701 52.5559 134.705 52.7786C142.71 53.0013 149.385 46.638 149.607 38.5884C149.797 30.5388 143.501 23.8256 135.496 23.6028ZM146.759 38.493C146.665 41.611 145.367 44.5381 143.121 46.7016C140.875 48.8651 137.901 50.0105 134.769 49.9151C128.346 49.7242 123.252 44.3472 123.411 37.8566C123.505 34.7386 124.771 31.8115 127.049 29.648C129.264 27.5799 132.079 26.4345 135.085 26.4345C135.18 26.4345 135.306 26.4345 135.401 26.4345C141.729 26.5936 146.759 31.8433 146.759 38.1748C146.759 38.2702 146.759 38.3975 146.759 38.493Z" fill="#FCC659"/>
<path d="M146.759 38.1749C146.759 38.2703 146.759 38.3976 146.759 38.493C146.665 41.611 145.367 44.5382 143.121 46.7017C140.843 48.8652 137.901 50.0106 134.769 49.9151C128.346 49.7242 123.252 44.3473 123.411 37.8567C123.505 34.7387 124.771 31.8116 127.049 29.648C129.264 27.58 132.079 26.4346 135.085 26.4346C135.18 26.4346 135.306 26.4346 135.401 26.4346C141.729 26.6255 146.759 31.8434 146.759 38.1749Z" fill="#F49B51"/>
<path d="M134.357 47.1471V44.9517C133.092 44.9199 131.794 44.5381 131.035 43.9972L131.541 42.5337C132.332 43.0427 133.44 43.4882 134.674 43.4882C136.224 43.4882 137.268 42.5973 137.268 41.3565C137.268 40.1474 136.414 39.4157 134.8 38.7475C132.585 37.8885 131.225 36.8703 131.225 34.9613C131.225 33.1478 132.522 31.7797 134.515 31.4297V29.2344H135.876V31.3661C137.173 31.3979 138.059 31.7479 138.692 32.1297L138.154 33.5614C137.711 33.3069 136.793 32.8296 135.401 32.8296C133.724 32.8296 133.092 33.8478 133.092 34.7068C133.092 35.8522 133.883 36.4249 135.781 37.1885C138.027 38.1112 139.166 39.2566 139.166 41.1974C139.166 42.9155 137.964 44.5381 135.718 44.9199V47.1789H134.357V47.1471Z" fill="#FCC659"/>
<path d="M146.316 35.2796C146.285 35.1841 146.253 35.0887 146.222 34.9932C145.304 31.7798 143.058 29.139 140.021 27.7072L140.147 27.4209C143.248 28.8845 145.557 31.5889 146.506 34.8978C146.538 34.9932 146.57 35.1205 146.601 35.2159L146.316 35.2796Z" fill="#2E4882"/>
<path d="M140.02 27.7073C137.584 26.5619 134.832 26.3073 132.237 26.9755L132.143 26.6573C134.8 25.9574 137.648 26.2119 140.115 27.3891L140.02 27.7073Z" fill="#2E4882"/>
<path d="M123.727 41.1657C122.936 38.0795 123.379 34.8978 124.961 32.1616L125.246 32.3207C123.695 34.9933 123.252 38.1113 124.043 41.1021L123.727 41.1657Z" fill="#2E4882"/>
<path d="M144.545 27.6116C143.437 26.6253 142.172 25.8299 140.812 25.2254L140.938 24.9072C142.33 25.5117 143.627 26.339 144.766 27.3571L144.545 27.6116Z" fill="#2E4882"/>
<path d="M143.279 50.6785L143.09 50.3921C146.918 47.7832 149.291 43.4562 149.417 38.8109C149.48 35.9156 148.721 33.1158 147.203 30.6977L147.487 30.5068C149.069 32.9885 149.86 35.852 149.765 38.8109C149.639 43.6152 147.203 48.0377 143.279 50.6785Z" fill="#2E4882"/>
<path d="M133.092 69.5776L134.389 64.0415L139.641 61.8462L140.59 69.5776C140.59 69.5776 139.799 74.6046 134.99 76.3863C130.118 78.1999 133.092 69.5776 133.092 69.5776Z" fill="#FCB47E"/>
<path d="M131.004 55.0375C131.004 55.0375 129.137 65.4415 132.174 65.537C135.211 65.6006 137.711 64.4552 138.312 63.7235C138.945 63.0235 139.388 59.5873 139.388 59.5873C139.388 59.5873 139.767 55.133 137.901 54.274C136.066 53.3831 132.016 51.9195 131.004 55.0375Z" fill="#FCB47E"/>
<path d="M141.001 61.6553C140.4 62.7689 139.831 63.8506 139.831 63.8506C138.945 63.7234 137.964 62.6098 137.774 61.6235C137.774 61.6235 134.99 61.369 134.895 57.901C134.895 57.901 130.055 57.9328 129.928 53.7012C129.801 49.4696 134.642 50.5513 136.256 51.8558C137.869 53.1603 138.818 53.7966 141.318 54.6239C143.975 55.4829 141.761 60.2236 141.001 61.6553Z" fill="#374263"/>
<path d="M138.723 162.164L138.122 156.023H131.668L133.06 162.005C133.06 162.005 133.819 164.009 135.971 163.946C138.091 163.85 138.723 162.164 138.723 162.164Z" fill="#FCB47E"/>
<path d="M170.551 142.946L165.584 139.319L161.313 144.155L167.672 147.401C167.672 147.401 168.463 147.56 170.045 146.16C171.627 144.792 170.551 142.946 170.551 142.946Z" fill="#FCB47E"/>
<path d="M144.165 157.932C140.432 159.364 135.655 158.95 130.498 157.932C130.339 157.582 130.213 157.2 130.055 156.85C120.247 131.906 127.176 95.6355 127.176 95.6355H142.615L142.267 107.63C141.602 110.78 141.128 113.994 140.812 117.175C138.882 138.079 144.165 157.932 144.165 157.932Z" fill="#3F5A9F"/>
<path d="M144.165 157.932C143.912 157.455 135.117 139.479 137.743 119.211L140.527 121.47C139.609 140.433 144.039 157.455 144.165 157.932Z" fill="#385087"/>
<path d="M169.127 136.424C167.704 140.433 166.185 143.519 164.572 145.333C163.812 146.16 163.021 146.733 162.199 146.987C159.826 145.778 157.675 144.442 155.681 143.042C155.397 142.851 155.143 142.66 154.89 142.469C154.542 142.215 154.194 141.96 153.846 141.674C153.688 141.547 153.53 141.419 153.403 141.324C153.087 141.069 152.802 140.847 152.518 140.592C152.264 140.37 152.011 140.147 151.758 139.924C150.429 138.779 149.196 137.57 148.057 136.361C147.962 136.233 147.835 136.138 147.74 136.011C147.677 135.915 147.582 135.852 147.519 135.756C131.953 118.352 134.8 95.6355 134.8 95.6355H148.341C149.449 117.43 169.127 136.424 169.127 136.424Z" fill="#3F5A9F"/>
<path d="M151.315 48.4834C150.145 47.6243 149.354 47.1789 149.164 47.0198C148.911 46.8289 148.847 46.4153 148.563 45.9698C147.898 44.9517 146.538 43.1382 145.114 42.6291C144.924 42.5655 144.798 42.7564 144.988 42.9791C145.336 43.3609 146 43.9336 145.905 43.9972C145.684 44.1881 144.133 42.3109 143.722 42.7564C143.406 43.0745 145.62 44.7608 145.525 44.8563C145.336 45.079 143.659 43.17 143.279 43.5836C142.9 43.9972 144.893 45.0472 144.829 45.2381C144.735 45.429 143.342 44.2517 143.058 44.5381C142.646 44.9517 145.146 46.5107 145.083 46.7334C144.988 47.1152 143.69 46.3198 143.501 46.7653C143.311 47.1789 145.146 47.9743 145.462 48.1334C146.253 48.547 146.823 48.3561 147.487 49.3742C147.835 49.9151 148.183 50.456 148.531 51.0287L151.315 48.4834Z" fill="#FCB47E"/>
<path d="M119.424 49.7242C120.468 48.7697 121.228 48.197 121.418 48.0379C121.639 47.847 121.639 47.4016 121.892 46.9243C122.43 45.8425 123.632 43.9017 124.993 43.2336C125.182 43.1382 125.341 43.329 125.151 43.5518C124.834 43.9654 124.265 44.6017 124.36 44.6653C124.581 44.8244 125.942 42.82 126.416 43.2018C126.764 43.4881 124.74 45.3971 124.834 45.4926C125.024 45.6835 126.511 43.6154 126.954 43.9972C127.397 44.3472 125.499 45.6516 125.594 45.8107C125.689 45.9698 126.954 44.6653 127.271 44.9199C127.713 45.2699 125.404 47.1152 125.499 47.3379C125.625 47.6879 126.828 46.797 127.081 47.2107C127.302 47.5925 125.594 48.5788 125.246 48.8015C124.486 49.2787 123.917 49.1833 123.379 50.2332C123.094 50.8059 122.81 51.4104 122.525 51.9831L119.424 49.7242Z" fill="#FCB47E"/>
<path d="M148.436 97.417C147.234 98.1806 145.114 99.4533 142.488 100.535C140.147 101.49 137.426 102.349 134.579 102.603C131.826 102.858 128.979 102.539 126.321 101.235C126.479 99.9623 126.669 98.8806 126.796 98.0215C129.232 99.326 131.89 99.8669 134.547 99.9623C137.331 100.058 140.084 99.6124 142.552 98.9442C144.798 98.3397 146.823 97.6079 148.373 96.908C148.405 97.067 148.405 97.2579 148.436 97.417Z" fill="#385087"/>
<path d="M123.79 95.7626V78.6136C123.79 78.6136 108.477 76.0046 111.483 61.0827C113.381 51.6014 120.12 48.2288 120.12 48.2288L123.853 51.2514C123.853 51.2514 115.912 63.4371 126.353 67.6687C126.353 67.6687 132.237 67.4778 133.756 69.1322C133.756 69.1322 137.11 71.8366 140.653 67.3505C140.653 67.3505 144.26 65.9506 147.329 66.7778C149.86 67.4778 153.119 61.1463 147.076 50.456L150.872 47.0198C150.872 47.0198 173.082 68.4959 151.315 79.1226L150.113 96.2399C150.081 96.2399 133.25 105.848 123.79 95.7626Z" fill="#6D92F0"/>
<path d="M137.11 62.2599C137.774 62.2599 138.312 61.7186 138.312 61.0508C138.312 60.3831 137.774 59.8418 137.11 59.8418C136.446 59.8418 135.908 60.3831 135.908 61.0508C135.908 61.7186 136.446 62.2599 137.11 62.2599Z" fill="#FCB47E"/>
<path d="M140.4 125.702C137.553 120.134 135.686 113.962 134.864 107.344L135.117 107.312C135.939 113.898 137.806 120.07 140.622 125.575L140.4 125.702Z" fill="white"/>
<path d="M147.677 106.071C143.406 106.071 142.014 102.317 142.014 102.285L142.267 102.19C142.267 102.222 143.627 105.912 147.898 105.785V106.071C147.803 106.071 147.74 106.071 147.677 106.071Z" fill="white"/>
<path d="M135.908 71.3911C135.813 71.3911 135.749 71.3911 135.654 71.3911C133.725 71.2002 132.744 68.9413 132.712 68.8458L132.965 68.7504C132.965 68.7822 133.914 70.9457 135.686 71.1366C137.173 71.2639 138.818 69.9912 140.558 67.3186L140.78 67.4777C139.071 70.0548 137.426 71.3911 135.908 71.3911Z" fill="#2E4882"/>
<path d="M123.79 78.6453C123.79 78.6453 108.477 76.0364 111.483 61.1144C111.641 60.2872 111.831 59.5236 112.084 58.7918C112.116 58.76 112.147 58.6964 112.211 58.6646C111.958 62.0371 111.831 64.9642 113.318 68.1777C116.387 74.8273 124.012 78.6135 123.79 78.6453Z" fill="#608BE2"/>
<path d="M151.315 79.1226L150.113 96.2399C150.113 96.2399 146.601 98.2443 141.919 99.4534C142.742 98.817 146.158 93.5673 146.728 90.8947C147.772 86.1223 147.899 83.386 148.025 78.2954C153.087 76.9591 158.877 72.473 160.87 64.9961C161.281 70.1186 159.098 75.3046 151.315 79.1226Z" fill="#608BE2"/>
<path d="M135.117 98.5942C135.053 98.5942 135.053 98.5942 135.053 98.5942V98.3079C135.116 98.3079 142.235 98.4033 148.404 94.6172L148.531 94.8399C142.646 98.467 135.907 98.5942 135.117 98.5942Z" fill="#2E4882"/>
<path d="M164.571 145.365C163.812 146.192 163.021 146.765 162.199 147.019C159.826 145.81 157.674 144.474 155.681 143.074C155.396 142.883 155.143 142.692 154.89 142.501C154.542 142.247 154.194 141.992 153.846 141.706C153.688 141.578 153.53 141.451 153.403 141.356C153.087 141.101 152.802 140.878 152.517 140.624C152.264 140.401 152.011 140.179 151.758 139.956C150.429 138.81 149.195 137.601 148.056 136.392C147.961 136.265 147.835 136.17 147.74 136.042C147.677 135.947 147.582 135.883 147.519 135.788C156.725 143.487 162.642 145.046 164.571 145.365Z" fill="#385087"/>
<path d="M167.134 135.883C160.617 131.62 156.472 123.92 156.44 123.857L156.662 123.729C156.694 123.793 160.806 131.429 167.292 135.661L167.134 135.883Z" fill="white"/>
<path d="M139.546 167.063H124.898C124.391 167.063 123.98 166.618 124.012 166.109C124.012 166.109 124.012 166.109 124.012 166.077C124.012 165.95 124.043 165.854 124.043 165.727C124.107 165.345 124.202 164.932 124.391 164.709C125.087 163.786 126.448 163.373 128.852 162.386C130.371 161.782 131.636 160.986 132.206 160.605C132.396 160.477 132.617 160.509 132.775 160.668C135.686 163.532 137.458 162.927 137.996 161.75C138.407 160.859 138.976 161.05 139.135 161.305C139.609 162.132 139.894 164.55 139.989 165.727C139.989 165.854 140.021 165.982 140.021 166.077C140.052 166.3 140.052 166.427 140.052 166.427C140.115 166.777 139.862 167.063 139.546 167.063Z" fill="#374263"/>
<path d="M129.675 163.977C128.631 163.468 128.789 162.386 128.789 162.386L129.042 162.418C129.042 162.45 128.916 163.341 129.802 163.754L129.675 163.977Z" fill="white"/>
<path d="M128.378 164.423C127.429 163.882 127.524 162.927 127.524 162.895L127.777 162.927C127.777 162.959 127.682 163.754 128.504 164.2L128.378 164.423Z" fill="white"/>
<path d="M136.667 163.754C135.686 163.754 134.8 163.309 134.769 163.309L134.895 163.086C134.927 163.086 137.142 164.232 138.281 162.8L138.47 162.959C137.996 163.563 137.3 163.754 136.667 163.754Z" fill="white"/>
<path d="M138.249 165.918H129.707V166.173H138.249V165.918Z" fill="white"/>
<path d="M128.599 165.918H126.574V166.173H128.599V165.918Z" fill="white"/>
<path d="M174.949 143.837L167.799 156.691C167.546 157.137 166.976 157.296 166.533 157.009C166.438 156.946 166.343 156.882 166.248 156.819C165.932 156.564 165.647 156.309 165.521 156.023C165.046 154.973 165.363 153.573 165.679 150.996C165.9 149.374 165.837 147.878 165.774 147.178C165.742 146.955 165.9 146.765 166.122 146.701C170.013 145.556 170.361 143.678 169.602 142.66C169.033 141.865 169.476 141.451 169.76 141.451C170.709 141.419 172.924 142.374 174.031 142.851C174.158 142.915 174.253 142.947 174.348 142.978C174.538 143.074 174.664 143.137 174.664 143.137C174.949 143.201 175.075 143.551 174.949 143.837Z" fill="#374263"/>
<path d="M166.09 151.123C165.837 151.123 165.679 151.092 165.647 151.092L165.71 150.837C165.71 150.837 166.755 151.06 167.292 150.36L167.482 150.519C167.103 151.028 166.501 151.123 166.09 151.123Z" fill="white"/>
<path d="M165.964 152.523C165.711 152.523 165.552 152.492 165.521 152.492L165.584 152.237C165.584 152.237 166.628 152.46 167.166 151.76L167.356 151.919C166.976 152.428 166.375 152.523 165.964 152.523Z" fill="white"/>
<path d="M169.602 146.192L169.444 146.001C169.475 145.969 171.342 144.347 170.456 142.724L170.678 142.597C171.659 144.378 169.602 146.16 169.602 146.192Z" fill="white"/>
<path d="M173.125 144.707L169.031 152.247L169.253 152.369L173.347 144.829L173.125 144.707Z" fill="white"/>
<path d="M168.501 153.228L167.531 155.015L167.753 155.137L168.723 153.35L168.501 153.228Z" fill="white"/>
<path d="M126.321 67.8596C126.195 67.8278 123.062 66.9051 121.449 63.8825C120.342 61.8145 120.215 59.2692 121.101 56.342L121.417 56.4375C120.531 59.2692 120.658 61.719 121.734 63.7235C123.284 66.6188 126.384 67.5096 126.416 67.5414L126.321 67.8596Z" fill="#2E4882"/>
<path d="M134.231 58.092C133.06 58.092 131.194 57.583 130.213 56.3739C129.612 55.6103 129.105 54.274 130.213 52.2378L130.434 52.3651C129.612 53.9241 129.612 55.2285 130.403 56.2467C131.542 57.6466 133.914 58.0602 134.832 57.8057L134.895 58.0602C134.737 58.0602 134.516 58.092 134.231 58.092Z" fill="#374263"/>
<path d="M133.155 58.3466C132.332 58.3466 131.352 58.1239 130.308 57.4239L130.434 57.2012C133.218 59.0465 135.338 57.4557 135.37 57.4239L135.528 57.6148C135.496 57.6466 134.579 58.3466 133.155 58.3466Z" fill="#374263"/>
<path d="M11.0957 100.599C11.0957 100.694 11.0957 100.79 11.0957 100.885C11.3488 112.626 13.0256 121.693 15.4301 128.725L21.6312 132.161L16.664 131.652H16.5374C19.638 139.32 23.5927 144.187 27.2627 147.274C29.5407 149.183 31.7237 150.392 33.4954 151.187C33.622 151.251 33.7169 151.283 33.8434 151.346C34.1282 151.473 34.4129 151.569 34.666 151.664H37.9564C37.988 151.505 38.0197 151.346 38.0513 151.187C38.0829 151.092 38.0829 150.996 38.1146 150.901C38.1462 150.773 38.1778 150.646 38.2095 150.519C41.3416 135.183 35.7734 123.379 28.9079 115.107C28.8763 115.075 28.8763 115.044 28.8446 115.012C26.4401 112.148 23.9091 109.698 21.5046 107.694L20.2391 111.512L19.7645 106.294C15.5883 103.049 12.1714 101.203 11.3488 100.758C11.1906 100.631 11.0957 100.599 11.0957 100.599Z" fill="#9AADE5"/>
<path d="M11.0007 100.662L11.1273 100.885L18.6571 114.821L18.7837 115.043L20.8402 118.861L20.9034 118.989L27.4525 131.079V131.111L38.1145 150.837L38.2727 151.123L38.5258 151.601H38.8105L38.5574 151.123L38.2094 150.455L27.674 130.984L27.4841 130.602L11.3171 100.694L11.2222 100.535L11.0007 100.662Z" fill="white"/>
<path d="M12.2244 113.546L12.1086 113.736L20.8194 119.108L20.9352 118.918L12.2244 113.546Z" fill="white"/>
<path d="M12.0267 110.72L11.9109 110.91L18.7338 115.118L18.8496 114.928L12.0267 110.72Z" fill="white"/>
<path d="M28.4965 132.097L29.7304 116.03L29.5089 115.998L28.2434 132.097H28.4965Z" fill="white"/>
<path d="M39.5382 154.814C39.5382 154.814 31.9134 158.95 20.3972 152.842L23.909 150.933L18.056 151.473C13.5634 148.642 8.53294 144.219 3.21776 137.474L4.54655 136.742L2.77482 136.901C1.88896 135.756 0.971458 134.515 0.0539551 133.243C0.0539551 133.243 3.31267 132.765 8.02674 133.083L10.5894 136.233L9.73519 133.243C19.3848 134.165 33.5586 138.492 39.5382 154.814Z" fill="#BAC8F3"/>
<path d="M0.116125 133.132L0 133.358L40.0573 154.159L40.1734 153.933L0.116125 133.132Z" fill="white"/>
<path d="M10.4747 138.628L4.94189 139.498L4.97609 139.718L10.5089 138.848L10.4747 138.628Z" fill="white"/>
<path d="M13.1899 140.006L6.74951 141.512L6.7997 141.729L13.24 140.223L13.1899 140.006Z" fill="white"/>
<path d="M105.883 161.909H35.9631C34.2546 161.909 32.8625 160.509 32.8625 158.791V110.939C32.8625 109.221 34.2546 107.821 35.9631 107.821H105.883C107.592 107.821 108.984 109.221 108.984 110.939V158.791C108.984 160.509 107.592 161.909 105.883 161.909Z" fill="#6D92F0"/>
<path d="M106.674 113.421V156.278C106.674 158.091 105.219 159.555 103.415 159.555H98.4797V112.912H37.0703C36.311 112.912 35.6782 112.275 35.6782 111.512C35.6782 110.748 36.311 110.112 37.0703 110.112H103.415C105.219 110.144 106.674 111.607 106.674 113.421Z" fill="#2E4882"/>
<path d="M88.0394 108.521C88.1026 108.616 88.1659 108.68 88.2292 108.775C90.1275 111.257 90.9817 114.343 90.5704 117.43C90.1908 120.548 88.6088 123.316 86.1411 125.225C81.0474 129.17 73.7074 128.247 69.7842 123.125C67.886 120.643 67.0317 117.557 67.443 114.471C67.8227 111.48 69.3097 108.775 71.6192 106.866C71.7142 106.803 71.7774 106.739 71.8723 106.676C76.8711 102.762 84.053 103.621 88.0394 108.521Z" fill="#F49B51"/>
<path d="M78.2632 125.098V122.902C76.9976 122.87 75.7005 122.489 74.9412 121.948L75.4474 120.484C76.2383 120.993 77.3457 121.439 78.5795 121.439C80.1298 121.439 81.1739 120.548 81.1739 119.307C81.1739 118.098 80.3196 117.366 78.7061 116.698C76.4914 115.839 75.131 114.821 75.131 112.912C75.131 111.098 76.4281 109.73 78.4213 109.38V107.185H79.7818V109.317C81.0789 109.348 81.9648 109.698 82.5976 110.08L82.0597 111.512C81.6168 111.257 80.6993 110.78 79.3072 110.78C77.6304 110.78 76.9976 111.798 76.9976 112.657C76.9976 113.803 77.7886 114.375 79.6869 115.139C81.9332 116.062 83.0721 117.207 83.0721 119.148C83.0721 120.866 81.8699 122.489 79.6236 122.87V125.129H78.2632V125.098Z" fill="#FCC659"/>
<path d="M82.6607 101.84C74.9094 99.8033 66.9999 104.449 64.9751 112.244C62.9503 120.039 67.5694 127.993 75.3207 130.029C83.072 132.065 90.9815 127.42 93.0064 119.625C95.0628 111.862 90.412 103.876 82.6607 101.84ZM90.2855 118.925C89.4945 121.948 87.5646 124.493 84.8754 126.084C82.1862 127.675 79.054 128.12 76.0168 127.325C69.7841 125.67 66.0508 119.275 67.696 113.007C68.4869 109.985 70.3852 107.439 73.1061 105.848C75.7004 104.321 78.706 103.876 81.6483 104.544C81.7432 104.576 81.8698 104.608 81.9647 104.639C88.1025 106.262 91.8041 112.498 90.3804 118.639C90.3488 118.702 90.3171 118.83 90.2855 118.925Z" fill="#FCC659"/>
<path d="M57.7616 90.481C49.7572 90.2583 43.0816 96.6216 42.8601 104.671C42.6387 112.721 48.9663 119.434 56.9707 119.657C64.9751 119.879 71.6507 113.516 71.8722 105.467C72.062 97.417 65.7661 90.7037 57.7616 90.481ZM69.0248 105.371C68.9299 108.489 67.6327 111.416 65.3864 113.58C63.1401 115.743 60.1661 116.889 57.034 116.793C50.6115 116.602 45.5177 111.225 45.6759 104.735C45.7708 101.617 47.0364 98.6897 49.3143 96.5261C51.4973 94.4581 54.3447 93.3127 57.3187 93.3127C57.4136 93.3127 57.5402 93.3127 57.6351 93.3127C63.9627 93.4718 68.9931 98.7215 68.9931 105.053C69.0248 105.18 69.0248 105.276 69.0248 105.371Z" fill="#FCC659"/>
<path d="M66.3987 97.6398C66.462 97.7353 66.5253 97.7989 66.5886 97.8943C68.4869 100.376 69.3411 103.462 68.9298 106.548C68.5501 109.666 66.9682 112.434 64.5005 114.343C59.4067 118.289 52.0667 117.366 48.1436 112.244C46.2453 109.762 45.3911 106.676 45.8024 103.59C46.1821 100.599 47.669 97.8943 49.9786 95.9854C50.0735 95.9217 50.1368 95.8581 50.2317 95.7945C55.2305 91.881 62.4124 92.7401 66.3987 97.6398Z" fill="#F49B51"/>
<path d="M56.6228 114.025V111.83C55.3573 111.798 54.0601 111.416 53.3008 110.875L53.807 109.412C54.5979 109.921 55.7053 110.366 56.9392 110.366C58.4894 110.366 59.5335 109.475 59.5335 108.235C59.5335 107.026 58.6792 106.294 57.0657 105.626C54.851 104.767 53.4906 103.749 53.4906 101.84C53.4906 100.026 54.7878 98.6579 56.781 98.3079V96.1125H58.1414V98.2443C59.4386 98.2761 60.3244 98.6261 60.9572 99.0079L60.4193 100.44C59.9764 100.185 59.0589 99.7078 57.6668 99.7078C55.99 99.7078 55.3573 100.726 55.3573 101.585C55.3573 102.73 56.1482 103.303 58.0465 104.067C60.2928 104.989 61.4318 106.135 61.4318 108.076C61.4318 109.794 60.2295 111.416 57.9832 111.798V114.057H56.6228V114.025Z" fill="#FCC659"/>
<path d="M66.7784 94.2991C65.6711 93.3128 64.4056 92.5174 63.0452 91.9129L63.1717 91.5947C64.5638 92.1992 65.8609 93.0265 66.9999 94.0446L66.7784 94.2991Z" fill="#2E4882"/>
<path d="M65.5446 117.398L65.3547 117.111C69.1829 114.502 71.5558 110.175 71.6823 105.53C71.7456 102.635 70.9863 99.835 69.4677 97.417L69.7524 97.2261C71.3343 99.7078 72.1253 102.571 72.0303 105.53C71.9038 110.303 69.4677 114.725 65.5446 117.398Z" fill="#2E4882"/>
<path d="M68.4237 102.062C68.392 101.967 68.3604 101.871 68.3287 101.776C67.4112 98.5625 65.1649 95.9217 62.1277 94.49L62.2542 94.2036C65.3548 95.6672 67.6643 98.3716 68.6135 101.68C68.6451 101.776 68.6768 101.903 68.7084 101.999L68.4237 102.062Z" fill="#2E4882"/>
<path d="M62.1592 94.49C59.7231 93.3446 56.9706 93.09 54.4079 93.7582L54.313 93.44C56.9706 92.7401 59.818 92.9946 62.2858 94.1718L62.1592 94.49Z" fill="#2E4882"/>
<path d="M67.5062 111.003L67.2214 110.844C68.0124 109.507 68.487 108.076 68.7084 106.58L69.0248 106.612C68.8033 108.171 68.2971 109.635 67.5062 111.003Z" fill="#2E4882"/>
<path d="M101.011 166.395H35.8997C34.2545 166.395 32.894 165.027 32.894 163.373V115.998C32.894 114.343 34.2545 112.975 35.8997 112.975H101.042C102.688 112.975 104.048 114.343 104.048 115.998V163.373C104.048 165.027 102.688 166.395 101.011 166.395Z" fill="#6D92F0"/>
<path d="M60.0397 164.295H38.6524C37.0389 164.295 35.7417 162.991 35.7417 161.368V157.232H36.0897V161.368C36.0897 162.8 37.2603 163.977 38.684 163.977H60.0713V164.295H60.0397Z" fill="#2E4882"/>
<path d="M71.809 163.945H65.2283V164.295H71.809V163.945Z" fill="#2E4882"/>
<path d="M101.201 123.729H100.853V118.034C100.853 116.602 99.6821 115.425 98.2584 115.425H70.322V115.075H98.2584C99.8719 115.075 101.169 116.38 101.169 118.002V123.729H101.201Z" fill="#2E4882"/>
<path d="M65.2916 115.075H58.9956V115.425H65.2916V115.075Z" fill="#2E4882"/>
<path d="M36.058 144.633H35.71V152.682H36.058V144.633Z" fill="#2E4882"/>
<path d="M108.92 128.725V143.806C108.92 145.715 107.402 147.242 105.503 147.242H92.5318C88.3872 147.242 85.002 143.869 85.002 139.67C85.002 137.57 85.8562 135.692 87.2166 134.324C88.5771 132.956 90.4437 132.097 92.5318 132.097H105.503C105.598 132.097 105.693 132.097 105.788 132.097C107.528 132.002 108.92 130.506 108.92 128.725Z" fill="#3F5A9F"/>
<path d="M94.3003 142.205C95.6717 140.826 95.6717 138.59 94.3003 137.211C92.9288 135.832 90.7053 135.832 89.3338 137.211C87.9624 138.59 87.9624 140.826 89.3338 142.205C90.7053 143.584 92.9288 143.584 94.3003 142.205Z" fill="white"/>
<path d="M91.8042 143.392V143.042C93.6392 143.042 95.1578 141.546 95.1578 139.669C95.1578 137.824 93.6708 136.297 91.8042 136.297V135.947C93.829 135.947 95.4742 137.601 95.4742 139.637C95.5058 141.737 93.8607 143.392 91.8042 143.392Z" fill="#2E4882"/>
<path d="M88.4823 139.701H88.1343C88.1343 138.715 88.5139 137.792 89.21 137.092L89.4631 137.347C88.8303 137.951 88.4823 138.779 88.4823 139.701Z" fill="#2E4882"/>
<path d="M31.502 142.597C29.667 140.878 27.6106 139.351 25.3643 138.079L25.5224 137.792C27.8004 139.065 29.8885 140.624 31.7551 142.374L31.502 142.597Z" fill="#2E4882"/>
<path d="M21.6311 136.265C20.3972 135.756 19.1 135.311 17.7712 134.929L17.8662 134.611C19.195 134.992 20.5237 135.47 21.7576 135.979L21.6311 136.265Z" fill="#2E4882"/>
<path d="M106.01 41.611C100.505 40.1156 94.6516 39.8293 89.0517 41.0065C86.2675 41.5792 83.515 42.47 80.9524 43.7109C78.358 44.9199 75.9219 46.4153 73.6756 48.2288C71.4609 50.0105 69.4045 52.0468 67.6328 54.3058C65.8927 56.5647 64.374 59.0464 63.2034 61.6554C62.9187 62.2917 62.6339 62.9599 62.3808 63.628C62.1594 64.2961 61.8746 64.9643 61.6848 65.6643C61.2419 67.0324 60.8622 68.4005 60.6091 69.8322C60.4826 70.5322 60.356 71.2322 60.2611 71.9639C60.2295 72.1548 60.1978 72.3139 60.1978 72.5048L60.1662 72.6957V72.823C60.1345 72.9821 60.1345 73.1411 60.1029 73.3002L57.4453 73.0457C58.5526 75.8774 59.9764 78.4545 61.6215 80.7135C62.7605 78.1682 64.1526 75.8774 65.7345 73.9047L63.0769 73.6502C63.0769 73.4911 63.1085 73.3639 63.1402 73.2048V73.1093L63.1718 72.9184C63.2034 72.7593 63.2034 72.6003 63.2351 72.4412C63.33 71.773 63.4249 71.1367 63.5514 70.5004C63.8045 69.1959 64.1526 67.9232 64.5322 66.6824C64.7221 66.0461 64.9752 65.4415 65.1966 64.8052C65.4497 64.2007 65.7028 63.5962 65.9559 62.9917C67.0633 60.6054 68.4237 58.3465 70.0372 56.2784C71.6508 54.2103 73.5174 52.3331 75.5739 50.7105C77.6304 49.056 79.8767 47.6879 82.2495 46.5744C84.6224 45.4608 87.1218 44.6335 89.6844 44.0927C94.8098 43.0109 100.188 43.2654 105.219 44.6335L106.01 41.611Z" fill="#7D9EF2"/>
<path d="M78.1997 45.2062L78.0415 44.9198C78.9274 44.3789 79.8449 43.9017 80.7624 43.4244C83.072 42.3109 85.5713 41.4518 88.1973 40.8473C90.6334 40.3064 93.291 40.0519 96.0435 40.0837C98.6062 40.1155 101.232 40.4973 103.826 41.1655L103.732 41.4836C101.137 40.8155 98.5429 40.4337 96.0119 40.4019C93.291 40.3701 90.6651 40.5928 88.2606 41.1655C85.6346 41.7382 83.1669 42.5972 80.8889 43.7108C79.9714 44.188 79.0539 44.6653 78.1997 45.2062Z" fill="#2E4882"/>
<path d="M71.4292 50.6149L71.2078 50.3921C71.4925 50.074 71.8089 49.7876 72.0936 49.5013C72.2518 49.3422 72.4416 49.1831 72.5998 48.9922C72.758 48.8649 72.8846 48.7377 73.0428 48.6104C73.3908 48.2923 73.7388 47.9741 74.1185 47.6877L74.3083 47.9423C73.9603 48.2286 73.5806 48.5468 73.2642 48.865C73.1377 48.9922 72.9795 49.1195 72.8529 49.2467C72.6947 49.4058 72.5049 49.5649 72.3467 49.7558C72.0303 50.0103 71.714 50.2967 71.4292 50.6149Z" fill="#2E4882"/>
<path d="M61.6216 80.968L61.4634 80.7453C60.0397 78.8045 58.7741 76.641 57.7617 74.3502L58.0465 74.2229C59.0272 76.4182 60.1978 78.4863 61.5583 80.3317C62.286 78.6454 63.1718 77.0546 64.1526 75.591L64.4057 75.7819C63.3617 77.3091 62.4758 78.9954 61.7165 80.7135L61.6216 80.968Z" fill="#2E4882"/>
<path d="M60.2295 73.2683L59.9131 73.2365C59.9131 73.2046 60.1346 69.9594 61.052 67.1277L61.3684 67.2231C60.4509 70.023 60.2295 73.2365 60.2295 73.2683Z" fill="#2E4882"/>
<path d="M38.2093 137.538C30.458 139.574 25.8072 147.528 27.8321 155.323C29.8569 163.118 37.7664 167.795 45.5177 165.759C53.269 163.723 57.9198 155.768 55.895 147.973C53.8701 140.178 45.9607 135.501 38.2093 137.538ZM53.1425 148.673C53.9334 151.696 53.4905 154.878 51.9086 157.582C50.3267 160.286 47.7957 162.195 44.79 162.991C38.5574 164.613 32.1665 160.859 30.5529 154.591C29.762 151.569 30.2049 148.387 31.7868 145.683C33.3055 143.074 35.7099 141.197 38.589 140.369C38.6839 140.337 38.8105 140.306 38.9054 140.274C45.0432 138.683 51.3075 142.278 53.0476 148.355C53.1108 148.483 53.1425 148.578 53.1425 148.673Z" fill="#FCC659"/>
<path d="M53.0793 148.387C53.1109 148.482 53.1425 148.578 53.1742 148.705C53.9651 151.728 53.5222 154.909 51.9403 157.614C50.3584 160.318 47.8273 162.227 44.8217 163.023C38.589 164.645 32.1982 160.891 30.5846 154.623C29.7937 151.6 30.2366 148.419 31.8185 145.714C33.3371 143.105 35.7416 141.228 38.6207 140.401C38.7156 140.369 38.8421 140.337 38.9371 140.306C45.0432 138.683 51.3075 142.31 53.0793 148.387Z" fill="#F49B51"/>
<path d="M52.0037 162.259L51.7822 162.036C55.5155 158.409 57.0341 153.032 55.737 148.005C55.294 146.223 54.5031 144.601 53.459 143.137L53.7121 142.946C54.7878 144.442 55.5788 146.128 56.0533 147.91C57.3821 153.096 55.8319 158.568 52.0037 162.259ZM50.1054 139.828C48.745 138.874 47.2263 138.142 45.6128 137.697L45.7077 137.378C47.3529 137.824 48.9031 138.556 50.2952 139.542L50.1054 139.828Z" fill="#2E4882"/>
<path d="M43.6195 160.477L43.0184 158.346C41.8161 158.664 40.4241 158.664 39.5698 158.346L39.6648 156.787C40.5506 157.073 41.7529 157.168 42.9235 156.818C44.4105 156.373 45.1698 155.228 44.8217 154.05C44.4737 152.905 43.4613 152.428 41.7529 152.237C39.38 152.014 37.7981 151.441 37.2603 149.596C36.7541 147.846 37.6083 146.16 39.4433 145.301L38.8422 143.169L40.1393 142.787L40.7404 144.824C42.006 144.505 42.9551 144.601 43.6828 144.76L43.5562 146.287C43.05 146.16 42.0692 145.937 40.7088 146.351C39.0953 146.828 38.7789 147.973 39.0004 148.801C39.3167 149.882 40.2342 150.201 42.2907 150.455C44.6952 150.71 46.0873 151.473 46.6251 153.35C47.0997 155.005 46.4036 156.914 44.3472 157.868L44.9799 160.064L43.6195 160.477Z" fill="#FCC659"/>
<path d="M31.5337 143.487C32.6094 144.028 33.3371 144.887 33.8433 145.937C34.3495 144.887 35.0771 144.028 36.1528 143.487C35.0771 142.946 34.3495 142.087 33.8433 141.037C33.3371 142.087 32.6094 142.946 31.5337 143.487Z" fill="#FFE6A6"/>
<path d="M36.2478 147.273C36.8806 147.591 37.2919 148.069 37.5766 148.705C37.8613 148.101 38.3043 147.591 38.937 147.273C38.3043 146.955 37.893 146.478 37.5766 145.842C37.3235 146.478 36.8806 146.955 36.2478 147.273Z" fill="#FFE6A6"/>
<path d="M53.0159 148.737C52.9843 148.642 52.9527 148.546 52.921 148.419C52.0035 145.205 49.7572 142.565 46.72 141.165L46.8465 140.878C49.947 142.342 52.2566 145.046 53.2058 148.355C53.2374 148.451 53.269 148.578 53.3007 148.673L53.0159 148.737Z" fill="#2E4882"/>
<path d="M46.7199 141.165C44.2838 140.019 41.5313 139.765 38.937 140.433L38.842 140.115C41.4996 139.415 44.3471 139.669 46.8148 140.847L46.7199 141.165Z" fill="#2E4882"/>
<path d="M30.4264 154.623C29.6355 151.537 30.0784 148.355 31.6603 145.619L31.945 145.778C30.3948 148.451 29.9518 151.569 30.7428 154.56L30.4264 154.623Z" fill="#2E4882"/>
<path d="M52.0667 157.678L51.782 157.519C52.5729 156.182 53.0475 154.751 53.269 153.255L53.5853 153.287C53.3639 154.814 52.8577 156.31 52.0667 157.678Z" fill="#2E4882"/>
<path d="M46.8782 96.9081C47.9539 97.449 48.6815 98.308 49.1878 99.358C49.694 98.308 50.4216 97.449 51.4973 96.9081C50.4216 96.3672 49.694 95.5082 49.1878 94.4583C48.6815 95.5082 47.9539 96.3672 46.8782 96.9081Z" fill="#FFE6A6"/>
<path d="M62.5073 110.271C63.1401 110.589 63.5514 111.066 63.8361 111.703C64.1209 111.098 64.5638 110.589 65.1966 110.271C64.5638 109.953 64.1525 109.476 63.8361 108.839C63.5514 109.476 63.1084 109.953 62.5073 110.271Z" fill="#FFE6A6"/>
<path d="M126.701 28.8207C127.777 29.3616 128.504 30.2206 129.01 31.2706C129.517 30.2206 130.244 29.3616 131.32 28.8207C130.244 28.2798 129.517 27.4208 129.01 26.3708C128.504 27.4208 127.777 28.248 126.701 28.8207Z" fill="#FFE6A6"/>
<path d="M188.205 156.405C189.281 156.946 190.008 157.805 190.515 158.855C191.021 157.805 191.749 156.946 192.824 156.405C191.749 155.864 191.021 155.005 190.515 153.955C190.008 155.005 189.281 155.864 188.205 156.405Z" fill="#FFE6A6"/>
<path d="M186.623 163.723C187.256 164.041 187.667 164.518 187.952 165.155C188.237 164.55 188.68 164.041 189.313 163.723C188.68 163.405 188.268 162.927 187.952 162.291C187.699 162.896 187.256 163.405 186.623 163.723Z" fill="#FFE6A6"/>
</svg>
