<svg width="18" height="18" viewBox="0 0 18 18" fill="none" xmlns="http://www.w3.org/2000/svg">
<path d="M11.7047 13.625C12.4864 13.1452 13.1293 12.5267 13.5992 11.7342C13.7338 11.5072 13.8454 11.2695 13.9533 11.0289C14.01 10.9018 13.9814 10.8714 13.8468 10.8723C13.0271 10.877 12.2069 10.8746 11.3872 10.8746C10.7195 10.8746 10.0522 10.8718 9.38438 10.877C9.25683 10.8779 9.19915 10.8573 9.20008 10.7077C9.20665 9.63006 9.20524 8.55244 9.20149 7.47481C9.20102 7.3557 9.23057 7.31396 9.35671 7.31396C12.1385 7.31725 14.9202 7.31725 17.702 7.31443C17.8122 7.31443 17.8506 7.34773 17.868 7.45887C17.9079 7.71303 17.9411 7.96814 17.966 8.22418C17.9688 8.25278 17.9674 8.28327 18.0007 8.29733C18.0007 8.36767 18.0007 8.43802 18.0007 8.50836C17.9726 8.61387 17.9726 8.71938 18.0007 8.82489C18.0007 9.1297 18.0007 9.43452 18.0007 9.73886C17.9604 10.0681 17.9482 10.3996 17.8825 10.7269C17.5627 12.3246 16.8691 13.7399 15.7981 14.9643C15.4905 15.3155 15.1575 15.648 14.7936 15.9453C14.7481 15.9823 14.7059 16.0241 14.6421 16.0255C14.4049 15.95 14.2496 15.7572 14.0672 15.6081C13.3188 14.9943 12.5652 14.3861 11.8191 13.7694C11.7713 13.7295 11.7056 13.7028 11.7047 13.625Z" fill="#518DF7"/>
<path d="M9.73843 0.000468941C9.93257 0.0886299 10.1455 0.0694033 10.349 0.100822C11.9514 0.349361 13.3826 0.981963 14.6487 1.993C14.7373 2.06381 14.7237 2.09241 14.645 2.15666C13.7371 2.89571 12.8306 3.63664 11.9279 4.38178C11.8491 4.44697 11.7975 4.4404 11.7164 4.39398C8.78695 2.71376 5.18501 3.99819 3.97749 7.15182C3.9653 7.18418 3.94841 7.21513 3.93388 7.24655C3.77209 7.23576 3.68206 7.10586 3.57279 7.0163C2.75777 6.34899 1.94369 5.68075 1.12914 5.01345C1.0799 4.97312 1.02081 4.94217 0.998306 4.87558C0.993616 4.74381 1.07334 4.64392 1.13195 4.53841C1.52399 3.83359 2.01075 3.19724 2.57957 2.62888C3.23656 1.97237 3.97327 1.42136 4.80236 0.991341C5.72054 0.515366 6.68515 0.195548 7.70791 0.0492388C7.88002 0.0248539 8.05587 0.0417357 8.22656 0C8.35552 0 8.48448 0 8.61344 0C8.68378 0.0286054 8.75412 0.0286054 8.82446 0C8.90653 0 8.98859 0 9.07066 0C9.141 0.0286054 9.21134 0.0286054 9.28168 0C9.35202 0 9.42236 0 9.4927 0C9.52787 0.0262607 9.56304 0.0262607 9.59822 0C9.64464 0.000468941 9.69153 0.000468941 9.73843 0.000468941Z" fill="#F04336"/>
<path d="M11.7047 13.6249C12.6796 14.4192 13.655 15.2136 14.6299 16.0075C14.6299 16.0981 14.5591 16.1379 14.5 16.1825C13.5087 16.9346 12.4123 17.4664 11.2053 17.7755C10.7222 17.8993 10.2322 17.9555 9.73888 18.0001C9.69198 18.0001 9.64509 18.0001 9.5982 18.0001C9.56303 17.9738 9.52785 17.9738 9.49268 18.0001C9.42234 18.0001 9.352 18.0001 9.28166 18.0001C9.21132 17.9715 9.14098 17.9715 9.07064 18.0001C9.02374 18.0001 8.97685 18.0001 8.92996 18.0001C8.83617 17.9705 8.74238 17.9705 8.64859 18.0001C8.61342 18.0001 8.57825 18.0001 8.54308 18.0001C8.50791 17.9738 8.47274 17.9738 8.43757 18.0001C8.37895 18.0001 8.32033 18.0001 8.26171 18.0001C7.81528 17.9602 7.37073 17.9119 6.93274 17.8064C5.5503 17.473 4.30714 16.8615 3.21591 15.9499C2.38776 15.2577 1.69466 14.4488 1.15913 13.509C1.11599 13.4335 1.05878 13.3632 1.06816 13.268C1.19196 13.0518 1.41189 12.9379 1.59431 12.7869C2.33758 12.1725 3.08273 11.561 3.83444 10.9571C3.87852 10.9219 3.91557 10.8684 3.98544 10.8872C4.22648 11.4752 4.53457 12.0225 4.95709 12.5013C6.65934 14.43 9.35528 14.9046 11.6114 13.6722C11.6418 13.6558 11.6733 13.6408 11.7047 13.6249Z" fill="#28B346"/>
<path d="M3.985 10.8873C3.01617 11.6784 2.0478 12.4695 1.07897 13.2606C0.978619 13.2268 0.946262 13.1321 0.906871 13.0515C0.474038 12.1713 0.170634 11.2498 0.0449573 10.2739C0.023386 10.1079 0.03933 9.93816 -6.10352e-05 9.77403C-6.10352e-05 9.72713 -6.10352e-05 9.68024 -6.10352e-05 9.63334C0.0219792 9.6099 0.0219792 9.58645 -6.10352e-05 9.563C-6.10352e-05 9.49266 -6.10352e-05 9.42232 -6.10352e-05 9.35198C0.0290133 9.26992 0.0290133 9.18785 -6.10352e-05 9.10579C-6.10352e-05 9.03544 -6.10352e-05 8.9651 -6.10352e-05 8.89476C0.0290133 8.8127 0.0290133 8.73063 -6.10352e-05 8.64857C-6.10352e-05 8.50789 -6.10352e-05 8.3672 -6.10352e-05 8.22652C0.0463641 7.96298 0.0416747 7.69474 0.087162 7.43026C0.231127 6.59414 0.498423 5.79975 0.86279 5.03585C0.894678 4.96879 0.925629 4.8947 1.01144 4.875C1.66327 5.4049 2.3151 5.93528 2.96693 6.46471C3.28862 6.72591 3.61125 6.98523 3.93342 7.24597C3.78335 7.76227 3.66893 8.28373 3.65252 8.82536C3.63189 9.53581 3.75428 10.2195 3.985 10.8873Z" fill="#FABA00"/>
</svg>
