<svg width="38" height="39" viewBox="0 0 38 39" fill="none" xmlns="http://www.w3.org/2000/svg">
<path d="M0 27.5589C0.317295 26.8164 0.912224 26.5986 1.68563 26.6085C4.6107 26.6382 7.54568 26.6184 10.4807 26.6184C10.9963 26.6184 11.4623 26.7075 11.7895 27.1629C11.8688 27.2817 11.9779 27.2619 12.087 27.2619C13.0686 27.2619 14.0403 27.2619 15.022 27.2619C15.4285 27.2619 15.7954 27.1233 16.1226 26.8857C16.3308 26.7372 16.5489 26.5887 16.7472 26.4204C17.8776 25.4304 19.1666 25.2423 20.6242 25.4997C23.7377 26.0541 26.861 26.5392 29.9745 27.0441C30.7677 27.1728 31.3528 27.5688 31.67 28.3113C31.7692 28.539 31.8287 28.5192 31.9873 28.4004C32.8897 27.7371 33.792 27.0639 34.7141 26.4204C35.7651 25.6878 37.1632 26.0145 37.7482 27.1035C38.2242 27.9747 38.016 29.0043 37.2029 29.6577C35.7751 30.816 34.3373 31.9644 32.8996 33.1227C31.3428 34.3701 29.7762 35.6274 28.2195 36.8747C27.5055 37.4489 26.7222 37.8746 25.7902 37.9538C25.7703 37.9538 25.7604 37.9835 25.7505 38.0033C25.7009 38.0033 25.6514 38.0033 25.6018 38.0033C25.3341 37.9439 25.0564 37.9439 24.7887 38.0033C24.7391 38.0033 24.6895 38.0033 24.64 38.0033C23.5493 37.8746 22.5676 37.3895 21.5463 37.0331C19.712 36.3996 17.8875 35.7363 16.0631 35.0829C15.726 34.9641 15.3591 34.9344 15.0021 34.9245C14.1296 34.9146 13.2471 34.9245 12.3745 34.9146C12.1167 34.9146 11.8887 34.974 11.7102 35.172C11.4425 35.4591 11.0855 35.5779 10.7087 35.5779C7.58534 35.5878 4.45205 35.5977 1.32867 35.5779C0.594929 35.568 0.188394 35.2017 0.019831 34.5186C0 32.202 0 29.8854 0 27.5589Z" fill="#002046"/>
<path d="M28.8739 5.15484C29.8952 5.53104 30.4108 6.18443 30.381 7.07543C30.3513 7.97633 29.8357 8.58023 28.7846 8.91683C28.7945 9.05543 28.9036 9.15443 28.973 9.26333C30.6686 11.9363 32.384 14.5994 34.0795 17.2724C35.4875 19.49 34.8232 22.262 32.612 23.5292C32.0072 23.8757 31.3428 24.0836 30.6388 24.0836C25.8298 24.0836 21.0208 24.1232 16.2118 24.0737C12.9 24.0341 10.9169 20.3018 12.6819 17.4407C14.3179 14.7875 16.0234 12.1739 17.6892 9.54052C17.8181 9.34252 17.9371 9.14453 18.0858 8.91683C17.9768 8.87723 17.8776 8.84753 17.7784 8.81783C17.015 8.57033 16.4894 7.88723 16.4696 7.11503C16.4399 6.27353 16.896 5.54094 17.6793 5.27364C17.9569 5.17464 17.9768 5.09544 17.8379 4.85784C17.6396 4.50144 17.4314 4.15494 17.3719 3.73914C17.2529 2.90754 17.6396 2.06604 18.4725 1.75915C19.3947 1.43245 20.2276 0.947347 21.11 0.541448C22.6965 -0.18125 24.3822 -0.17135 25.9389 0.630548C26.6726 1.00675 27.3766 1.38295 28.1699 1.66015C29.4291 2.10564 29.8158 3.26394 29.2209 4.45194C29.1019 4.68954 28.9829 4.91724 28.8739 5.15484Z" fill="#002046"/>
<path d="M25.3538 29.7857C23.8963 29.7857 22.4387 29.7857 20.9811 29.7857C20.7035 29.7857 20.4754 29.8847 20.3366 30.1322C20.2176 30.35 20.2374 30.5579 20.3663 30.7658C20.5052 30.9836 20.7233 31.0529 20.9712 31.0529C21.6157 31.0529 22.2602 31.0529 22.8948 31.0529C23.0931 31.0529 23.2418 31.1024 23.3906 31.2311C24.1541 31.8944 24.9374 32.5379 25.7108 33.1913C26.3156 33.7061 26.8015 33.7259 27.446 33.2606C30.0637 31.3598 32.6715 29.4491 35.2792 27.5483C35.5073 27.38 35.7353 27.2414 36.0229 27.2909C36.3501 27.3503 36.598 27.5285 36.6773 27.8651C36.7666 28.2215 36.6178 28.4888 36.3402 28.7066C35.1404 29.6768 33.9406 30.6371 32.7309 31.6073C30.9164 33.0626 29.1118 34.508 27.2973 35.9633C26.3156 36.7454 25.2547 36.9335 24.0648 36.5078C21.576 35.6168 19.0773 34.7258 16.5885 33.8348C16.1126 33.6665 15.6367 33.5873 15.1409 33.5873C14.189 33.5873 13.2371 33.5774 12.2852 33.5972C12.0572 33.5972 11.9977 33.5378 11.9977 33.3101C12.0076 31.8053 12.0076 30.3005 11.9977 28.7957C11.9977 28.5878 12.0572 28.5284 12.2654 28.5284C13.128 28.5383 14.0006 28.5284 14.8633 28.5383C15.6367 28.5482 16.3208 28.3205 16.9356 27.8552C17.0942 27.7364 17.2628 27.6275 17.4016 27.4988C18.2643 26.6969 19.2459 26.5583 20.3862 26.7662C23.5096 27.3206 26.6428 27.8057 29.7761 28.3205C30.1926 28.3898 30.4702 28.6274 30.5297 28.9838C30.5793 29.3006 30.4306 29.5283 30.1827 29.7065C30.024 29.8154 29.8356 29.8154 29.6472 29.8154C28.2194 29.7857 26.7916 29.7857 25.3538 29.7857Z" fill="#F8F8F8"/>
<path d="M5.96925 34.2212C4.51168 34.2212 3.0541 34.2113 1.59653 34.2311C1.30898 34.2311 1.2594 34.142 1.2594 33.8846C1.26931 31.9937 1.26931 30.1127 1.2594 28.2218C1.2594 27.9644 1.32881 27.8951 1.58661 27.8951C4.54142 27.905 7.49624 27.905 10.4511 27.8951C10.6692 27.8951 10.7683 27.9248 10.7683 28.1921C10.7584 30.1028 10.7584 32.0135 10.7683 33.9341C10.7683 34.1816 10.6989 34.241 10.461 34.241C8.96373 34.2113 7.46649 34.2212 5.96925 34.2212Z" fill="#F8F8F8"/>
<path d="M25.1555 31.0629C26.2462 31.0629 27.2279 31.0629 28.3186 31.0629C27.7236 31.4985 27.208 31.8747 26.6924 32.2509C26.6329 32.2905 26.5833 32.2806 26.5338 32.241C26.0975 31.8549 25.6612 31.4886 25.1555 31.0629Z" fill="#F8F8F8"/>
<path d="M23.4303 22.8267C21.0804 22.8267 18.7304 22.8366 16.3804 22.8267C14.6353 22.8168 13.2769 21.4407 13.2868 19.7181C13.2868 19.1241 13.4355 18.5697 13.7627 18.0648C15.5674 15.2235 17.3819 12.3921 19.1865 9.55082C19.4542 9.12512 19.8409 8.92712 20.3367 8.92712C22.3991 8.92712 24.4616 8.92712 26.5339 8.92712C27.0297 8.92712 27.4065 9.14492 27.6742 9.56072C29.4689 12.3822 31.2735 15.1839 33.0583 18.0153C33.7127 19.0548 33.7623 20.1636 33.1574 21.2427C32.5625 22.3119 31.6007 22.8267 30.3811 22.8267C28.0609 22.8267 25.7506 22.8267 23.4303 22.8267Z" fill="#F8F8F8"/>
<path d="M23.4006 5.12527C22.1513 5.12527 20.9019 5.12527 19.6526 5.12527C19.4543 5.12527 19.3452 5.07577 19.256 4.88767C19.0874 4.50157 18.8792 4.14517 18.7007 3.75907C18.5123 3.37297 18.6313 3.07597 19.018 2.86807C19.3749 2.67997 19.7616 2.59087 20.1583 2.59087C20.3665 2.59087 20.5747 2.56117 20.6937 2.39287C21.2291 1.64047 22.0125 1.44247 22.8553 1.35337C23.6386 1.27417 24.412 1.32367 25.1557 1.62067C25.5126 1.75927 25.8398 1.95727 26.058 2.30377C26.1968 2.52157 26.405 2.60077 26.6628 2.60077C27.0793 2.60077 27.466 2.68987 27.8428 2.87797C28.2096 3.06607 28.3385 3.37297 28.17 3.73927C27.9816 4.15507 27.7535 4.55107 27.5651 4.96687C27.4759 5.15497 27.3371 5.12527 27.1983 5.12527C25.9291 5.12527 24.6599 5.12527 23.4006 5.12527Z" fill="#F8F8F8"/>
<path d="M23.4106 7.65953C21.8241 7.65953 20.2476 7.65953 18.6611 7.65953C18.5223 7.65953 18.3835 7.65953 18.2546 7.63973C17.9472 7.59023 17.7687 7.39223 17.739 7.09523C17.7092 6.77843 17.8579 6.54083 18.1653 6.44183C18.3041 6.40223 18.4529 6.39233 18.6016 6.39233C21.8142 6.39233 25.0268 6.39233 28.2395 6.39233C28.3882 6.39233 28.5369 6.40223 28.6757 6.44183C28.993 6.54083 29.1318 6.77843 29.1021 7.09523C29.0724 7.40213 28.8939 7.59023 28.5865 7.63973C28.4576 7.65953 28.3188 7.65953 28.18 7.65953C26.5935 7.65953 24.9971 7.65953 23.4106 7.65953Z" fill="#F8F8F8"/>
<path d="M22.1709 13.9959C22.1809 14.7285 22.7064 15.2234 23.5294 15.2531C24.7291 15.3026 25.6909 16.1342 25.9091 17.3024C26.1272 18.4904 25.5125 19.6388 24.392 20.0843C24.1045 20.1932 24.0152 20.3417 24.0549 20.6189C24.0747 20.7278 24.0648 20.8367 24.0549 20.9555C24.0251 21.302 23.807 21.5396 23.4798 21.5594C23.1427 21.5792 22.7857 21.3416 22.8254 21.005C22.9047 20.3516 22.6072 20.1041 22.0321 19.9655C21.7148 19.8863 21.4471 19.6586 21.1893 19.4408C20.8819 19.1834 20.8224 18.8072 21.0406 18.53C21.2587 18.2429 21.6454 18.2033 21.9627 18.4508C22.3197 18.7379 22.7064 18.9359 23.1526 19.0151C23.926 19.1537 24.6101 18.6587 24.6994 17.8964C24.7886 17.1836 24.2135 16.55 23.4302 16.5104C22.1511 16.451 21.1397 15.6095 20.9414 14.4315C20.7332 13.2039 21.3678 12.105 22.5874 11.61C22.756 11.5407 22.8154 11.4615 22.7956 11.2932C22.7857 11.1249 22.7857 10.9467 22.7956 10.7784C22.8353 10.422 23.103 10.1844 23.4401 10.1943C23.7872 10.2042 24.0846 10.4418 24.0351 10.8081C23.9656 11.3625 24.164 11.61 24.6994 11.7387C25.0762 11.8278 25.4133 12.0753 25.7008 12.3525C25.9884 12.6198 26.0181 12.9663 25.7901 13.2435C25.562 13.5207 25.2051 13.5603 24.8977 13.3227C24.4614 12.9762 23.9855 12.7386 23.4104 12.7386C22.7163 12.7287 22.161 13.2831 22.1709 13.9959Z" fill="#002046"/>
</svg>
