<svg width="25" height="25" viewBox="0 0 25 25" fill="none" xmlns="http://www.w3.org/2000/svg">
<g filter="url(#filter0_d_1_16592)">
<path d="M18.6129 23C17.4104 23 16.2079 23 15.0014 23C14.6033 22.9015 14.4473 22.6923 14.4473 22.2409C14.4432 20.6776 14.4473 19.1143 14.4473 17.551C14.4473 17.3376 14.4309 17.1284 14.3119 16.9396C14.1149 16.6319 13.8235 16.476 13.4706 16.4678C12.8222 16.4472 12.1737 16.4431 11.5253 16.4678C10.959 16.4924 10.5363 16.8986 10.5445 17.5305C10.565 19.0404 10.5486 20.5504 10.5486 22.0563C10.5486 22.1506 10.5527 22.2491 10.5445 22.3435C10.5157 22.7251 10.3557 22.9097 9.99453 23C8.79207 23 7.5896 23 6.38304 23C6.30917 22.9549 6.22709 22.9877 6.15321 22.9795C5.49248 22.9631 5.02462 22.602 4.64706 22.1096C4.33516 21.7034 4.19152 21.2315 4.19152 20.7145C4.19562 18.7737 4.19152 16.8329 4.19152 14.8962C4.19152 14.8347 4.18741 14.7732 4.19152 14.7116C4.20793 14.5434 4.12996 14.4818 3.9617 14.4859C3.53899 14.4982 3.14911 14.3792 2.80027 14.1413C2.33653 13.8171 2.04514 13.374 2 12.7872C2 12.5821 2 12.3769 2 12.1717C2.05335 11.704 2.29138 11.3347 2.6197 11.0064C5.43912 8.19578 8.25445 5.37691 11.0698 2.56213C11.3776 2.2544 11.7223 2.02462 12.1778 2.02052C12.2435 2.01231 12.3133 2.04103 12.3748 2C12.4569 2 12.539 2 12.6211 2C12.6826 2.04103 12.7524 2.01231 12.8181 2.02052C13.2285 2.01231 13.5445 2.22978 13.8399 2.47597C13.9384 2.55803 14.0246 2.65651 14.1149 2.75088C16.844 5.47948 19.5732 8.20809 22.3064 10.9367C22.6799 11.3101 22.9713 11.7081 23 12.2579C23 12.2702 23 12.2866 23 12.2989C22.9672 12.422 22.9672 12.5451 23 12.6682C23 12.7093 23 12.7503 23 12.7913C22.8153 13.7556 22.2654 14.3218 21.3584 14.4736C21.2312 14.4941 21.0999 14.49 20.9685 14.4941C20.8577 14.4941 20.8044 14.5434 20.8044 14.6542C20.8044 14.7239 20.8044 14.7896 20.8044 14.8593C20.8044 16.8247 20.8126 18.7943 20.8003 20.7597C20.7921 21.6993 20.3283 22.3763 19.5157 22.8195C19.3105 22.9302 19.0848 22.9836 18.8468 22.9795C18.7688 22.9877 18.6908 22.9549 18.6129 23Z" fill="#002046"/>
</g>
<defs>
<filter id="filter0_d_1_16592" x="0" y="0" width="25" height="25" filterUnits="userSpaceOnUse" color-interpolation-filters="sRGB">
<feFlood flood-opacity="0" result="BackgroundImageFix"/>
<feColorMatrix in="SourceAlpha" type="matrix" values="0 0 0 0 0 0 0 0 0 0 0 0 0 0 0 0 0 0 127 0" result="hardAlpha"/>
<feOffset/>
<feGaussianBlur stdDeviation="1"/>
<feComposite in2="hardAlpha" operator="out"/>
<feColorMatrix type="matrix" values="0 0 0 0 0 0 0 0 0 0 0 0 0 0 0 0 0 0 0.3 0"/>
<feBlend mode="normal" in2="BackgroundImageFix" result="effect1_dropShadow_1_16592"/>
<feBlend mode="normal" in="SourceGraphic" in2="effect1_dropShadow_1_16592" result="shape"/>
</filter>
</defs>
</svg>
