<svg width="31" height="23" viewBox="0 0 31 23" fill="none" xmlns="http://www.w3.org/2000/svg">
<path d="M0.961304 19.9272V3.26543C1.09805 1.99365 1.80642 1.13268 2.92034 0.579245C3.37915 0.354019 3.88409 0.238685 4.39519 0.242371C12.1192 0.242371 19.8433 0.23122 27.5673 0.251761C29.0732 0.255869 30.1555 1.01765 30.8028 2.38627C30.9442 2.68559 30.9319 3.0119 31 3.32529V19.9284C30.8633 21.2001 30.1555 22.0611 29.041 22.614C28.5824 22.84 28.0774 22.9557 27.5661 22.952C19.8427 22.952 12.1186 22.9626 4.39519 22.9426C2.88806 22.9385 1.80877 22.1732 1.15909 20.8075C1.02527 20.5252 1.03525 20.2183 0.961304 19.9272Z" fill="#002046"/>
<path d="M10.3251 17.8586H5.83891C5.0695 17.8586 4.73732 17.5006 4.71091 16.7259C4.67804 15.7441 4.87465 14.842 5.52551 14.0791C6.21863 13.2674 7.11011 12.8554 8.17238 12.8466C9.62003 12.8333 11.0667 12.8333 12.5124 12.8466C14.4738 12.863 15.9709 14.3778 15.9803 16.3345C15.9803 16.4912 15.9803 16.6473 15.9803 16.804C15.9803 17.4789 15.6053 17.8604 14.9292 17.8604C13.3945 17.861 11.8598 17.8586 10.3251 17.8586Z" fill="#FEFEFE"/>
<path d="M13.4708 8.46168C13.4701 9.07859 13.2867 9.68147 12.9437 10.1943C12.6008 10.707 12.1136 11.1068 11.5437 11.343C10.9738 11.5792 10.3467 11.6413 9.74155 11.5215C9.13638 11.4017 8.58025 11.1053 8.14334 10.6698C7.70642 10.2343 7.40829 9.67912 7.28656 9.07433C7.16483 8.46955 7.22495 7.84226 7.45935 7.27161C7.69374 6.70097 8.09191 6.21253 8.6036 5.86792C9.11529 5.52332 9.71759 5.33799 10.3345 5.33533C12.0482 5.32007 13.4679 6.73447 13.4708 8.46168Z" fill="#FEFEFE"/>
<path d="M22.8446 5.96376C23.9679 5.96376 25.0914 5.96376 26.2151 5.96376C26.8137 5.96376 27.2375 6.34817 27.2445 6.88928C27.251 7.4433 26.8237 7.83945 26.211 7.84004C23.9738 7.84004 21.7366 7.84004 19.4993 7.84004C18.9031 7.84004 18.4893 7.44917 18.4905 6.90102C18.4917 6.35286 18.9013 5.96669 19.5035 5.96552C20.6174 5.962 21.7307 5.96376 22.8446 5.96376Z" fill="#FEFEFE"/>
<path d="M22.8522 12.843C21.709 12.843 20.5634 12.8465 19.4236 12.843C19.2267 12.8471 19.0336 12.7877 18.8731 12.6735C18.7125 12.5594 18.593 12.3965 18.5321 12.2092C18.4714 12.0274 18.4678 11.8314 18.5217 11.6475C18.5756 11.4636 18.6845 11.3006 18.8338 11.1804C19.0201 11.0348 19.2519 10.9597 19.4882 10.9685C21.7348 10.9685 23.9814 10.9685 26.228 10.9685C26.8243 10.9685 27.2439 11.3705 27.2421 11.9128C27.2404 12.4551 26.8231 12.8413 26.2221 12.843C25.1012 12.8459 23.9779 12.843 22.8522 12.843Z" fill="#FEFEFE"/>
<path d="M22.8734 15.9831C24.026 15.9831 25.1787 15.9778 26.3313 15.986C26.5382 15.9874 26.7386 16.0586 26.8999 16.1881C27.0612 16.3177 27.174 16.498 27.2199 16.6997C27.2652 16.8963 27.2464 17.1022 27.1662 17.2873C27.0861 17.4724 26.9488 17.627 26.7744 17.7285C26.6306 17.8133 26.4666 17.8579 26.2996 17.8576C24.0137 17.8576 21.7278 17.8641 19.4424 17.8576C18.9448 17.8576 18.5562 17.5055 18.4993 17.0624C18.4406 16.5882 18.6912 16.175 19.1273 16.0271C19.2687 15.9889 19.4154 15.9745 19.5616 15.9843H22.8734V15.9831Z" fill="#FEFEFE"/>
</svg>
