<svg width="50" height="31" viewBox="0 0 50 31" fill="none" xmlns="http://www.w3.org/2000/svg">
<path d="M0.0112648 6.8244C0.304203 7.76898 0.788673 8.54285 1.78015 8.87289C1.93789 8.92979 1.97168 9.07774 2.01675 9.2143C3.61663 13.9486 5.22779 18.6943 6.82767 23.4286C6.89527 23.622 6.89527 23.8041 6.89527 23.9976C6.89527 25.8071 6.89527 27.6052 6.89527 29.4147C6.89527 30.2227 7.15441 30.4845 7.96561 30.4845C19.0071 30.4845 30.0372 30.4845 41.0787 30.4845C41.8786 30.4845 42.1265 30.2227 42.1265 29.4033C42.1265 27.6166 42.1265 25.8299 42.1265 24.0431C42.1265 23.7814 42.1603 23.531 42.2504 23.292C43.8278 18.6601 45.4051 14.0283 46.9712 9.39639C47.0726 9.11188 47.1965 8.91841 47.4895 8.78184C48.6838 8.2242 49.2696 6.89268 48.8978 5.64082C48.5486 4.43449 47.3317 3.61509 46.1149 3.76304C44.7967 3.93374 43.794 4.99213 43.7827 6.33503C43.7714 7.33652 44.2108 8.13315 45.0784 8.65666C45.2249 8.7477 45.4277 8.77046 45.2925 9.06636C44.5601 10.5913 43.7151 12.0481 42.5096 13.2544C40.9435 14.8135 39.3999 14.7794 37.8564 13.1747C37.5634 12.8788 37.3043 12.5488 37.0564 12.2188C35.5242 10.0678 34.5552 7.64379 33.6651 5.1856C33.5412 4.85557 33.7891 4.83281 33.913 4.719C34.7693 3.97927 35.0848 3.04606 34.8031 1.95353C34.5439 0.917908 33.6877 0.189555 32.6399 0.0416083C31.378 -0.129099 30.2062 0.610634 29.8119 1.82835C29.4176 3.06883 29.9246 4.41173 31.0963 4.96937C31.5245 5.17422 31.5019 5.34493 31.3555 5.70911C30.364 8.05349 29.2936 10.341 27.6825 12.3326C27.1755 12.9585 26.6121 13.5161 25.9023 13.9258C24.8883 14.5176 23.9081 14.4949 22.9504 13.8007C21.9364 13.0723 21.2604 12.0594 20.6745 10.9783C19.7169 9.23706 18.9845 7.38204 18.3649 5.49288C18.2747 5.20836 18.3423 5.1287 18.5789 5.00351C19.7056 4.43449 20.2464 3.30782 20.0098 2.07872C19.7957 0.940669 18.8155 0.109891 17.5762 0.00746679C16.5058 -0.0835773 15.4017 0.667537 15.0186 1.73731C14.6017 2.9095 14.9736 4.09307 16.0101 4.84419C16.1904 4.96937 16.2805 5.03765 16.1904 5.28803C15.3003 7.79174 14.2637 10.2158 12.6413 12.3439C12.2808 12.8219 11.8639 13.243 11.402 13.6186C9.99363 14.7566 8.57402 14.7452 7.14314 13.573C5.65592 12.3439 4.68698 10.7279 3.7631 9.06636C3.6279 8.82736 3.78564 8.77046 3.94337 8.67942C4.95738 8.04211 5.40805 6.97234 5.17145 5.82291C4.94611 4.74176 4.03351 3.92236 2.89556 3.77442C1.74635 3.62647 0.585873 4.3662 0.180267 5.47011C0.123936 5.64082 0.0563316 5.80015 0 5.95948C0.0112648 6.24399 0.0112648 6.53988 0.0112648 6.8244Z" fill="#002046"/>
<path d="M5.31805 14.1765C5.46452 14.6203 5.59972 15.0073 5.73492 15.4056C6.51233 17.7044 7.28974 19.9919 8.05588 22.2908C8.16855 22.6208 8.30375 22.7574 8.68682 22.7574C19.2438 22.746 29.812 22.746 40.369 22.7574C40.707 22.7574 40.8647 22.6664 40.9774 22.3249C41.7886 19.8781 42.6336 17.4313 43.4561 14.9845C43.5124 14.8252 43.5688 14.6545 43.6364 14.4838C43.4786 14.3927 43.3885 14.5293 43.2871 14.6203C41.1351 16.5892 38.6114 16.3729 36.5383 14.0172C35.0736 12.3442 34.1047 10.3754 33.2484 8.34966C33.0343 7.84892 32.8428 7.33679 32.6174 6.79053C32.2231 7.63269 31.8738 8.42932 31.4795 9.21458C30.6796 10.8079 29.767 12.3442 28.5727 13.6757C27.9417 14.3813 27.2319 15.0073 26.3757 15.4283C24.7645 16.225 23.2548 15.9974 21.8689 14.8935C20.9225 14.1537 20.2465 13.175 19.6269 12.1621C18.7368 10.694 18.072 9.11215 17.4636 7.49612C17.4073 7.34817 17.351 7.21161 17.2496 6.96124C17.1031 7.33679 16.9904 7.62131 16.8665 7.90582C15.8863 10.2274 14.7934 12.4694 12.9795 14.2675C11.9542 15.2918 10.7599 16.0087 9.26143 15.9974C7.89815 15.986 6.794 15.3259 5.80252 14.4496C5.67859 14.3586 5.59972 14.1879 5.31805 14.1765Z" fill="#F8F8F8"/>
<path d="M24.5053 24.293C19.3113 24.293 14.1061 24.293 8.91208 24.2816C8.51775 24.2816 8.40508 24.3727 8.41634 24.771C8.45015 26.0228 8.43888 27.2861 8.41634 28.5379C8.41634 28.868 8.51774 28.9363 8.82195 28.9363C19.2775 28.9249 29.7444 28.9249 40.1999 28.9363C40.5154 28.9363 40.5943 28.8452 40.5943 28.5379C40.5717 27.2633 40.5717 25.9887 40.5943 24.7255C40.6055 24.3385 40.4816 24.293 40.1436 24.293C34.9383 24.293 29.7218 24.293 24.5053 24.293Z" fill="#F8F8F8"/>
<path d="M32.2906 3.7398C32.8652 3.75118 33.3948 3.2163 33.3948 2.63589C33.3835 2.07825 32.8765 1.56612 32.3244 1.55474C31.7498 1.54336 31.2203 2.07825 31.2315 2.65865C31.2315 3.22768 31.7273 3.72842 32.2906 3.7398Z" fill="#F8F8F8"/>
<path d="M17.4636 1.55474C16.9003 1.55474 16.3933 2.06687 16.382 2.63589C16.3707 3.2163 16.9003 3.75118 17.4749 3.7398C18.0382 3.7398 18.5452 3.22768 18.5565 2.65865C18.5677 2.07825 18.0382 1.54336 17.4636 1.55474Z" fill="#F8F8F8"/>
<path d="M45.3151 6.36899C45.3038 6.93802 45.8334 7.49566 46.3967 7.49566C46.9488 7.49566 47.4671 6.98354 47.4783 6.41451C47.4896 5.85687 47.0051 5.33336 46.4418 5.29922C45.8672 5.26508 45.3264 5.7772 45.3151 6.36899Z" fill="#F8F8F8"/>
<path d="M2.614 7.42755C3.21114 7.46169 3.68434 7.04061 3.71814 6.42606C3.75194 5.86842 3.27874 5.34491 2.70414 5.29939C2.1408 5.25387 1.58873 5.75461 1.55493 6.3464C1.50986 6.93819 1.96053 7.39341 2.614 7.42755Z" fill="#F8F8F8"/>
</svg>
