<svg width="24" height="24" viewBox="0 0 24 24" fill="none" xmlns="http://www.w3.org/2000/svg">
<g clip-path="url(#clip0_1_16998)">
<path d="M15.0164 14.5746C13.4265 14.5746 11.8372 14.5813 10.2473 14.5746C9.87013 14.5732 9.5002 14.4706 9.17609 14.2775C8.85197 14.0845 8.58552 13.808 8.4045 13.4769C8.22347 13.1458 8.13449 12.7722 8.14682 12.395C8.15915 12.0179 8.27234 11.6509 8.4746 11.3323C9.69348 9.41467 10.9124 7.49748 12.1312 5.58073C12.2099 5.44627 12.3231 5.33538 12.4592 5.2596C12.5952 5.18382 12.7491 5.14594 12.9048 5.14989C14.3018 5.14989 15.6988 5.14989 17.0959 5.14989C17.4414 5.14989 17.6986 5.304 17.8848 5.59815C19.0903 7.50239 20.3112 9.4006 21.514 11.3082C21.9587 12.0151 21.9935 12.7662 21.5877 13.4992C21.1818 14.2322 20.5409 14.5766 19.7124 14.5773L15.0164 14.5746Z" fill="white"/>
<path d="M16.3063 19.2943H13.4707C13.4037 19.2917 13.3366 19.2929 13.2698 19.2977C13.1557 19.3043 13.0488 19.3555 12.9721 19.4402C12.8955 19.5249 12.8551 19.6364 12.8599 19.7506C12.8651 19.8607 12.9136 19.9642 12.9948 20.0386C13.0759 20.113 13.1832 20.1523 13.2932 20.148C13.7455 20.1547 14.1971 20.1547 14.6481 20.148C14.7716 20.1433 14.8919 20.1876 14.9829 20.2713C15.4892 20.7081 16.0036 21.1363 16.5125 21.5705C16.9686 21.9597 17.2787 21.9725 17.7683 21.618C19.5229 20.3378 21.2774 19.0563 23.0316 17.7734C23.1762 17.6675 23.3242 17.569 23.5118 17.5992C23.7314 17.6347 23.9035 17.7439 23.9725 17.971C24.0449 18.2102 23.9524 18.3978 23.7716 18.5459C23.2358 18.9834 22.6914 19.417 22.1502 19.8518C20.6452 21.0619 19.1401 22.2722 17.635 23.4827C16.9733 24.0188 16.25 24.1353 15.4504 23.8472C13.7647 23.2402 12.0763 22.6412 10.3907 22.0348C10.0758 21.9217 9.74338 21.8654 9.40886 21.8686C8.76459 21.8686 8.12099 21.8639 7.47672 21.8726C7.32134 21.8726 7.28116 21.8304 7.2825 21.6763C7.28965 20.6552 7.28965 19.6343 7.2825 18.6136C7.2825 18.4709 7.32201 18.4313 7.46332 18.4333C8.04866 18.4407 8.63399 18.4333 9.22 18.4374C9.72518 18.4467 10.2185 18.2839 10.619 17.9757C10.8066 17.835 10.9981 17.6997 11.1789 17.5516C11.6089 17.2012 12.0944 17.098 12.6356 17.1878C14.8604 17.5567 17.0854 17.9232 19.3106 18.2873C19.6328 18.3402 19.8464 18.5674 19.8243 18.834C19.8022 19.1114 19.5752 19.293 19.241 19.2937C18.2636 19.295 17.2854 19.2952 16.3063 19.2943Z" fill="white"/>
<path d="M3.21599 22.2981C2.22079 22.2981 1.22492 22.2921 0.229048 22.3035C0.0341598 22.3035 -0.00133413 22.2472 5.30843e-06 22.0656C0.00804192 20.7849 0.00804192 19.5043 5.30843e-06 18.2236C5.30843e-06 18.0481 0.0455453 18.0012 0.221011 18.0018C2.22079 18.0076 4.22034 18.0076 6.21967 18.0018C6.37036 18.0018 6.43733 18.0219 6.43599 18.2028C6.42706 19.4982 6.42706 20.7957 6.43599 22.0951C6.43599 22.2592 6.39379 22.3035 6.22904 22.3021C5.2238 22.2941 4.21989 22.2981 3.21599 22.2981Z" fill="white"/>
<path d="M14.991 2.5716C14.1545 2.5716 13.3167 2.56557 12.4815 2.57629C12.3108 2.57629 12.227 2.52269 12.1614 2.37528C12.0536 2.13139 11.9223 1.89822 11.8091 1.65633C11.6839 1.38832 11.7556 1.18731 12.0174 1.0533C12.263 0.925241 12.5361 0.859223 12.813 0.861001C12.955 0.861001 13.089 0.82951 13.17 0.714934C13.5189 0.225138 14.0359 0.0877803 14.5878 0.0274772C15.1204 -0.0436681 15.6623 0.0156538 16.167 0.200345C16.4128 0.29482 16.6304 0.430169 16.7784 0.657981C16.8213 0.72446 16.8811 0.778199 16.9518 0.813564C17.0225 0.848929 17.1014 0.86462 17.1803 0.858991C17.4658 0.856293 17.7475 0.925412 17.9993 1.06C18.2324 1.18396 18.3108 1.39033 18.2003 1.62953C18.0723 1.91028 17.919 2.17896 17.7931 2.46037C17.7361 2.58701 17.6451 2.57227 17.5466 2.57227L14.991 2.5716Z" fill="white"/>
<path d="M14.999 4.28688H11.7616C11.678 4.28993 11.5942 4.28657 11.5111 4.27683C11.4163 4.26301 11.329 4.2171 11.2639 4.14675C11.1988 4.07641 11.1598 3.98587 11.1533 3.89022C11.1468 3.79457 11.1732 3.69958 11.2282 3.62106C11.2832 3.54255 11.3634 3.48525 11.4555 3.45872C11.5528 3.43533 11.6529 3.42563 11.7529 3.42991C13.9201 3.42991 16.0871 3.42991 18.2538 3.42991C18.3536 3.42641 18.4534 3.43655 18.5505 3.46006C18.7655 3.51902 18.8653 3.67849 18.8492 3.89424C18.8482 3.99202 18.8105 4.08584 18.7435 4.157C18.6764 4.22817 18.585 4.27143 18.4875 4.27817C18.4044 4.28678 18.3207 4.28969 18.2371 4.28688H14.999Z" fill="white"/>
<path d="M15.0218 7.72551C14.7955 7.71947 14.5761 7.80361 14.4118 7.95943C14.2475 8.11524 14.1518 8.32996 14.1458 8.55636C14.1397 8.78275 14.2238 9.00228 14.3796 9.16664C14.5353 9.33099 14.75 9.42672 14.9762 9.43276C15.2562 9.44817 15.5267 9.48637 15.7732 9.61903C16.4047 9.96008 16.7376 10.4995 16.7108 11.213C16.684 11.9266 16.3163 12.4466 15.6486 12.7193C15.4691 12.793 15.3975 12.8774 15.4263 13.0637C15.436 13.1469 15.436 13.231 15.4263 13.3143C15.4277 13.4167 15.3894 13.5158 15.3195 13.5907C15.2496 13.6656 15.1535 13.7106 15.0512 13.7163C14.946 13.7293 14.8397 13.702 14.7537 13.6399C14.6678 13.5778 14.6085 13.4854 14.5878 13.3813C14.5811 13.3656 14.5782 13.3487 14.5791 13.3317C14.6749 12.9056 14.4452 12.7414 14.0715 12.6449C13.8397 12.5846 13.6415 12.4245 13.4613 12.2603C13.3758 12.191 13.3208 12.0909 13.3083 11.9815C13.2958 11.8721 13.3267 11.7622 13.3944 11.6754C13.4266 11.6283 13.4684 11.5887 13.5171 11.5591C13.5658 11.5294 13.6202 11.5105 13.6768 11.5035C13.7333 11.4966 13.7907 11.5017 13.8452 11.5186C13.8996 11.5355 13.9498 11.5639 13.9924 11.6017C14.2256 11.7928 14.5012 11.9252 14.7961 11.9876C15.3319 12.0874 15.8007 11.7544 15.8623 11.2278C15.9172 10.7407 15.5274 10.3212 15.0003 10.2958C14.1344 10.2542 13.452 9.68068 13.3194 8.88199C13.1801 8.0478 13.606 7.31344 14.4385 6.97507C14.4853 6.96285 14.5257 6.93309 14.5512 6.89194C14.5768 6.8508 14.5856 6.8014 14.5757 6.75396C14.5677 6.63701 14.569 6.5196 14.5798 6.40286C14.5877 6.29288 14.6384 6.19041 14.7211 6.11748C14.8038 6.04455 14.9117 6.007 15.0218 6.0129C15.2555 6.02094 15.4477 6.18644 15.4236 6.43302C15.3841 6.79082 15.4906 6.97306 15.8583 7.04945C16.1168 7.10372 16.3398 7.27726 16.5414 7.45616C16.743 7.63506 16.7764 7.88632 16.6137 8.07795C16.451 8.26958 16.2186 8.28767 16.0109 8.12016C15.7123 7.88699 15.3975 7.73489 15.0218 7.72551Z" fill="#002046"/>
</g>
<defs>
<clipPath id="clip0_1_16998">
<rect width="24" height="24" fill="white"/>
</clipPath>
</defs>
</svg>
