<svg width="24" height="24" viewBox="0 0 24 24" fill="none" xmlns="http://www.w3.org/2000/svg">
<g clip-path="url(#clip0_1_16572)">
<path d="M15.0165 14.5747C13.4265 14.5747 11.8373 14.5814 10.2474 14.5747C9.87019 14.5732 9.50026 14.4707 9.17615 14.2776C8.85203 14.0845 8.58558 13.8081 8.40456 13.477C8.22353 13.1459 8.13455 12.7723 8.14688 12.3951C8.15921 12.0179 8.2724 11.6509 8.47466 11.3324C9.69354 9.41472 10.9124 7.49752 12.1313 5.58077C12.21 5.44632 12.3232 5.33542 12.4593 5.25965C12.5953 5.18387 12.7492 5.14599 12.9048 5.14994C14.3019 5.14994 15.6989 5.14994 17.0959 5.14994C17.4415 5.14994 17.6987 5.30405 17.8848 5.59819C19.0903 7.50243 20.3112 9.40065 21.514 11.3082C21.9587 12.0151 21.9936 12.7662 21.5877 13.4993C21.1819 14.2323 20.5409 14.5767 19.7125 14.5773L15.0165 14.5747Z" fill="#002046"/>
<path d="M16.3063 19.2944H13.4707C13.4037 19.2918 13.3366 19.2929 13.2698 19.2977C13.1557 19.3043 13.0488 19.3555 12.9721 19.4402C12.8955 19.525 12.8551 19.6365 12.8599 19.7507C12.8651 19.8607 12.9136 19.9642 12.9948 20.0386C13.0759 20.1131 13.1832 20.1524 13.2932 20.148C13.7455 20.1547 14.1971 20.1547 14.6481 20.148C14.7716 20.1433 14.8919 20.1876 14.9829 20.2713C15.4892 20.7081 16.0036 21.1363 16.5125 21.5705C16.9686 21.9598 17.2787 21.9725 17.7683 21.6181C19.5229 20.3378 21.2774 19.0563 23.0316 17.7734C23.1762 17.6675 23.3242 17.569 23.5118 17.5992C23.7314 17.6347 23.9035 17.7439 23.9725 17.9711C24.0449 18.2103 23.9524 18.3979 23.7716 18.5459C23.2358 18.9835 22.6914 19.417 22.1502 19.8518C20.6452 21.0619 19.1401 22.2722 17.635 23.4828C16.9733 24.0188 16.25 24.1354 15.4504 23.8473C13.7647 23.2402 12.0763 22.6412 10.3907 22.0348C10.0758 21.9217 9.74338 21.8654 9.40886 21.8686C8.76459 21.8686 8.12099 21.864 7.47672 21.8727C7.32134 21.8727 7.28116 21.8305 7.2825 21.6763C7.28965 20.6552 7.28965 19.6343 7.2825 18.6136C7.2825 18.4709 7.32201 18.4314 7.46332 18.4334C8.04866 18.4407 8.63399 18.4334 9.22 18.4374C9.72518 18.4467 10.2185 18.2839 10.619 17.9757C10.8066 17.835 10.9981 17.6997 11.1789 17.5516C11.6089 17.2012 12.0944 17.098 12.6356 17.1878C14.8604 17.5567 17.0854 17.9233 19.3106 18.2873C19.6328 18.3402 19.8464 18.5674 19.8243 18.8341C19.8022 19.1115 19.5752 19.293 19.241 19.2937C18.2636 19.295 17.2854 19.2953 16.3063 19.2944Z" fill="#002046"/>
<path d="M3.21602 22.2981C2.22082 22.2981 1.22495 22.2921 0.229078 22.3035C0.0341903 22.3035 -0.00130361 22.2472 3.5826e-05 22.0656C0.00807244 20.7849 0.00807244 19.5043 3.5826e-05 18.2236C3.5826e-05 18.0481 0.0455758 18.0012 0.221042 18.0018C2.22082 18.0076 4.22037 18.0076 6.2197 18.0018C6.37039 18.0018 6.43736 18.0219 6.43602 18.2028C6.42709 19.4982 6.42709 20.7957 6.43602 22.0951C6.43602 22.2592 6.39383 22.3035 6.22907 22.3021C5.22383 22.2941 4.21992 22.2981 3.21602 22.2981Z" fill="#002046"/>
<path d="M14.9909 2.57162C14.1545 2.57162 13.3166 2.56559 12.4815 2.57631C12.3107 2.57631 12.227 2.5227 12.1614 2.3753C12.0536 2.1314 11.9223 1.89823 11.8091 1.65635C11.6839 1.38833 11.7555 1.18732 12.0174 1.05332C12.263 0.925257 12.5361 0.859238 12.813 0.861016C12.955 0.861016 13.0889 0.829525 13.17 0.714949C13.5189 0.225153 14.0359 0.0877956 14.5878 0.0274924C15.1204 -0.0436528 15.6623 0.0156691 16.167 0.200361C16.4127 0.294836 16.6304 0.430184 16.7784 0.657996C16.8212 0.724476 16.8811 0.778214 16.9518 0.813579C17.0225 0.848945 17.1014 0.864635 17.1802 0.859006C17.4658 0.856308 17.7474 0.925427 17.9993 1.06002C18.2324 1.18397 18.3107 1.39034 18.2002 1.62955C18.0723 1.91029 17.9189 2.17897 17.793 2.46039C17.7361 2.58703 17.645 2.57229 17.5466 2.57229L14.9909 2.57162Z" fill="#002046"/>
<path d="M14.999 4.28691H11.7616C11.678 4.28996 11.5942 4.2866 11.5111 4.27686C11.4163 4.26304 11.3291 4.21713 11.264 4.14678C11.1989 4.07644 11.1598 3.9859 11.1533 3.89025C11.1468 3.7946 11.1733 3.69961 11.2283 3.62109C11.2832 3.54258 11.3635 3.48528 11.4555 3.45875C11.5528 3.43536 11.6529 3.42566 11.7529 3.42994C13.9201 3.42994 16.0871 3.42994 18.2538 3.42994C18.3537 3.42644 18.4535 3.43658 18.5505 3.46009C18.7655 3.51905 18.8653 3.67852 18.8492 3.89427C18.8483 3.99205 18.8105 4.08587 18.7435 4.15703C18.6765 4.2282 18.5851 4.27146 18.4876 4.2782C18.4044 4.28681 18.3207 4.28972 18.2371 4.28691H14.999Z" fill="#002046"/>
<path d="M15.0218 7.72554C14.7955 7.7195 14.5761 7.80364 14.4118 7.95946C14.2475 8.11527 14.1519 8.32999 14.1458 8.55639C14.1398 8.78278 14.2239 9.00231 14.3796 9.16667C14.5354 9.33102 14.75 9.42675 14.9763 9.43279C15.2562 9.44821 15.5268 9.4864 15.7732 9.61906C16.4048 9.96011 16.7376 10.4995 16.7108 11.2131C16.684 11.9267 16.3164 12.4466 15.6487 12.7193C15.4692 12.793 15.3975 12.8774 15.4263 13.0637C15.436 13.147 15.436 13.2311 15.4263 13.3143C15.4277 13.4168 15.3894 13.5158 15.3195 13.5907C15.2497 13.6656 15.1535 13.7106 15.0513 13.7163C14.946 13.7294 14.8397 13.7021 14.7538 13.6399C14.6678 13.5778 14.6085 13.4854 14.5878 13.3813C14.5812 13.3657 14.5782 13.3487 14.5791 13.3317C14.6749 12.9056 14.4452 12.7414 14.0715 12.6449C13.8398 12.5846 13.6415 12.4245 13.4614 12.2603C13.3758 12.1911 13.3209 12.091 13.3083 11.9816C13.2958 11.8722 13.3267 11.7622 13.3944 11.6754C13.4266 11.6284 13.4684 11.5887 13.5171 11.5591C13.5658 11.5295 13.6202 11.5105 13.6768 11.5036C13.7334 11.4966 13.7908 11.5017 13.8452 11.5187C13.8996 11.5356 13.9498 11.5639 13.9925 11.6017C14.2256 11.7928 14.5012 11.9252 14.7961 11.9876C15.3319 12.0875 15.8007 11.7545 15.8623 11.2278C15.9172 10.7407 15.5274 10.3213 15.0004 10.2958C14.1344 10.2543 13.452 9.68071 13.3194 8.88203C13.1801 8.04783 13.606 7.31347 14.4385 6.97511C14.4853 6.96288 14.5257 6.93312 14.5513 6.89197C14.5768 6.85083 14.5856 6.80143 14.5758 6.75399C14.5677 6.63704 14.5691 6.51963 14.5798 6.40289C14.5877 6.29292 14.6385 6.19044 14.7211 6.11751C14.8038 6.04458 14.9118 6.00703 15.0218 6.01293C15.2555 6.02097 15.4477 6.18647 15.4236 6.43305C15.3841 6.79085 15.4906 6.97309 15.8583 7.04948C16.1168 7.10375 16.3398 7.27729 16.5414 7.45619C16.743 7.63509 16.7765 7.88635 16.6137 8.07798C16.451 8.26961 16.2186 8.2877 16.011 8.1202C15.7123 7.88702 15.3975 7.73492 15.0218 7.72554Z" fill="#002046"/>
</g>
<defs>
<clipPath id="clip0_1_16572">
<rect width="24" height="24" fill="white"/>
</clipPath>
</defs>
</svg>
