<svg width="58" height="60" viewBox="0 0 58 60" fill="none" xmlns="http://www.w3.org/2000/svg">
<path d="M5.60419 59.0156C5.29788 58.7846 5.11409 58.4612 4.96094 58.107C3.12307 53.5946 1.49962 48.9898 0.12122 44.308C-0.123828 43.4763 -0.0319351 43.2607 0.718527 42.7987C2.8627 41.5051 5.16004 40.7196 7.62584 40.3654C8.31504 40.2576 8.57541 40.427 8.88172 41.1508C8.97361 41.3664 8.95829 41.7515 9.37181 41.5975C9.70876 41.4743 10.1223 41.5513 10.1989 40.9352C10.4439 38.9947 11.5007 37.5625 13.216 36.6692C14.38 36.0532 15.5593 35.4834 16.7539 34.929C17.1368 34.7441 17.3818 34.5593 17.29 34.0819C17.244 33.8355 17.2746 33.5891 17.2746 33.3273C17.29 32.4494 17.29 32.4494 16.4323 32.5265C9.3565 33.2195 2.57171 28.3529 0.917629 21.3918C-1.04276 13.1678 3.93479 5.15944 12.1286 3.32676C19.1278 1.77129 26.3108 5.65226 28.9298 12.4132C29.0523 12.7366 29.1136 12.9984 29.573 12.7212C29.8793 12.5364 29.8947 12.444 29.7262 12.1359C28.7154 10.4265 28.118 8.60919 28.6541 6.5917C29.0829 5.02083 30.201 4.11219 31.7785 4.05059C32.0848 4.03519 32.1767 3.95819 32.192 3.66557C32.2379 3.18815 32.3758 2.72613 32.5596 2.27951C33.1722 0.816446 34.3974 -0.0151905 35.9443 0.000210172C37.5065 0.000210172 38.6858 0.816446 39.3137 2.31031C39.5281 2.83394 39.4822 3.48076 39.7732 3.88118C40.0642 4.2816 40.7993 4.03519 41.2894 4.2662C42.7138 4.94383 43.2958 6.14508 43.403 7.63895C43.5255 9.27142 43.0048 10.7345 42.1624 12.1051C41.9633 12.4132 41.9939 12.5364 42.3309 12.7058C44.7354 13.8916 46.7264 15.6011 48.4724 17.6186C48.9931 18.2192 49.0238 18.6812 48.5949 19.0663C48.1814 19.4359 47.676 19.3281 47.1706 18.7582C45.3634 16.6483 43.2804 14.9235 40.6921 13.8454C37.0317 12.3208 33.4325 12.5826 29.9253 14.3998C29.5271 14.6001 29.619 14.8619 29.6649 15.1545C30.3082 18.9739 29.6496 22.5314 27.5514 25.781C25.6369 28.7533 22.9873 30.8016 19.6332 31.8796C19.1585 32.0336 18.9134 32.203 18.9747 32.7267C19.0053 33.0501 18.9747 33.3735 18.9747 33.7893C19.4801 33.5429 19.9549 33.3119 20.4143 33.0963C22.3441 32.1414 24.2738 31.1712 26.2189 30.2626C29.2973 28.8149 32.6821 30.5552 33.356 33.8971C33.7389 35.8222 32.9118 37.8859 31.2118 38.9947C29.6496 40.0112 28.0262 40.9506 26.418 41.9209C26.2802 42.0133 26.1423 42.1057 25.9126 42.2443C28.4856 42.6909 30.9514 43.1221 33.4172 43.5533C34.1371 43.6765 34.8416 43.7844 35.5614 43.923C36.8939 44.1694 38.0885 43.846 39.2065 43.1067C42.9895 40.6272 46.7877 38.1631 50.5707 35.6836C51.1373 35.314 51.704 34.9598 52.3779 34.8366C52.7148 34.775 52.7914 34.6363 52.8067 34.3283C52.9446 31.4022 52.3626 28.6147 51.3517 25.8888C50.8157 24.4719 50.1571 23.1166 49.3607 21.823C49.085 21.3764 49.0544 20.9451 49.4679 20.5755C49.8815 20.1905 50.4788 20.3291 50.8157 20.8989C52.3319 23.3938 53.4193 26.0428 54.0473 28.8919C54.4455 30.7246 54.6293 32.5727 54.5067 34.4361C54.4914 34.7287 54.5527 34.852 54.859 34.9598C58.2897 36.2072 59.0555 40.4578 56.2221 42.7833C51.3211 46.8029 46.3742 50.7455 41.4426 54.7188C39.8498 55.9971 38.0119 56.3359 36.0056 56.0895C31.3496 55.5043 26.6937 54.9344 22.0225 54.3646C20.399 54.1644 18.7602 53.9796 17.1368 53.764C16.8918 53.7332 16.6926 53.7486 16.4629 53.8256C15.6665 54.1336 14.8548 54.4416 14.0584 54.7188C13.798 54.8112 13.6295 54.8728 13.7674 55.2271C13.9665 55.7815 13.7214 56.1665 13.216 56.4591C11.1484 57.6912 8.92766 58.5382 6.53844 58.877C6.47717 58.8924 6.41591 58.9386 6.35465 58.9694C6.14023 59.0156 5.87987 59.0156 5.60419 59.0156Z" fill="#AC8C3A"/>
<path d="M40.5849 31.587C40.5849 30.6321 40.5696 29.6619 40.6003 28.7071C40.6003 28.3836 40.5084 28.2296 40.2174 28.1064C39.8038 27.9216 39.4056 27.6906 39.0074 27.4596C37.6137 26.6588 37.0011 25.4267 37.1849 23.8558C37.384 22.1002 38.3182 20.8681 40.0183 20.3291C40.4777 20.1905 40.6462 20.0211 40.5849 19.5591C40.5543 19.2972 40.5543 19.02 40.6156 18.7582C40.7228 18.2808 41.0444 18.0344 41.5345 18.096C41.994 18.1422 42.3309 18.4348 42.2696 18.8814C42.1165 19.8671 42.5606 20.2521 43.4489 20.3907C44.0156 20.4831 44.5057 20.8219 44.9499 21.1915C45.3634 21.5303 45.4247 22.0386 45.1337 22.4236C44.8427 22.8086 44.3526 22.8702 43.9084 22.5622C43.5255 22.285 43.1273 22.0694 42.6985 21.9308C42.4381 21.8384 42.285 21.8538 42.285 22.2234C42.3003 23.7326 42.3003 25.2573 42.285 26.7666C42.285 27.0438 42.3769 27.1824 42.6372 27.2594C42.8516 27.321 43.0661 27.4288 43.2805 27.5058C45.1183 28.1834 46.2823 29.4463 46.3436 31.4484C46.4202 33.4967 45.5012 35.0675 43.694 36.0686C43.5255 36.161 43.357 36.238 43.1733 36.2996C42.285 36.623 42.285 36.623 42.285 37.547C42.285 37.6394 42.285 37.7318 42.285 37.8397C42.2543 38.4095 41.9633 38.7329 41.4579 38.7483C40.9525 38.7637 40.6002 38.4095 40.5696 37.8397C40.539 37.4392 40.7381 36.931 40.493 36.6692C40.2786 36.4536 39.7732 36.5152 39.4056 36.4382C38.6092 36.2842 37.9047 35.9146 37.2155 35.4833C36.6948 35.1445 36.5569 34.6517 36.8479 34.2205C37.1236 33.8047 37.6137 33.7123 38.1038 34.0203C38.7624 34.4207 39.421 34.7749 40.2174 34.8365C40.5084 34.8673 40.5849 34.7903 40.5696 34.5131C40.5696 33.5429 40.5849 32.5726 40.5849 31.587Z" fill="#AC8C3A"/>
<path d="M36.802 54.4416C32.8506 53.9487 28.746 53.4405 24.6415 52.9477C22.0838 52.6397 19.5261 52.3163 16.9684 52.0083C16.6927 51.9775 16.4477 52.0391 16.1873 52.1315C15.3296 52.4549 14.4719 52.7629 13.6143 53.1017C13.2926 53.2403 13.1701 53.1633 13.0629 52.8399C12.5422 51.2074 11.9908 49.575 11.4548 47.9425C11.4242 47.8501 11.3935 47.7577 11.3629 47.6807C11.1485 47.1262 10.735 46.9106 10.2449 47.0646C9.78539 47.2186 9.55565 47.6961 9.73944 48.2351C10.2449 49.7752 10.7809 51.3152 11.2863 52.8553C11.516 53.5483 11.6998 54.2414 11.9296 54.9344C12.0061 55.1654 11.9602 55.2578 11.7458 55.381C10.1836 56.2434 8.51419 56.8133 6.76822 57.1675C6.4466 57.2291 6.38533 57.0443 6.29344 56.8287C4.66999 52.7937 3.23033 48.6971 1.97445 44.5389C1.88256 44.2155 1.95914 44.0769 2.25013 43.9229C3.76637 43.1221 5.35919 42.5676 7.02859 42.2288C7.31958 42.1672 7.47274 42.2134 7.57995 42.5214C7.85563 43.2761 8.16194 44.0153 8.46825 44.7699C8.7133 45.386 9.15745 45.6324 9.66286 45.4168C10.1223 45.232 10.2908 44.7391 10.0764 44.1539C9.77007 43.2915 9.77007 43.2915 10.6431 43.0451C11.7917 42.7217 11.7764 42.7217 11.8683 41.5512C11.9755 40.0265 12.6953 38.8869 14.0584 38.2093C18.3774 36.0686 22.6964 33.9433 27.046 31.8334C28.6848 31.0479 30.538 31.6794 31.3803 33.2348C32.238 34.8211 31.7326 36.7154 30.1551 37.701C27.9956 39.0255 25.8055 40.3345 23.6306 41.6436C23.4622 41.736 23.309 41.8438 23.1406 41.9362C22.773 42.1518 22.6045 42.4752 22.6811 42.8911C22.773 43.3223 23.0793 43.5071 23.4928 43.5841C25.9127 43.9999 28.3325 44.4311 30.7677 44.8469C32.3299 45.1242 33.8921 45.4014 35.4389 45.6632C37.2002 45.9558 38.793 45.5092 40.2787 44.5389C43.2652 42.583 46.2517 40.6426 49.2536 38.6867C50.1112 38.1168 50.9689 37.547 51.8419 36.9926C53.2509 36.0994 54.8437 36.3612 55.7474 37.624C56.651 38.8869 56.4059 40.504 55.1041 41.5512C50.2491 45.4784 45.3941 49.3901 40.539 53.3019C39.4822 54.149 38.3029 54.534 36.802 54.4416Z" fill="#F4F4F4"/>
<path d="M28.2099 17.8034C28.2252 25.0109 22.4053 30.8785 15.2223 30.8785C8.06996 30.8939 2.21942 25.0263 2.2041 17.8188C2.17347 10.6266 7.99338 4.74358 15.1764 4.72818C22.3747 4.71278 28.1793 10.5342 28.2099 17.8034Z" fill="#F4F4F4"/>
<path d="M41.703 8.07015C41.6724 9.39461 41.1516 10.5651 40.4471 11.6431C40.3246 11.8279 40.2174 11.8279 40.0183 11.7663C37.2921 10.9347 34.5813 10.9193 31.8551 11.7509C31.7173 11.7971 31.5794 11.8587 31.4569 11.6739C30.5992 10.3494 29.9253 8.96339 30.2317 7.31552C30.4614 6.02186 31.2731 5.54444 32.5137 5.91405C33.3407 6.16046 33.8002 5.82165 33.8002 4.94381C33.8002 4.26618 33.8921 3.60395 34.1371 2.97253C34.4434 2.18709 35.0101 1.72507 35.8678 1.72507C36.7714 1.70967 37.3228 2.07929 37.6903 2.92632C37.9813 3.60395 38.0426 4.32778 38.0579 5.06702C38.0579 5.79085 38.5633 6.14506 39.2372 5.97566C40.7994 5.57524 41.6417 6.20667 41.703 7.83914C41.7183 7.91614 41.703 7.99315 41.703 8.07015Z" fill="#F4F4F4"/>
<path d="M42.3002 31.818C42.3002 30.9864 42.3002 30.1702 42.3002 29.3385C42.3002 29.0767 42.3615 29.0151 42.6219 29.0767C43.8471 29.4155 44.6588 30.432 44.6588 31.6794C44.6588 32.9269 43.6633 34.3899 42.6065 34.6826C42.3309 34.7596 42.2849 34.6364 42.2849 34.4053C42.3002 33.5429 42.3002 32.6805 42.3002 31.818Z" fill="#F4F4F4"/>
<path d="M40.5389 26.32C39.2524 25.7656 38.793 25.1803 38.8542 24.1947C38.9155 23.132 39.5587 22.3004 40.5389 22.0232C40.5389 23.4401 40.5389 24.8569 40.5389 26.32Z" fill="#F4F4F4"/>
<path d="M27.4594 38.1784C26.7243 38.1784 26.127 37.8704 25.6981 37.2698C25.1315 36.469 24.7486 35.5757 24.5035 34.6209C24.3504 34.0049 24.5648 33.5583 25.0702 33.4197C25.5909 33.281 25.9738 33.5429 26.1576 34.1589C26.3414 34.7903 26.5865 35.3755 26.8928 35.9608C27.1531 36.4536 27.4748 36.5768 27.9495 36.2842C28.2405 36.0994 28.5468 35.9453 28.8532 35.8067C29.2667 35.6373 29.6189 35.7759 29.8487 36.1302C30.0937 36.4844 30.0478 36.854 29.7721 37.1774C29.4351 37.5778 28.0108 38.1784 27.4594 38.1784Z" fill="#AC8C3A"/>
<path d="M9.20338 54.0258C9.20338 54.5032 8.86644 54.8728 8.39165 54.8882C7.90156 54.9036 7.50335 54.5186 7.48804 54.0566C7.48804 53.5792 7.90156 53.1634 8.36102 53.1788C8.82049 53.1788 9.18806 53.5638 9.20338 54.0258Z" fill="#AC8C3A"/>
<path d="M23.1252 22.8702C23.0792 24.0714 22.7576 25.0725 22.0071 25.9041C20.5828 27.475 18.3467 27.475 16.9224 25.9041C15.5287 24.3641 15.4368 21.8691 16.7386 20.2367C17.6575 19.097 18.8521 18.5734 20.2765 18.9584C21.8234 19.3742 22.6504 20.5293 23.0026 22.054C23.0945 22.3466 23.0945 22.6546 23.1252 22.8702Z" fill="#AC8C3A"/>
<path d="M14.5944 12.4747C14.5944 13.6452 14.3187 14.5538 13.6908 15.3547C12.2511 17.2027 9.73936 17.2181 8.26907 15.4009C7.01319 13.8454 6.99788 11.4121 8.26907 9.87201C9.14206 8.80937 10.2601 8.31655 11.6079 8.59376C13.0935 8.90177 13.9511 9.93362 14.4106 11.3351C14.5484 11.7509 14.5791 12.1821 14.5944 12.4747Z" fill="#AC8C3A"/>
<path d="M19.3422 10.1339C19.2809 10.3033 19.235 10.4727 19.1584 10.6575C17.1214 15.5395 15.0845 20.4369 13.0475 25.319C12.7871 25.9504 12.3583 26.1968 11.8682 26.012C11.3321 25.7964 11.179 25.319 11.4547 24.6567C13.507 19.7593 15.5439 14.8465 17.5962 9.94908C17.78 9.51786 18.025 9.20984 18.5151 9.24065C18.9287 9.25605 19.1737 9.48706 19.2962 9.88747C19.3116 9.94908 19.3269 10.0261 19.3422 10.1339Z" fill="#AC8C3A"/>
<path d="M21.4098 22.9473C21.4251 24.2409 20.5521 25.3344 19.5107 25.3498C18.4539 25.3652 17.5503 24.2563 17.5503 22.9473C17.5503 21.6536 18.4386 20.5756 19.4801 20.5756C20.5215 20.5756 21.3945 21.6536 21.4098 22.9473Z" fill="#F4F4F4"/>
<path d="M12.8791 12.6133C12.8944 13.9532 12.0214 15.0312 10.934 15.0158C9.86195 15.0004 9.03491 13.9532 9.03491 12.6287C9.03491 11.3351 9.84664 10.2878 10.8881 10.257C11.9908 10.2262 12.8638 11.2581 12.8791 12.6133Z" fill="#F4F4F4"/>
</svg>
