<svg width="82" height="137" viewBox="0 0 82 137" fill="none" xmlns="http://www.w3.org/2000/svg">
<path fill-rule="evenodd" clip-rule="evenodd" d="M22.6 10.2V43.4V47.2C22.6 48.2 23.1 49.1 24 49.7L34.9 56.4C36.8 57.6 39.3 56.2 39.3 53.9V16.8V3.7V2.9C39.3 1.3 38 0 36.4 0H22.6H16.7H2.9C1.3 0.1 0 1.3 0 2.9V34.8V45.3V52.1V62.5V133.1C0 135.4 2.5 136.7 4.4 135.6L16.7 128L22.6 124.4L37.9 115C38.8 114.5 39.3 113.5 39.3 112.5V88.4C39.3 87.4 38.8 86.5 37.9 85.9L27 79.2C25.1 78 22.6 79.4 22.6 81.7V114C22.6 115.6 21.3 117 19.6 117C18 117 16.7 115.7 16.7 114V72.8V67.5C16.7 65.2 19.2 63.9 21.1 65L22.6 65.9L34.9 73.5C36.8 74.7 39.3 73.3 39.3 71C39.3 70 38.8 69.1 37.9 68.5L22.6 59.1L16.7 55.5V53.2V45.1V43.3V10.2C16.7 8.6 18 7.3 19.6 7.3C21.3 7.2 22.6 8.6 22.6 10.2Z" fill="#C29D3E"/>
<path fill-rule="evenodd" clip-rule="evenodd" d="M58.5 47.4L43.2 56.8C42.3 57.3 41.8 58.3 41.8 59.3V64.5V75V112.7C41.8 113.7 42.3 114.6 43.2 115.2L58.5 124.6L64.4 128.2L76.7 135.8C78.6 137 81.1 135.6 81.1 133.3V55.9C81.1 53.6 78.6 52.3 76.7 53.4L65.8 60.1C64.9 60.6 64.4 61.6 64.4 62.6V114C64.4 115.6 63.1 116.9 61.5 116.9C59.9 116.9 58.6 115.6 58.6 114V64.7V55.9C58.6 54.9 59.1 54 60 53.4L64.5 50.6L79.8 41.2C80.7 40.7 81.2 39.7 81.2 38.7V33.5V23.1V2.9C81.2 1.3 79.9 0 78.3 0H64.4H58.5H44.7C43.1 0 41.8 1.3 41.8 2.9V3.6V11.4V42.1C41.8 44.4 44.3 45.7 46.2 44.6L57.1 37.9C58 37.4 58.5 36.4 58.5 35.4V10.1C58.5 8.5 59.8 7.1 61.4 7.1C63 7.1 64.3 8.4 64.3 10.1V33.3V42.1C64.3 43.1 63.8 44 62.9 44.6L58.5 47.4Z" fill="#EBD773"/>
</svg>
