<svg width="223" height="158" viewBox="0 0 223 158" fill="none" xmlns="http://www.w3.org/2000/svg">
<path d="M27.3787 139.611C27.3787 139.611 -2.05512 122.88 14.1424 81.8287C30.348 40.7769 72.2496 51.4871 87.808 33.0162C103.366 14.5454 134.71 -13.572 169.2 7.50193C203.691 28.5758 195.204 61.7621 207.615 75.1157C220.026 88.4692 245.714 145.59 169.953 148.459C94.1915 151.32 27.3787 139.611 27.3787 139.611Z" fill="#E0E0E0"/>
<path opacity="0.3" d="M178.869 51.9786C181.959 51.89 185.002 51.205 188.092 51.0357C191.45 50.8584 194.953 51.2695 198.06 49.98C198.117 49.9559 198.173 49.9317 198.238 49.8994C197.259 46.0312 196.134 42.0098 194.589 37.9482C194.524 37.9643 194.451 37.9885 194.387 38.0046C192.405 38.6009 190.544 39.5519 188.561 40.1321C184.84 41.212 180.73 40.8897 177.226 39.2295C173.286 37.3679 170.139 33.9187 165.932 32.7824C162.865 31.9524 159.605 32.4682 156.45 32.1539C153.286 31.8315 149.823 30.2359 149.055 27.1574C148.909 26.5771 148.877 25.9485 149.136 25.4086C149.686 24.2804 151.174 24.0789 152.429 24.0225C155.632 23.8774 158.852 23.7324 162.024 24.1434C166.069 24.6672 170.155 26.1017 174.128 25.191C175.341 24.9089 176.498 24.4254 177.704 24.1111C180.916 23.2891 184.29 23.7807 187.558 24.4254C183.343 18.3732 177.518 12.5789 169.192 7.49377C168.958 7.34871 168.715 7.20365 168.48 7.06665C165.285 8.7993 162.493 11.3137 159.136 12.7481C155.115 14.4727 150.576 14.5291 146.207 14.2793C143.593 14.1343 140.713 13.957 138.634 15.5446C137.113 16.705 136.328 18.5989 134.904 19.8883C133.189 21.4436 130.786 21.9191 128.537 22.4913C125.681 23.2085 122.8 24.2239 120.648 26.2306C118.504 28.2373 117.258 31.4447 118.302 34.1847C119.621 37.6661 123.836 39.0442 127.558 39.3585C132.323 39.7614 137.226 39.1892 141.822 40.5109C144.945 41.4135 147.744 43.1381 150.657 44.5725C155.697 47.0466 161.118 48.6503 166.555 50.0767C170.592 51.1325 174.702 52.0995 178.869 51.9786Z" fill="white"/>
<path opacity="0.3" d="M22.8318 66.7667C23.6975 67.1697 24.5632 67.5646 25.437 67.9675C27.848 69.0796 30.2914 70.1998 32.9128 70.6108C35.3238 70.9896 37.7915 70.7478 40.2267 70.5141C43.1879 70.224 46.1815 69.9258 49.0213 69.0393C52.1524 68.0642 55.057 66.396 58.2528 65.6466C61.7722 64.8326 65.4373 65.1872 69.0458 65.3081C73.8435 65.4693 78.7303 65.1953 83.2449 63.5916C87.7676 61.9878 91.91 58.9255 94.0136 54.6301C95.122 52.3575 95.6884 49.7465 97.4117 47.8929C99.1997 45.983 101.942 45.2335 103.9 43.4847C106.805 40.8979 107.404 36.119 105.227 32.9035C105.017 32.5892 104.774 32.2829 104.434 32.1137C103.908 31.8397 103.286 31.9445 102.695 32.017C100.567 32.2749 98.3745 31.9928 96.3761 31.2111C94.6932 30.5503 93.1479 29.5429 91.5217 28.7612C90.1948 30.2199 88.9488 31.6382 87.7999 33.0163C86.2627 34.8376 84.4747 36.3768 82.4763 37.7065C83.8436 38.0773 85.1786 38.585 86.4488 39.2216C87.5087 39.7616 88.6414 40.5755 88.7061 41.7601C88.7708 42.9126 87.7838 43.8393 86.7967 44.4518C84.0944 46.12 80.6963 46.813 78.6494 49.2307C76.8452 51.3663 76.3355 54.6059 73.9487 56.0727C72.8807 56.7254 71.6024 56.9108 70.3484 56.9994C66.1978 57.3057 61.8531 56.7899 58.0101 58.3775C57.1686 58.724 56.3677 59.1753 55.502 59.4574C54.3693 59.8361 53.1637 59.9328 51.9744 60.0054C45.0407 60.4164 38.0504 60.0054 31.2137 58.7804C28.2445 61.0047 25.4208 63.6238 22.8318 66.7667Z" fill="white"/>
<path d="M159.912 40.8494C162.509 64.357 149.2 97.7368 149.2 97.7368C149.2 97.7368 167.388 80.6762 166.992 60.4727L161.174 60.376C161.174 60.376 164.168 58.4257 166.717 56.8381C166.013 51.5838 163.949 46.1763 159.912 40.8494Z" fill="#07085B"/>
<path d="M139.046 68.0399L142.719 65.8802L139.548 65.4208C140.494 61.48 142.218 57.9905 144.265 54.9685C146.66 55.6938 149.402 56.4513 149.402 56.4513L146.368 52.1479C152.428 44.7418 159.904 40.8494 159.904 40.8494C162.501 64.357 149.192 97.7368 149.192 97.7368C140.106 86.1885 137.865 76.2358 139.046 68.0399Z" fill="#55769F"/>
<path d="M169.087 64.0588C165.106 65.7673 161.902 68.1124 159.338 70.788C159.702 72.4239 160.098 74.3984 160.098 74.3984L157.647 72.6979C148.715 83.6741 148.836 98.5185 148.836 98.5185C157.606 94.9162 162.849 90.1292 165.923 85.2778C165.3 84.3752 164.346 83.0455 164.346 83.0455L166.854 83.6902C168.173 81.2403 168.974 78.8065 169.435 76.5339C168.132 76.2116 166.668 75.8006 166.668 75.8006L169.791 74.35C170.487 68.4509 169.087 64.0588 169.087 64.0588Z" fill="#FF5B7E"/>
<path d="M165.915 85.2778C165.292 84.3752 164.338 83.0455 164.338 83.0455L166.846 83.6902C168.165 81.2403 168.966 78.8065 169.427 76.5339C168.124 76.2116 166.66 75.8006 166.66 75.8006L169.783 74.35C170.487 68.459 169.087 64.0669 169.087 64.0669C157.817 76.1874 148.836 98.5265 148.836 98.5265C157.598 94.9242 162.849 90.1373 165.915 85.2778Z" fill="#E03268"/>
<path d="M163.15 74.5022L133.194 127.021L159.99 142.185L189.945 89.6661L163.15 74.5022Z" fill="#8FD0D6"/>
<path d="M187.696 90.6532L159.686 139.764L135.438 126.048L163.448 76.937L187.696 90.6532ZM158.998 137.274L185.204 91.3382L164.144 79.4191L137.938 125.354L158.998 137.274Z" fill="#CBEFEF"/>
<path d="M172.549 114.537C175.67 109.065 173.306 101.859 167.268 98.4425C161.23 95.0257 153.805 96.6919 150.684 102.164C147.563 107.636 149.927 114.842 155.965 118.259C162.003 121.676 169.427 120.009 172.549 114.537Z" fill="#CBEFEF"/>
<path d="M159.208 104.78C158.537 104.603 157.906 104.579 157.299 105.006C157.38 105.078 157.436 105.135 157.509 105.175C158.448 105.715 159.386 106.239 160.317 106.787C160.519 106.908 160.632 106.884 160.81 106.722C161.215 106.352 161.643 105.997 162.088 105.675C163.65 104.539 165.276 104.748 166.732 105.82C168.488 107.109 168.974 108.753 168.318 110.841C168.197 111.219 168.286 111.397 168.618 111.55C168.86 111.663 169.087 111.808 169.338 111.961C169.103 112.364 168.885 112.75 168.642 113.161C168.278 112.952 167.914 112.742 167.558 112.541C165.616 114.926 163.27 114.628 161.797 113.927C162.129 113.17 162.461 112.412 162.8 111.638C163.707 111.888 164.556 111.872 165.478 111.356C164.961 111.058 164.508 110.8 164.063 110.542C163.448 110.188 162.833 109.849 162.226 109.487C161.999 109.35 161.854 109.358 161.66 109.535C161.029 110.107 160.333 110.591 159.499 110.824C157.8 111.292 156.376 110.72 155.228 109.535C154.151 108.431 153.998 107.045 154.507 105.594C154.54 105.498 154.572 105.401 154.605 105.304C154.613 105.272 154.621 105.232 154.629 105.159C154.338 104.998 154.046 104.829 153.723 104.643C153.957 104.232 154.176 103.854 154.427 103.418C154.645 103.539 154.872 103.652 155.074 103.797C155.292 103.95 155.422 103.894 155.584 103.7C156.295 102.83 157.185 102.274 158.342 102.201C158.949 102.161 159.54 102.258 160.147 102.508C159.831 103.265 159.524 104.007 159.208 104.78ZM163.019 108.302C164.119 108.931 165.195 109.551 166.271 110.164C166.627 109.374 166.312 108.399 165.535 107.859C164.775 107.335 163.804 107.488 163.019 108.302ZM156.53 106.271C156.417 107.125 156.773 107.891 157.388 108.197C158.067 108.536 158.917 108.407 159.402 107.915C158.464 107.375 157.517 106.835 156.53 106.271Z" fill="#8FD0D6"/>
<path d="M152.331 124.541C151.53 124.089 150.511 124.363 150.05 125.169C149.597 125.967 149.872 126.982 150.681 127.442C151.482 127.893 152.501 127.619 152.962 126.813C153.415 126.015 153.132 125 152.331 124.541Z" fill="#CBEFEF"/>
<path d="M172.55 89.0977C171.749 88.6464 170.729 88.9204 170.268 89.7263C169.815 90.5241 170.09 91.5395 170.899 91.9989C171.7 92.4502 172.72 92.1762 173.181 91.3703C173.626 90.5644 173.351 89.549 172.55 89.0977Z" fill="#CBEFEF"/>
<path d="M183.14 101.589C183.051 101.516 185.276 97.8416 185.276 97.8416L156.344 108.979L156.724 111.252L183.14 101.589Z" fill="#8FD0D6"/>
<path d="M199.265 95.5595L142.397 116.531L153.097 145.318L209.965 124.346L199.265 95.5595Z" fill="#8FD0D6"/>
<path d="M207.607 123.662L154.427 143.269L144.742 117.223L197.922 97.616L207.607 123.662ZM155.511 140.924L205.252 122.582L196.846 99.9611L147.097 118.303L155.511 140.924Z" fill="#CBEFEF"/>
<path d="M180.584 132.217C186.509 130.032 189.358 123.002 186.947 116.516C184.536 110.03 177.778 106.543 171.853 108.728C165.928 110.913 163.079 117.942 165.49 124.429C167.901 130.915 174.658 134.402 180.584 132.217Z" fill="#CBEFEF"/>
<path d="M176.676 116.2C176.272 115.627 175.81 115.208 175.074 115.152C175.09 115.257 175.098 115.345 175.123 115.418C175.495 116.433 175.867 117.441 176.231 118.456C176.312 118.682 176.417 118.73 176.652 118.722C177.202 118.698 177.752 118.698 178.302 118.738C180.228 118.875 181.344 120.076 181.765 121.825C182.267 123.936 181.587 125.508 179.734 126.684C179.395 126.902 179.346 127.095 179.508 127.426C179.621 127.667 179.694 127.925 179.799 128.199C179.362 128.361 178.941 128.514 178.488 128.675C178.343 128.28 178.197 127.885 178.06 127.506C175.034 128.087 173.432 126.354 172.752 124.871C173.496 124.508 174.241 124.138 175.001 123.759C175.535 124.524 176.191 125.064 177.234 125.266C177.032 124.702 176.854 124.218 176.676 123.735C176.433 123.074 176.183 122.413 175.956 121.744C175.875 121.494 175.754 121.406 175.487 121.414C174.629 121.446 173.788 121.373 173.003 121.011C171.401 120.285 170.681 118.924 170.568 117.28C170.462 115.748 171.239 114.588 172.558 113.806C172.647 113.75 172.736 113.701 172.825 113.645C172.857 113.629 172.882 113.597 172.938 113.548C172.825 113.234 172.704 112.92 172.582 112.573C173.027 112.412 173.44 112.259 173.909 112.09C173.998 112.323 174.095 112.557 174.16 112.799C174.233 113.057 174.362 113.097 174.613 113.049C175.721 112.839 176.765 112.984 177.695 113.669C178.189 114.032 178.569 114.483 178.885 115.063C178.132 115.442 177.42 115.813 176.676 116.2ZM177.315 121.341C177.752 122.534 178.173 123.686 178.602 124.847C179.386 124.476 179.775 123.525 179.524 122.615C179.281 121.728 178.448 121.22 177.315 121.341ZM173.666 115.627C173.027 116.208 172.809 117.022 173.084 117.65C173.383 118.343 174.119 118.795 174.807 118.722C174.427 117.715 174.055 116.691 173.666 115.627Z" fill="#8FD0D6"/>
<path d="M158.642 126.91C158.318 126.047 157.364 125.604 156.498 125.927C155.632 126.249 155.187 127.2 155.511 128.062C155.835 128.924 156.789 129.368 157.655 129.045C158.521 128.731 158.958 127.772 158.642 126.91Z" fill="#CBEFEF"/>
<path d="M197.024 112.758C196.7 111.896 195.746 111.453 194.88 111.775C194.014 112.098 193.569 113.049 193.893 113.911C194.217 114.773 195.171 115.216 196.037 114.894C196.903 114.572 197.34 113.621 197.024 112.758Z" fill="#CBEFEF"/>
<path d="M200.165 117.622L139.526 117.808L139.621 148.504L200.26 148.319L200.165 117.622Z" fill="#8FD0D6"/>
<path d="M198.286 146.864L141.579 147.041L141.49 119.262L198.197 119.085L198.286 146.864ZM143.407 145.203L196.45 145.042L196.377 120.914L143.334 121.075L143.407 145.203Z" fill="#CBEFEF"/>
<path d="M169.952 145.631C176.27 145.611 181.375 139.989 181.353 133.072C181.331 126.156 176.192 120.565 169.874 120.584C163.556 120.604 158.451 126.227 158.473 133.143C158.494 140.059 163.634 145.651 169.952 145.631Z" fill="#CBEFEF"/>
<path d="M171.822 129.247C171.644 128.578 171.353 128.022 170.681 127.708C170.665 127.812 170.641 127.893 170.641 127.974C170.641 129.054 170.641 130.125 170.632 131.205C170.632 131.439 170.705 131.528 170.932 131.6C171.458 131.769 171.975 131.963 172.477 132.18C174.241 132.97 174.872 134.477 174.662 136.266C174.403 138.426 173.221 139.659 171.077 140.134C170.689 140.223 170.576 140.384 170.608 140.747C170.632 141.013 170.608 141.279 170.608 141.577C170.139 141.577 169.702 141.577 169.217 141.577C169.217 141.158 169.217 140.739 169.217 140.328C166.174 139.836 165.268 137.652 165.147 136.032C165.972 135.944 166.797 135.855 167.647 135.767C167.882 136.669 168.319 137.394 169.225 137.942C169.225 137.346 169.225 136.83 169.225 136.315C169.225 135.613 169.217 134.904 169.233 134.203C169.241 133.945 169.16 133.816 168.909 133.736C168.1 133.478 167.331 133.115 166.717 132.503C165.463 131.27 165.26 129.747 165.721 128.167C166.15 126.692 167.283 125.87 168.796 125.588C168.893 125.572 168.998 125.548 169.095 125.532C169.136 125.524 169.168 125.508 169.233 125.483C169.233 125.153 169.233 124.815 169.233 124.444C169.71 124.444 170.147 124.444 170.649 124.444C170.649 124.694 170.665 124.943 170.641 125.193C170.616 125.459 170.73 125.54 170.98 125.58C172.089 125.766 173.019 126.257 173.658 127.216C173.998 127.724 174.2 128.28 174.289 128.933C173.456 129.037 172.663 129.142 171.822 129.247ZM170.649 134.292C170.649 135.557 170.641 136.79 170.641 138.023C171.506 137.942 172.202 137.185 172.283 136.242C172.364 135.331 171.749 134.574 170.649 134.292ZM169.2 127.684C168.399 128.006 167.914 128.699 167.954 129.384C167.995 130.133 168.529 130.81 169.2 130.98C169.192 129.9 169.192 128.812 169.2 127.684Z" fill="#8FD0D6"/>
<path d="M151.191 133.123C151.191 132.205 150.438 131.463 149.516 131.463C148.593 131.463 147.849 132.213 147.849 133.131C147.849 134.05 148.602 134.791 149.524 134.791C150.446 134.783 151.191 134.042 151.191 133.123Z" fill="#CBEFEF"/>
<path d="M192.121 132.994C192.121 132.075 191.369 131.334 190.446 131.334C189.524 131.334 188.78 132.083 188.78 133.002C188.78 133.921 189.532 134.662 190.455 134.662C191.377 134.662 192.121 133.913 192.121 132.994Z" fill="#CBEFEF"/>
<path d="M200.196 127.941L200.163 117.618L157.825 117.715L157.412 115.265L202.477 115.128L202.51 127.095L200.196 127.941Z" fill="#8FD0D6"/>
<path d="M51.8926 62.7841L39.3792 65.894L42.617 78.8196L55.1304 75.7097L51.8926 62.7841Z" fill="#CFE8EA"/>
<path d="M12.5138 72.5695L0.000244141 75.6794L3.23807 88.6051L15.7516 85.4951L12.5138 72.5695Z" fill="#CFE8EA"/>
<path d="M64.0539 111.356L55.1299 75.7039L42.6136 78.8146L51.659 114.926L51.7237 115.112C51.7885 115.321 52.4438 117.473 52.6299 120.334C52.7917 122.784 52.6461 126.321 51.0118 129.239C49.426 132.084 46.6185 134.018 42.4518 135.138C42.0877 135.218 41.7237 135.291 41.3677 135.355L44.4907 147.839C44.6849 147.798 44.8709 147.758 45.0651 147.718V147.734C45.235 147.694 45.3968 147.653 45.5667 147.605C45.7366 147.565 45.8985 147.524 46.0684 147.484V147.468C49.7739 146.436 53.0263 144.897 55.7448 142.882C58.4956 140.844 60.7125 138.321 62.3387 135.38C63.7788 132.769 64.7578 129.827 65.2352 126.644C65.5992 124.218 65.6721 121.639 65.4617 118.988C65.1543 115.184 64.3452 112.283 64.0539 111.356Z" fill="#74BDC1"/>
<path d="M32.1119 133.929C29.2964 132.116 27.5003 129.061 26.4889 126.821C25.3077 124.21 24.8708 122.002 24.8303 121.784L24.798 121.591L15.7526 85.4792L3.23633 88.598L12.1684 124.25C12.3545 125.201 13.0018 128.143 14.5228 131.64C15.5827 134.082 16.8691 136.314 18.3335 138.289C20.2591 140.876 22.5002 143.019 25.0083 144.647C27.832 146.485 30.9792 147.677 34.3692 148.185C37.5489 148.669 40.947 148.54 44.4988 147.822L41.3758 135.339C37.6541 136.008 34.612 135.541 32.1119 133.929Z" fill="#FF5B7E"/>
<path d="M170.177 142.303C178.742 133.771 178.742 119.938 170.177 111.406C161.611 102.874 147.723 102.874 139.158 111.406C130.592 119.938 130.592 133.771 139.158 142.303C147.723 150.835 161.611 150.835 170.177 142.303Z" fill="#F4A640"/>
<path d="M168.615 140.747C176.318 133.075 176.318 120.635 168.615 112.962C160.912 105.289 148.423 105.289 140.72 112.962C133.017 120.635 133.017 133.075 140.72 140.747C148.423 148.42 160.912 148.42 168.615 140.747Z" fill="#F9CC4B"/>
<path d="M154.872 145.244C144.694 145.348 136.32 137.193 136.207 127.047C136.101 116.909 144.289 108.568 154.475 108.455C164.653 108.35 173.027 116.506 173.141 126.652C173.246 136.798 165.05 145.139 154.872 145.244ZM154.483 109.14C144.678 109.245 136.781 117.28 136.886 127.047C136.991 136.814 145.058 144.68 154.864 144.575C164.67 144.47 172.566 136.435 172.461 126.668C172.356 116.893 164.289 109.035 154.483 109.14Z" fill="#F4A640"/>
<path opacity="0.5" d="M157.679 121.035C157.388 120.012 156.943 119.165 155.899 118.698C155.875 118.859 155.834 118.988 155.834 119.109C155.851 120.761 155.883 122.413 155.883 124.057C155.883 124.42 156.004 124.549 156.352 124.653C157.161 124.903 157.962 125.185 158.731 125.516C161.449 126.692 162.444 128.989 162.153 131.737C161.805 135.049 160.001 136.975 156.732 137.733C156.134 137.87 155.964 138.128 156.02 138.684C156.061 139.087 156.037 139.498 156.045 139.949C155.325 139.957 154.653 139.965 153.909 139.973C153.901 139.329 153.893 138.684 153.884 138.063C149.216 137.362 147.776 134.042 147.558 131.56C148.82 131.407 150.082 131.254 151.384 131.1C151.765 132.487 152.444 133.591 153.844 134.405C153.836 133.486 153.828 132.696 153.82 131.906C153.812 130.826 153.779 129.747 153.795 128.667C153.804 128.272 153.682 128.078 153.286 127.958C152.032 127.571 150.85 127.031 149.896 126.112C147.954 124.242 147.606 121.913 148.286 119.48C148.917 117.207 150.632 115.926 152.946 115.458C153.1 115.426 153.253 115.402 153.407 115.362C153.464 115.345 153.52 115.321 153.626 115.281C153.618 114.773 153.617 114.249 153.609 113.685C154.338 113.677 155.017 113.669 155.778 113.661C155.778 114.04 155.81 114.427 155.786 114.814C155.753 115.216 155.931 115.345 156.312 115.41C158.019 115.668 159.459 116.409 160.454 117.868C160.98 118.641 161.304 119.488 161.457 120.487C160.179 120.68 158.957 120.85 157.679 121.035ZM155.972 128.796C155.996 130.738 156.012 132.632 156.037 134.517C157.355 134.372 158.407 133.196 158.52 131.761C158.618 130.351 157.663 129.207 155.972 128.796ZM153.617 118.682C152.404 119.198 151.66 120.269 151.732 121.309C151.813 122.461 152.639 123.485 153.674 123.735C153.65 122.083 153.634 120.422 153.617 118.682Z" fill="#FFF9FF"/>
<path d="M49.4989 137.733C49.4989 137.733 59.1349 124.468 54.1349 122.01C54.1349 122.01 53.2449 120.6 49.6445 125.636C49.6445 125.636 47.4196 126.362 47.2982 123.799C47.1688 121.228 50.8177 117.328 48.4957 115.095C46.1655 112.871 44.9681 116.877 43.3257 117.634C41.6833 118.392 42.46 108.157 40.1865 107.061C37.913 105.965 37.2901 110.002 36.0198 110.47C34.7496 110.937 30.9874 99.01 24.9032 101.234C18.819 103.45 25.7689 107.915 28.6897 110.679C31.6104 113.443 25.5828 111.904 24.9518 115.434C24.3207 118.964 35.0813 116.119 34.1023 119.56C33.1315 122.993 30.0489 121.035 29.4745 123.606C28.544 127.756 39.1995 123.767 38.9648 126.628C38.7707 128.908 34.9114 127.409 34.4988 129.166C34.07 130.923 40.761 137.241 49.4989 137.733Z" fill="#07085B"/>
<path opacity="0.1" d="M54.4665 122.211C54.426 122.179 54.3775 122.155 54.3289 122.123C54.1428 122.671 53.9244 123.267 53.6412 123.88C52.6218 126.152 50.6881 129.231 47.2415 130.988C46.3596 129.094 45.2755 127.103 43.9809 125.04C44.8952 119.85 46.7237 116.957 48.091 115.442C48.2124 115.313 48.3256 115.184 48.4389 115.071C48.3985 115.031 48.358 114.999 48.3176 114.967C48.2043 115.079 48.091 115.2 47.9777 115.329C46.6023 116.844 44.7819 119.721 43.8515 124.847C43.8434 124.839 43.8434 124.831 43.8353 124.823C42.5004 122.703 40.955 120.503 39.2075 118.238C39.1751 118.013 38.8757 115.821 38.8919 113.202C38.9081 111.316 39.0861 108.922 39.7738 106.932C39.7172 106.916 39.6686 106.908 39.6201 106.9C38.9324 108.906 38.7463 111.308 38.7382 113.202C38.722 115.394 38.9324 117.287 39.0214 117.989C37.6864 116.264 36.2382 114.499 34.6767 112.71C30.332 107.722 26.1653 103.668 23.9889 101.629C23.9403 101.653 23.8918 101.686 23.8433 101.71C26.0035 103.733 30.1944 107.794 34.5634 112.807C35.2997 113.653 36.0521 114.547 36.8207 115.482C36.2301 115.378 34.4582 115.095 32.1524 114.999C30.2106 114.91 27.5973 114.942 24.9355 115.418C24.9355 115.426 24.9355 115.434 24.9274 115.442C24.9193 115.49 24.9112 115.539 24.9112 115.579C27.5731 115.095 30.1944 115.063 32.1362 115.152C34.7657 115.273 36.7074 115.619 36.9663 115.668C38.6654 117.739 40.4049 120.011 42.0311 122.389C38.2851 121.921 32.3304 123.211 29.3935 123.936C29.3854 123.992 29.3854 124.049 29.3854 124.097C32.3304 123.372 38.4227 122.05 42.1444 122.566C44.4583 125.951 46.5376 129.545 47.9454 133.075C44.8143 133.582 41.0926 132.196 38.5117 130.939C36.9178 130.157 35.5505 129.335 34.6524 128.755C34.62 128.796 34.5877 128.836 34.5634 128.884C35.4615 129.464 36.8369 130.294 38.4388 131.076C41.0521 132.349 44.8224 133.752 48.002 133.228C48.6007 134.751 49.07 136.258 49.3855 137.733C49.4098 137.733 49.4422 137.733 49.4664 137.741C49.4664 137.741 49.4907 137.709 49.5312 137.652C49.0943 135.629 48.3499 133.454 47.29 131.141C47.5166 131.028 47.735 130.907 47.9535 130.778C49.2237 130.029 50.3645 129.053 51.3516 127.869C52.2982 126.741 53.1072 125.419 53.7626 123.952C54.0619 123.332 54.2885 122.751 54.4665 122.211Z" fill="white"/>
<path d="M55.7206 141.126C55.7206 141.126 47.2173 131.616 31.3191 132.261L34.078 136.049L29.6362 132.575C29.6362 132.575 20.4209 133.333 14.1426 135.581C14.1426 135.581 27.6378 142.665 31.044 143.285L35.591 141.94L33.1233 145.324C33.1233 145.324 40.5506 149.434 48.1882 148.596C55.8338 147.75 55.7206 141.126 55.7206 141.126Z" fill="#8FD0D6"/>
<path d="M96.4246 69.1038H145.956C148.116 69.1038 149.864 70.8445 149.864 72.9962V145.115C149.864 147.266 148.116 149.007 145.956 149.007H96.4246C94.2644 149.007 92.5168 147.266 92.5168 145.115V72.9881C92.5249 70.8445 94.2725 69.1038 96.4246 69.1038Z" fill="#333333"/>
<path d="M145.244 75.6716H97.6868V87.8566H145.244V75.6716Z" fill="#3CB4C5"/>
<path opacity="0.5" d="M98.9489 77.4285H145.244V75.6716H97.6868V87.8647H98.9489V77.4285Z" fill="#3CB4C5"/>
<path d="M109.621 95.7302H99.3939C98.4473 95.7302 97.6868 94.9646 97.6868 94.0298V93.0386C97.6868 92.0957 98.4554 91.3381 99.3939 91.3381H109.621C110.567 91.3381 111.328 92.1037 111.328 93.0386V94.0298C111.328 94.9646 110.567 95.7302 109.621 95.7302Z" fill="#E87B50"/>
<path d="M126.579 95.7302H116.352C115.405 95.7302 114.645 94.9646 114.645 94.0298V93.0386C114.645 92.0957 115.413 91.3381 116.352 91.3381H126.579C127.525 91.3381 128.286 92.1037 128.286 93.0386V94.0298C128.286 94.9646 127.517 95.7302 126.579 95.7302Z" fill="#E87B50"/>
<path d="M143.529 95.7302H133.302C132.355 95.7302 131.595 94.9646 131.595 94.0298V93.0386C131.595 92.0957 132.363 91.3381 133.302 91.3381H143.529C144.475 91.3381 145.236 92.1037 145.236 93.0386V94.0298C145.244 94.9646 144.475 95.7302 143.529 95.7302Z" fill="#E87B50"/>
<path d="M105.858 109.052H100.082C98.7628 109.052 97.6868 107.988 97.6868 106.666V101.589C97.6868 100.275 98.7547 99.2036 100.082 99.2036H105.858C107.177 99.2036 108.253 100.267 108.253 101.589V106.666C108.245 107.988 107.177 109.052 105.858 109.052Z" fill="#CFE4FF"/>
<path d="M118.189 109.052H112.412C111.093 109.052 110.017 107.988 110.017 106.666V101.589C110.017 100.275 111.085 99.2036 112.412 99.2036H118.189C119.508 99.2036 120.584 100.267 120.584 101.589V106.666C120.576 107.988 119.508 109.052 118.189 109.052Z" fill="#CFE4FF"/>
<path d="M130.519 109.052H124.742C123.423 109.052 122.347 107.988 122.347 106.666V101.589C122.347 100.275 123.415 99.2036 124.742 99.2036H130.519C131.838 99.2036 132.914 100.267 132.914 101.589V106.666C132.906 107.988 131.838 109.052 130.519 109.052Z" fill="#CFE4FF"/>
<path d="M105.858 121.188H100.082C98.7628 121.188 97.6868 120.124 97.6868 118.803V113.725C97.6868 112.412 98.7547 111.34 100.082 111.34H105.858C107.177 111.34 108.253 112.404 108.253 113.725V118.803C108.245 120.116 107.177 121.188 105.858 121.188Z" fill="#CFE4FF"/>
<path d="M118.189 121.188H112.412C111.093 121.188 110.017 120.124 110.017 118.803V113.725C110.017 112.412 111.085 111.34 112.412 111.34H118.189C119.508 111.34 120.584 112.404 120.584 113.725V118.803C120.576 120.116 119.508 121.188 118.189 121.188Z" fill="#CFE4FF"/>
<path d="M130.519 121.188H124.742C123.423 121.188 122.347 120.124 122.347 118.803V113.725C122.347 112.412 123.415 111.34 124.742 111.34H130.519C131.838 111.34 132.914 112.404 132.914 113.725V118.803C132.906 120.116 131.838 121.188 130.519 121.188Z" fill="#CFE4FF"/>
<path d="M143.092 99.2036H136.838C135.648 99.2036 134.686 100.163 134.686 101.347V104.393V106.908V119.044C134.686 120.229 135.648 121.188 136.838 121.188H143.092C144.281 121.188 145.244 120.229 145.244 119.044V106.908V104.393V101.347C145.244 100.163 144.281 99.2036 143.092 99.2036Z" fill="#FDB137"/>
<path d="M105.858 133.325H100.082C98.7628 133.325 97.6868 132.261 97.6868 130.939V125.862C97.6868 124.549 98.7547 123.477 100.082 123.477H105.858C107.177 123.477 108.253 124.541 108.253 125.862V130.939C108.245 132.253 107.177 133.325 105.858 133.325Z" fill="#CFE4FF"/>
<path d="M118.189 133.325H112.412C111.093 133.325 110.017 132.261 110.017 130.939V125.862C110.017 124.549 111.085 123.477 112.412 123.477H118.189C119.508 123.477 120.584 124.541 120.584 125.862V130.939C120.576 132.253 119.508 133.325 118.189 133.325Z" fill="#CFE4FF"/>
<path d="M130.519 133.325H124.742C123.423 133.325 122.347 132.261 122.347 130.939V125.862C122.347 124.549 123.415 123.477 124.742 123.477H130.519C131.838 123.477 132.914 124.541 132.914 125.862V130.939C132.906 132.253 131.838 133.325 130.519 133.325Z" fill="#CFE4FF"/>
<path d="M142.849 133.325H137.072C135.753 133.325 134.677 132.261 134.677 130.939V125.862C134.677 124.549 135.745 123.477 137.072 123.477H142.849C144.168 123.477 145.244 124.541 145.244 125.862V130.939C145.244 132.253 144.168 133.325 142.849 133.325Z" fill="#FDB137"/>
<path d="M105.858 145.461H100.082C98.7628 145.461 97.6868 144.398 97.6868 143.076V137.999C97.6868 136.685 98.7547 135.614 100.082 135.614H105.858C107.177 135.614 108.253 136.677 108.253 137.999V143.076C108.245 144.39 107.177 145.461 105.858 145.461Z" fill="#CFE4FF"/>
<path d="M118.189 145.461H112.412C111.093 145.461 110.017 144.398 110.017 143.076V137.999C110.017 136.685 111.085 135.614 112.412 135.614H118.189C119.508 135.614 120.584 136.677 120.584 137.999V143.076C120.576 144.39 119.508 145.461 118.189 145.461Z" fill="#CFE4FF"/>
<path d="M130.519 145.461H124.742C123.423 145.461 122.347 144.398 122.347 143.076V137.999C122.347 136.685 123.415 135.614 124.742 135.614H130.519C131.838 135.614 132.914 136.677 132.914 137.999V143.076C132.906 144.39 131.838 145.461 130.519 145.461Z" fill="#FDB137"/>
<path d="M142.849 145.461H137.072C135.753 145.461 134.677 144.398 134.677 143.076V137.999C134.677 136.685 135.745 135.614 137.072 135.614H142.849C144.168 135.614 145.244 136.677 145.244 137.999V143.076C145.244 144.39 144.168 145.461 142.849 145.461Z" fill="#E87B50"/>
<path d="M104.774 125.814V126.314L102.339 131.391H101.554L103.981 126.459V126.443H101.239V125.814H104.774Z" fill="white"/>
<path d="M113.448 129.972C113.448 129.271 113.868 128.771 114.556 128.481L114.548 128.457C113.925 128.167 113.658 127.683 113.658 127.208C113.658 126.321 114.41 125.725 115.389 125.725C116.473 125.725 117.015 126.402 117.015 127.095C117.015 127.571 116.781 128.07 116.093 128.401V128.425C116.789 128.699 117.218 129.19 117.218 129.867C117.218 130.834 116.384 131.487 115.316 131.487C114.151 131.487 113.448 130.794 113.448 129.972ZM116.465 129.94C116.465 129.263 115.988 128.932 115.236 128.723C114.58 128.908 114.224 129.343 114.224 129.875C114.2 130.439 114.629 130.939 115.341 130.939C116.028 130.939 116.465 130.512 116.465 129.94ZM114.378 127.151C114.378 127.708 114.799 128.006 115.446 128.183C115.931 128.022 116.295 127.675 116.295 127.168C116.295 126.724 116.028 126.257 115.349 126.257C114.726 126.257 114.378 126.668 114.378 127.151Z" fill="white"/>
<path d="M117.242 140.529C117.242 142.423 116.538 143.471 115.292 143.471C114.2 143.471 113.455 142.447 113.439 140.602C113.439 138.732 114.248 137.701 115.389 137.701C116.57 137.709 117.242 138.756 117.242 140.529ZM114.2 140.618C114.2 142.069 114.645 142.891 115.341 142.891C116.117 142.891 116.489 141.988 116.489 140.562C116.489 139.192 116.133 138.289 115.349 138.289C114.677 138.289 114.2 139.095 114.2 140.618Z" fill="white"/>
<path d="M126.465 130.859C126.627 130.875 126.821 130.859 127.08 130.834C127.517 130.778 127.93 130.593 128.253 130.294C128.626 129.956 128.893 129.472 128.998 128.812H128.973C128.666 129.19 128.213 129.416 127.655 129.416C126.643 129.416 126.004 128.658 126.004 127.708C126.004 126.652 126.773 125.725 127.914 125.725C129.062 125.725 129.766 126.652 129.766 128.078C129.766 129.303 129.354 130.165 128.804 130.697C128.375 131.116 127.776 131.374 127.177 131.447C126.902 131.487 126.659 131.495 126.482 131.487V130.859H126.465ZM126.74 127.651C126.74 128.344 127.161 128.836 127.816 128.836C128.326 128.836 128.723 128.586 128.917 128.256C128.957 128.183 128.99 128.102 128.99 127.982C128.99 127.031 128.634 126.297 127.841 126.297C127.202 126.297 126.74 126.861 126.74 127.651Z" fill="white"/>
<path d="M103.48 119.02V117.497H100.875V116.997L103.375 113.435H104.192V116.901H104.976V117.489H104.192V119.004H103.48V119.02ZM103.48 116.909V115.047C103.48 114.757 103.488 114.467 103.504 114.169H103.48C103.31 114.491 103.172 114.733 103.019 114.991L101.651 116.885V116.901H103.48V116.909Z" fill="white"/>
<path d="M116.862 114.072H114.726L114.507 115.506C114.637 115.49 114.758 115.474 114.961 115.474C115.389 115.474 115.818 115.571 116.166 115.772C116.603 116.022 116.967 116.498 116.967 117.207C116.967 118.295 116.093 119.109 114.88 119.109C114.265 119.109 113.755 118.94 113.488 118.762L113.674 118.19C113.909 118.327 114.362 118.496 114.872 118.496C115.584 118.496 116.198 118.029 116.198 117.288C116.19 116.57 115.705 116.054 114.588 116.054C114.273 116.054 114.022 116.087 113.812 116.111L114.176 113.435H116.854V114.072H116.862Z" fill="white"/>
<path d="M129.224 113.976C129.07 113.967 128.868 113.976 128.658 114.008C127.468 114.201 126.837 115.072 126.708 115.99H126.732C126.999 115.636 127.46 115.346 128.083 115.346C129.07 115.346 129.774 116.055 129.774 117.151C129.774 118.174 129.078 119.117 127.913 119.117C126.716 119.117 125.931 118.19 125.931 116.74C125.931 115.644 126.328 114.773 126.878 114.225C127.339 113.774 127.962 113.484 128.666 113.403C128.892 113.371 129.078 113.363 129.216 113.363V113.976H129.224ZM129.006 117.191C129.006 116.393 128.552 115.91 127.849 115.91C127.396 115.91 126.967 116.192 126.764 116.595C126.716 116.683 126.675 116.788 126.675 116.933C126.692 117.852 127.112 118.529 127.905 118.529C128.569 118.529 129.006 117.989 129.006 117.191Z" fill="white"/>
<path d="M102.784 102.282H102.768L101.797 102.806L101.651 102.234L102.873 101.581H103.52V107.158H102.784V102.282Z" fill="white"/>
<path d="M113.52 107.158V106.698L114.111 106.126C115.543 104.772 116.19 104.047 116.198 103.209C116.198 102.645 115.923 102.121 115.09 102.121C114.58 102.121 114.159 102.379 113.901 102.596L113.658 102.064C114.046 101.742 114.596 101.5 115.244 101.5C116.449 101.5 116.959 102.322 116.959 103.12C116.959 104.152 116.206 104.982 115.033 106.118L114.588 106.529V106.545H117.104V107.174H113.52V107.158Z" fill="white"/>
<path d="M126.206 106.295C126.425 106.432 126.918 106.65 127.444 106.65C128.415 106.65 128.723 106.029 128.714 105.57C128.706 104.788 128.002 104.458 127.266 104.458H126.846V103.894H127.266C127.816 103.894 128.512 103.612 128.512 102.951C128.512 102.508 128.229 102.113 127.533 102.113C127.088 102.113 126.651 102.306 126.417 102.483L126.223 101.935C126.514 101.718 127.08 101.508 127.687 101.508C128.787 101.508 129.289 102.161 129.289 102.838C129.289 103.41 128.941 103.902 128.253 104.152V104.168C128.941 104.305 129.499 104.82 129.499 105.602C129.499 106.497 128.803 107.278 127.46 107.278C126.829 107.278 126.279 107.085 126.004 106.9L126.206 106.295Z" fill="white"/>
<path d="M103.641 142.641C103.641 143.012 103.342 143.31 102.97 143.31C102.598 143.31 102.298 143.012 102.298 142.641C102.298 142.27 102.598 141.972 102.97 141.972C103.342 141.972 103.641 142.27 103.641 142.641Z" fill="white"/>
<path d="M143.973 110.55H140.422V107.012H139.507V110.55H135.948V111.461H139.507V114.999H140.422V111.461H143.973V110.55Z" fill="white"/>
<path d="M129.993 142.633L128.116 140.755L129.993 138.885L129.507 138.402L127.63 140.28L125.745 138.402L125.26 138.885L127.145 140.755L125.26 142.633L125.745 143.116L127.63 141.239L129.507 143.116L129.993 142.633Z" fill="white"/>
<path d="M142.72 128.207H136.765V129.118H142.72V128.207Z" fill="white"/>
<path d="M142.938 138.7H136.983V139.611H142.938V138.7Z" fill="white"/>
<path d="M142.938 140.989H136.983V141.899H142.938V140.989Z" fill="white"/>
<path d="M105.834 106.457H85.7773V114.91H105.834V106.457Z" fill="#F4A640"/>
<path d="M85.7772 106.457H65.7205V114.91H85.7772V106.457Z" fill="#FEB546"/>
<path d="M65.7206 106.457H45.6638V114.91H65.7206V106.457Z" fill="#F9C27A"/>
<path d="M105.996 115.16H45.51V106.215H105.996V115.16ZM45.8175 114.669H105.672V106.714H45.8175V114.669Z" fill="#E2881E"/>
<path d="M102.76 123.372H82.7029V131.826H102.76V123.372Z" fill="#F4A640"/>
<path d="M82.703 123.372H62.6462V131.826H82.703V123.372Z" fill="#FEB546"/>
<path d="M62.6462 123.372H42.5894V131.826H62.6462V123.372Z" fill="#F9C27A"/>
<path d="M102.921 132.067H42.4355V123.114H102.921V132.067ZM42.7511 131.576H102.606V123.622H42.7511V131.576Z" fill="#E2881E"/>
<path d="M105.834 131.826H85.7773V140.279H105.834V131.826Z" fill="#F4A640"/>
<path d="M85.7772 131.826H65.7205V140.279H85.7772V131.826Z" fill="#FEB546"/>
<path d="M65.7206 131.826H45.6638V140.279H65.7206V131.826Z" fill="#F9C27A"/>
<path d="M105.996 140.529H45.51V131.576H105.996V140.529ZM45.8175 140.03H105.672V132.076H45.8175V140.03Z" fill="#E2881E"/>
<path d="M110.68 140.28H90.6235V148.733H110.68V140.28Z" fill="#F4A640"/>
<path d="M90.6237 140.28H70.5669V148.733H90.6237V140.28Z" fill="#FEB546"/>
<path d="M70.5587 140.28H50.502V148.733H70.5587V140.28Z" fill="#F9C27A"/>
<path d="M110.834 148.983H50.3481V140.03H110.834V148.983ZM50.6637 148.484H110.518V140.529H50.6637V148.484Z" fill="#E2881E"/>
<path d="M109.143 114.918H89.0864V123.372H109.143V114.918Z" fill="#F4A640"/>
<path d="M89.0863 114.918H69.0295V123.372H89.0863V114.918Z" fill="#FEB546"/>
<path d="M69.0297 114.918H48.9729V123.372H69.0297V114.918Z" fill="#F9C27A"/>
<path d="M109.297 123.614H48.811V114.66H109.297V123.614ZM49.1266 123.122H108.981V115.16H49.1266V123.122Z" fill="#E2881E"/>
<path d="M59.1428 50.4153L59.7496 54.9605L56.5134 52.6073L46.6023 47.5625L54.2723 48.2636C54.2723 48.2636 58.1801 49.2065 58.3904 49.3999C58.5927 49.5853 59.1428 50.4153 59.1428 50.4153Z" fill="#6DB1B5"/>
<path d="M120.406 79.5641V80.3377L122.161 80.7971L122.21 79.0806L120.406 79.5641Z" fill="#FFC0BB"/>
<path d="M124.394 79.4029V80.3296C124.394 80.3296 126.085 80.8373 126.077 80.8373C126.069 80.8373 126.214 79.3223 126.214 79.3223L124.394 79.4029Z" fill="#FFC0BB"/>
<path d="M62.541 47.6753L46.5942 47.5625L59.1429 50.4153L62.541 47.6753Z" fill="#8FD0D6"/>
<path d="M54.0215 54.9847L58.1963 51.6483L46.5942 47.5625L54.0215 54.9847Z" fill="#8FD0D6"/>
<path d="M78.8598 74.9624L78.6494 74.6562C78.9731 74.4386 79.2643 74.1727 79.5232 73.8665L79.8064 74.1082C79.5313 74.4386 79.2077 74.7287 78.8598 74.9624Z" fill="#6DB1B5"/>
<path d="M80.9635 71.9162L80.6075 71.8034C80.826 71.1103 80.9716 70.3286 81.0363 69.4744L81.4085 69.5066C81.3438 70.385 81.1901 71.199 80.9635 71.9162ZM81.4004 67.0648L81.0283 67.1051C81.0202 67.0003 81.004 66.9036 80.9959 66.7988C80.9473 66.4523 80.8826 66.0977 80.7936 65.7512C80.7127 65.4288 80.6156 65.1145 80.5104 64.8002L80.8664 64.6794C80.9797 65.0017 81.0849 65.3402 81.1658 65.6706C81.2548 66.0252 81.3276 66.3959 81.3762 66.7585C81.3762 66.8472 81.3842 66.952 81.4004 67.0648ZM79.4748 62.6566C79.0703 62.0038 78.593 61.3591 78.0509 60.7466L78.3341 60.4968C78.8923 61.1254 79.3858 61.7862 79.7985 62.4551L79.4748 62.6566ZM67.7434 61.7701C67.4845 61.8346 66.8372 61.8507 66.4165 61.6009C66.101 61.4155 65.8421 61.1254 65.6641 60.7547L66.0039 60.5935C66.1495 60.8998 66.3599 61.1254 66.6107 61.2785C66.91 61.4558 67.4521 61.4558 67.6544 61.4075C67.6786 61.3994 67.6948 61.3994 67.6948 61.3994C67.711 61.3914 67.7272 61.3752 67.7515 61.3672L67.9618 61.6815C67.9375 61.6976 67.9214 61.7137 67.8971 61.7218C67.8485 61.7379 67.8 61.7621 67.7434 61.7701ZM76.3357 59.0785C75.737 58.5708 75.0897 58.0872 74.4101 57.652L74.6124 57.3378C75.3001 57.789 75.9635 58.2806 76.5703 58.7964L76.3357 59.0785ZM69.3049 59.5701L68.9408 59.4895C68.9893 59.2558 69.0136 59.0221 69.0136 58.7883C69.0136 58.4579 68.9732 58.1195 68.8842 57.781C68.8356 57.5956 68.779 57.4103 68.7062 57.2249L69.0541 57.096C69.1269 57.2975 69.1916 57.4989 69.2401 57.7004C69.3291 58.0711 69.3777 58.4418 69.3777 58.7964C69.3858 59.0543 69.3615 59.3202 69.3049 59.5701ZM66.0039 58.4257L65.6641 58.2645C66.0039 57.5553 66.643 56.9348 67.4197 56.5641L67.4683 56.5399L67.6301 56.8784L67.5816 56.9026C66.8858 57.233 66.3113 57.789 66.0039 58.4257ZM72.2337 56.7495C71.5541 56.5399 71.012 56.419 70.7531 56.4029C70.4537 56.3868 70.1787 56.3868 69.9117 56.3949L69.9036 56.0242C70.1787 56.0161 70.4618 56.0161 70.7693 56.0322C71.1657 56.0483 71.9262 56.2659 72.347 56.3949L72.2337 56.7495ZM67.4926 55.2344C66.9828 54.638 66.3841 54.1223 65.7126 53.6952L65.9149 53.3809C66.6188 53.8241 67.2417 54.3721 67.7757 54.9926L67.4926 55.2344Z" fill="#6DB1B5"/>
<path d="M63.5604 52.7362C63.1639 52.6315 62.7675 52.5509 62.3792 52.5106L62.4196 52.1399C62.8322 52.1802 63.2529 52.2608 63.6656 52.3736L63.5604 52.7362Z" fill="#6DB1B5"/>
<path d="M114.03 43.4928L113.706 45.5075L113.027 42.8159C113.027 42.8159 113.982 42.3565 114.022 42.5177C114.062 42.695 114.03 43.4928 114.03 43.4928Z" fill="#07085B"/>
<path d="M108.601 47.8364L108.302 51.3259L111.392 51.1808L111.036 48.0943L108.601 47.8364Z" fill="#FFC0BB"/>
<path d="M111.206 49.561L111.037 48.0943L108.601 47.8445L108.496 49.0533C108.982 49.5288 109.855 50.0284 111.206 49.561Z" fill="#F99893"/>
<path d="M113.1 45.4914C112.914 45.8782 113.011 46.3053 113.318 46.4504C113.625 46.5954 114.022 46.4101 114.208 46.0233C114.394 45.6364 114.297 45.2093 113.99 45.0642C113.69 44.9111 113.286 45.1045 113.1 45.4914Z" fill="#F99893"/>
<path d="M112.841 47.7801C112.946 47.6189 113.043 47.4416 113.124 47.2562C113.342 46.7647 113.472 46.2328 113.553 45.7653C113.569 45.6686 113.593 45.5639 113.617 45.4672C113.714 45.0723 113.739 44.6452 113.674 44.2019C113.456 42.7755 112.307 41.6392 110.875 41.4377C108.941 41.1718 107.234 42.5982 107.121 44.484C106.918 44.355 106.692 44.3148 106.481 44.3953C106.077 44.5485 105.907 45.0723 106.093 45.5719C106.279 46.0716 106.757 46.3536 107.161 46.2086C107.218 46.1844 107.266 46.1602 107.315 46.128C107.38 47.7478 108.617 49.0695 110.211 49.142C110.988 49.1743 111.708 48.9083 112.274 48.4328C112.315 48.4087 112.347 48.3764 112.396 48.3361C112.549 48.175 112.703 47.9896 112.841 47.7801Z" fill="#FFC0BB"/>
<path d="M111.142 44.7097C111.15 44.8951 111.15 45.0804 111.158 45.2658C111.166 45.4431 111.19 45.6284 111.263 45.7573L111.279 45.7735C111.287 45.7815 111.287 45.7815 111.295 45.7976C111.311 45.8218 111.336 45.8379 111.344 45.8702C111.376 45.9185 111.392 45.983 111.392 46.0394C111.4 46.1603 111.328 46.2731 111.247 46.3456C111.077 46.4907 110.858 46.4987 110.68 46.4584C110.866 46.4262 111.044 46.3617 111.142 46.2409C111.19 46.1844 111.222 46.1119 111.206 46.0555C111.206 46.0233 111.19 45.991 111.174 45.9669C111.166 45.9507 111.15 45.9427 111.142 45.9266L111.117 45.8943L111.093 45.854C111.036 45.7573 111.012 45.6526 111.004 45.5559C110.996 45.4592 110.996 45.3625 111.004 45.2658C111.028 45.0724 111.069 44.887 111.142 44.7097Z" fill="#F99893"/>
<path d="M110.049 44.9594C110.041 45.1206 109.904 45.2415 109.75 45.2334C109.588 45.2254 109.467 45.0884 109.475 44.9353C109.483 44.7741 109.621 44.6532 109.774 44.6613C109.928 44.6693 110.058 44.8063 110.049 44.9594Z" fill="#333333"/>
<path d="M112.509 45.2414C112.501 45.4026 112.363 45.5235 112.21 45.5154C112.048 45.5073 111.926 45.3704 111.934 45.2172C111.943 45.0561 112.08 44.9352 112.234 44.9433C112.396 44.9433 112.517 45.0802 112.509 45.2414Z" fill="#333333"/>
<path d="M109.564 46.9097C109.637 46.9741 109.718 47.0386 109.799 47.087C109.879 47.1434 109.968 47.1917 110.057 47.232C110.235 47.3207 110.422 47.3771 110.616 47.4012C110.81 47.4254 111.004 47.4093 111.198 47.361C111.384 47.3045 111.57 47.224 111.74 47.1192C111.667 47.1837 111.578 47.2401 111.498 47.2965C111.409 47.3448 111.32 47.3851 111.222 47.4254C111.125 47.4577 111.028 47.4818 110.923 47.4899C110.818 47.498 110.721 47.498 110.616 47.4899C110.413 47.4657 110.211 47.3932 110.041 47.2965C109.855 47.1837 109.693 47.0628 109.564 46.9097Z" fill="#F99893"/>
<path d="M110.405 44.3148C110.26 44.2664 110.122 44.2342 109.985 44.2181C109.847 44.1939 109.718 44.1939 109.588 44.21C109.459 44.2261 109.329 44.2584 109.2 44.3148C109.135 44.339 109.079 44.3712 109.006 44.4034C108.941 44.4357 108.884 44.476 108.812 44.5082C108.844 44.4437 108.892 44.3793 108.941 44.3148C108.998 44.2584 109.046 44.202 109.119 44.1617C109.248 44.065 109.402 44.0086 109.564 43.9925C109.726 43.9763 109.888 44.0005 110.041 44.0569C110.179 44.1053 110.316 44.1939 110.405 44.3148Z" fill="#07085B"/>
<path d="M111.676 44.4598C111.789 44.3551 111.943 44.2986 112.096 44.2664C112.25 44.2342 112.42 44.2422 112.574 44.2986C112.727 44.347 112.873 44.4357 112.978 44.5565C113.035 44.6129 113.075 44.6774 113.116 44.7419C113.156 44.8064 113.18 44.8789 113.205 44.9514C113.14 44.9031 113.091 44.8547 113.035 44.8064C112.978 44.7661 112.921 44.7177 112.865 44.6855C112.752 44.6049 112.63 44.5565 112.509 44.5082C112.388 44.4679 112.25 44.4437 112.112 44.4357C111.975 44.4357 111.829 44.4437 111.676 44.4598Z" fill="#07085B"/>
<path d="M110.3 64.204C110.3 64.204 109.653 68.5558 113.876 69.3214C118.1 70.0789 123.359 69.8533 123.359 69.8533L124.087 79.8543L126.296 79.9671C126.296 79.9671 131.975 66.0656 124.111 63.8978L117.048 63.93L114.143 63.7205C114.143 63.7205 111.198 62.9952 111.166 63.1322C111.134 63.2692 110.365 64.2685 110.3 64.204Z" fill="#E03268"/>
<path d="M106.417 64.2282C106.417 64.2282 105.769 68.58 109.993 69.3456C114.216 70.1031 119.475 69.8774 119.475 69.8774L120.203 79.8784L122.412 79.9912C122.412 79.9912 128.092 66.0898 120.228 63.922L113.164 63.9542L110.26 63.7447C110.26 63.7447 107.315 63.0194 107.282 63.1564C107.25 63.2934 106.49 64.2927 106.417 64.2282Z" fill="#FF5B7E"/>
<path d="M111.74 49.9318C111.74 49.9318 114.645 50.3025 115.389 50.8989C116.126 51.4953 119.685 60.2794 119.685 60.2794L116.732 63.7286L110.454 63.777C110.454 63.777 105.745 66.3074 102.792 63.914C99.8391 61.5205 101.36 53.1957 103.067 51.4066C104.774 49.6095 107.825 49.6578 107.825 49.6578C107.825 49.6578 110.583 51.592 111.74 49.9318Z" fill="#333333"/>
<path d="M106.109 54.3076C106.215 54.7831 106.279 55.2747 106.32 55.7582C106.344 56 106.352 56.2498 106.368 56.4916C106.376 56.7333 106.384 56.9832 106.376 57.2249C106.368 57.7165 106.336 58.2081 106.255 58.6917C106.174 59.1752 106.053 59.6587 105.826 60.0939C105.98 59.6265 106.053 59.151 106.109 58.6675C106.166 58.184 106.182 57.7004 106.19 57.2169C106.198 56.7333 106.19 56.2498 106.174 55.7582C106.158 55.2827 106.134 54.7912 106.109 54.3076Z" fill="white"/>
<path d="M114.807 53.9854C114.936 54.6945 115.082 55.4037 115.219 56.1129C115.365 56.8221 115.519 57.5312 115.689 58.2243C115.858 58.9254 116.045 59.6185 116.279 60.3035C116.392 60.642 116.522 60.9804 116.667 61.3108C116.813 61.6413 116.991 61.9556 117.226 62.2296C116.959 61.9797 116.765 61.6654 116.587 61.3511C116.417 61.0288 116.263 60.6984 116.142 60.3518C116.012 60.0134 115.899 59.6668 115.794 59.3203C115.689 58.9738 115.6 58.6192 115.511 58.2646C115.43 57.91 115.349 57.5554 115.276 57.2008C115.203 56.8462 115.138 56.4917 115.082 56.129C114.96 55.4279 114.871 54.7026 114.807 53.9854Z" fill="white"/>
<path d="M116.271 61.746C116.255 61.6009 115.146 61.4397 114.734 61.4156C114.426 61.3994 112.379 61.335 111.684 61.3027L111.732 61.48L111.724 62.2698L111.611 62.7937C112.226 62.834 113.714 62.8904 114.03 62.9548C114.443 63.0354 115.163 63.3497 115.163 63.3497C115.163 63.3497 115.462 63.2853 115.082 63.116C114.774 62.9871 114.564 62.7775 114.467 62.6808C114.418 62.6244 114.475 62.5197 114.507 62.5277C115.543 62.8017 115.648 62.842 115.648 62.842C115.648 62.842 116.87 62.834 115.656 62.5599C114.928 62.3988 114.669 62.3021 114.604 62.2215C114.58 62.1892 114.629 62.0683 114.669 62.0683C115.3 62.028 116.433 62.2537 116.117 62.1086C115.867 61.9878 115.074 61.8588 114.758 61.8105C114.742 61.8105 114.71 61.6896 114.79 61.6896C115.405 61.6251 116.287 61.8749 116.271 61.746Z" fill="#FFC0BB"/>
<path d="M105.397 59.9812C105.656 60.0457 105.907 60.1101 106.158 60.1666C106.409 60.231 106.667 60.2713 106.926 60.3277C107.444 60.4244 107.954 60.505 108.472 60.5776C108.989 60.642 109.507 60.7065 110.033 60.7549C110.551 60.8032 111.077 60.8516 111.595 60.8757H111.667L111.684 60.9322C111.724 61.1095 111.756 61.2706 111.781 61.4479C111.805 61.6172 111.813 61.7945 111.813 61.9718C111.813 62.1491 111.797 62.3183 111.765 62.4956C111.732 62.6648 111.684 62.8341 111.611 62.9952L111.603 63.0114L111.595 63.0194L111.028 63.3982C110.842 63.5271 110.648 63.648 110.454 63.777C110.632 63.6319 110.81 63.4949 110.996 63.3579L111.538 62.9388L111.522 62.963C111.578 62.8099 111.619 62.6487 111.643 62.4795C111.659 62.3102 111.676 62.1491 111.667 61.9798C111.659 61.8106 111.643 61.6413 111.619 61.4802C111.595 61.319 111.562 61.1497 111.522 60.9886L111.603 61.053C111.328 61.045 111.077 61.0289 110.81 61.0127C110.551 60.9966 110.284 60.9725 110.025 60.9483C109.499 60.8919 108.981 60.8274 108.464 60.7468C107.946 60.6662 107.428 60.5614 106.918 60.4406C106.659 60.3761 106.409 60.3116 106.158 60.231C105.891 60.1504 105.64 60.0618 105.397 59.9812Z" fill="white"/>
<path d="M129.402 55.8872H118.043L114.823 63.7124H110.899C110.745 63.7124 110.616 63.8655 110.624 63.9864C110.632 64.1395 110.745 64.2604 110.899 64.2604H125.624L129.402 55.8872Z" fill="#8FD0D6"/>
<path d="M123.771 60.3599C123.706 60.6903 123.415 60.9159 123.116 60.8595C122.825 60.8031 122.639 60.4808 122.703 60.1504C122.768 59.82 123.059 59.5943 123.359 59.6507C123.658 59.7071 123.836 60.0214 123.771 60.3599Z" fill="#DAEEF7"/>
<path d="M114.087 41.5827C114.087 41.5827 115.057 41.6149 114.038 40.801C113.019 39.987 110.292 39.028 108.536 39.9467C108.536 39.9467 108.189 39.2053 107.679 39.3826C107.169 39.5599 108.011 40.0676 108.011 40.0676C108.011 40.0676 107.363 40.0434 107.169 40.3658C107.023 40.5995 107.42 40.6076 107.638 40.5995C107.274 40.664 105.858 41.5504 106.57 44.3791C106.821 44.3227 108.253 42.2516 108.253 42.2516C108.253 42.2516 111.53 44.0648 111.206 42.6223C111.206 42.6223 114.604 44.7337 114.119 42.993C114.119 42.993 115.438 43.0897 114.087 41.5827Z" fill="#07085B"/>
<path d="M106.562 44.3952C106.562 44.3952 106.837 44.2985 107.129 44.5322C107.42 44.7659 107.387 45.5718 107.387 45.5718C107.387 45.5718 108.779 46.4663 108.633 42.6787C108.48 38.6493 107.468 43.0011 107.468 43.0011L106.562 44.3952Z" fill="#07085B"/>
<path d="M43.8434 39.2859L35.3562 50.7536L38.4226 52.2123L34.709 61.4477L43.8595 50.8503L40.2592 49.44L43.8434 39.2859Z" fill="#FEB546"/>
<path d="M65.575 105.457L67.3387 104.369L68.8678 105.288L68.3338 105.667L66.4811 105.925C66.4811 105.925 65.761 105.836 65.7287 105.812C65.6963 105.796 65.575 105.457 65.575 105.457Z" fill="#FFC0BB"/>
<path d="M65.5749 105.457L65.1299 105.747C64.9195 105.876 65.0166 106.199 65.2594 106.199L68.6494 106.215C68.7707 106.215 68.8678 106.118 68.8678 105.997V105.288C66.6024 105.997 65.8257 105.772 65.5749 105.457Z" fill="#FF5B7E"/>
<path d="M73.0103 105.522L74.774 104.434L76.3032 105.353L75.7692 105.731L73.9164 105.989C73.9164 105.989 73.1963 105.901 73.164 105.876C73.1316 105.86 73.0103 105.522 73.0103 105.522Z" fill="#FFC0BB"/>
<path d="M73.0102 105.522L72.5652 105.812C72.3549 105.941 72.4519 106.263 72.6947 106.263L76.0846 106.279C76.206 106.279 76.3031 106.183 76.3031 106.062V105.353C74.0377 106.062 73.261 105.836 73.0102 105.522Z" fill="#FF5B7E"/>
<path d="M0 58.0874L6.39972 67.0972L8.22821 65.2114L14.1425 70.1837L8.55184 60.8919L6.62626 63.1806L0 58.0874Z" fill="#FEB546"/>
<path d="M20.0892 44.7339L19.0698 52.8894L21.0197 52.7605L21.764 58.45L23.3741 50.5524L21.1653 50.8505L20.0892 44.7339Z" fill="#FEB546"/>
<path d="M90.3163 75.6233C90.3163 75.6233 91.4085 74.9141 92.6464 75.6233C93.8843 76.3325 93.8843 78.734 93.3988 79.3062C92.9134 79.8783 93.4231 80.66 92.4441 81.4015C91.4652 82.1509 89.9118 82.4249 89.0218 81.5465C88.1318 80.6681 88.7872 78.7179 88.7872 78.7179L90.3163 75.6233Z" fill="#FF5B7E"/>
<path d="M76.5864 83.6096C76.5622 83.658 76.4974 83.666 76.4651 83.6257C76.2224 83.2792 75.4618 82.1993 75.3648 82.2396C75.2434 82.288 75.8987 83.2711 75.8259 83.3679C75.7531 83.4646 75.1382 82.4894 75.0169 82.562C74.8955 82.6345 75.4861 83.5049 75.4457 83.5532C75.4052 83.6016 74.7499 82.8279 74.6528 82.8279C74.5557 82.8279 75.1544 83.7386 75.122 83.8111C75.0897 83.8836 74.4667 83.392 74.4182 83.4404C74.3696 83.4887 74.3292 83.5129 75.4133 85.0199C75.4133 85.0199 75.8826 85.4954 75.9149 85.6888L76.4894 85.8661L77.0719 85.2939C77.0719 85.2939 77.1285 82.9004 77.0476 82.844C76.9748 82.7876 76.9101 82.836 76.5864 83.6096Z" fill="#FFC0BB"/>
<path d="M78.6412 97.9142L76.4244 105.465L73.7383 104.724L74.6363 98.3816L77.4114 96.4878L78.6412 97.9142Z" fill="#191919"/>
<path d="M87.2983 82.425C87.2983 82.425 82.6462 88.1307 81.8533 89.0333L77.1364 84.3995C77.1364 84.3995 76.1817 84.9233 75.6963 85.4874C75.6963 85.4874 77.5976 89.8634 79.24 91.0078L82.5167 93.2078L81.8857 94.6987L83.0588 95.6094L83.6737 94.1346L85.3646 90.4033L86.9666 85.4471L87.274 82.9892L87.2983 82.425Z" fill="#07085B"/>
<path d="M87.2821 82.9893C87.2821 82.9893 85.316 86.1725 84.9115 87.4055C84.507 88.6385 84.8306 88.7352 84.6445 90.2261C84.4665 91.717 83.083 95.7061 83.083 95.7061L85.3727 97.2373C85.3727 97.2373 86.6105 93.3046 86.6105 93.1434C86.6105 92.9822 87.7675 85.7857 87.7675 85.7857L88.7222 83.1021L87.2821 82.9893Z" fill="white"/>
<path d="M85.1542 97.0679C85.1542 97.0679 81.2302 93.5623 78.1963 92.8531C75.1623 92.1439 66.9988 104.409 66.9988 104.409L68.9486 105.812C68.9486 105.812 76.0118 100.751 77.3467 98.4943C77.3467 98.4943 83.083 106.029 85.0086 106.207C86.9342 106.384 89.0944 105.981 91.651 102.927C94.5475 99.4694 85.1542 97.0679 85.1542 97.0679Z" fill="#333333"/>
<path d="M89.0621 79.8865L89.9359 82.2236C89.9359 82.2236 89.3048 83.65 87.1931 83.1262C87.1931 83.1262 87.4116 82.6265 87.0556 81.6272C86.6915 80.6037 89.0621 79.8865 89.0621 79.8865Z" fill="#FFC0BB"/>
<path opacity="0.6" d="M89.0621 79.8865L89.4666 80.9744C89.2805 81.7883 88.5847 82.3686 87.2579 82.5861C87.2498 82.3444 87.2012 82.022 87.0556 81.6191C86.6915 80.6037 89.0621 79.8865 89.0621 79.8865Z" fill="#FC8D84"/>
<path d="M77.007 96.2136C76.9666 96.407 76.9504 96.6004 76.9504 96.7939C76.9504 96.9873 76.9666 97.1887 76.999 97.3822C77.0313 97.5756 77.0718 97.769 77.1284 97.9543C77.1769 98.1477 77.2498 98.325 77.3226 98.5104L77.3711 98.4701C77.2659 98.3976 77.1689 98.317 77.0718 98.2283C76.9747 98.1397 76.8857 98.051 76.7967 97.9543C76.7077 97.8576 76.6268 97.7609 76.5459 97.6642C76.465 97.5675 76.3841 97.4627 76.3113 97.358C76.376 97.4708 76.4488 97.5756 76.5297 97.6803C76.6025 97.7851 76.6915 97.8899 76.7724 97.9866C76.8614 98.0833 76.9504 98.18 77.0475 98.2686C77.1446 98.3573 77.2417 98.4459 77.3549 98.5184L77.4439 98.5749L77.4035 98.4782C77.3307 98.3009 77.2659 98.1155 77.2093 97.9301C77.1527 97.7448 77.1122 97.5514 77.0799 97.366C77.0475 97.1726 77.0232 96.9792 77.0151 96.7858C76.9747 96.6004 76.9828 96.407 77.007 96.2136Z" fill="white"/>
<path d="M84.2239 78.3231C84.4099 78.7019 84.3129 79.129 84.0054 79.274C83.698 79.4191 83.3096 79.2337 83.1235 78.855C82.9374 78.4762 83.0345 78.0491 83.342 77.9041C83.6413 77.759 84.0378 77.9444 84.2239 78.3231Z" fill="#F99893"/>
<path d="M84.4827 80.5877C84.3775 80.4265 84.2804 80.2573 84.2076 80.0719C83.9891 79.5884 83.8597 79.0565 83.7869 78.5971C83.7707 78.5004 83.7464 78.4037 83.7222 78.307C83.6251 77.9122 83.6008 77.4931 83.6655 77.0579C83.8759 75.6476 85.0167 74.5275 86.4325 74.326C88.3419 74.06 90.0248 75.4703 90.1461 77.34C90.3403 77.211 90.5668 77.1707 90.7772 77.2513C91.1736 77.3964 91.3435 77.9202 91.1575 78.4118C90.9714 78.9034 90.5021 79.1854 90.1057 79.0404C90.049 79.0162 90.0005 78.992 89.952 78.9598C89.8872 80.5554 88.6655 81.861 87.096 81.9416C86.3273 81.9738 85.6154 81.7078 85.0652 81.2485C85.0248 81.2243 84.9924 81.1921 84.9519 81.1518C84.7658 80.9826 84.6121 80.7891 84.4827 80.5877Z" fill="#FFC0BB"/>
<path d="M86.1576 77.5574C86.1657 77.7427 86.1738 77.92 86.1657 78.1054C86.1576 78.194 86.1576 78.2827 86.1414 78.3713C86.1253 78.46 86.1091 78.5405 86.0686 78.605L86.0524 78.6292C86.0443 78.6372 86.0444 78.6453 86.0363 78.6534C86.0201 78.6775 86.0039 78.6937 85.9877 78.7178C85.9715 78.742 85.9634 78.7662 85.9554 78.7904C85.9473 78.8145 85.9392 78.8468 85.9392 78.871C85.9311 78.9838 85.9958 79.0885 86.0686 79.153C86.1414 79.2175 86.2385 79.2578 86.3275 79.2819C86.4246 79.2981 86.5136 79.2981 86.6107 79.2819C86.5217 79.2739 86.4327 79.2578 86.3437 79.2255C86.2628 79.1933 86.19 79.153 86.1334 79.0885C86.0767 79.0241 86.0443 78.9515 86.0524 78.879C86.0524 78.8629 86.0524 78.8468 86.0605 78.8226C86.0605 78.8065 86.0767 78.7904 86.0848 78.7742C86.0929 78.7581 86.1091 78.742 86.1172 78.7259C86.1253 78.7098 86.1495 78.6856 86.1657 78.6614C86.2224 78.5728 86.2385 78.4761 86.2547 78.3794C86.2628 78.2827 86.2628 78.194 86.2547 78.0973C86.2466 77.92 86.2143 77.7347 86.1576 77.5574Z" fill="#F99893"/>
<path d="M87.2416 77.8072C87.2497 77.9603 87.3791 78.0812 87.5409 78.0732C87.6946 78.0651 87.816 77.9362 87.816 77.775C87.8079 77.6219 87.6785 77.501 87.5167 77.501C87.3548 77.5171 87.2335 77.646 87.2416 77.8072Z" fill="#333333"/>
<path d="M84.8065 78.0813C84.8146 78.2345 84.9441 78.3554 85.1059 78.3473C85.2596 78.3392 85.381 78.2103 85.381 78.0491C85.3729 77.8959 85.2434 77.775 85.0816 77.7831C84.9198 77.7912 84.7984 77.9201 84.8065 78.0813Z" fill="#333333"/>
<path opacity="0.3" d="M87.3712 79.959C87.3712 79.959 86.9585 79.83 86.5864 80.096C86.5864 80.096 86.1657 79.8542 85.842 80.1121C85.842 80.1121 86.02 80.7165 86.6916 80.652C87.3712 80.5876 87.3712 79.959 87.3712 79.959Z" fill="#F99893"/>
<path d="M87.7192 79.7253C87.6464 79.7898 87.5655 79.8462 87.4846 79.9026C87.4037 79.959 87.3228 80.0074 87.2338 80.0477C87.0558 80.1283 86.8697 80.1928 86.6836 80.2169C86.4894 80.2411 86.2953 80.225 86.1092 80.1766C85.9231 80.1283 85.7451 80.0396 85.5752 79.9349C85.648 79.9993 85.7289 80.0558 85.8179 80.1041C85.9069 80.1525 85.9959 80.1928 86.093 80.225C86.1901 80.2572 86.2872 80.2814 86.3924 80.2895C86.4894 80.2975 86.5946 80.2975 86.6998 80.2895C86.9021 80.2653 87.0962 80.1928 87.2661 80.096C87.428 79.9993 87.5898 79.8785 87.7192 79.7253Z" fill="#F99893"/>
<path d="M86.8777 77.1627C87.0233 77.1144 87.1609 77.0821 87.2903 77.066C87.4278 77.0418 87.5573 77.0418 87.6868 77.058C87.8162 77.0741 87.9456 77.1063 88.067 77.1547C88.1317 77.1788 88.1884 77.2111 88.2531 77.2433C88.3178 77.2756 88.3744 77.3159 88.4473 77.3481C88.4149 77.2836 88.3664 77.2191 88.3178 77.1627C88.2612 77.1063 88.2126 77.0499 88.1479 77.0096C88.0266 76.9129 87.8647 76.8565 87.7029 76.8404C87.5411 76.8242 87.3793 76.8484 87.2337 76.9048C87.1042 76.9532 86.9748 77.0418 86.8777 77.1627Z" fill="#FF5B7E"/>
<path d="M85.6235 77.3076C85.5103 77.2028 85.3646 77.1464 85.2109 77.1142C85.0572 77.0819 84.8954 77.0981 84.7416 77.1464C84.5879 77.1948 84.4423 77.2834 84.3452 77.3962C84.2886 77.4527 84.2481 77.5171 84.2077 77.5816C84.1753 77.6461 84.1429 77.7186 84.1187 77.7911C84.1834 77.7428 84.2319 77.6944 84.2886 77.6541C84.3452 77.6138 84.3937 77.5655 84.4585 77.5332C84.5717 77.4526 84.6931 77.4043 84.8145 77.364C84.9358 77.3237 85.0653 77.2995 85.2028 77.2995C85.3323 77.2834 85.4779 77.2915 85.6235 77.3076Z" fill="#FF5B7E"/>
<path d="M81.0595 95.0566C84.9616 91.1699 84.9616 84.8682 81.0595 80.9814C77.1574 77.0947 70.8308 77.0947 66.9287 80.9814C63.0266 84.8682 63.0266 91.1699 66.9287 95.0566C70.8308 98.9434 77.1574 98.9434 81.0595 95.0566Z" fill="#F4A640"/>
<path d="M82.978 88.4273C83.2048 83.4875 79.3683 79.2998 74.4089 79.0739C69.4496 78.848 65.2453 82.6694 65.0185 87.6093C64.7918 92.5492 68.6283 96.7368 73.5876 96.9627C78.547 97.1886 82.7512 93.3672 82.978 88.4273Z" fill="#F9CC4B"/>
<path d="M77.1444 95.7945C72.8402 97.5191 67.9292 95.4399 66.1978 91.1527C64.4663 86.8654 66.5537 81.9737 70.858 80.2491C75.1622 78.5245 80.0733 80.6037 81.8047 84.891C83.5361 89.1702 81.4487 94.0619 77.1444 95.7945ZM70.9713 80.5311C66.8288 82.1912 64.8142 86.9057 66.4809 91.0318C68.1476 95.1579 72.8807 97.1645 77.0231 95.5044C81.1655 93.8443 83.1801 89.1299 81.5134 85.0038C79.8467 80.8777 75.1137 78.871 70.9713 80.5311Z" fill="#F4A640"/>
<path opacity="0.5" d="M74.3047 85.0603C74.0135 84.6735 73.6817 84.3914 73.1559 84.3673C73.172 84.4398 73.1801 84.4962 73.1963 84.5526C73.4795 85.2537 73.7626 85.9468 74.0377 86.6479C74.0944 86.801 74.1753 86.8332 74.3371 86.8252C74.7173 86.801 75.1057 86.7849 75.4941 86.801C76.8452 86.8494 77.6462 87.6633 77.986 88.8802C78.3905 90.3469 77.9455 91.459 76.6834 92.3213C76.4568 92.4824 76.4245 92.6194 76.5378 92.8451C76.6267 93.0063 76.6834 93.1916 76.7562 93.377C76.4488 93.4978 76.1656 93.6107 75.85 93.7396C75.7368 93.4656 75.6316 93.1997 75.5264 92.9337C73.4309 93.4092 72.2659 92.2326 71.7562 91.2172C72.2659 90.9432 72.7756 90.6692 73.3015 90.3872C73.6898 90.911 74.1672 91.2656 74.8953 91.3865C74.7416 90.9996 74.6041 90.6612 74.4665 90.3308C74.2805 89.8714 74.0863 89.4201 73.9164 88.9608C73.8516 88.7915 73.7707 88.7271 73.5847 88.7432C72.9859 88.7835 72.3953 88.7512 71.8371 88.5175C70.7044 88.0421 70.1623 87.1153 70.049 85.971C69.9439 84.8991 70.4536 84.0771 71.3597 83.4969C71.4164 83.4566 71.4811 83.4244 71.5377 83.3841C71.562 83.368 71.5782 83.3519 71.6186 83.3116C71.5296 83.094 71.4406 82.8764 71.3435 82.6346C71.651 82.5137 71.9342 82.3929 72.2578 82.2639C72.3225 82.4251 72.4034 82.5863 72.452 82.7555C72.5086 82.9328 72.6057 82.957 72.7756 82.9167C73.5442 82.7474 74.2724 82.82 74.9439 83.2793C75.2918 83.5211 75.575 83.8273 75.8015 84.2222C75.308 84.4881 74.8144 84.7702 74.3047 85.0603ZM74.8711 88.6304C75.2028 89.4523 75.5264 90.2502 75.85 91.048C76.384 90.7659 76.6348 90.097 76.4407 89.4685C76.2546 88.856 75.6559 88.5256 74.8711 88.6304ZM72.1931 84.7299C71.7643 85.149 71.6267 85.7292 71.829 86.1563C72.0555 86.6318 72.5733 86.9299 73.0588 86.8655C72.7756 86.1644 72.4843 85.4633 72.1931 84.7299Z" fill="#FFF9FF"/>
<path d="M77.5409 89.8392C77.5652 89.8956 77.5166 89.952 77.4519 89.944C76.9988 89.8473 75.5668 89.5572 75.5101 89.6619C75.4535 89.7909 76.7237 90.081 76.7399 90.218C76.7561 90.3469 75.5182 90.0326 75.4778 90.1858C75.4373 90.3389 76.57 90.5887 76.5781 90.6532C76.5862 90.7257 75.4697 90.5968 75.3888 90.6693C75.3079 90.7418 76.481 91.0158 76.5134 91.1045C76.5457 91.1851 75.6719 91.2656 75.6639 91.3382C75.6639 91.4107 75.6477 91.4671 77.6623 91.8539L78.4632 91.9748L79.1671 91.7169L79.1995 90.8143C79.1995 90.8143 77.4276 88.8561 77.3225 88.8722C77.2254 88.8963 77.2011 88.985 77.5409 89.8392Z" fill="#FFC0BB"/>
<path d="M89.8713 81.8286C89.8713 81.8286 93.8762 86.6317 93.3341 95.1015C92.7839 103.563 92.6949 103.628 92.6949 103.628C92.6949 103.628 90.2354 103.362 88.415 101.911C86.5946 100.461 84.3696 99.4694 84.3696 99.4694L85.8502 94.6905C85.8502 94.6905 83.9246 94.755 82.533 94.1667C81.1333 93.5784 78.2207 92.0311 78.2207 92.0311C78.2207 92.0311 78.4634 90.5966 78.7709 90.1534C78.7709 90.1534 82.4764 91.2816 84.3373 91.3058C84.3292 91.3058 86.4894 84.6573 89.8713 81.8286Z" fill="#55769F"/>
<path d="M89.58 83.3679C88.9732 83.8917 88.4069 84.472 87.881 85.0764C87.3551 85.6808 86.8616 86.3255 86.4085 86.9944L86.2386 87.2442C86.1819 87.3248 86.1253 87.4135 86.0768 87.4941L85.7612 88.0098C85.7046 88.0985 85.6641 88.1871 85.6156 88.2758L85.47 88.5417L85.3243 88.8076C85.2758 88.8963 85.2353 88.9849 85.1949 89.0817L84.936 89.6296L84.7094 90.1857L84.5962 90.4678L84.4991 90.7498C84.4344 90.9432 84.3696 91.1286 84.313 91.322C84.3858 91.1367 84.4586 90.9513 84.5314 90.766L84.6366 90.4839L84.758 90.2099L85.0088 89.6619L85.2839 89.13C85.3324 89.0414 85.3729 88.9527 85.4214 88.8641L85.567 88.6062L85.7127 88.3483C85.7612 88.2596 85.8098 88.171 85.8664 88.0904L86.1819 87.5827C86.2305 87.4941 86.2871 87.4135 86.3437 87.3329L86.5137 87.0831C86.9586 86.4222 87.4441 85.7775 87.9538 85.165L88.3421 84.7057C88.4716 84.5526 88.6091 84.4075 88.7386 84.2544C89.0137 83.9401 89.2968 83.65 89.58 83.3679Z" fill="#07085B"/>
<path d="M91.3113 86.7205C90.9796 87.4619 90.6317 88.1872 90.2676 88.9125C90.0815 89.2751 89.8954 89.6297 89.7013 89.9843C89.5071 90.3389 89.3129 90.6935 89.1026 91.04C88.9003 91.3865 88.6818 91.7331 88.4553 92.0635C88.342 92.2327 88.2288 92.3939 88.1074 92.5631C87.986 92.7243 87.8647 92.8855 87.7433 93.0467C87.4925 93.3609 87.2255 93.6672 86.9343 93.9493C86.643 94.2313 86.3275 94.4811 85.9634 94.6665C86.3355 94.5053 86.6673 94.2635 86.9828 93.9976C87.2902 93.7236 87.5653 93.4254 87.8242 93.1192C88.0912 92.8049 88.3259 92.4825 88.5605 92.1441C88.787 91.8056 89.0055 91.4671 89.2158 91.1206C89.6284 90.4195 90.0087 89.7022 90.3566 88.9689C90.7126 88.2275 91.0281 87.486 91.3113 86.7205Z" fill="#07085B"/>
<path d="M83.5442 74.5917C84.0135 73.5763 84.9277 73.0041 85.7125 72.6817C86.6834 72.2869 87.7675 72.2627 88.7465 72.6253C91.5054 73.6569 90.9553 76.687 90.8258 77.2592C90.6964 77.227 90.5103 77.235 90.2918 77.3478C90.2028 77.3962 90.1219 77.4526 90.0653 77.501C89.5313 77.3398 89.3695 76.4533 89.0863 76.0262C88.7061 75.4459 87.2497 76.002 86.6187 75.5829C85.9876 75.1719 85.8824 74.7448 85.8824 74.7448C83.4552 75.1316 83.6332 77.8555 83.6332 77.8555C83.528 77.8314 83.2853 77.4365 83.2853 77.4365C83.2853 77.4365 82.6785 76.4614 83.5442 74.5917Z" fill="#FF5B7E"/>
<path d="M173.747 113.049L168.553 116.296L168.173 146.847L169.2 147.548L170.22 147.323L173.165 127.24L175.568 114.282L173.747 113.049Z" fill="#FFC0BB"/>
<path d="M184.289 142.995C181.967 136.782 177.922 132.551 177.922 132.551C177.922 132.551 178.683 130.512 179.459 123.783C180.236 117.054 176.951 112.823 176.951 112.823L171.126 114.556C171.126 114.556 174.087 132.188 174.565 133.309C174.937 134.187 179.678 140.505 181.709 143.197V143.245L182.631 144.414L183.505 145.518L184.532 145.05L184.71 143.769L184.289 142.995Z" fill="#FFC0BB"/>
<path d="M168.553 115.869C168.553 115.869 167.194 126.241 167.34 133.986C167.34 133.986 172.607 134.816 176.474 134.526L176.644 130.093L177.477 134.276C177.477 134.276 179.387 134.195 180.26 133.486C180.26 133.486 179.726 129.062 179.888 125.661C180.05 122.26 179.904 117.981 178.78 115.136C177.655 112.291 171.409 115.41 171.409 115.41L168.553 115.869Z" fill="#333333"/>
<path d="M175.584 89.7505C175.584 89.7505 176.781 90.6611 177.137 91.9506C177.445 93.0546 178.812 92.8612 179.67 94.336C180.616 95.972 181.976 98.4138 178.869 100.066C176.943 101.089 173.877 101.879 173.181 101.186C172.485 100.493 170.827 100.775 171.199 93.5059C171.199 93.5059 175.73 90.9513 175.778 90.9432C175.835 90.9271 175.584 89.7505 175.584 89.7505Z" fill="#333333"/>
<path d="M169.556 110.567L170.115 108.189L168.731 104.498C168.731 104.498 167.979 107.424 166.846 110.035L162.687 110.534L161.805 110.704C161.805 110.704 167.493 113.935 169.047 111.558C169.208 111.598 169.314 111.622 169.314 111.622L169.459 110.994C169.54 110.857 169.613 110.712 169.653 110.567H169.556Z" fill="#E03268"/>
<path d="M174.847 97.6884L174.734 99.4372L172.347 99.9288H171.927L172.016 97.8416L174.548 96.947L174.847 97.6884Z" fill="#FFC0BB"/>
<path d="M171.102 100.485C170.996 101.662 171.482 101.879 171.482 101.879L175.09 99.2117C172.849 99.4293 171.401 99.671 171.401 99.671C171.401 99.671 171.215 100.517 171.102 100.485Z" fill="#FFC0BB"/>
<path d="M177.081 93.8926C177.081 93.8926 177.817 90.8867 176.061 89.7585C174.305 88.6303 172.445 88.7592 171.182 89.4281C169.912 90.105 169.16 92.4582 169.726 93.804L173.933 92.5226L177.081 93.8926Z" fill="#333333"/>
<path d="M174.896 97.2373C174.896 97.2373 174.847 97.745 174.799 98.3736C173.893 99.3648 172.186 99.0263 171.959 98.9296C171.975 98.6153 171.959 97.9706 171.959 97.9706L174.896 97.2373Z" fill="#F99893"/>
<path d="M170.276 94.336C170.422 94.739 170.284 95.1661 169.961 95.287C169.637 95.4079 169.249 95.1742 169.103 94.7712C168.957 94.3683 169.095 93.9411 169.419 93.8202C169.742 93.6993 170.123 93.9331 170.276 94.336Z" fill="#F99893"/>
<path d="M170.309 96.6811C170.212 96.5038 170.139 96.3185 170.074 96.1251C169.896 95.6012 169.823 95.0532 169.791 94.5778C169.783 94.473 169.775 94.3763 169.759 94.2715C169.702 93.8605 169.718 93.4253 169.831 92.9902C170.187 91.5718 171.466 90.5322 172.938 90.4758C174.92 90.3952 176.498 92.007 176.433 93.925C176.644 93.8122 176.886 93.796 177.089 93.8927C177.477 94.0862 177.607 94.6342 177.364 95.1177C177.121 95.6012 176.611 95.843 176.223 95.6576C176.166 95.6335 176.118 95.5932 176.077 95.5609C175.851 97.1888 174.467 98.4057 172.857 98.3251C172.072 98.2848 171.369 97.9383 170.851 97.4064C170.818 97.3742 170.778 97.3419 170.738 97.2936C170.56 97.1082 170.422 96.8987 170.309 96.6811Z" fill="#FFC0BB"/>
<path d="M173.327 94.3845C173.318 94.5537 173.448 94.7068 173.626 94.7149C173.796 94.7229 173.95 94.594 173.958 94.4167C173.966 94.2394 173.836 94.0944 173.658 94.0863C173.48 94.0782 173.335 94.2072 173.327 94.3845Z" fill="#333333"/>
<path d="M170.527 94.3845C170.519 94.5537 170.649 94.7068 170.827 94.7149C170.996 94.7229 171.15 94.594 171.158 94.4167C171.166 94.2394 171.037 94.0944 170.859 94.0863C170.689 94.0782 170.535 94.2072 170.527 94.3845Z" fill="#333333"/>
<path d="M173.06 93.8604C173.205 93.7879 173.351 93.7315 173.505 93.6912C173.658 93.659 173.812 93.6429 173.966 93.659C174.039 93.667 174.119 93.6831 174.192 93.6993C174.233 93.7073 174.265 93.7234 174.306 93.7315C174.322 93.7396 174.338 93.7476 174.362 93.7557C174.378 93.7637 174.395 93.7718 174.419 93.7798C174.556 93.8443 174.694 93.9329 174.823 94.0296C174.726 93.9007 174.605 93.7879 174.459 93.6993C174.386 93.659 174.314 93.6187 174.233 93.5945C174.152 93.5703 174.071 93.5462 173.99 93.5381C173.82 93.522 173.65 93.5462 173.496 93.6026C173.416 93.6267 173.343 93.667 173.27 93.7073C173.181 93.7557 173.116 93.796 173.06 93.8604Z" fill="#333333"/>
<path d="M171.789 93.8604C171.732 93.804 171.668 93.7557 171.595 93.7154C171.522 93.6751 171.449 93.6348 171.368 93.6106C171.215 93.5542 171.045 93.53 170.875 93.5462C170.794 93.5542 170.705 93.5703 170.632 93.6026C170.551 93.6267 170.478 93.667 170.406 93.7073C170.26 93.796 170.139 93.9088 170.042 94.0377C170.171 93.941 170.3 93.8524 170.446 93.7879C170.462 93.7798 170.478 93.7718 170.503 93.7637C170.519 93.7557 170.535 93.7476 170.559 93.7395C170.6 93.7234 170.632 93.7154 170.673 93.7073C170.745 93.6831 170.818 93.6751 170.899 93.667C171.053 93.6509 171.207 93.667 171.36 93.6993C171.498 93.7234 171.643 93.7798 171.789 93.8604Z" fill="#333333"/>
<path d="M178.982 104.401C178.909 104.321 178.836 104.232 178.772 104.144C178.707 104.055 178.642 103.958 178.594 103.861C178.537 103.765 178.488 103.66 178.448 103.555C178.399 103.45 178.367 103.346 178.335 103.233C178.351 103.346 178.375 103.459 178.408 103.571C178.424 103.628 178.448 103.684 178.464 103.733C178.488 103.789 178.513 103.837 178.537 103.894C178.585 103.998 178.65 104.095 178.715 104.192C178.772 104.264 178.828 104.337 178.893 104.409C178.836 104.418 178.772 104.426 178.715 104.434C178.634 104.434 178.545 104.434 178.464 104.426C178.424 104.418 178.383 104.409 178.343 104.401C178.302 104.393 178.262 104.377 178.221 104.361C178.141 104.337 178.068 104.297 177.995 104.248C178.06 104.305 178.132 104.353 178.213 104.385C178.294 104.426 178.375 104.45 178.456 104.474C178.537 104.498 178.626 104.498 178.715 104.498C178.804 104.498 178.893 104.49 178.982 104.466L179.047 104.45L178.982 104.401Z" fill="white"/>
<path d="M172.161 94.2393C172.072 94.3843 172 94.5294 171.927 94.6825C171.862 94.8356 171.797 94.9887 171.749 95.1579C171.724 95.2385 171.708 95.3191 171.7 95.4158C171.7 95.44 171.7 95.4641 171.7 95.4883C171.7 95.5044 171.708 95.5125 171.708 95.5286C171.716 95.5447 171.716 95.5528 171.724 95.5689C171.733 95.5769 171.733 95.585 171.741 95.585L171.757 95.5931C171.765 95.6011 171.773 95.6092 171.781 95.6172C171.797 95.6334 171.822 95.6414 171.838 95.6575C171.911 95.7059 171.991 95.7381 172.072 95.7623C172.153 95.7865 172.234 95.8106 172.315 95.8268C172.161 95.7542 172.008 95.6817 171.878 95.5931C171.862 95.585 171.846 95.5689 171.83 95.5528L171.805 95.5367L171.797 95.5286C171.797 95.5286 171.797 95.5286 171.797 95.5205C171.789 95.5044 171.789 95.4641 171.789 95.4238C171.797 95.3513 171.813 95.2707 171.838 95.1901C171.878 95.029 171.935 94.8759 171.991 94.7228C172.056 94.5535 172.113 94.3924 172.161 94.2393Z" fill="#F99893"/>
<path d="M178.415 109.374C178.844 106.996 179.03 104.442 179.03 104.442C179.055 103.854 178.351 103.04 178.327 102.58C177.728 102.097 177.59 101.702 177.59 101.702L176.547 99.5502L175.851 99.2117C175.309 99.1633 175.042 99.2117 175.042 99.2117L173.254 100.549C172.509 101.114 171.433 100.598 171.401 99.671C169.831 100.92 168.779 101.492 168.561 103.499C168.407 104.901 169.176 106.094 169.257 107.432L168.553 115.869C168.553 115.869 174.467 115.934 178.78 115.136C178.78 115.136 178.375 112.75 178.415 109.374Z" fill="#FF5B7E"/>
<path d="M168.068 115.498L161.894 115.869C161.506 115.893 161.069 115.643 160.932 115.313L157.687 107.826C157.542 107.496 157.744 107.206 158.132 107.182L164.305 106.811C164.694 106.787 165.131 107.037 165.268 107.367L168.512 114.854C168.65 115.184 168.456 115.474 168.068 115.498Z" fill="#333333"/>
<path d="M162.469 107.303L160.365 107.432C160.195 107.44 160.009 107.335 159.945 107.19L159.888 107.053C159.823 106.908 159.912 106.787 160.082 106.779L162.186 106.65C162.356 106.642 162.542 106.747 162.606 106.892L162.663 107.029C162.72 107.166 162.639 107.286 162.469 107.303Z" fill="#C8EEF1"/>
<path d="M160.171 113.581L160.147 113.589C159.993 113.653 159.807 113.597 159.726 113.452L158.755 111.775C158.707 111.695 158.707 111.59 158.763 111.517C158.925 111.276 159.281 110.776 159.402 110.792C159.564 110.816 159.079 111.646 159.144 111.663C159.208 111.679 159.896 111.123 159.953 111.219C160.001 111.3 159.402 111.945 159.427 111.993C159.451 112.041 160.155 111.638 160.228 111.711C160.292 111.775 159.637 112.299 159.645 112.331L160.171 113.581Z" fill="#FFC0BB"/>
<path d="M159.597 112.364C159.597 112.364 160.292 112.154 160.357 112.227C160.422 112.307 159.597 112.751 159.597 112.726C159.605 112.71 159.597 112.364 159.597 112.364Z" fill="#FFC0BB"/>
<path d="M176.854 93.4817L176.773 93.4736L176.717 92.8209L176.425 92.2165C176.425 92.2165 175.276 90.5886 175.236 90.5483C175.195 90.508 174.322 89.9842 174.265 89.96C174.208 89.9358 172.987 90.1373 172.987 90.1373C172.987 90.1373 170.826 89.678 171.199 90.8787C171.563 92.0795 173.14 92.7 173.221 92.6516C172.962 92.3857 172.938 91.6201 172.938 91.6201C174.152 93.0143 176.433 93.933 176.433 93.933C176.433 93.933 176.676 93.7476 177.089 93.9008L176.854 93.4817Z" fill="#333333"/>
<path d="M171.458 96.3103C171.538 96.6811 171.903 96.9551 172.331 96.947C172.76 96.939 173.108 96.6488 173.181 96.2781L171.458 96.3103Z" fill="white"/>
<path d="M179.484 105.038C179.484 105.038 178.61 100.235 175.916 99.2358C175.187 98.9618 174.411 99.5017 174.403 100.275C174.395 101.379 177.809 109.559 177.453 109.978C176.976 110.55 168.229 112.605 167.93 112.678L166.886 112.581C166.029 112.525 165.115 112.404 165.066 112.468C164.993 112.557 165.042 112.646 165.956 113.073C166.013 113.097 166.021 113.186 165.964 113.218C165.527 113.484 164.168 114.322 164.208 114.451C164.257 114.596 165.495 113.879 165.608 113.967C165.721 114.064 164.5 114.733 164.581 114.886C164.661 115.039 165.754 114.386 165.81 114.435C165.867 114.483 164.888 115.224 164.88 115.337C164.872 115.45 166.013 114.797 166.102 114.838C166.191 114.878 165.551 115.595 165.608 115.66C165.665 115.724 165.454 115.813 167.348 114.612C167.348 114.612 167.817 114.298 167.987 114.169C167.987 114.169 178.853 112.638 179.532 111.783C180.786 110.188 179.484 105.038 179.484 105.038Z" fill="#FFC0BB"/>
<path d="M179.483 105.038C179.483 105.038 178.61 100.235 175.915 99.2358C175.187 98.9618 174.411 99.5017 174.403 100.275C174.394 101.379 177.809 109.559 177.453 109.978C176.975 110.55 168.229 112.605 167.93 112.678H167.914C168.019 113.153 168.14 113.661 168.302 114.12C170.098 113.863 178.917 112.549 179.524 111.783C180.786 110.188 179.483 105.038 179.483 105.038Z" fill="#E03268"/>
<path d="M158.092 18.4861C157.671 16.6648 156.037 15.3029 154.071 15.3029C153.715 15.3029 153.359 15.3512 153.027 15.4318C152.064 13.3768 149.961 11.9423 147.533 11.9423C146.902 11.9423 146.296 12.039 145.729 12.2163C144.419 10.0565 142.04 8.61401 139.321 8.61401C136.085 8.61401 133.334 10.661 132.291 13.5219C131.554 13.1108 130.705 12.8771 129.799 12.8771C126.967 12.8771 124.669 15.1659 124.669 17.9865C124.669 18.1557 124.677 18.3169 124.693 18.4861H158.092V18.4861Z" fill="white"/>
<path d="M96.1416 34.9907C96.3681 34.0236 97.2338 33.3064 98.2694 33.3064C98.4636 33.3064 98.6416 33.3306 98.8196 33.3789C99.3293 32.291 100.438 31.5334 101.724 31.5334C102.056 31.5334 102.38 31.5818 102.679 31.6785C103.375 30.5341 104.629 29.7686 106.069 29.7686C107.776 29.7686 109.232 30.8484 109.791 32.3635C110.179 32.1459 110.632 32.025 111.109 32.025C112.606 32.025 113.82 33.2338 113.82 34.7247C113.82 34.8134 113.812 34.902 113.804 34.9907H96.1416V34.9907Z" fill="white"/>
<path d="M151.409 32.9599C151.635 31.9929 152.501 31.2756 153.537 31.2756C153.723 31.2756 153.909 31.2998 154.087 31.3482C154.596 30.2602 155.705 29.5027 156.991 29.5027C157.323 29.5027 157.647 29.551 157.946 29.6477C158.642 28.5034 159.896 27.7378 161.336 27.7378C163.043 27.7378 164.499 28.8177 165.058 30.3327C165.446 30.1152 165.899 29.9943 166.376 29.9943C167.873 29.9943 169.087 31.2031 169.087 32.694C169.087 32.7826 169.079 32.8713 169.071 32.9599H151.409V32.9599Z" fill="white"/>
<path d="M176.255 59.9812C176.522 58.8126 177.574 57.9423 178.828 57.9423C179.055 57.9423 179.281 57.9745 179.492 58.0309C180.115 56.7093 181.458 55.7987 183.011 55.7987C183.416 55.7987 183.804 55.8631 184.168 55.976C185.009 54.5898 186.531 53.6631 188.27 53.6631C190.341 53.6631 192.105 54.9767 192.777 56.806C193.254 56.5401 193.796 56.395 194.378 56.395C196.191 56.395 197.663 57.8617 197.663 59.6669C197.663 59.7716 197.655 59.8764 197.647 59.9812H176.255Z" fill="white"/>
<path d="M166.223 147.556L168.367 146.235L170.22 147.347L169.572 147.806L167.323 148.121C167.323 148.121 166.449 148.008 166.409 147.984C166.377 147.967 166.223 147.556 166.223 147.556Z" fill="#FFC0BB"/>
<path d="M166.223 147.557L165.681 147.903C165.43 148.064 165.543 148.451 165.835 148.451L169.953 148.467C170.098 148.467 170.22 148.355 170.22 148.209L170.228 147.347C167.477 148.209 166.53 147.944 166.223 147.557Z" fill="#07085B"/>
<path d="M182.946 147.355L182.89 144.728L184.718 143.777L184.807 144.567L183.99 146.678C183.99 146.678 183.464 147.387 183.424 147.404C183.375 147.428 182.946 147.355 182.946 147.355Z" fill="#FFC0BB"/>
<path d="M182.946 147.355L182.987 148C183.003 148.298 183.399 148.387 183.545 148.129L185.576 144.559C185.649 144.43 185.6 144.277 185.479 144.204L184.726 143.785C184.128 146.59 183.432 147.283 182.946 147.355Z" fill="#07085B"/>
<path d="M127.202 83.2468L123.52 81.8285C123.431 81.7963 123.383 81.6915 123.415 81.6028L123.439 81.5303C123.472 81.4417 123.577 81.3933 123.666 81.4255L127.347 82.8439C127.436 82.8761 127.485 82.9809 127.452 83.0695L127.428 83.1421C127.396 83.2388 127.291 83.2791 127.202 83.2468Z" fill="white"/>
<path d="M124.168 80.2087L123.601 81.2725C123.528 81.4014 123.561 81.5626 123.666 81.5949L127.202 82.9568C127.291 82.9891 127.404 82.973 127.493 82.8843C127.582 82.7957 127.663 82.6345 127.59 82.3443C127.444 81.7802 126.449 81.2644 126.085 80.6922L124.435 80.0556C124.346 80.0314 124.232 80.0959 124.168 80.2087Z" fill="#333333"/>
<path d="M125.583 81.2563C125.567 81.2321 125.567 81.1838 125.6 81.1596C125.729 81.0306 126.093 80.7405 126.506 80.9903C126.53 81.0065 126.53 81.0468 126.514 81.079C126.498 81.1112 126.465 81.1273 126.441 81.1112C126.069 80.8936 125.761 81.1515 125.656 81.2563C125.624 81.2724 125.6 81.2724 125.583 81.2563Z" fill="white"/>
<path d="M125.891 81.5385C125.875 81.5143 125.875 81.466 125.907 81.4418C126.036 81.3129 126.4 81.0228 126.813 81.2726C126.837 81.2887 126.837 81.329 126.821 81.3612C126.805 81.3934 126.773 81.4096 126.748 81.3935C126.376 81.1759 126.069 81.4337 125.964 81.5385C125.939 81.5627 125.907 81.5627 125.891 81.5385Z" fill="white"/>
<path d="M126.182 81.8045C126.166 81.7803 126.166 81.7319 126.198 81.7077C126.328 81.5788 126.692 81.2886 127.104 81.5385C127.129 81.5546 127.129 81.5949 127.112 81.6271C127.096 81.6594 127.064 81.6755 127.04 81.6594C126.667 81.4417 126.36 81.6997 126.255 81.8045C126.231 81.8286 126.198 81.8286 126.182 81.8045Z" fill="white"/>
<path opacity="0.3" d="M124.605 81.9654C124.677 80.9581 124.232 80.668 123.965 80.5874L123.601 81.2724C123.528 81.4013 123.561 81.5625 123.666 81.5947L124.605 81.9654Z" fill="#E87B50"/>
<path d="M123.456 83.2551L119.685 82.0946C119.588 82.0624 119.54 81.9657 119.564 81.869L119.588 81.7965C119.621 81.6998 119.718 81.6514 119.815 81.6756L123.585 82.836C123.682 82.8683 123.731 82.965 123.706 83.0617L123.682 83.1342C123.65 83.2309 123.545 83.2873 123.456 83.2551Z" fill="white"/>
<path d="M120.219 80.4426L119.726 81.5466C119.669 81.6836 119.702 81.8368 119.807 81.869L123.431 82.9811C123.528 83.0133 123.634 82.9811 123.723 82.8844C123.812 82.7877 123.868 82.6185 123.779 82.3445C123.593 81.7884 122.566 81.3532 122.161 80.7972L120.47 80.2814C120.381 80.2492 120.268 80.3136 120.219 80.4426Z" fill="#333333"/>
<path d="M121.7 81.3774C121.676 81.3532 121.684 81.3049 121.708 81.2807C121.829 81.1437 122.169 80.8294 122.598 81.047C122.622 81.0631 122.63 81.1034 122.614 81.1356C122.598 81.1679 122.566 81.184 122.541 81.1759C122.161 80.9825 121.862 81.2646 121.765 81.3774C121.749 81.4016 121.716 81.4016 121.7 81.3774Z" fill="white"/>
<path d="M122.032 81.6433C122.007 81.6191 122.016 81.5708 122.04 81.5466C122.161 81.4096 122.501 81.0953 122.93 81.3129C122.954 81.329 122.962 81.3693 122.946 81.4015C122.93 81.4337 122.897 81.4499 122.873 81.4418C122.493 81.2484 122.194 81.5305 122.096 81.6433C122.08 81.6594 122.048 81.6675 122.032 81.6433Z" fill="white"/>
<path d="M122.339 81.893C122.315 81.8688 122.323 81.8205 122.347 81.7963C122.469 81.6593 122.808 81.345 123.237 81.5626C123.261 81.5787 123.269 81.619 123.253 81.6513C123.237 81.6835 123.205 81.6996 123.18 81.6916C122.8 81.4981 122.501 81.7802 122.404 81.893C122.388 81.9091 122.355 81.9091 122.339 81.893Z" fill="white"/>
<path opacity="0.3" d="M120.778 82.1591C120.778 81.1436 120.316 80.8938 120.041 80.8293L119.726 81.5385C119.669 81.6755 119.702 81.8286 119.807 81.8609L120.778 82.1591Z" fill="#E87B50"/>
</svg>
