<svg width="21" height="25" viewBox="0 0 21 25" fill="none" xmlns="http://www.w3.org/2000/svg">
<path d="M10.659 0C10.6883 0.0748971 10.7677 0.0566613 10.8224 0.0827125C11.208 0.267676 11.432 0.564008 11.4477 0.995155C11.46 1.32861 11.4574 1.66272 11.4496 1.99552C11.4464 2.12838 11.49 2.17527 11.6222 2.19807C14.6598 2.73342 16.951 4.9647 17.5755 7.99445C17.6791 8.49789 17.7006 9.00914 17.7045 9.523C17.7136 10.6211 17.6524 11.7211 17.7364 12.8172C17.8797 14.6857 18.6651 16.2468 20.0582 17.4966C20.4601 17.8568 20.7688 18.2599 20.8157 18.8128C20.9088 19.9109 20.1474 20.7739 19.0435 20.8338C18.9869 20.837 18.9296 20.8364 18.8729 20.8364C13.2341 20.8364 7.59534 20.837 1.95592 20.8364C0.970531 20.8364 0.235888 20.2945 0.0457145 19.3944C-0.10929 18.6611 0.13494 18.0522 0.701553 17.5656C1.388 16.9756 1.93573 16.2748 2.35059 15.4711C2.88269 14.4408 3.12561 13.3402 3.12757 12.1841C3.12952 11.1753 3.11584 10.1658 3.13473 9.15699C3.19921 5.73712 5.80563 2.74319 9.18316 2.20197C9.33751 2.17723 9.38766 2.12708 9.3805 1.97142C9.36812 1.679 9.37464 1.38592 9.37724 1.09285C9.3831 0.569218 9.61496 0.235763 10.0982 0.0501485C10.1275 0.0390767 10.1627 0.0410306 10.1698 0C10.3333 0 10.4961 0 10.659 0Z" fill="#989898"/>
<path d="M9.87276 24.9557C8.37742 24.7962 6.9687 23.5314 6.62222 22.0458C6.5864 21.8928 6.63069 21.8719 6.76811 21.8726C9.20064 21.8758 11.6332 21.8758 14.065 21.8726C14.2096 21.8726 14.2409 21.9025 14.2057 22.0491C13.8443 23.562 12.4792 24.7773 10.9285 24.9551C10.8953 24.959 10.8653 24.9616 10.8542 25C10.61 25 10.3658 25 10.1215 25C10.0466 24.9407 9.94961 25.0046 9.87276 24.9557Z" fill="#989898"/>
</svg>
