<svg width="20" height="21" viewBox="0 0 20 21" fill="none" xmlns="http://www.w3.org/2000/svg">
<path d="M10.2008 20.9998C10.0657 20.9998 9.93061 20.9998 9.7955 20.9998C9.23982 20.988 8.83651 20.6836 8.4774 20.2971C8.15334 19.9485 7.7795 19.6529 7.4529 19.3069C7.29442 19.1385 7.09175 19.1118 6.87283 19.1431C6.27804 19.2278 5.68578 19.3315 5.08642 19.3823C4.21429 19.4563 3.40007 18.8834 3.17912 18.0267C3.04807 17.5174 2.98356 16.9949 2.89366 16.4774C2.88299 16.4169 2.86724 16.3568 2.86267 16.2957C2.83626 15.9379 2.64223 15.7167 2.32934 15.5642C1.86712 15.3394 1.42166 15.0797 0.966546 14.8405C0.0923868 14.381 -0.217455 13.2625 0.155879 12.4237C0.369212 11.9438 0.597276 11.4715 0.842101 11.008C1.02191 10.6682 1.02039 10.3607 0.843625 10.0193C0.584577 9.51783 0.322482 9.01631 0.114228 8.48862C-0.182407 7.73814 0.111688 6.7038 0.824831 6.27158C1.21899 6.03237 1.63499 5.83526 2.03423 5.6058C2.14547 5.54164 2.26128 5.48363 2.37759 5.43024C2.66915 5.29678 2.81188 5.07092 2.86115 4.75266C2.9475 4.19314 3.02674 3.63105 3.15829 3.08026C3.3767 2.16706 4.1122 1.6137 5.04528 1.64655C5.64718 1.66811 6.23791 1.78977 6.8322 1.87446C7.11055 1.91399 7.32845 1.85034 7.52858 1.64706C7.94763 1.22203 8.37988 0.809834 8.82077 0.407389C9.20731 0.0547372 9.67817 -0.0217478 10.18 0.00340498C10.6448 0.0270178 11.0272 0.22824 11.3437 0.552659C11.7185 0.936624 12.1285 1.28312 12.4972 1.67324C12.678 1.8642 12.8898 1.91194 13.1428 1.87754C13.7645 1.79233 14.3806 1.66708 15.0105 1.64244C15.8252 1.61062 16.6029 2.17784 16.8132 2.97965C16.9483 3.49502 17.0377 4.0222 17.0961 4.5499C17.1499 5.03653 17.3673 5.34298 17.8138 5.53907C18.246 5.72849 18.6519 5.97899 19.0684 6.20536C19.8679 6.64014 20.2204 7.71145 19.8557 8.56202C19.6434 9.05789 19.4021 9.53836 19.1547 10.0157C18.9785 10.3561 18.9744 10.6636 19.1532 11.0049C19.4148 11.5054 19.6733 12.008 19.8831 12.5351C20.1899 13.3051 19.8719 14.3148 19.1888 14.7378C18.7504 15.0093 18.2989 15.2598 17.8326 15.4718C17.3775 15.6787 17.1438 15.9841 17.0925 16.4903C17.0417 16.998 16.9493 17.5041 16.8238 18.0005C16.61 18.8459 15.8511 19.408 14.9917 19.3772C14.3756 19.3551 13.7721 19.2324 13.1641 19.1472C12.8863 19.1082 12.6643 19.1673 12.4683 19.3757C12.1056 19.7617 11.6987 20.102 11.3305 20.4829C11.0232 20.8001 10.6478 20.9844 10.2008 20.9998Z" fill="#002046"/>
<path d="M14.5427 6.5217C14.5473 6.71317 14.4579 6.85998 14.3288 6.98933C14.022 7.29733 13.7173 7.60686 13.4115 7.91588C11.1283 10.2233 8.84516 12.5306 6.563 14.8391C6.4157 14.9879 6.2623 15.1121 6.03881 15.1044C5.8016 15.0962 5.62382 14.9859 5.51817 14.7749C5.40846 14.5562 5.42776 14.3391 5.57506 14.1404C5.61925 14.0809 5.67309 14.028 5.72541 13.9746C8.29455 11.3772 10.8652 8.78083 13.4323 6.18188C13.6386 5.97296 13.8585 5.84771 14.1541 5.9555C14.3954 6.04431 14.5437 6.26504 14.5427 6.5217Z" fill="#FEFEFE"/>
<path d="M12.3855 11.5244C13.5949 11.5198 14.5778 12.5044 14.5829 13.7261C14.5884 14.9442 13.6117 15.9467 12.4094 15.957C11.203 15.9672 10.2009 14.9616 10.2004 13.7399C10.1999 12.5198 11.1771 11.5291 12.3855 11.5244Z" fill="#FEFEFE"/>
<path d="M7.61138 9.49907C6.40554 9.50523 5.41912 8.51657 5.41354 7.29641C5.40795 6.07829 6.38522 5.07577 7.58751 5.06551C8.78471 5.05524 9.78839 6.05314 9.79703 7.26201C9.80566 8.49347 8.8289 9.49291 7.61138 9.49907Z" fill="#FEFEFE"/>
<path d="M12.3992 14.7392C11.8491 14.7423 11.4082 14.3065 11.3976 13.749C11.3869 13.1987 11.8496 12.7259 12.3967 12.729C12.9366 12.7321 13.3897 13.1905 13.3907 13.7356C13.3917 14.2859 12.9468 14.7361 12.3992 14.7392Z" fill="#002046"/>
<path d="M8.59984 7.27721C8.60695 7.8203 8.15895 8.28383 7.61699 8.2941C7.07502 8.30385 6.60416 7.83313 6.6067 7.28285C6.60924 6.73976 7.04352 6.29419 7.58143 6.28342C8.14016 6.27212 8.59273 6.71358 8.59984 7.27721Z" fill="#002046"/>
</svg>
