<svg width="25" height="26" viewBox="0 0 25 26" fill="none" xmlns="http://www.w3.org/2000/svg">
<g clip-path="url(#clip0_53_603)">
<path d="M12.7515 26C12.5826 26 12.4137 26 12.2448 26C11.5502 25.9854 11.0461 25.6085 10.5972 25.1299C10.1921 24.6984 9.72483 24.3323 9.31658 23.904C9.11848 23.6955 8.86515 23.6625 8.5915 23.7012C7.848 23.8061 7.10769 23.9345 6.35848 23.9974C5.26832 24.0889 4.25054 23.3797 3.97435 22.3189C3.81054 21.6885 3.72991 21.0415 3.61753 20.4009C3.6042 20.3259 3.58451 20.2515 3.5788 20.1759C3.54578 19.7329 3.30324 19.459 2.91213 19.2703C2.33435 18.9919 1.77753 18.6703 1.20864 18.3741C0.115941 17.8053 -0.27136 16.4205 0.195306 15.382C0.461973 14.7878 0.747052 14.2031 1.05308 13.6292C1.27785 13.2085 1.27594 12.8278 1.05499 12.4051C0.731179 11.7842 0.40356 11.1633 0.143243 10.5099C-0.227551 9.58079 0.140068 8.30017 1.0315 7.76505C1.5242 7.46888 2.0442 7.22483 2.54324 6.94075C2.68229 6.8613 2.82705 6.78949 2.97245 6.72339C3.33689 6.55815 3.51531 6.27851 3.57689 5.88448C3.68483 5.19174 3.78388 4.49582 3.94832 3.81388C4.22134 2.68326 5.1407 1.99814 6.30705 2.03882C7.05943 2.06551 7.79785 2.21613 8.5407 2.321C8.88864 2.36993 9.16102 2.29113 9.41118 2.03945C9.93499 1.51322 10.4753 1.00288 11.0264 0.504619C11.5096 0.0680024 12.0982 -0.0266933 12.7255 0.0044482C13.3064 0.0336831 13.7845 0.282815 14.1801 0.684478C14.6486 1.15986 15.161 1.58885 15.622 2.07186C15.848 2.30829 16.1128 2.36739 16.429 2.32481C17.2061 2.21931 17.9763 2.06424 18.7636 2.03373C19.782 1.99433 20.754 2.6966 21.0169 3.68932C21.1858 4.3274 21.2975 4.9801 21.3705 5.63344C21.4378 6.23593 21.7096 6.61535 22.2677 6.85813C22.808 7.09264 23.3153 7.40279 23.8359 7.68306C24.8353 8.22136 25.2759 9.54774 24.8201 10.6008C24.5547 11.2148 24.2531 11.8096 23.9439 12.4007C23.7236 12.822 23.7185 13.2027 23.942 13.6254C24.269 14.245 24.5921 14.8672 24.8544 15.5199C25.2378 16.4732 24.8404 17.7233 23.9864 18.247C23.4385 18.5832 22.874 18.8934 22.2912 19.1559C21.7223 19.412 21.4302 19.7901 21.3661 20.4168C21.3026 21.0453 21.1871 21.672 21.0302 22.2865C20.7629 23.3333 19.8144 24.0292 18.7401 23.9911C17.9699 23.9637 17.2156 23.8118 16.4556 23.7063C16.1083 23.658 15.8309 23.7311 15.5858 23.9891C15.1325 24.4671 14.6239 24.8884 14.1636 25.36C13.7794 25.7528 13.3102 25.9809 12.7515 26Z" fill="#989898"/>
<path d="M18.1787 8.07435C18.1845 8.31141 18.0727 8.49318 17.9114 8.65333C17.528 9.03466 17.147 9.41789 16.7648 9.80048C13.9108 12.6572 11.0568 15.514 8.20415 18.372C8.02002 18.5563 7.82827 18.7101 7.54891 18.7006C7.2524 18.6904 7.03018 18.5538 6.89811 18.2926C6.76097 18.0218 6.7851 17.753 6.96923 17.5071C7.02446 17.4333 7.09176 17.3679 7.15716 17.3018C10.3686 14.0859 13.5819 10.8714 16.7908 7.65363C17.0486 7.39496 17.3235 7.23989 17.693 7.37335C17.9946 7.4833 18.18 7.75658 18.1787 8.07435Z" fill="#FEFEFE"/>
<path d="M15.4824 14.2683C16.9942 14.2626 18.2227 15.4816 18.2291 16.9942C18.2361 18.5023 17.0151 19.7435 15.5122 19.7562C14.0043 19.7689 12.7516 18.5239 12.751 17.0113C12.7503 15.5006 13.9719 14.2741 15.4824 14.2683Z" fill="#FEFEFE"/>
<path d="M9.51491 11.7605C8.00761 11.7681 6.77459 10.5441 6.76761 9.0334C6.76062 7.52526 7.98221 6.28405 9.48507 6.27134C10.9816 6.25863 12.2362 7.49412 12.247 8.99082C12.2578 10.5155 11.0368 11.7529 9.51491 11.7605Z" fill="#FEFEFE"/>
<path d="M15.4994 18.2488C14.8117 18.2526 14.2606 17.713 14.2473 17.0228C14.234 16.3415 14.8124 15.7562 15.4962 15.76C16.1711 15.7638 16.7375 16.3314 16.7387 17.0063C16.74 17.6876 16.1838 18.245 15.4994 18.2488Z" fill="#989898"/>
<path d="M10.7502 9.00997C10.7591 9.68237 10.1991 10.2563 9.52166 10.269C8.8442 10.2811 8.25563 9.69826 8.2588 9.01696C8.26198 8.34456 8.80483 7.79291 9.47721 7.77956C10.1756 7.76558 10.7413 8.31214 10.7502 9.00997Z" fill="#989898"/>
</g>
<defs>
<clipPath id="clip0_53_603">
<rect width="25" height="26" fill="white"/>
</clipPath>
</defs>
</svg>
