<svg width="81" height="81" viewBox="0 0 81 81" fill="none" xmlns="http://www.w3.org/2000/svg">
<path d="M43.5481 81.0003C43.3897 81.0003 43.2313 81.0003 43.0749 81.0003C42.9739 80.8914 42.8413 80.927 42.7165 80.9191C42.6195 80.9191 42.5245 80.9191 42.4275 80.9191C42.273 80.9389 42.1028 80.8657 41.9681 81.0003C40.9683 81.0003 39.9665 81.0003 38.9666 81.0003C38.7924 80.8498 38.5825 80.9468 38.3924 80.9191C38.2637 80.929 38.1251 80.8855 38.0202 81.0003C37.7569 81.0003 37.4935 81.0003 37.2302 81.0003C36.171 80.8221 35.0919 80.8657 34.0327 80.6855C26.511 79.4064 19.8348 76.3217 14.0495 71.3302C8.33347 66.3961 4.27268 60.3434 1.91263 53.1799C0.849417 49.9487 0.207927 46.6382 0.0574535 43.2049C-0.182115 37.7284 0.285143 32.3785 2.13834 27.193C3.87472 22.3322 6.39118 17.9288 9.78276 14.0224C14.7325 8.32008 20.7772 4.25523 27.9445 1.90106C31.1519 0.847725 34.4366 0.208199 37.842 0.0616824C43.2056 -0.167993 48.4583 0.247798 53.5565 2.02184C58.5598 3.7642 63.0858 6.32428 67.0932 9.80703C72.7933 14.7609 76.8462 20.8096 79.2023 27.9771C80.1823 30.9569 80.9109 34.0021 80.9169 37.174C80.9169 37.2571 80.9466 37.3264 80.9981 37.3878C80.9981 37.5977 80.9981 37.8095 80.9981 38.0194C80.8832 38.1244 80.9268 38.2649 80.9169 38.3936C80.9446 38.5857 80.8476 38.7936 80.9981 38.9678C80.9981 39.9677 80.9981 40.9696 80.9981 41.9694C80.8634 42.1041 80.9367 42.2743 80.9169 42.4288C80.9169 42.5258 80.9169 42.6208 80.9169 42.7179C80.9248 42.8406 80.8892 42.9753 80.9981 43.0762C80.9981 43.3396 80.9981 43.6029 80.9981 43.8662C80.812 44.975 80.8436 46.1075 80.6516 47.2183C79.3547 54.7104 76.27 61.3591 71.2708 67.0971C64.8381 74.4783 56.7798 78.9887 47.1357 80.6736C45.9497 80.8756 44.74 80.834 43.5481 81.0003Z" fill="#7F9746"/>
<path d="M40.5446 74.7163C21.6859 74.7144 6.34561 59.3638 6.37333 40.5245C6.40303 21.6535 21.7691 6.31481 40.5842 6.37223C59.4586 6.42965 74.6881 21.6694 74.7158 40.5245C74.7435 59.3677 59.4032 74.7183 40.5446 74.7163Z" fill="#FEFEFE"/>
<path d="M35.6799 55.4128C34.7553 55.4346 33.9891 55.0604 33.3575 54.4189C29.5501 50.558 25.7348 46.703 21.9512 42.8183C20.6128 41.4443 20.6405 39.5494 21.9235 38.306C23.2085 37.0587 25.0696 37.0943 26.4377 38.4664C29.3006 41.3373 32.1418 44.2281 34.9632 47.1406C35.4205 47.6118 35.6324 47.6989 36.1293 47.1465C42.1938 40.4226 48.288 33.7264 54.3742 27.0223C55.6156 25.6561 57.0708 25.2997 58.4587 26.0343C60.2763 26.9965 60.6881 29.317 59.2665 30.9426C57.5341 32.9225 55.7403 34.851 53.9703 36.7993C48.7691 42.5293 43.5619 48.2533 38.3666 53.9893C37.6361 54.7951 36.8342 55.4247 35.6799 55.4128Z" fill="#7F9746"/>
</svg>
