<svg width="14" height="14" viewBox="0 0 14 14" fill="none" xmlns="http://www.w3.org/2000/svg">
<path d="M10.9294 14.0002C9.85769 13.9877 8.8488 13.701 7.89956 13.2337C4.67245 11.6453 2.25696 9.23538 0.710126 5.98155C0.215097 4.94037 -0.0795112 3.8364 0.0188666 2.66651C0.118814 1.4804 0.65832 0.584664 1.79542 0.119008C2.44377 -0.146781 3.16905 0.040005 3.58559 0.605593C4.10887 1.32029 4.62326 2.04651 5.11097 2.78737C5.55995 3.46754 5.38412 4.35385 4.73577 4.85352C4.55567 4.99447 4.36824 5.1258 4.17428 5.24697C4.03456 5.33225 4.01049 5.39033 4.11515 5.53735C4.91107 6.65492 5.83676 7.65477 6.84775 8.57824C7.3731 9.0589 7.92856 9.50558 8.51076 9.91556C8.61123 9.98619 8.65466 9.97677 8.72007 9.87788C8.85927 9.66494 9.00317 9.45409 9.16016 9.25422C9.66513 8.61067 10.551 8.44691 11.2297 8.89739C11.9576 9.38084 12.6735 9.88469 13.3799 10.4C13.9597 10.8233 14.1492 11.5553 13.8771 12.2208C13.471 13.2149 12.7086 13.7564 11.6704 13.9432C11.4251 13.9807 11.1775 13.9998 10.9294 14.0002Z" fill="#002046"/>
</svg>
