<svg width="17" height="21" viewBox="0 0 17 21" fill="none" xmlns="http://www.w3.org/2000/svg">
<path d="M8.68955 21H8.30197C7.70122 20.9301 7.17179 20.6483 6.63538 20.406C5.65373 19.9682 4.73599 19.3972 3.90761 18.709C2.96117 17.9172 2.16962 16.9543 1.57361 15.8697C0.964336 14.7654 0.573656 13.5849 0.342272 12.3493C0.205844 11.6205 0.131042 10.8836 0.070967 10.1438C-0.0236021 8.99969 0.00197677 7.85514 0.00662771 6.71099C0.00662771 6.35931 0.0263942 6.00762 0.0453855 5.65906C0.0996465 4.66613 0.95232 3.7834 1.93134 3.68063C2.68208 3.60248 3.43243 3.5294 4.16379 3.32035C5.32458 2.99461 6.39371 2.39966 7.28574 1.58302C7.45705 1.42671 7.6272 1.26611 7.82835 1.14185C7.96439 1.05705 8.11826 1.04298 8.26476 1H8.72985C9.14728 1.03908 9.42207 1.32238 9.70772 1.58224C10.6004 2.39917 11.6704 2.99414 12.832 3.31957C13.5684 3.53019 14.3265 3.60404 15.0838 3.68102C16.0621 3.78067 16.9205 4.72045 16.9585 5.71533C16.9973 6.77547 17.012 7.836 16.9892 8.89614C16.9744 9.58336 16.9287 10.2702 16.8519 10.9566C16.745 11.9163 16.5806 12.8635 16.2958 13.7861C15.8547 15.2152 15.1656 16.5062 14.18 17.632C13.02 18.9571 11.5832 19.8785 9.98755 20.5717C9.75035 20.6749 9.5085 20.7671 9.26937 20.864C9.08062 20.9414 8.88527 20.9683 8.68955 21Z" fill="white"/>
<path d="M13.4417 10.5047C13.4118 13.4475 11.1974 15.7435 8.48392 15.7275C5.73552 15.7115 3.5351 13.3572 3.55603 10.4953C3.57773 7.54517 5.80373 5.25605 8.51182 5.27206C11.2587 5.28888 13.4552 7.64405 13.4417 10.5047Z" fill="#002046"/>
<path d="M12.2744 10.5256C12.2717 11.0508 12.1711 11.5702 11.9785 12.0542C11.7859 12.5382 11.505 12.9772 11.152 13.3461C10.7989 13.715 10.3806 14.0065 9.92099 14.204C9.46137 14.4015 8.96947 14.5011 8.47346 14.497C6.3207 14.4753 4.69654 12.6313 4.72444 10.476C4.75312 8.23405 6.4761 6.45496 8.52229 6.50296C10.6355 6.5522 12.3217 8.36084 12.2744 10.5256Z" fill="white"/>
<path d="M6.01107 11.0742C6.0196 10.819 6.13121 10.6319 6.35055 10.5252C6.5699 10.4185 6.78382 10.451 6.96247 10.62C7.14683 10.7915 7.32116 10.9747 7.48448 11.1686C7.59648 11.304 7.65732 11.2777 7.76544 11.1616C8.45913 10.4177 9.16057 9.67917 9.85736 8.94061C10.0271 8.75966 10.2178 8.65339 10.4631 8.71576C10.561 8.73963 10.6514 8.79023 10.7251 8.86252C10.7989 8.93482 10.8535 9.0263 10.8835 9.12786C10.9135 9.22943 10.9179 9.33754 10.8962 9.44146C10.8746 9.54537 10.8276 9.64147 10.7599 9.7202C10.6022 9.90935 10.4259 10.0813 10.2561 10.2602C9.54436 11.0143 8.83246 11.7685 8.12043 12.5226C7.77164 12.8919 7.47247 12.8919 7.12213 12.5201C6.81598 12.1968 6.51009 11.8731 6.20445 11.5489C6.0816 11.4164 6.00371 11.265 6.01107 11.0742Z" fill="#002046"/>
</svg>
