<svg width="17" height="21" viewBox="0 0 17 21" fill="none" xmlns="http://www.w3.org/2000/svg">
<path d="M8.68955 21H8.30197C7.70122 20.9301 7.17179 20.6483 6.63538 20.406C5.65373 19.9682 4.73599 19.3972 3.90761 18.709C2.96117 17.9172 2.16962 16.9543 1.57361 15.8697C0.964336 14.7654 0.573656 13.5849 0.342272 12.3493C0.205844 11.6205 0.131042 10.8836 0.070967 10.1438C-0.0236021 8.99969 0.00197677 7.85514 0.00662771 6.71099C0.00662771 6.35931 0.0263942 6.00762 0.0453855 5.65906C0.0996465 4.66613 0.95232 3.7834 1.93134 3.68063C2.68208 3.60248 3.43243 3.5294 4.16379 3.32035C5.32458 2.99461 6.39371 2.39966 7.28574 1.58302C7.45705 1.42671 7.6272 1.26611 7.82835 1.14185C7.96439 1.05705 8.11826 1.04298 8.26476 1H8.72985C9.14728 1.03908 9.42207 1.32238 9.70772 1.58224C10.6004 2.39917 11.6704 2.99414 12.832 3.31957C13.5684 3.53019 14.3265 3.60404 15.0838 3.68102C16.0621 3.78067 16.9205 4.72045 16.9585 5.71533C16.9973 6.77547 17.012 7.836 16.9892 8.89614C16.9744 9.58336 16.9287 10.2702 16.8519 10.9566C16.745 11.9163 16.5806 12.8635 16.2958 13.7861C15.8547 15.2152 15.1656 16.5062 14.18 17.632C13.02 18.9571 11.5832 19.8785 9.98755 20.5717C9.75035 20.6749 9.5085 20.7671 9.26937 20.864C9.08062 20.9414 8.88527 20.9683 8.68955 21Z" fill="#002046"/>
<path d="M13.4417 10.5047C13.4118 13.4475 11.1975 15.7435 8.48395 15.7275C5.73555 15.7115 3.53513 13.3572 3.55606 10.4953C3.57776 7.54517 5.80376 5.25605 8.51185 5.27206C11.2587 5.28888 13.4552 7.64405 13.4417 10.5047Z" fill="white"/>
<path d="M12.2744 10.5257C12.2717 11.0509 12.1711 11.5703 11.9785 12.0543C11.7859 12.5382 11.5051 12.9772 11.152 13.3461C10.799 13.715 10.3806 14.0066 9.92102 14.2041C9.4614 14.4016 8.9695 14.5011 8.47349 14.4971C6.32073 14.4753 4.69657 12.6314 4.72448 10.476C4.75315 8.23412 6.47613 6.45502 8.52232 6.50302C10.6355 6.55226 12.3217 8.3609 12.2744 10.5257Z" fill="#002046"/>
<path d="M6.0111 11.0743C6.01963 10.8191 6.13124 10.632 6.35058 10.5253C6.56993 10.4186 6.78385 10.451 6.9625 10.6201C7.14686 10.7915 7.32119 10.9747 7.48451 11.1686C7.59651 11.3041 7.65735 11.2778 7.76547 11.1617C8.45916 10.4178 9.1606 9.67923 9.85739 8.94067C10.0271 8.75972 10.2178 8.65345 10.4631 8.71582C10.5611 8.73969 10.6514 8.79029 10.7252 8.86259C10.7989 8.93488 10.8535 9.02636 10.8835 9.12792C10.9136 9.22949 10.9179 9.3376 10.8963 9.44152C10.8746 9.54543 10.8276 9.64153 10.76 9.72026C10.6022 9.90941 10.4259 10.0813 10.2562 10.2602C9.54439 11.0144 8.83249 11.7685 8.12046 12.5227C7.77167 12.8919 7.4725 12.8919 7.12216 12.5202C6.81601 12.1969 6.51012 11.8731 6.20448 11.549C6.08163 11.4165 6.00374 11.2651 6.0111 11.0743Z" fill="white"/>
</svg>
