<svg width="22" height="22" viewBox="0 0 22 22" fill="none" xmlns="http://www.w3.org/2000/svg">
<path d="M15.712 15.0095C15.712 15.1237 15.712 15.1906 15.712 15.2575C15.712 16.7992 15.7126 18.3408 15.712 19.8825C15.712 20.311 15.5928 20.4295 15.1673 20.4295C11.6308 20.4295 8.09432 20.4277 4.55784 20.4344C4.36809 20.435 4.31405 20.3927 4.31896 20.1986C4.3337 19.6467 4.32572 19.0941 4.32387 18.5422C4.32203 17.9933 4.0021 17.6771 3.4482 17.6759C2.89614 17.6747 2.34347 17.6679 1.79141 17.6802C1.6121 17.6839 1.56543 17.6372 1.56543 17.4555C1.57096 13.7201 1.56973 9.98482 1.56973 6.24888C1.56973 4.3542 1.56973 2.45952 1.56973 0.565456C1.56973 0.112355 1.68456 0 2.14512 0C6.47929 0 10.8135 0 15.1476 0C15.6039 0 15.712 0.109285 15.712 0.570982C15.712 2.64187 15.7107 4.71275 15.715 6.78364C15.7157 6.94449 15.6745 7.07956 15.5959 7.21586C14.7239 8.73541 13.8575 10.258 12.9842 11.7776C12.835 12.0367 12.7619 12.3068 12.7478 12.6052C12.703 13.555 12.6403 14.5042 12.5955 15.454C12.5863 15.6517 12.5329 15.7161 12.3204 15.7155C9.4588 15.7069 6.59781 15.7094 3.7362 15.7106C3.63733 15.7106 3.5354 15.7118 3.4396 15.7333C3.23941 15.7788 3.14054 15.9249 3.1473 16.1189C3.15467 16.3129 3.26397 16.4492 3.46662 16.4836C3.54891 16.4977 3.63488 16.4965 3.71901 16.4965C6.84098 16.4971 9.96358 16.4952 13.0856 16.4995C13.3484 16.5002 13.5756 16.4394 13.7954 16.2883C14.4132 15.8647 15.0408 15.4558 15.712 15.0095Z" fill="#002046"/>
<path d="M0 11.7769C0 8.57818 0 5.37884 0 2.18011C0 1.67052 0.165801 1.52194 0.668118 1.56554C0.757774 1.57352 0.792162 1.59869 0.785407 1.68649C0.781109 1.7399 0.784793 1.79393 0.784793 1.84734C0.784793 7.08687 0.787249 12.3264 0.781109 17.5659C0.780495 18.0166 0.920505 18.3776 1.24474 18.6932C1.954 19.3832 2.65159 20.0856 3.3455 20.7911C3.63228 21.0827 3.96511 21.2165 4.37224 21.2159C7.51756 21.2116 10.6635 21.2128 13.8088 21.2184C13.9169 21.2184 14.0888 21.1232 14.1343 21.3C14.2159 21.6174 14.1152 21.8643 13.9052 21.9613C13.8327 21.9944 13.7578 21.9987 13.6811 21.9987C9.27689 21.9987 4.87333 21.9987 0.469156 21.9981C0.136326 21.9981 0.000614079 21.8471 0.000614079 21.4891C0 18.2517 0 15.0143 0 11.7769Z" fill="#002046"/>
<path d="M16.218 13.5458C16.1621 13.5163 16.1209 13.4967 16.0816 13.474C15.8624 13.3487 15.6493 13.2124 15.4227 13.1019C15.2668 13.0258 15.2575 12.9589 15.3423 12.8103C16.1308 11.4295 16.9106 10.0438 17.693 8.65931C18.1106 7.92071 18.533 7.18458 18.942 6.44169C19.0218 6.29618 19.0833 6.28329 19.2171 6.36801C19.4425 6.51106 19.6783 6.64 19.9135 6.76647C20.0203 6.82418 20.051 6.87084 19.9817 6.99179C18.7529 9.13328 17.529 11.2785 16.3033 13.4218C16.2788 13.4654 16.2468 13.5041 16.218 13.5458Z" fill="#002046"/>
<path d="M18.3337 5.92277C18.3103 5.96636 18.2858 6.01364 18.2594 6.0603C17.0582 8.1846 15.8552 10.3083 14.6596 12.4357C14.5773 12.5818 14.5159 12.5941 14.3851 12.5081C14.2193 12.3988 14.048 12.2944 13.8681 12.2109C13.7176 12.1409 13.714 12.0802 13.7944 11.9408C14.5172 10.6883 15.2313 9.43155 15.948 8.17539C16.4374 7.3183 16.9317 6.46367 17.4119 5.60167C17.5071 5.43099 17.5839 5.41564 17.7368 5.52063C17.8934 5.62868 18.0678 5.71157 18.233 5.80857C18.2753 5.83436 18.3386 5.84664 18.3337 5.92277Z" fill="#002046"/>
<path d="M19.9388 1.82032C20.1359 1.81971 20.2648 1.86084 20.387 1.93145C20.785 2.15984 21.186 2.38209 21.582 2.61417C22.0088 2.86405 22.112 3.23734 21.8762 3.66588C21.7325 3.92681 21.5784 4.18283 21.4365 4.445C21.3855 4.53954 21.3438 4.55674 21.2455 4.49964C20.4847 4.05881 19.7214 3.62229 18.9562 3.18883C18.8647 3.13665 18.8426 3.0992 18.9028 3.00035C19.0705 2.72652 19.2203 2.44165 19.3855 2.16659C19.5206 1.93881 19.7275 1.82339 19.9388 1.82032Z" fill="#002046"/>
<path d="M20.4043 6.15136C20.3674 6.12987 20.3343 6.11022 20.3011 6.09119C19.5581 5.66756 18.8169 5.24024 18.0701 4.82275C17.9412 4.75092 17.9203 4.69382 18.0001 4.56857C18.1352 4.35614 18.2562 4.1345 18.3766 3.91286C18.4239 3.82568 18.465 3.81463 18.5522 3.86498C19.3192 4.30764 20.0886 4.74662 20.8587 5.1856C20.9238 5.22305 20.9741 5.25007 20.9195 5.34093C20.7702 5.58959 20.629 5.84377 20.4847 6.09549C20.4663 6.12864 20.4491 6.16425 20.4043 6.15136Z" fill="#002046"/>
<path d="M13.3889 15.3668C13.4319 14.5595 13.4748 13.7521 13.5191 12.9141C14.2326 13.3211 14.9136 13.7104 15.6303 14.1193C14.8909 14.6098 14.17 15.0881 13.4491 15.567C13.3054 15.5375 13.3932 15.438 13.3889 15.3668Z" fill="#002046"/>
<path d="M2.19824 18.4599C2.59432 18.4599 2.99962 18.4617 3.40491 18.458C3.49825 18.4574 3.54246 18.4771 3.54123 18.5839C3.53632 18.9946 3.53939 19.4054 3.53939 19.802C3.09234 19.3544 2.64713 18.9087 2.19824 18.4599Z" fill="#002046"/>
<path d="M5.10887 3.99147C5.10887 4.32116 5.1144 4.65147 5.1058 4.98056C5.10273 5.09782 5.13282 5.15001 5.25072 5.18685C6.13561 5.46313 6.6803 6.19006 6.67846 7.07723C6.67661 7.95396 6.12579 8.68949 5.26055 8.9541C5.14326 8.98971 5.09536 9.02962 5.10703 9.1518C5.11685 9.25801 5.11685 9.3673 5.10396 9.47351C5.07939 9.6798 4.91298 9.81794 4.70849 9.81426C4.50339 9.81057 4.30381 9.66077 4.33697 9.46062C4.40206 9.06953 4.18407 8.96884 3.8844 8.83315C3.16715 8.50775 2.79748 7.91712 2.7594 7.1288C2.74651 6.86173 2.90862 6.68061 3.13952 6.67693C3.35813 6.67324 3.52516 6.84024 3.5399 7.0938C3.5663 7.55305 3.78 7.8895 4.18038 8.11298C4.28109 8.16946 4.32776 8.16823 4.32715 8.03193C4.32346 7.34921 4.31916 6.66649 4.33022 5.98438C4.33267 5.83273 4.23749 5.83519 4.14968 5.80572C3.43059 5.56566 2.97065 5.08247 2.80362 4.34142C2.585 3.37198 3.13522 2.38228 4.07967 2.08144C4.30013 2.01145 4.35171 1.91383 4.32653 1.71798C4.31978 1.66518 4.32285 1.61053 4.32715 1.55712C4.34496 1.33364 4.50032 1.18567 4.71525 1.18506C4.92894 1.18445 5.12606 1.33671 5.09904 1.55344C5.05544 1.90585 5.21204 2.02311 5.51846 2.15389C6.26027 2.46946 6.6367 3.07667 6.67477 3.88341C6.68644 4.13636 6.52739 4.31134 6.30387 4.32178C6.08464 4.3316 5.90901 4.16522 5.89489 3.91656C5.8691 3.45855 5.66031 3.11903 5.263 2.89125C5.15001 2.82679 5.10396 2.83293 5.10764 2.97966C5.11378 3.31673 5.10887 3.6544 5.10887 3.99147Z" fill="white"/>
<path d="M7.47347 13.7526C8.74645 13.7526 10.0194 13.7532 11.2918 13.752C11.4324 13.752 11.5675 13.7575 11.6738 13.868C11.8727 14.0743 11.7954 14.4015 11.5252 14.5071C11.4281 14.5452 11.3293 14.5372 11.2304 14.5372C8.72312 14.5378 6.21583 14.5378 3.70855 14.5378C3.67784 14.5378 3.64714 14.5384 3.61643 14.5378C3.32905 14.5323 3.14666 14.3806 3.14359 14.1461C3.14052 13.911 3.32106 13.7538 3.60907 13.7538C4.89679 13.752 6.18513 13.7526 7.47347 13.7526Z" fill="white"/>
<path d="M7.44938 12.5678C6.16902 12.5678 4.88805 12.5665 3.6077 12.569C3.40382 12.5696 3.24601 12.5082 3.17109 12.3062C3.08573 12.0748 3.23065 11.8316 3.47936 11.7893C3.5469 11.7776 3.61691 11.7825 3.68569 11.7825C6.20832 11.7825 8.73157 11.7825 11.2542 11.7825C11.3003 11.7825 11.3463 11.7807 11.3924 11.7837C11.6263 11.8009 11.7866 11.9649 11.7842 12.181C11.7817 12.4008 11.6227 12.5598 11.3832 12.5647C11.0767 12.5715 10.7697 12.5665 10.4633 12.5672C9.45864 12.5678 8.45401 12.5678 7.44938 12.5678Z" fill="white"/>
<path d="M11.0035 6.67545C10.1063 6.67545 9.20917 6.67668 8.312 6.67484C8.00557 6.67423 7.83179 6.49311 7.86802 6.22481C7.89565 6.02281 8.05286 5.8945 8.29542 5.89265C8.74001 5.88897 9.18522 5.89143 9.62981 5.89143C10.9716 5.89143 12.314 5.89081 13.6557 5.89204C13.9388 5.89204 14.1022 6.00624 14.1341 6.2199C14.174 6.48697 13.999 6.67423 13.6956 6.67484C12.7985 6.6773 11.9013 6.67545 11.0035 6.67545Z" fill="white"/>
<path d="M11.0007 1.96905C11.8978 1.96905 12.795 1.96721 13.6922 1.97028C14.006 1.97151 14.1871 2.17166 14.1319 2.44364C14.0913 2.64257 13.9274 2.75369 13.659 2.75369C12.593 2.75492 11.5275 2.75431 10.4615 2.75431C9.74856 2.75431 9.03562 2.75615 8.32206 2.75308C8.05125 2.75185 7.88606 2.61862 7.86641 2.39883C7.84308 2.13851 8.01072 1.9709 8.30978 1.97028C9.09211 1.96721 9.87383 1.96905 10.6562 1.96905C10.7704 1.96905 10.8852 1.96905 11.0007 1.96905Z" fill="white"/>
<path d="M11.0199 7.86045C11.9091 7.86045 12.7989 7.85861 13.6881 7.86168C14.0037 7.86229 14.1849 8.05937 14.1321 8.33136C14.0934 8.53151 13.9288 8.64447 13.6623 8.64509C12.7958 8.64693 11.9294 8.6457 11.0629 8.6457C10.1584 8.6457 9.2532 8.64632 8.34867 8.64509C8.07847 8.64447 7.91451 8.53642 7.87214 8.33934C7.81503 8.07411 7.98882 7.86413 8.28296 7.86168C8.98854 7.85676 9.6935 7.85983 10.3991 7.85983C10.606 7.86045 10.813 7.86045 11.0199 7.86045Z" fill="white"/>
<path d="M11.0119 4.71349C10.1227 4.71349 9.23353 4.71472 8.34434 4.71288C8.05941 4.71226 7.89729 4.59622 7.86782 4.3838C7.83773 4.16707 7.95931 3.98718 8.17486 3.94297C8.25653 3.9264 8.3425 3.92701 8.42601 3.9264C10.143 3.92578 11.8599 3.92517 13.5775 3.92701C13.6764 3.92701 13.7796 3.92824 13.8729 3.95648C14.0547 4.01235 14.1455 4.14803 14.137 4.33959C14.1284 4.53115 14.0258 4.65455 13.8391 4.69691C13.7581 4.71533 13.6715 4.71288 13.5873 4.71288C12.7289 4.71349 11.8704 4.71349 11.0119 4.71349Z" fill="white"/>
<path d="M10.2115 10.605C9.58207 10.605 8.95326 10.6037 8.32382 10.6056C8.14329 10.6062 7.98977 10.5608 7.90195 10.3864C7.79572 10.1752 7.90072 9.9161 8.12855 9.84734C8.20776 9.8234 8.29496 9.8191 8.37848 9.8191C9.60602 9.81726 10.8336 9.81787 12.0611 9.81848C12.1219 9.81848 12.1845 9.82033 12.2441 9.83199C12.4547 9.87313 12.5855 10.0358 12.5665 10.2409C12.5468 10.4521 12.4259 10.5841 12.2134 10.5964C11.9536 10.6111 11.692 10.605 11.4311 10.6056C11.0245 10.6062 10.618 10.605 10.2115 10.605Z" fill="white"/>
<path d="M4.32417 5.00797C3.88204 4.88886 3.55473 4.45234 3.54061 3.98204C3.52526 3.45343 3.82124 3.00769 4.32417 2.84131C4.32417 3.21214 4.32417 3.57315 4.32417 3.93416C4.32417 4.29087 4.32417 4.64758 4.32417 5.00797Z" fill="#002046"/>
<path d="M5.10826 5.96021C5.58663 6.17939 5.85436 6.5097 5.88691 6.99595C5.91884 7.47423 5.70207 7.83646 5.29924 8.08942C5.18563 8.16064 5.1015 8.20668 5.10457 7.99364C5.1144 7.32749 5.10826 6.66135 5.10826 5.96021Z" fill="#002046"/>
</svg>
