<svg width="21" height="15" viewBox="0 0 21 15" fill="none" xmlns="http://www.w3.org/2000/svg">
<path d="M0.00271939 9.09912C0.0484168 7.3381 0.408284 5.65485 1.33366 4.11604C2.45324 2.24948 4.10405 1.01621 6.16614 0.260692C6.3775 0.182919 6.59456 0.116256 6.81162 0.0495927C7.26859 -0.0892889 7.71985 0.0662583 7.97119 0.444016C8.21681 0.810664 8.19396 1.27175 7.89122 1.62173C7.58847 1.97171 7.28573 2.3217 7.01726 2.6939C6.55457 3.3272 6.15472 3.99383 5.84055 4.71046C5.78343 4.83823 5.76629 4.88267 5.93766 4.92156C8.06258 5.3882 9.57631 7.24921 9.59344 9.38799C9.60487 11.5323 8.09114 13.4322 5.97193 13.9322C3.01874 14.6322 0.539663 12.6378 0.0826906 10.1102C0.0255694 9.77686 -0.00870471 9.44354 0.00271939 9.09912Z" fill="white"/>
<path d="M10.9244 9.25474C10.9586 7.60482 11.2328 6.166 11.884 4.81052C12.9008 2.70507 14.5687 1.27736 16.7565 0.388519C17.0764 0.255192 17.4077 0.149642 17.739 0.0496471C18.1902 -0.0781242 18.6301 0.0718678 18.8814 0.438516C19.1385 0.805164 19.1213 1.2607 18.8186 1.61068C18.2816 2.23287 17.7733 2.87173 17.3505 3.57169C17.1278 3.9439 16.9336 4.32721 16.7565 4.71608C16.7051 4.83274 16.6937 4.88274 16.8536 4.92162C18.83 5.43271 20.041 6.67154 20.4351 8.61588C20.9149 10.988 19.2984 13.3712 16.8764 13.9378C13.9747 14.6156 11.5527 12.7101 11.0272 10.2491C10.9472 9.86582 10.9186 9.47695 10.9244 9.25474Z" fill="white"/>
</svg>
