<svg width="37" height="38" viewBox="0 0 37 38" fill="none" xmlns="http://www.w3.org/2000/svg">
<path d="M31.7126 21.9762C31.7126 17.3954 31.7126 12.8145 31.7126 8.22265C31.7126 7.3396 32.0107 7.04156 32.9048 7.04156C33.9092 7.04156 34.9137 7.04156 35.9182 7.04156C36.6688 7.04156 36.9999 7.37271 36.9999 8.12331C36.9999 17.3843 36.9999 26.6454 36.9999 35.9064C36.9999 36.6901 36.6798 36.9992 35.8961 36.9992C34.8585 36.9992 33.832 36.9992 32.7944 36.9992C32.0328 36.9992 31.7126 36.6791 31.7126 35.9285C31.7126 31.2814 31.7126 26.6343 31.7126 21.9762Z" fill="#002046"/>
<path d="M15.8619 25.5747C15.8619 29.0186 15.8619 32.4514 15.8619 35.8954C15.8619 36.7122 15.5639 37.0102 14.7471 37.0102C13.6985 37.0102 12.6609 37.0102 11.6122 37.0102C10.9058 37.0102 10.5857 36.6791 10.5857 35.9726C10.5857 29.0406 10.5857 22.1087 10.5857 15.1767C10.5857 14.4371 10.8948 14.1281 11.6454 14.1281C12.705 14.1281 13.7647 14.1281 14.8244 14.1281C15.5639 14.1281 15.873 14.4371 15.873 15.1877C15.8619 18.6427 15.8619 22.1087 15.8619 25.5747Z" fill="#002046"/>
<path d="M5.28729 29.0848C5.28729 31.3587 5.28729 33.6215 5.28729 35.8953C5.28729 36.7122 4.98926 37.0102 4.16139 37.0102C3.13484 37.0102 2.09725 37.0102 1.0707 37.0102C0.331145 37.0102 0 36.6901 0 35.9616C0 31.3697 0 26.7778 0 22.1859C0 21.4795 0.331145 21.1594 1.03759 21.1594C2.10829 21.1594 3.179 21.1594 4.26074 21.1594C4.95614 21.1594 5.28729 21.4905 5.28729 22.208C5.28729 24.4929 5.28729 26.7888 5.28729 29.0848Z" fill="#002046"/>
<path d="M26.4255 30.873C26.4255 32.5619 26.4255 34.2507 26.4255 35.9506C26.4255 36.6791 26.1054 37.0102 25.3769 37.0102C24.3061 37.0102 23.2354 37.0102 22.1537 37.0102C21.4804 37.0102 21.1382 36.6681 21.1382 35.9947C21.1382 32.5619 21.1382 29.1179 21.1382 25.6851C21.1382 25.0228 21.4693 24.7027 22.1316 24.6916C23.2134 24.6806 24.3061 24.6806 25.3879 24.6916C26.1054 24.6916 26.4255 25.0117 26.4255 25.7292C26.4365 27.4401 26.4255 29.1511 26.4255 30.873Z" fill="#002046"/>
<path d="M7.95856 12.3288C7.24108 12.3178 6.84371 11.6114 7.17485 11.0263C7.24108 10.9049 7.34043 10.8056 7.43977 10.7062C10.8726 7.27335 14.3055 3.84048 17.7384 0.396562C18.0033 0.131645 18.2903 -0.0670423 18.6877 0.0212632C19.3058 0.153721 19.5818 0.871204 19.2175 1.37896C19.1292 1.50038 19.0188 1.59972 18.9084 1.71011C15.5197 5.09883 12.131 8.48755 8.75331 11.8652C8.52151 12.1191 8.28971 12.362 7.95856 12.3288Z" fill="#002046"/>
<path d="M12.3296 2.64838C12.3296 4.11646 11.1596 5.29754 9.69148 5.29754C8.23444 5.29754 7.03127 4.08334 7.04231 2.63734C7.05335 1.20238 8.23444 0.0212921 9.6694 0.0102539C11.1375 0.0102539 12.3186 1.1803 12.3296 2.64838Z" fill="#002046"/>
<path d="M16.7449 12.3399C15.2769 12.3399 14.1068 11.1698 14.1068 9.70173C14.1068 8.23365 15.2989 7.04153 16.756 7.05257C18.1909 7.0636 19.372 8.24469 19.3941 9.67965C19.4051 11.1367 18.213 12.3288 16.7449 12.3399Z" fill="#002046"/>
<path d="M8.81956 2.67045C8.80852 2.17373 9.2059 1.76532 9.69158 1.76532C10.1552 1.76532 10.5526 2.16269 10.5636 2.63734C10.5746 3.12302 10.1662 3.54247 9.68054 3.54247C9.21693 3.53143 8.8306 3.14509 8.81956 2.67045Z" fill="#F8F8F8"/>
<path d="M17.6058 9.70179C17.6058 10.1985 17.2085 10.5959 16.7228 10.5848C16.2482 10.5738 15.8618 10.1764 15.8618 9.71282C15.8618 9.21611 16.2592 8.82977 16.7559 8.84081C17.2416 8.84081 17.6058 9.20507 17.6058 9.70179Z" fill="#F8F8F8"/>
</svg>
