<svg width="21" height="15" viewBox="0 0 21 15" fill="none" xmlns="http://www.w3.org/2000/svg">
<path d="M20.5168 4.97706C20.4711 6.73807 20.1112 8.42132 19.1859 9.96013C18.0663 11.8267 16.4155 13.06 14.3534 13.8155C14.142 13.8933 13.925 13.9599 13.7079 14.0266C13.2509 14.1655 12.7997 14.0099 12.5483 13.6322C12.3027 13.2655 12.3256 12.8044 12.6283 12.4544C12.9311 12.1045 13.2338 11.7545 13.5023 11.3823C13.965 10.749 14.3648 10.0823 14.679 9.36571C14.7361 9.23794 14.7532 9.1935 14.5819 9.15461C12.4569 8.68797 10.9432 6.82696 10.9261 4.68818C10.9147 2.54385 12.4284 0.64395 14.5476 0.143976C17.5008 -0.555987 19.9799 1.43835 20.4368 3.966C20.494 4.29931 20.5282 4.63263 20.5168 4.97706Z" fill="white"/>
<path d="M9.59517 4.82143C9.5609 6.47135 9.28671 7.91017 8.63553 9.26565C7.61876 11.3711 5.95081 12.7988 3.76305 13.6877C3.44317 13.821 3.11186 13.9265 2.78055 14.0265C2.32929 14.1543 1.88946 14.0043 1.63812 13.6377C1.38107 13.271 1.39821 12.8155 1.70096 12.4655C2.2379 11.8433 2.74628 11.2044 3.16898 10.5045C3.39176 10.1323 3.58597 9.74896 3.76305 9.36009C3.81446 9.24343 3.82588 9.19343 3.66594 9.15455C1.68953 8.64346 0.478552 7.40464 0.0844123 5.46029C-0.39541 3.08819 1.22113 0.704973 3.64309 0.138335C6.54487 -0.539409 8.96683 1.36605 9.49235 3.82704C9.57232 4.21035 9.60088 4.59922 9.59517 4.82143Z" fill="white"/>
</svg>
