<svg width="37" height="37" viewBox="0 0 37 37" fill="none" xmlns="http://www.w3.org/2000/svg">
<path d="M36.0184 19.1352C36.0184 19.2548 36.0184 19.3674 36.0184 19.4871C35.9339 20.0642 35.9339 20.6483 35.8284 21.2254C35.4131 23.5126 34.5686 25.6309 33.3441 27.6085C32.4573 29.0441 31.3736 30.3179 30.1209 31.4439C28.0377 33.323 25.6379 34.6601 22.9285 35.4342C21.7743 35.765 20.6061 35.955 19.4097 36.0254C19.3393 36.0254 19.2689 36.0254 19.1985 36.0254C19.1422 35.9691 19.0648 35.9973 19.0015 35.9902C18.9452 35.9902 18.8889 35.9761 18.8467 36.0254C18.727 36.0254 18.6144 36.0254 18.4948 36.0254C18.3751 35.9691 18.2625 35.9691 18.1429 36.0254C18.0514 36.0254 17.9529 36.0254 17.8614 36.0254C17.7206 35.9691 17.5799 35.9691 17.4391 36.0254C17.3477 36.0254 17.2491 36.0254 17.1576 36.0254C17.1154 35.9761 17.0591 35.9902 17.0098 35.9902C16.9676 35.9902 16.9324 35.9902 16.8902 35.9902C16.8409 35.9902 16.7846 35.9832 16.7424 36.0254C16.6509 36.0254 16.5524 36.0254 16.4609 36.0254C15.349 35.948 14.2582 35.765 13.1884 35.4624C10.6127 34.7375 8.30435 33.513 6.27049 31.7677C4.8489 30.5431 3.62436 29.1497 2.6391 27.5522C1.29492 25.3705 0.422255 23.027 0.084451 20.4935C0.0422255 20.1627 0.0703759 19.8178 0 19.4871C0 19.3956 0 19.2971 0 19.2056C0.0492631 19.1633 0.0351879 19.1 0.0351879 19.0437C0.0351879 19.0015 0.0351879 18.9593 0.0351879 18.917C0.0281503 18.8467 0.0563007 18.7692 0 18.7129C0 18.2414 0 17.7769 0 17.3054C0.0633383 17.2491 0.0281503 17.1717 0.0351879 17.1013C0.0351879 17.0591 0.0351879 17.0169 0.0351879 16.9747C0.0281503 16.9184 0.0492631 16.8621 0 16.8128C0 16.7213 0 16.6228 0 16.5313C0.084451 15.9683 0.084451 15.3982 0.182977 14.8282C0.58412 12.5762 1.40752 10.486 2.59687 8.52956C3.79326 6.57311 5.31338 4.91927 7.13611 3.54694C9.62742 1.67495 12.4284 0.506706 15.5249 0.084451C15.8346 0.0422255 16.1513 0.0703759 16.4609 0C16.5524 0 16.6509 0 16.7424 0C16.7917 0.0492631 16.848 0.0351879 16.9043 0.0351879C16.9465 0.0351879 16.9887 0.0351879 17.038 0.0351879C17.0943 0.0351879 17.1576 0.0351879 17.2139 0.0351879C17.2702 0.0281503 17.3336 0.0492631 17.3758 0C17.7981 0 18.2203 0 18.6426 0C18.6918 0.0492631 18.7481 0.0351879 18.8044 0.0351879C18.8607 0.0351879 18.9241 0.0351879 18.9804 0.0351879C19.0226 0.0351879 19.0648 0.0351879 19.1141 0.0351879C19.1704 0.0281503 19.2337 0.0492631 19.2759 0C19.3252 0 19.3674 0 19.4167 0C20.0993 0.0914886 20.782 0.0914886 21.4646 0.23224C24.5753 0.858586 27.3551 2.18165 29.7479 4.25774C33.1681 7.22056 35.2442 10.9364 35.9198 15.4194C35.9761 15.8135 35.941 16.2076 36.0184 16.6017C36.0184 16.6932 36.0184 16.7917 36.0184 16.8832C35.9761 16.9254 35.9832 16.9747 35.9832 17.0239C35.9832 17.0732 35.9761 17.1224 36.0184 17.1647C36.0184 17.2351 36.0184 17.3054 36.0184 17.3758C35.9621 17.5166 35.9621 17.6573 36.0184 17.7981C36.0184 17.9388 36.0184 18.0796 36.0184 18.2203C35.9621 18.3611 35.9621 18.5018 36.0184 18.6426C36.0184 18.7129 36.0184 18.7833 36.0184 18.8537C35.9761 18.8959 35.9832 18.9452 35.9832 18.9944C35.9832 19.0437 35.9761 19.093 36.0184 19.1352Z" fill="#002046"/>
<path d="M2.25197 17.9951C2.26605 9.30364 9.3529 2.2379 18.0232 2.25197C26.7146 2.26605 33.7804 9.34586 33.7663 18.0232C33.7522 26.7076 26.6654 33.7804 17.9951 33.7663C9.30364 33.7522 2.2379 26.6654 2.25197 17.9951Z" fill="#F8F8F8"/>
<path d="M16.3131 23.9982C15.9964 24.0123 15.736 23.8856 15.5178 23.6745C13.8992 22.0558 12.2805 20.4442 10.6689 18.8256C10.2044 18.3541 10.2044 17.6644 10.6478 17.221C11.0982 16.7636 11.7879 16.7706 12.2805 17.2562C13.5543 18.5159 14.8211 19.7827 16.0808 21.0635C16.2779 21.2606 16.3764 21.2536 16.5664 21.0565C19.4166 18.1922 22.2809 15.335 25.1382 12.4707C25.3493 12.2595 25.5675 12.0695 25.8771 12.0273C26.3979 11.9499 26.8554 12.1821 27.0806 12.6255C27.3058 13.0688 27.2284 13.5685 26.8483 13.9485C26.039 14.7649 25.2226 15.5742 24.4133 16.3906C22.0276 18.7763 19.6348 21.1621 17.2491 23.5549C16.9887 23.8152 16.7072 24.0264 16.3131 23.9982Z" fill="#002046"/>
</svg>
