<svg width="24" height="22" viewBox="0 0 24 22" fill="none" xmlns="http://www.w3.org/2000/svg">
<path d="M14.9767 22C14.8084 21.8991 14.609 21.9228 14.4283 21.8812C11.1436 21.2041 9.04948 19.3212 8.26416 16.2088C7.46639 13.0607 9.1492 9.68696 12.1596 8.19015C16.4476 6.05778 21.602 8.06541 23.0979 12.443C24.4877 16.5058 21.8077 20.9309 17.4324 21.8278C17.1145 21.8931 16.778 21.8991 16.4663 22C16.4227 22 16.3728 22 16.3292 22C16.298 21.9703 16.2669 21.9703 16.2357 22C15.9241 22 15.6125 22 15.3008 22C15.2697 21.9703 15.2385 21.9703 15.2073 22C15.1325 22 15.0577 22 14.9767 22Z" fill="#002046"/>
<path d="M0.0489727 3.61403C0.165332 2.87911 0.612396 2.32791 1.18807 1.86285C2.13731 1.09348 3.26416 0.645634 4.47062 0.37578C7.15301 -0.221343 9.79253 -0.140961 12.3647 0.863814C13.1547 1.17386 13.8651 1.59873 14.4408 2.2016C15.5064 3.32121 15.488 4.67048 14.3795 5.76137C13.6201 6.51352 12.6586 6.95562 11.6237 7.26567C9.52306 7.89724 7.38573 7.97188 5.2239 7.62164C4.04193 7.43217 2.91508 7.09916 1.89235 6.50778C0.985971 5.99678 0.263319 5.3365 0.024476 4.32024C0.024476 4.3145 0.0122277 4.3145 0.00610352 4.30876C0.00610352 4.15373 0.00610352 3.99297 0.00610352 3.83795C0.061221 3.76905 -2.06567e-05 3.68293 0.0489727 3.61403Z" fill="#002046"/>
<path d="M0.00610352 6.80066C1.73924 8.24179 3.83983 8.81595 6.0874 9.03987C6.66308 9.09729 7.24487 9.12025 7.82667 9.11451C8.40234 9.10877 8.97189 9.06284 9.54144 8.99968C9.55981 9.06858 9.49244 9.09729 9.4557 9.13174C8.73917 9.83795 8.16962 10.6303 7.74705 11.526C7.70418 11.6178 7.67969 11.6982 7.53271 11.6982C5.71995 11.6638 3.96844 11.3939 2.33941 10.6131C1.62288 10.2743 0.985971 9.83795 0.51441 9.21212C0.281691 8.90207 0.10409 8.56332 0.0550969 8.1729C0.0122277 8.104 0.0673452 8.01787 0.0122277 7.94897C0.00610352 7.57577 0.00610352 7.18534 0.00610352 6.80066Z" fill="#002046"/>
<path d="M0.00612417 14.5345C0.722652 15.1317 1.52492 15.6025 2.41292 15.9412C3.58876 16.3948 4.81972 16.6532 6.0813 16.768C6.40588 16.7967 6.73659 16.814 7.06117 16.8312C7.14691 16.8369 7.21427 16.8369 7.24489 16.946C7.46536 17.7958 7.83281 18.5938 8.32275 19.3402C8.32887 19.3517 8.32887 19.369 8.32887 19.3919C8.01654 19.4436 7.70421 19.4378 7.398 19.4321C5.70773 19.3919 4.06645 19.1393 2.52316 18.4446C1.73926 18.0943 1.03498 17.6407 0.508306 16.969C0.257215 16.6474 0.128608 16.28 0 15.9068C0.00612417 15.4475 0.00612417 14.9939 0.00612417 14.5345Z" fill="#002046"/>
<path d="M0.00612417 10.6647C0.728776 11.2675 1.54329 11.7383 2.43742 12.0828C3.83373 12.6168 5.29741 12.8809 6.79783 12.9498C7.22652 12.967 7.2204 12.967 7.14078 13.3575C6.99993 14.0292 6.93256 14.701 6.9938 15.3842C6.99993 15.4704 7.01217 15.5335 6.87744 15.5278C4.85034 15.3957 2.90286 15.0168 1.24933 13.8111C0.692031 13.4034 0.263339 12.8981 0.0796142 12.2379C0.0612417 12.1747 0.0551175 12.1115 0.0428692 12.0484C3.65029e-09 11.9795 0.0551175 11.8934 0 11.8245C0.00612417 11.4398 0.00612417 11.0551 0.00612417 10.6647Z" fill="#002046"/>
<path d="M15.3131 18.5639C15.3131 18.3572 15.3559 18.139 15.3008 17.9438C15.2396 17.7428 14.964 17.7428 14.7986 17.628C14.3026 17.272 14.0209 16.8127 13.9412 16.2386C13.9229 16.1065 13.9535 16.0548 14.1127 16.0606C14.4618 16.0721 14.817 16.0663 15.1661 16.0606C15.2702 16.0606 15.3008 16.0835 15.3253 16.1811C15.4172 16.5429 15.7479 16.7553 16.0969 16.7036C16.4399 16.6519 16.6971 16.3591 16.6787 16.0376C16.6604 15.6874 16.3725 15.4405 15.9622 15.4233C14.9762 15.3831 14.1617 14.763 13.978 13.9017C13.782 12.9888 14.2413 12.1276 15.1599 11.7372C15.2763 11.6855 15.3131 11.6281 15.3069 11.519C15.3008 11.1515 15.3069 10.7898 15.3008 10.4223C15.3008 10.3018 15.3314 10.2673 15.4662 10.2673C15.8152 10.2731 16.1704 10.2731 16.5195 10.2673C16.6481 10.2616 16.6849 10.296 16.6849 10.4223C16.6787 10.7783 16.691 11.14 16.6787 11.496C16.6726 11.6281 16.7094 11.6912 16.8441 11.7486C17.5361 12.053 17.9342 12.5754 18.0444 13.2874C18.0689 13.4482 18.0322 13.5113 17.8423 13.4998C17.5055 13.4826 17.1687 13.4941 16.8318 13.4998C16.7216 13.4998 16.6849 13.4769 16.6604 13.3678C16.5685 13.0118 16.2256 12.7994 15.8765 12.8625C15.5335 12.9199 15.2824 13.2185 15.3069 13.54C15.3314 13.8788 15.6193 14.1257 16.0112 14.1429C17.0217 14.1831 17.8301 14.8032 18.0077 15.6759C18.1975 16.5945 17.7382 17.4328 16.8135 17.8347C16.7032 17.8806 16.6726 17.9323 16.6726 18.0414C16.6787 18.4146 16.6726 18.7878 16.6787 19.1553C16.6787 19.2644 16.6481 19.2988 16.5256 19.2988C16.1643 19.2931 15.8091 19.2931 15.4478 19.2988C15.3314 19.2988 15.2886 19.2701 15.2947 19.1553C15.3192 18.9486 15.3131 18.7534 15.3131 18.5639Z" fill="white"/>
</svg>
