<svg width="26" height="24" viewBox="0 0 26 24" fill="none" xmlns="http://www.w3.org/2000/svg">
<path d="M16.3381 24C16.1545 23.8898 15.9369 23.9158 15.7397 23.8704C12.1565 23.1317 9.87198 21.0776 9.01527 17.6823C8.14497 14.248 9.98077 10.5676 13.2648 8.93466C17.9427 6.60845 23.5657 8.79859 25.1975 13.5741C26.7137 18.0063 23.79 22.8337 19.017 23.8121C18.6702 23.8834 18.303 23.8898 17.9631 24C17.9155 24 17.8611 24 17.8135 24C17.7795 23.9676 17.7455 23.9676 17.7115 24C17.3716 24 17.0316 24 16.6916 24C16.6576 23.9676 16.6236 23.9676 16.5896 24C16.508 24 16.4265 24 16.3381 24Z" fill="#6C6C6C"/>
<path d="M0.0536023 3.94257C0.18054 3.14084 0.668246 2.53954 1.29625 2.0322C2.33179 1.19288 3.56108 0.704328 4.87722 0.409942C7.80346 -0.241465 10.6829 -0.153776 13.4889 0.942342C14.3508 1.28057 15.1257 1.74407 15.7537 2.40175C16.9162 3.62313 16.8962 5.09506 15.6869 6.28514C14.8585 7.10566 13.8096 7.58795 12.6805 7.92618C10.389 8.61517 8.05733 8.6966 5.69897 8.31452C4.40956 8.10782 3.18027 7.74454 2.06456 7.09939C1.07578 6.54194 0.287434 5.82163 0.0268787 4.71299C0.0268787 4.70673 0.0135168 4.70673 0.00683594 4.70046C0.00683594 4.53135 0.00683594 4.35597 0.00683594 4.18685C0.0669641 4.11169 0.000155025 4.01774 0.0536023 3.94257Z" fill="#6C6C6C"/>
<path d="M0.00683594 7.41895C1.89753 8.99109 4.18909 9.61744 6.64098 9.86172C7.26899 9.92436 7.90367 9.94941 8.53836 9.94315C9.16636 9.93688 9.78769 9.88678 10.409 9.81788C10.4291 9.89304 10.3556 9.92436 10.3155 9.96194C9.53382 10.7324 8.91249 11.5967 8.45151 12.5738C8.40474 12.674 8.37802 12.7617 8.21768 12.7617C6.24013 12.7242 4.32939 12.4298 2.55226 11.5779C1.7706 11.2084 1.07578 10.7324 0.561352 10.0496C0.307477 9.7114 0.113731 9.34185 0.0602832 8.91593C0.0135169 8.84077 0.073645 8.74681 0.0135168 8.67165C0.00683594 8.26452 0.00683594 7.8386 0.00683594 7.41895Z" fill="#6C6C6C"/>
<path d="M0.00668091 15.8555C0.788348 16.5069 1.66355 17.0205 2.63228 17.39C3.91501 17.8849 5.25788 18.1667 6.63415 18.292C6.98823 18.3233 7.349 18.3421 7.70309 18.3609C7.79662 18.3671 7.87011 18.3671 7.90352 18.4862C8.14403 19.4132 8.54489 20.2838 9.07936 21.098C9.08604 21.1106 9.08604 21.1294 9.08604 21.1544C8.74531 21.2108 8.40459 21.2045 8.07054 21.1983C6.22661 21.1544 4.43613 20.8788 2.75254 20.1209C1.89738 19.7389 1.12907 19.244 0.554516 18.5112C0.280598 18.1604 0.140299 17.7596 0 17.3525C0.00668091 16.8514 0.00668091 16.3566 0.00668091 15.8555Z" fill="#6C6C6C"/>
<path d="M0.00668091 11.6338C0.795028 12.2915 1.68359 12.8051 2.659 13.1809C4.18225 13.7634 5.77899 14.0515 7.41581 14.1267C7.88347 14.1455 7.87679 14.1455 7.78994 14.5714C7.63628 15.3042 7.56279 16.0371 7.6296 16.7824C7.63628 16.8764 7.64964 16.9453 7.50266 16.939C5.29128 16.7949 3.16675 16.3815 1.36291 15.0662C0.754943 14.6215 0.287279 14.0703 0.0868519 13.35C0.0668091 13.2811 0.0601282 13.2122 0.0467664 13.1433C3.98213e-09 13.0681 0.0601282 12.9742 0 12.899C0.00668091 12.4794 0.00668091 12.0597 0.00668091 11.6338Z" fill="#6C6C6C"/>
<path d="M16.7053 20.2517C16.7053 20.0262 16.7521 19.7882 16.692 19.5752C16.6252 19.356 16.3245 19.356 16.1441 19.2307C15.603 18.8424 15.2957 18.3413 15.2088 17.7149C15.1888 17.5709 15.2222 17.5145 15.3959 17.5208C15.7767 17.5333 16.1642 17.527 16.545 17.5208C16.6586 17.5208 16.692 17.5458 16.7187 17.6523C16.8189 18.0469 17.1797 18.2786 17.5605 18.2223C17.9346 18.1659 18.2152 17.8465 18.1952 17.4957C18.1751 17.1136 17.8611 16.8443 17.4135 16.8255C16.3379 16.7817 15.4493 16.1052 15.2489 15.1657C15.0351 14.1698 15.5362 13.2302 16.5383 12.8043C16.6652 12.7479 16.7053 12.6853 16.6986 12.5663C16.692 12.1654 16.6986 11.7708 16.692 11.37C16.692 11.2384 16.7254 11.2008 16.8723 11.2008C17.2532 11.2071 17.6407 11.2071 18.0215 11.2008C18.1618 11.1946 18.2018 11.2322 18.2018 11.37C18.1952 11.7583 18.2085 12.1529 18.1952 12.5412C18.1885 12.6853 18.2286 12.7542 18.3756 12.8168C19.1305 13.1488 19.5648 13.7188 19.685 14.4955C19.7117 14.6708 19.6717 14.7397 19.4645 14.7272C19.0971 14.7084 18.7296 14.721 18.3622 14.7272C18.2419 14.7272 18.2018 14.7022 18.1751 14.5832C18.0749 14.1948 17.7008 13.9631 17.32 14.032C16.9458 14.0946 16.6719 14.4203 16.6986 14.7711C16.7254 15.1406 17.0394 15.4099 17.4669 15.4287C18.5693 15.4726 19.4512 16.149 19.6449 17.1011C19.852 18.1033 19.351 19.0177 18.3421 19.4562C18.2219 19.5063 18.1885 19.5627 18.1885 19.6817C18.1952 20.0888 18.1885 20.4959 18.1952 20.8968C18.1952 21.0158 18.1618 21.0534 18.0281 21.0534C17.634 21.0471 17.2465 21.0471 16.8523 21.0534C16.7254 21.0534 16.6786 21.0221 16.6853 20.8968C16.712 20.6713 16.7053 20.4583 16.7053 20.2517Z" fill="#FEFEFE"/>
</svg>
