<svg width="24" height="22" viewBox="0 0 24 22" fill="none" xmlns="http://www.w3.org/2000/svg">
<path d="M14.9768 22C14.8085 21.899 14.609 21.9228 14.4283 21.8812C11.1437 21.2041 9.04951 19.3212 8.2642 16.2087C7.46642 13.0607 9.14923 9.68692 12.1596 8.1901C16.4477 6.05774 21.6021 8.06537 23.0979 12.443C24.4878 16.5057 21.8077 20.9308 17.4324 21.8277C17.1146 21.8931 16.778 21.899 16.4664 22C16.4227 22 16.3729 22 16.3292 22C16.2981 21.9703 16.2669 21.9703 16.2357 22C15.9241 22 15.6125 22 15.3009 22C15.2697 21.9703 15.2385 21.9703 15.2074 22C15.1326 22 15.0578 22 14.9768 22Z" fill="white"/>
<path d="M0.0489422 3.61403C0.165301 2.87911 0.612366 2.32791 1.18804 1.86285C2.13728 1.09348 3.26413 0.645634 4.47059 0.37578C7.15298 -0.221343 9.7925 -0.140961 12.3646 0.863814C13.1547 1.17386 13.8651 1.59873 14.4407 2.2016C15.5063 3.32121 15.488 4.67048 14.3795 5.76137C13.6201 6.51352 12.6586 6.95562 11.6236 7.26567C9.52303 7.89724 7.3857 7.97188 5.22387 7.62164C4.0419 7.43217 2.91505 7.09916 1.89232 6.50778C0.98594 5.99678 0.263288 5.3365 0.0244455 4.32024C0.0244455 4.3145 0.0121972 4.3145 0.006073 4.30876C0.006073 4.15373 0.006073 3.99297 0.006073 3.83795C0.0611905 3.76905 -5.11734e-05 3.68293 0.0489422 3.61403Z" fill="white"/>
<path d="M0.006073 6.80061C1.73921 8.24175 3.8398 8.8159 6.08737 9.03983C6.66305 9.09724 7.24484 9.12021 7.82664 9.11447C8.40231 9.10873 8.97186 9.06279 9.5414 8.99964C9.55978 9.06853 9.49241 9.09724 9.45567 9.13169C8.73914 9.83791 8.16959 10.6302 7.74702 11.5259C7.70415 11.6178 7.67966 11.6982 7.53268 11.6982C5.71992 11.6637 3.96841 11.3939 2.33938 10.613C1.62285 10.2743 0.98594 9.8379 0.514379 9.21207C0.281661 8.90203 0.10406 8.56328 0.0550664 8.17285C0.0121972 8.10395 0.0673147 8.01783 0.0121972 7.94893C0.006073 7.57573 0.006073 7.1853 0.006073 6.80061Z" fill="white"/>
<path d="M0.00612417 14.5345C0.722652 15.1316 1.52492 15.6024 2.41292 15.9412C3.58876 16.3948 4.81972 16.6531 6.0813 16.768C6.40588 16.7967 6.73659 16.8139 7.06117 16.8311C7.14691 16.8369 7.21427 16.8369 7.24489 16.946C7.46536 17.7957 7.83281 18.5938 8.32275 19.3402C8.32887 19.3517 8.32887 19.3689 8.32887 19.3919C8.01654 19.4435 7.70421 19.4378 7.398 19.4321C5.70773 19.3919 4.06645 19.1392 2.52316 18.4445C1.73926 18.0943 1.03498 17.6407 0.508306 16.9689C0.257215 16.6474 0.128608 16.2799 0 15.9067C0.00612417 15.4474 0.00612417 14.9938 0.00612417 14.5345Z" fill="white"/>
<path d="M0.00612417 10.6647C0.728776 11.2676 1.54329 11.7384 2.43742 12.0829C3.83373 12.6168 5.29741 12.881 6.79783 12.9498C7.22652 12.9671 7.2204 12.9671 7.14078 13.3575C6.99993 14.0293 6.93256 14.701 6.9938 15.3843C6.99993 15.4704 7.01217 15.5336 6.87744 15.5278C4.85034 15.3958 2.90286 15.0168 1.24933 13.8111C0.692031 13.4034 0.263339 12.8982 0.0796142 12.2379C0.0612417 12.1747 0.0551175 12.1116 0.0428692 12.0484C3.65029e-09 11.9795 0.0551175 11.8934 0 11.8245C0.00612417 11.4398 0.00612417 11.0551 0.00612417 10.6647Z" fill="white"/>
<path d="M15.313 18.5638C15.313 18.3571 15.3559 18.139 15.3008 17.9437C15.2395 17.7428 14.9639 17.7428 14.7986 17.628C14.3025 17.272 14.0208 16.8127 13.9412 16.2385C13.9228 16.1064 13.9535 16.0548 14.1127 16.0605C14.4618 16.072 14.817 16.0662 15.166 16.0605C15.2702 16.0605 15.3008 16.0835 15.3253 16.1811C15.4171 16.5428 15.7478 16.7552 16.0969 16.7036C16.4399 16.6519 16.6971 16.3591 16.6787 16.0375C16.6603 15.6873 16.3725 15.4404 15.9622 15.4232C14.9762 15.383 14.1617 14.7629 13.978 13.9017C13.782 12.9888 14.2413 12.1275 15.1599 11.7371C15.2763 11.6854 15.313 11.628 15.3069 11.5189C15.3008 11.1515 15.3069 10.7897 15.3008 10.4223C15.3008 10.3017 15.3314 10.2673 15.4661 10.2673C15.8152 10.273 16.1704 10.273 16.5195 10.2673C16.6481 10.2615 16.6848 10.296 16.6848 10.4223C16.6787 10.7783 16.691 11.14 16.6787 11.496C16.6726 11.628 16.7093 11.6912 16.8441 11.7486C17.5361 12.0529 17.9342 12.5754 18.0444 13.2873C18.0689 13.4481 18.0322 13.5112 17.8423 13.4998C17.5055 13.4825 17.1686 13.494 16.8318 13.4998C16.7216 13.4998 16.6848 13.4768 16.6603 13.3677C16.5685 13.0117 16.2255 12.7993 15.8764 12.8625C15.5335 12.9199 15.2824 13.2184 15.3069 13.54C15.3314 13.8787 15.6192 14.1256 16.0112 14.1428C17.0217 14.183 17.8301 14.8031 18.0077 15.6758C18.1975 16.5945 17.7382 17.4327 16.8134 17.8347C16.7032 17.8806 16.6726 17.9323 16.6726 18.0413C16.6787 18.4146 16.6726 18.7878 16.6787 19.1552C16.6787 19.2643 16.6481 19.2988 16.5256 19.2988C16.1643 19.293 15.8091 19.293 15.4478 19.2988C15.3314 19.2988 15.2885 19.27 15.2947 19.1552C15.3191 18.9485 15.313 18.7533 15.313 18.5638Z" fill="#002046"/>
</svg>
