<svg width="18" height="18" viewBox="0 0 18 18" fill="none" xmlns="http://www.w3.org/2000/svg">
<g clip-path="url(#clip0_1_17028)">
<path d="M0 10.0549V7.94467C0.0867527 7.33131 0.579131 7.04432 1.03916 6.9918C1.42884 6.94772 1.81618 6.88629 2.20633 6.84596C2.25329 6.84571 2.29889 6.83021 2.33628 6.80179C2.37366 6.77337 2.40079 6.73358 2.4136 6.6884C2.49415 6.44355 2.59306 6.20512 2.7095 5.97515C2.76389 5.86871 2.72919 5.78524 2.6626 5.7013C2.42814 5.40071 2.19367 5.09966 1.9592 4.80048C1.69519 4.46566 1.60656 4.09708 1.71958 3.67832C1.77063 3.50329 1.86781 3.34521 2.00094 3.22064C2.39484 2.82814 2.80235 2.44737 3.17749 2.03705C3.56671 1.61126 4.25604 1.55124 4.74232 1.91888C5.0551 2.15335 5.366 2.39485 5.67081 2.64151C5.7932 2.74045 5.89824 2.75358 6.03705 2.67949C6.22948 2.57828 6.43148 2.49644 6.6401 2.43518C6.77327 2.39532 6.83658 2.32076 6.85205 2.17398C6.89238 1.79555 6.94068 1.41853 6.99273 1.04151C7.05088 0.619466 7.23846 0.291213 7.62908 0.0909789C7.73084 0.0393963 7.8401 0.0309548 7.94561 0.00234985H10.0197C10.6232 0.115363 10.9257 0.437989 11.0101 1.05933C11.0607 1.4301 11.1076 1.80165 11.1508 2.17398C11.1653 2.30153 11.2127 2.37844 11.3327 2.42064C11.5722 2.49879 11.805 2.59634 12.0286 2.71232C12.1341 2.76953 12.2162 2.72967 12.302 2.66542C12.6068 2.42877 12.9116 2.19149 13.2164 1.95358C13.548 1.69614 13.9156 1.61454 14.324 1.72568C14.4987 1.77727 14.6565 1.87437 14.7812 2.00704C15.1737 2.40094 15.5545 2.80845 15.9644 3.18359C16.3864 3.56953 16.4544 4.25698 16.0811 4.74702C15.8439 5.05886 15.6033 5.36929 15.3576 5.67457C15.2605 5.79555 15.2464 5.90294 15.3215 6.04221C15.426 6.23872 15.5109 6.44513 15.5747 6.65839C15.5872 6.71247 15.6175 6.76082 15.6606 6.79574C15.7038 6.83066 15.7574 6.85015 15.8129 6.85112C16.1909 6.89333 16.5679 6.9421 16.9449 6.9918C17.3083 7.0387 17.6164 7.18172 17.8359 7.49309C17.9405 7.64221 17.9737 7.81009 18.0038 7.98219V8.01548C17.9705 8.06941 17.9864 8.12943 17.9864 8.18618C17.9864 8.72889 17.9864 9.27129 17.9864 9.81338C17.9864 9.87012 17.9705 9.93014 18.0038 9.98407V10.0544C17.8673 10.6359 17.5442 10.9285 16.9458 11.0096C16.5707 11.0607 16.1923 11.1095 15.8143 11.1503C15.7588 11.1516 15.7052 11.1713 15.6622 11.2065C15.6192 11.2417 15.5893 11.2902 15.577 11.3444C15.5069 11.5679 15.417 11.7846 15.3083 11.992C15.279 12.0393 15.2661 12.095 15.2716 12.1503C15.2771 12.2057 15.3007 12.2577 15.3388 12.2983C15.5606 12.5796 15.7759 12.861 15.9986 13.1423C16.2007 13.3956 16.3405 13.6694 16.3269 14.0075C16.3233 14.2918 16.2093 14.5636 16.0089 14.7653C15.6145 15.1653 15.2005 15.5475 14.822 15.962C14.4436 16.3766 13.7477 16.4563 13.2567 16.0811C12.9491 15.8467 12.6429 15.6122 12.3433 15.3679C12.2129 15.2619 12.0957 15.2389 11.9461 15.328C11.7585 15.4396 11.5517 15.5053 11.3468 15.5766C11.2234 15.6192 11.1639 15.6915 11.1489 15.8298C11.1086 16.2021 11.0603 16.5735 11.0082 16.9444C10.9613 17.3074 10.8183 17.6155 10.5069 17.8354C10.3578 17.94 10.1899 17.9733 10.0178 18.0033H7.94561C7.34959 17.8626 7.06917 17.548 6.98805 16.928C6.93834 16.5454 6.88769 16.1623 6.84737 15.7782C6.84584 15.7348 6.83025 15.693 6.80293 15.6591C6.77562 15.6253 6.73806 15.6013 6.6959 15.5906C6.45056 15.5113 6.21177 15.413 5.98171 15.2966C5.86729 15.2371 5.78289 15.2807 5.69426 15.3501C5.38601 15.593 5.07589 15.8332 4.76389 16.0708C4.54753 16.2457 4.27577 16.3375 3.99766 16.3297C3.7131 16.3276 3.44064 16.2143 3.23845 16.0141C2.83798 15.6192 2.4558 15.2047 2.0408 14.8263C1.61032 14.4328 1.55217 13.7323 1.9306 13.2478C2.16506 12.9477 2.39297 12.6424 2.634 12.348C2.74045 12.2181 2.76061 12.1027 2.6762 11.9508C2.57466 11.764 2.49383 11.5666 2.43517 11.3623C2.39531 11.23 2.32169 11.1644 2.17444 11.1489C1.79648 11.1086 1.41899 11.0598 1.04197 11.0082C0.684641 10.9613 0.385463 10.815 0.170223 10.5097C0.072216 10.3705 0.0356389 10.2138 0 10.0549Z" fill="white"/>
<path d="M8.88956 12.7517C6.78686 12.6579 5.15122 10.9107 5.25157 8.86941C5.3538 6.78406 7.0912 5.15874 9.11933 5.25206C11.2126 5.34584 12.8389 7.09215 12.7517 9.12497C12.7145 10.116 12.2882 11.0525 11.5653 11.7313C10.8423 12.4102 9.88097 12.7768 8.88956 12.7517Z" fill="#002046"/>
</g>
<defs>
<clipPath id="clip0_1_17028">
<rect width="18" height="18" fill="white"/>
</clipPath>
</defs>
</svg>
