<svg width="47" height="37" viewBox="0 0 47 37" fill="none" xmlns="http://www.w3.org/2000/svg">
<path d="M28.2178 2.30342C26.0487 2.43108 24.0367 2.95769 22.1347 3.89921C21.9147 4.01091 21.6946 4.15453 21.4274 4.15453C20.9558 4.13857 20.6415 3.89921 20.5157 3.46834C20.3742 2.95769 20.5786 2.57471 21.0344 2.33534C22.3391 1.64915 23.7066 1.12254 25.1527 0.819343C31.4716 -0.489199 37.0517 1.05871 41.7202 5.57478C44.581 8.35144 46.2472 11.8303 46.7973 15.8197C47.6147 21.756 45.9642 26.9264 41.8774 31.235C39.1738 34.0755 35.81 35.751 31.9746 36.3894C28.2178 37.0117 24.6183 36.4372 21.1916 34.7297C20.3742 34.3148 20.2171 33.4531 20.8772 32.9903C21.2702 32.7191 21.6474 32.8308 22.0404 33.0223C23.8481 33.9319 25.75 34.4744 27.762 34.65C28.1864 34.6819 28.2493 34.5542 28.2336 34.1872C28.2178 33.7244 28.2178 33.2776 28.2336 32.8148C28.265 32.2403 28.6423 31.8573 29.161 31.8573C29.6797 31.8573 30.0726 32.2403 30.1041 32.7988C30.1198 33.2935 30.1198 33.7882 30.1041 34.2829C30.0884 34.5542 30.1355 34.6659 30.4499 34.634C33.8451 34.3308 36.8474 33.0701 39.4881 30.8839C39.7553 30.6605 39.7553 30.5328 39.5038 30.3094C39.158 29.9903 38.8279 29.6552 38.4978 29.3041C38.1206 28.8732 38.1049 28.3466 38.4664 27.9636C38.8279 27.5647 39.3938 27.5647 39.8339 27.9636C40.164 28.2668 40.4941 28.586 40.7928 28.937C41.0443 29.2402 41.2015 29.2243 41.4372 28.9211C43.0091 26.9902 44.0937 24.8199 44.691 22.3784C44.8953 21.5486 45.0211 20.7028 45.0997 19.857C45.1311 19.49 45.0211 19.4262 44.7067 19.4421C44.2509 19.4741 43.8108 19.4581 43.3549 19.4421C42.7576 19.4262 42.3646 19.0272 42.3646 18.4847C42.3646 17.9421 42.7576 17.5591 43.3549 17.5272C43.6536 17.5112 43.9365 17.5272 44.2352 17.5272C45.1468 17.5272 45.1626 17.5272 45.0525 16.5697C44.6596 13.3941 43.4807 10.5696 41.4844 8.08016C41.2329 7.77696 41.0914 7.66526 40.7928 8.03229C40.5098 8.38336 40.1797 8.70251 39.8339 9.00571C39.4095 9.3887 38.8908 9.3887 38.5136 9.03763C38.1206 8.65464 38.1206 8.09612 38.5136 7.6493C38.8279 7.29822 39.158 6.94715 39.5196 6.64395C39.7711 6.42054 39.7553 6.29288 39.5038 6.06947C37.5862 4.44177 35.4013 3.32472 32.9649 2.73428C32.1632 2.54279 31.3616 2.41513 30.5285 2.33534C30.167 2.30342 30.1041 2.41513 30.1198 2.73428C30.1355 3.19706 30.1355 3.64388 30.1198 4.10666C30.1041 4.71306 29.7111 5.112 29.1767 5.112C28.6423 5.112 28.265 4.71306 28.2493 4.10666C28.2178 3.51622 28.2178 2.90982 28.2178 2.30342Z" fill="#002046"/>
<path d="M29.0824 22.2027C28.6737 22.2187 28.1707 22.1548 27.7306 21.9314C27.3533 21.7399 27.1175 21.8516 26.8818 22.1389C26.7403 22.3144 26.5988 22.474 26.4259 22.5857C26.0172 22.8889 25.5771 22.8889 25.1999 22.5219C24.8383 22.1868 24.744 21.5644 25.137 21.2452C25.7814 20.7186 25.7815 20.208 25.5457 19.442C25.137 18.0537 25.4356 16.7292 26.5359 15.7398C27.6834 14.7025 29.0509 14.4791 30.4813 14.9898C30.9529 15.1653 31.2044 15.0536 31.5345 14.7185C32.9177 13.2823 34.3324 11.878 35.7156 10.4577C36.0929 10.0748 36.5173 9.9471 36.9889 10.2503C37.3818 10.5056 37.4919 10.9046 37.3661 11.3514C37.3032 11.6067 37.0989 11.7822 36.9103 11.9578C35.527 13.3621 34.1438 14.7823 32.7448 16.1707C32.509 16.41 32.4619 16.5856 32.6034 16.9207C33.7194 19.5697 31.9746 22.2027 29.0824 22.2027Z" fill="#002046"/>
<path d="M10.4086 17.5437C13.3794 17.5437 16.3659 17.5437 19.3368 17.5437C19.5097 17.5437 19.6983 17.5278 19.8712 17.5597C20.3742 17.6554 20.6886 17.9746 20.6886 18.4852C20.6886 19.0118 20.3899 19.331 19.8869 19.4267C19.714 19.4587 19.5411 19.4427 19.3525 19.4427C13.3479 19.4427 7.3277 19.4427 1.32317 19.4427C1.16599 19.4427 1.0088 19.4587 0.851614 19.4267C0.348617 19.3629 -0.0286306 18.948 0.00280668 18.4533C0.034244 17.9267 0.332898 17.6235 0.835895 17.5278C1.0088 17.4958 1.18171 17.5118 1.37033 17.5118C4.37259 17.5437 7.39057 17.5437 10.4086 17.5437Z" fill="#002046"/>
<path d="M13.7566 13.7132C11.446 13.7132 9.13536 13.7132 6.82471 13.7132C6.52606 13.7132 6.2274 13.6973 5.99162 13.4898C5.69297 13.2345 5.56722 12.9154 5.66153 12.5324C5.77156 12.1175 6.0545 11.8302 6.49462 11.8143C6.91903 11.7823 7.35915 11.7983 7.78355 11.7983C12.0276 11.7983 16.2873 11.7983 20.5314 11.7983C20.6886 11.7983 20.8458 11.7983 21.0029 11.7983C21.5531 11.8302 21.9461 12.2292 21.9618 12.7398C21.9775 13.2664 21.5688 13.6973 20.9872 13.7132C19.9026 13.7292 18.8338 13.7132 17.7492 13.7132C16.4288 13.7132 15.0927 13.7132 13.7566 13.7132Z" fill="#002046"/>
<path d="M13.8196 23.2725C16.1774 23.2725 18.5194 23.2725 20.8772 23.2725C21.3016 23.2725 21.6474 23.4001 21.8675 23.7831C22.0404 24.1023 22.0247 24.4374 21.8361 24.7406C21.6317 25.0598 21.3174 25.1874 20.9244 25.1874C16.1774 25.1874 11.446 25.1874 6.699 25.1874C6.05454 25.1874 5.64585 24.7885 5.66157 24.2299C5.66157 23.6714 6.07026 23.2884 6.71472 23.2884C9.07252 23.2725 11.446 23.2725 13.8196 23.2725Z" fill="#002046"/>
<path d="M17.2776 7.98492C15.6743 7.98492 14.071 7.98492 12.4677 7.98492C11.7289 7.98492 11.3045 7.63385 11.2888 7.04341C11.2888 6.43701 11.7132 6.08594 12.452 6.08594C15.6743 6.08594 18.9124 6.08594 22.1347 6.08594C22.8892 6.08594 23.2979 6.42105 23.2979 7.02745C23.2979 7.64981 22.9049 7.98492 22.1504 7.98492C20.5314 7.98492 18.9124 7.98492 17.2776 7.98492Z" fill="#002046"/>
<path d="M17.3404 29.0005C18.9437 29.0005 20.547 29.0005 22.1503 29.0005C22.8891 29.0005 23.2978 29.3516 23.2978 29.9739C23.2821 30.5644 22.9048 30.9154 22.1818 30.9154C18.928 30.9154 15.69 30.9154 12.4362 30.9154C11.6974 30.9154 11.273 30.5484 11.2888 29.942C11.3045 29.3516 11.7289 29.0005 12.4677 29.0005C14.1024 29.0005 15.7214 29.0005 17.3404 29.0005Z" fill="#002046"/>
<path d="M29.1766 20.3039C28.0292 20.3039 27.2747 19.6017 27.2747 18.5006C27.2747 17.3995 28.0134 16.6974 29.1609 16.6974C30.2769 16.6974 31.0157 17.3995 31.0314 18.4687C31.0629 19.5698 30.3241 20.2879 29.1766 20.3039Z" fill="#FEFEFE"/>
</svg>
