<svg width="37" height="37" viewBox="0 0 37 37" fill="none" xmlns="http://www.w3.org/2000/svg">
<path d="M0 13.5604C0.260063 12.944 0.732028 12.7224 1.39663 12.7417C2.38872 12.7802 3.39045 12.7417 4.38254 12.7609C4.6137 12.7609 4.67149 12.6935 4.70039 12.4624C5.39389 7.10699 8.18716 3.25421 13.1476 1.09666C20.0537 -1.91814 28.3372 1.52046 31.1979 8.50362C31.7276 9.78467 32.0648 11.1139 32.1996 12.5009C32.2189 12.732 32.2959 12.7706 32.5078 12.7706C33.5673 12.7609 34.6172 12.7609 35.6767 12.7706C36.4762 12.7706 36.9 13.1944 36.9 13.9842C36.9 17.7503 36.9 21.526 36.9 25.2921C36.9 26.0627 36.4762 26.4961 35.696 26.4961C34.6269 26.5057 33.5577 26.5057 32.4886 26.4865C32.2478 26.4865 32.1803 26.5732 32.1514 26.7851C31.4965 30.7053 28.7514 33.5852 24.8697 34.4232C23.9258 34.6255 22.9626 34.6255 21.9994 34.5966C21.7489 34.5869 21.643 34.6736 21.5274 34.9048C21.0265 35.9739 20.2078 36.6482 19.0231 36.8504C18.9075 36.9275 18.763 36.8312 18.6571 36.9179C18.397 36.9179 18.1273 36.9179 17.8673 36.9179C17.7324 36.783 17.5398 36.8023 17.376 36.7445C15.8927 36.2436 14.9584 34.8374 15.0644 33.2288C15.1607 31.7262 16.3454 30.4452 17.9058 30.1659C19.3795 29.9058 20.911 30.7053 21.5274 32.1115C21.643 32.3812 21.7778 32.4486 22.0572 32.4486C23.2515 32.4583 24.4266 32.4198 25.5632 31.9863C28.2505 30.9557 30.0709 28.4514 30.0998 25.5714C30.1384 21.5742 30.1769 17.5673 30.0902 13.57C29.9746 7.93534 25.9485 3.33127 20.4101 2.33918C14.1975 1.22187 8.02341 5.56588 6.98316 11.7689C6.85795 12.5394 6.79052 13.3196 6.79052 14.0998C6.79052 17.7985 6.79052 21.4971 6.79052 25.1958C6.79052 26.1012 6.40525 26.4865 5.49984 26.4865C4.13211 26.4865 2.76437 26.4672 1.39663 26.4961C0.722396 26.5154 0.260063 26.2938 0 25.6678C0 21.632 0 17.5962 0 13.5604Z" fill="#002046"/>
<path d="M11.9052 23.1633C13.2344 23.1633 14.5636 23.1633 15.8929 23.1633C16.0566 23.1633 16.23 23.1729 16.3937 23.2114C16.9042 23.3366 17.2606 23.8279 17.2124 24.3287C17.1643 24.8681 16.7405 25.3112 16.2011 25.3112C14.2362 25.3208 12.2616 25.3305 10.2967 25.3112C9.68988 25.3112 9.26608 24.82 9.27571 24.1939C9.29497 23.1055 9.70914 22.1904 10.4701 21.4295C11.9149 19.9847 13.35 18.5399 14.8044 17.1048C15.0356 16.8832 15.0838 16.6713 15.0163 16.3728C14.8141 15.4385 14.0435 14.8509 13.0803 14.9183C12.2135 14.9665 11.5296 15.6696 11.4333 16.5847C11.414 16.7484 11.4044 16.9218 11.3562 17.0759C11.2021 17.5575 10.6723 17.8657 10.1907 17.7886C9.65135 17.702 9.27571 17.2589 9.26607 16.7099C9.23718 14.8702 10.6049 13.1846 12.435 12.8282C14.8719 12.3466 17.0968 14.1189 17.2221 16.6039C17.2606 17.3648 17.0583 17.9428 16.49 18.4821C15.0163 19.8884 13.5908 21.3525 12.146 22.7973C12.0497 22.8936 11.9341 22.9514 11.8378 23.0381C11.8571 23.0862 11.886 23.1247 11.9052 23.1633Z" fill="#002046"/>
<path d="M27.0562 16.6233C27.0562 17.5479 27.0562 18.4726 27.0562 19.3973C27.0562 19.5899 27.0754 19.6766 27.3066 19.7247C27.8749 19.8211 28.2313 20.2738 28.2216 20.8035C28.212 21.3429 27.8556 21.7571 27.2681 21.8438C27.0466 21.8727 27.0658 21.9882 27.0658 22.1327C27.0658 22.8648 27.0754 23.5968 27.0562 24.3288C27.0369 24.8393 26.6516 25.2438 26.17 25.3209C25.6596 25.398 25.1683 25.1186 24.9853 24.6467C24.9179 24.4637 24.9083 24.271 24.9083 24.0784C24.9083 23.433 24.8986 22.7781 24.9179 22.1327C24.9275 21.9016 24.8505 21.8534 24.6386 21.8534C23.213 21.863 21.7779 21.863 20.3523 21.8534C19.5336 21.8534 19.0809 21.3814 19.1387 20.5627C19.2061 19.5514 19.6107 18.6941 20.3235 17.9717C21.932 16.3632 23.5502 14.745 25.1587 13.1365C25.5151 12.7801 25.9292 12.6453 26.4012 12.8379C26.8828 13.0305 27.0754 13.4158 27.0754 13.9167C27.0466 14.8221 27.0562 15.7275 27.0562 16.6233Z" fill="#002046"/>
<path d="M2.15758 19.5808C2.15758 18.1264 2.16721 16.672 2.14795 15.2272C2.14795 14.9671 2.21537 14.9093 2.4658 14.919C3.09188 14.9382 3.71796 14.9286 4.3344 14.919C4.5463 14.919 4.62336 14.9479 4.62336 15.1887C4.61373 18.1553 4.61373 21.1123 4.62336 24.0789C4.62336 24.2908 4.55594 24.339 4.3633 24.3294C3.71796 24.3197 3.06298 24.3101 2.41764 24.3294C2.17685 24.339 2.14795 24.2427 2.15758 24.0404C2.16721 22.5571 2.15758 21.0641 2.15758 19.5808Z" fill="#F8F8F8"/>
<path d="M32.2767 19.6192C32.2767 18.1551 32.2864 16.6911 32.2671 15.227C32.2671 14.967 32.3345 14.9092 32.5849 14.9092C33.211 14.9284 33.8371 14.9188 34.4535 14.9092C34.6558 14.9092 34.7425 14.9381 34.7425 15.1789C34.7329 18.1455 34.7329 21.1025 34.7425 24.0692C34.7425 24.2714 34.6943 24.3292 34.4824 24.3292C33.8371 24.3196 33.1821 24.31 32.5368 24.3292C32.3056 24.3389 32.2671 24.2522 32.2671 24.0403C32.2767 22.5666 32.2767 21.0929 32.2767 19.6192Z" fill="#F8F8F8"/>
<path d="M18.4546 34.7511C17.7707 34.7511 17.2217 34.202 17.2217 33.5278C17.2217 32.8343 17.7514 32.2949 18.4449 32.2949C19.1384 32.2949 19.6778 32.8247 19.6778 33.5182C19.6778 34.1924 19.1384 34.7511 18.4546 34.7511Z" fill="#F8F8F8"/>
<path d="M21.7007 19.6955C22.7698 18.6264 23.8101 17.5958 24.86 16.5459C24.9178 16.5652 24.8792 16.6518 24.8792 16.7096C24.8792 17.615 24.8792 18.5301 24.8889 19.4355C24.8889 19.6281 24.8503 19.7052 24.6384 19.7052C23.6752 19.6859 22.7024 19.6955 21.7007 19.6955Z" fill="#F8F8F8"/>
</svg>
