<svg width="20" height="21" viewBox="0 0 20 21" fill="none" xmlns="http://www.w3.org/2000/svg">
<g clip-path="url(#clip0_1_16560)">
<path d="M2.17613 0H13.4812C14.0804 0.0262603 14.577 0.280656 14.9818 0.713951C15.4459 1.21166 15.6956 1.80498 15.696 2.4939C15.696 4.76432 15.696 7.03378 15.696 9.30229C15.696 9.33634 15.696 9.37081 15.696 9.40487C15.6875 9.64039 15.6676 9.66091 15.4353 9.65967C14.8593 9.6568 14.2862 9.65188 13.7155 9.77005C11.0777 10.3154 9.07194 12.5282 8.79372 15.2318C8.65307 16.5119 8.91383 17.8043 9.53931 18.9271C9.55681 18.9563 9.57283 18.9865 9.58731 19.0174C9.65646 19.1778 9.62798 19.2295 9.46162 19.2508C9.40091 19.2565 9.33991 19.2583 9.27898 19.2562C7.00112 19.2562 4.72435 19.2562 2.44866 19.2562C1.15435 19.2562 0.00809445 18.1134 0.00443361 16.8066C-0.00180339 12.0149 -0.00180339 7.22308 0.00443361 2.43113C0.00443361 1.38892 0.703656 0.429601 1.68069 0.085756C1.84136 0.0283117 2.01342 0.0455451 2.17613 0Z" fill="#002046"/>
<path d="M14.3354 21.0005C14.2732 20.9184 14.1768 20.9414 14.097 20.9282C11.9591 20.577 10.2462 18.818 9.93792 16.6523C9.54011 13.8573 11.3905 11.2956 14.1402 10.8361C16.909 10.3728 19.5769 12.3543 19.9532 15.1522C20.3327 17.9744 18.4604 20.5114 15.6773 20.9508C15.596 20.9639 15.502 20.9241 15.4333 21.0005H14.6197C14.6148 20.9944 14.6086 20.9895 14.6016 20.9861C14.5945 20.9827 14.5868 20.981 14.5791 20.981C14.5713 20.981 14.5636 20.9827 14.5565 20.9861C14.5495 20.9895 14.5433 20.9944 14.5384 21.0005H14.3354Z" fill="#002046"/>
<path d="M5.0003 11.4334C5.58929 11.4334 6.1799 11.4334 6.76645 11.4334C7.15653 11.4334 7.42011 11.6739 7.42784 12.0263C7.43598 12.3899 7.1724 12.6594 6.7811 12.6611C5.59715 12.6666 4.41294 12.6666 3.22845 12.6611C2.83714 12.6611 2.57112 12.3919 2.57763 12.0304C2.58333 11.6759 2.84609 11.4347 3.23455 11.433C3.82313 11.4314 4.41049 11.4334 5.0003 11.4334Z" fill="white"/>
<path d="M5.00482 13.9352C5.5869 13.9352 6.16857 13.9352 6.75064 13.9352C7.1574 13.9352 7.4222 14.1715 7.4283 14.533C7.4344 14.9023 7.16431 15.1632 6.75633 15.1641C5.59245 15.1673 4.42858 15.1673 3.2647 15.1641C2.85184 15.1641 2.57849 14.9146 2.57727 14.5486C2.57605 14.1826 2.84533 13.9356 3.25901 13.9331C3.84122 13.9337 4.42315 13.9343 5.00482 13.9352Z" fill="white"/>
<path d="M4.99743 4.05018C5.58601 4.05018 6.17703 4.05018 6.76358 4.05018C7.15488 4.05018 7.41847 4.28735 7.42782 4.6394C7.43758 5.00294 7.17563 5.27539 6.78392 5.27744C5.5997 5.28346 4.41563 5.28346 3.23168 5.27744C2.83713 5.27539 2.57273 5.01073 2.5772 4.64924C2.58168 4.28776 2.8477 4.05018 3.25161 4.04895C3.83437 4.04895 4.4163 4.04936 4.99743 4.05018Z" fill="white"/>
<path d="M4.995 6.51136C5.58358 6.51136 6.17461 6.51136 6.76116 6.51136C7.16141 6.51136 7.42743 6.75755 7.42824 7.11904C7.42906 7.48052 7.16222 7.73861 6.76604 7.73984C5.58887 7.74449 4.41157 7.74449 3.23414 7.73984C2.83958 7.73984 2.57356 7.47519 2.57681 7.11411C2.58007 6.75303 2.8469 6.51259 3.24919 6.51136C3.8314 6.51054 4.41334 6.51054 4.995 6.51136Z" fill="white"/>
<path d="M5.01207 8.97235C5.59414 8.97235 6.17622 8.97235 6.75789 8.97235C7.16017 8.97235 7.42579 9.21526 7.42823 9.57716C7.43067 9.93906 7.16424 10.1992 6.76927 10.2008C5.59157 10.2049 4.41413 10.2049 3.23697 10.2008C2.842 10.2008 2.57476 9.93865 2.57679 9.57798C2.57883 9.21731 2.84526 8.97358 3.24632 8.97235C3.8349 8.97112 4.42349 8.97235 5.01207 8.97235Z" fill="white"/>
<path d="M10.6885 4.05025C11.2771 4.05025 11.8657 4.05025 12.4547 4.05025C12.8439 4.05025 13.1087 4.28988 13.1173 4.64152C13.1258 5.00342 12.8622 5.27587 12.4709 5.27751C11.2867 5.28353 10.1026 5.28353 8.91869 5.27751C8.52535 5.27751 8.26014 5.00916 8.26584 4.64767C8.27112 4.2948 8.53592 4.05107 8.92235 4.04984C9.51093 4.04902 10.0999 4.05025 10.6885 4.05025Z" fill="white"/>
<path d="M10.6929 6.51129C11.2819 6.51129 11.8705 6.51129 12.459 6.51129C12.8471 6.51129 13.1099 6.7542 13.1172 7.10748C13.1237 7.46774 12.8573 7.73731 12.4664 7.73895C11.2824 7.74415 10.0983 7.74415 8.91413 7.73895C8.5216 7.73895 8.25843 7.46774 8.26616 7.10502C8.27389 6.75297 8.53909 6.51252 8.92755 6.51129C9.51573 6.51006 10.1051 6.51129 10.6929 6.51129Z" fill="white"/>
<path d="M9.76342 8.97235C10.0412 8.97235 10.3186 8.96947 10.5961 8.97235C10.9621 8.97686 11.229 9.22797 11.2363 9.57223C11.2377 9.65295 11.2233 9.73316 11.1938 9.80824C11.1644 9.88331 11.1205 9.95178 11.0648 10.0097C11.009 10.0676 10.9425 10.1139 10.8689 10.1457C10.7954 10.1776 10.7164 10.1945 10.6363 10.1955C10.0412 10.2107 9.44493 10.2119 8.84984 10.1955C8.49514 10.1852 8.25678 9.90376 8.26614 9.56279C8.27549 9.22182 8.53256 8.9785 8.89011 8.97317C9.18135 8.96906 9.47259 8.97235 9.76342 8.97235Z" fill="white"/>
<path d="M14.7268 17.7186C14.5714 17.7196 14.4202 17.668 14.2972 17.5722C13.8433 17.2394 13.3873 16.9091 12.935 16.5739C12.6238 16.3433 12.5555 15.9625 12.767 15.6786C12.9785 15.3946 13.3405 15.3581 13.6513 15.5805C13.9157 15.7701 14.1829 15.9572 14.4372 16.1599C14.5592 16.2579 14.6149 16.23 14.7036 16.116C15.1677 15.5202 15.6391 14.931 16.1122 14.3417C16.3668 14.0242 16.7443 13.9675 17.0189 14.1985C17.2934 14.4296 17.3081 14.7997 17.0595 15.1103C16.4423 15.8888 15.8246 16.6665 15.2063 17.4433C15.0737 17.6132 14.9094 17.7158 14.7268 17.7186Z" fill="white"/>
</g>
<defs>
<clipPath id="clip0_1_16560">
<rect width="20" height="21" fill="white"/>
</clipPath>
</defs>
</svg>
