<svg width="20" height="21" viewBox="0 0 20 21" fill="none" xmlns="http://www.w3.org/2000/svg">
<g clip-path="url(#clip0_1_16986)">
<path d="M2.17607 0H13.4812C14.0803 0.0262603 14.577 0.280656 14.9817 0.713951C15.4458 1.21166 15.6956 1.80498 15.696 2.4939C15.696 4.76432 15.696 7.03378 15.696 9.30229C15.696 9.33634 15.696 9.37081 15.696 9.40487C15.6874 9.64039 15.6675 9.66091 15.4352 9.65967C14.8593 9.6568 14.2861 9.65188 13.7155 9.77005C11.0776 10.3154 9.07188 12.5282 8.79365 15.2318C8.65301 16.5119 8.91377 17.8043 9.53925 18.9271C9.55675 18.9563 9.57277 18.9865 9.58724 19.0174C9.65639 19.1778 9.62792 19.2295 9.46155 19.2508C9.40085 19.2565 9.33985 19.2583 9.27892 19.2562C7.00106 19.2562 4.72429 19.2562 2.4486 19.2562C1.15429 19.2562 0.00803341 18.1134 0.00437257 16.8066C-0.00186442 12.0149 -0.00186442 7.22308 0.00437257 2.43113C0.00437257 1.38892 0.703595 0.429601 1.68063 0.085756C1.8413 0.0283117 2.01336 0.0455451 2.17607 0Z" fill="white"/>
<path d="M14.3355 21.0004C14.2732 20.9184 14.1768 20.9413 14.0971 20.9282C11.9592 20.577 10.2463 18.8179 9.93798 16.6523C9.54017 13.8572 11.3905 11.2956 14.1402 10.8361C16.909 10.3728 19.577 12.3542 19.9532 15.1522C20.3327 17.9743 18.4604 20.5113 15.6774 20.9508C15.596 20.9639 15.5021 20.9241 15.4333 21.0004H14.6198C14.6149 20.9943 14.6087 20.9894 14.6016 20.986C14.5946 20.9827 14.5869 20.9809 14.5791 20.9809C14.5713 20.9809 14.5636 20.9827 14.5566 20.986C14.5496 20.9894 14.5434 20.9943 14.5384 21.0004H14.3355Z" fill="white"/>
<path d="M5.0003 11.4335C5.58929 11.4335 6.1799 11.4335 6.76645 11.4335C7.15653 11.4335 7.42011 11.6739 7.42784 12.0264C7.43598 12.3899 7.1724 12.6595 6.7811 12.6611C5.59715 12.6666 4.41294 12.6666 3.22845 12.6611C2.83714 12.6611 2.57112 12.392 2.57763 12.0305C2.58333 11.676 2.84609 11.4347 3.23455 11.4331C3.82313 11.4314 4.41049 11.4335 5.0003 11.4335Z" fill="#002046"/>
<path d="M5.00479 13.9352C5.58687 13.9352 6.16853 13.9352 6.75061 13.9352C7.15737 13.9352 7.42217 14.1715 7.42827 14.533C7.43437 14.9023 7.16428 15.1632 6.7563 15.1641C5.59242 15.1673 4.42855 15.1673 3.26467 15.1641C2.85181 15.1641 2.57846 14.9146 2.57724 14.5486C2.57602 14.1826 2.8453 13.9356 3.25898 13.9331C3.84119 13.9337 4.42312 13.9343 5.00479 13.9352Z" fill="#002046"/>
<path d="M4.99746 4.05024C5.58604 4.05024 6.17706 4.05024 6.76361 4.05024C7.15491 4.05024 7.4185 4.28741 7.42785 4.63946C7.43761 5.003 7.17566 5.27545 6.78395 5.2775C5.59973 5.28352 4.41566 5.28352 3.23171 5.2775C2.83716 5.27545 2.57276 5.0108 2.57723 4.64931C2.58171 4.28782 2.84773 4.05024 3.25164 4.04901C3.8344 4.04901 4.41633 4.04942 4.99746 4.05024Z" fill="#002046"/>
<path d="M4.995 6.51133C5.58358 6.51133 6.17461 6.51133 6.76116 6.51133C7.16141 6.51133 7.42743 6.75752 7.42824 7.119C7.42906 7.48049 7.16222 7.73858 6.76604 7.73981C5.58887 7.74446 4.41157 7.74446 3.23414 7.73981C2.83958 7.73981 2.57356 7.47516 2.57681 7.11408C2.58007 6.753 2.8469 6.51256 3.24919 6.51133C3.8314 6.51051 4.41334 6.51051 4.995 6.51133Z" fill="#002046"/>
<path d="M5.0121 8.97238C5.59417 8.97238 6.17625 8.97238 6.75792 8.97238C7.1602 8.97238 7.42582 9.21529 7.42826 9.57719C7.4307 9.93909 7.16427 10.1992 6.7693 10.2009C5.5916 10.205 4.41416 10.205 3.237 10.2009C2.84203 10.2009 2.57479 9.93868 2.57682 9.57801C2.57886 9.21734 2.84529 8.97361 3.24635 8.97238C3.83494 8.97115 4.42352 8.97238 5.0121 8.97238Z" fill="#002046"/>
<path d="M10.6884 4.05022C11.277 4.05022 11.8656 4.05022 12.4546 4.05022C12.8439 4.05022 13.1087 4.28985 13.1172 4.64149C13.1258 5.00339 12.8622 5.27584 12.4709 5.27748C11.2866 5.2835 10.1026 5.2835 8.91863 5.27748C8.52529 5.27748 8.26008 5.00913 8.26578 4.64764C8.27106 4.29477 8.53586 4.05104 8.92229 4.04981C9.51087 4.04899 10.0999 4.05022 10.6884 4.05022Z" fill="#002046"/>
<path d="M10.6929 6.51132C11.2819 6.51132 11.8705 6.51132 12.4591 6.51132C12.8471 6.51132 13.1099 6.75423 13.1172 7.10751C13.1237 7.46777 12.8573 7.73734 12.4664 7.73899C11.2825 7.74418 10.0984 7.74418 8.91416 7.73899C8.52163 7.73899 8.25846 7.46777 8.26619 7.10505C8.27392 6.753 8.53912 6.51255 8.92758 6.51132C9.51576 6.51009 10.1052 6.51132 10.6929 6.51132Z" fill="#002046"/>
<path d="M9.76348 8.97241C10.0413 8.97241 10.3187 8.96953 10.5961 8.97241C10.9622 8.97692 11.229 9.22803 11.2364 9.57229C11.2378 9.65301 11.2233 9.73322 11.1939 9.8083C11.1645 9.88337 11.1206 9.95184 11.0648 10.0098C11.0091 10.0677 10.9425 10.1139 10.869 10.1458C10.7955 10.1777 10.7164 10.1946 10.6364 10.1956C10.0413 10.2107 9.44499 10.212 8.8499 10.1956C8.4952 10.1853 8.25684 9.90382 8.2662 9.56285C8.27555 9.22188 8.53263 8.97856 8.89017 8.97323C9.18141 8.96913 9.47265 8.97241 9.76348 8.97241Z" fill="#002046"/>
<path d="M14.7268 17.7187C14.5714 17.7197 14.4202 17.6681 14.2972 17.5722C13.8433 17.2395 13.3873 16.9092 12.935 16.5739C12.6238 16.3433 12.5555 15.9626 12.767 15.6786C12.9785 15.3947 13.3405 15.3582 13.6513 15.5805C13.9157 15.7701 14.1829 15.9572 14.4372 16.1599C14.5592 16.258 14.6149 16.2301 14.7036 16.116C15.1677 15.5202 15.6391 14.931 16.1122 14.3418C16.3668 14.0242 16.7443 13.9676 17.0189 14.1986C17.2934 14.4296 17.3081 14.7997 17.0595 15.1103C16.4423 15.8888 15.8246 16.6665 15.2063 17.4434C15.0737 17.6133 14.9094 17.7158 14.7268 17.7187Z" fill="#002046"/>
</g>
<defs>
<clipPath id="clip0_1_16986">
<rect width="20" height="21" fill="white"/>
</clipPath>
</defs>
</svg>
