<svg width="30" height="37" viewBox="0 0 30 37" fill="none" xmlns="http://www.w3.org/2000/svg">
<path d="M1.41917 36.996C0.789474 36.7506 0.263158 36.4013 0.0657895 35.6932C0 35.4761 0 35.2495 0 35.0324C0 29.5096 0 23.9868 0 18.4734C0 17.2273 0.723684 16.5098 1.97368 16.5098C10.6579 16.5098 19.3421 16.5098 28.0263 16.5098C29.2857 16.5098 30 17.2273 30 18.5017C30 23.9396 30 29.3774 30 34.8152C30 36.0897 29.6711 36.5806 28.5056 36.996C19.4643 36.996 10.4417 36.996 1.41917 36.996Z" fill="#002046"/>
<path d="M13.3553 7.02255C11.062 7.57011 9.32332 8.83516 8.16731 10.8743C7.67859 11.7429 7.37783 12.6775 7.25565 13.6688C7.13347 14.6223 6.40039 15.2831 5.44174 15.302C4.64287 15.3115 3.844 15.3115 3.05452 15.302C1.9361 15.2831 1.14663 14.424 1.26881 13.31C1.77633 8.76907 3.95678 5.22882 7.82896 2.84977C13.4493 -0.59608 20.5169 0.395191 25.047 5.2005C27.1805 7.46626 28.4023 10.1852 28.7124 13.2912C28.8252 14.424 28.0451 15.2831 26.9079 15.302C26.1184 15.3115 25.3384 15.3115 24.5489 15.302C23.5714 15.2926 22.8478 14.6317 22.7162 13.6499C22.3026 10.4684 19.9812 7.86277 16.8797 7.09807C16.6542 7.04143 16.5696 7.02255 16.626 7.31521C16.9643 9.07118 17.1899 10.846 17.359 12.6209C17.453 13.6121 17.0771 14.4052 16.2312 14.9244C15.4042 15.4436 14.5301 15.4342 13.7124 14.915C12.8666 14.3768 12.5094 13.5744 12.6034 12.5642C12.782 10.7516 13.0169 8.93901 13.3553 7.15472C13.3647 7.1264 13.3647 7.10751 13.3553 7.02255Z" fill="#002046"/>
<path d="M14.9999 17.71C19.3138 17.71 23.6277 17.71 27.9322 17.71C28.6183 17.71 28.7781 17.8799 28.7781 18.5596C28.7781 24.0258 28.7781 29.4825 28.7781 34.9486C28.7781 35.6284 28.6089 35.7983 27.9228 35.7983C19.295 35.7983 10.6766 35.7983 2.04874 35.7983C1.35325 35.7983 1.18408 35.6284 1.18408 34.9203C1.18408 29.473 1.18408 24.0163 1.18408 18.5691C1.18408 17.861 1.34386 17.71 2.05814 17.71C6.37205 17.71 10.686 17.71 14.9999 17.71Z" fill="#F8F8F8"/>
<path d="M14.9907 2.02832C17.237 2.0472 19.3328 2.59476 21.2877 3.70876C21.5415 3.85037 21.5415 3.94478 21.3911 4.17135C20.8178 4.98325 20.2633 5.81403 19.7182 6.64481C19.6054 6.82418 19.5208 6.88083 19.314 6.7581C18.4964 6.2955 17.6129 5.97452 16.6825 5.82347C16.4287 5.78571 16.3441 5.67242 16.3159 5.41752C16.2689 5.01157 16.1843 4.60562 16.1092 4.19968C15.9964 3.61435 15.5358 3.22729 14.9813 3.22729C14.4268 3.22729 13.9757 3.62379 13.8629 4.20912C13.7783 4.64339 13.7125 5.0871 13.6373 5.53081C13.6092 5.6913 13.5528 5.76683 13.3836 5.79515C12.3967 5.96508 11.4663 6.29551 10.5922 6.78642C10.4607 6.86195 10.3949 6.84306 10.3197 6.72034C9.71817 5.82347 9.11667 4.92661 8.50577 4.03918C8.38359 3.85981 8.48697 3.83149 8.59975 3.75596C10.0095 2.92518 11.5227 2.40595 13.1298 2.16049C13.7501 2.08496 14.3704 2.02832 14.9907 2.02832Z" fill="#F8F8F8"/>
<path d="M4.24836 14.1035C3.90062 14.1035 3.54348 14.1035 3.19573 14.1035C2.63182 14.0941 2.41566 13.8769 2.47205 13.3199C2.7916 10.3839 3.98521 7.87268 6.04348 5.75796C6.41002 5.38034 6.81416 5.03103 7.22769 4.70061C7.35927 4.59676 7.42506 4.559 7.54724 4.73837C8.12995 5.63523 8.73145 6.51322 9.34235 7.3912C9.43634 7.53281 9.42694 7.58946 9.29536 7.6933C7.47205 9.20381 6.41002 11.1486 6.07167 13.4899C6.01528 13.8864 5.80852 14.0752 5.41378 14.0846C5.01904 14.1035 4.6337 14.1035 4.24836 14.1035Z" fill="#F8F8F8"/>
<path d="M25.7329 14.1027C25.3475 14.1027 24.9622 14.1122 24.5769 14.1027C24.2009 14.0933 23.9754 13.9045 23.9284 13.5457C23.5994 11.1856 22.528 9.23136 20.7047 7.71141C20.5731 7.59812 20.5825 7.53204 20.6671 7.39987C21.2686 6.52188 21.8701 5.63446 22.4528 4.74704C22.5938 4.5299 22.6784 4.65263 22.8006 4.74704C25.1502 6.62573 26.6445 9.04254 27.3024 11.9786C27.4058 12.4506 27.4904 12.9227 27.5186 13.4041C27.5468 13.8573 27.34 14.0933 26.8983 14.1027C26.5036 14.1027 26.1182 14.1027 25.7329 14.1027Z" fill="#F8F8F8"/>
<path d="M15.0376 4.97363C15.2256 6.05931 15.4229 7.13555 15.6015 8.22123C15.8365 9.70341 16.0244 11.2045 16.1748 12.6961C16.25 13.423 15.8177 13.98 15.1316 14.0839C14.5583 14.1689 13.9662 13.7535 13.8158 13.1587C13.7406 12.8283 13.8252 12.5073 13.8628 12.1769C14.1071 9.76006 14.4831 7.36213 14.9436 4.97363C14.9812 4.97363 15.0094 4.97363 15.0376 4.97363Z" fill="#F8F8F8"/>
<path d="M6.30659 20.1165C6.79531 20.1165 7.29343 20.1071 7.78216 20.1165C8.80659 20.1354 9.56787 20.9001 9.57727 21.9291C9.58667 22.5428 9.58667 23.1564 9.57727 23.7606C9.55847 24.733 8.81599 25.5071 7.84794 25.5355C6.80471 25.5638 5.76148 25.5638 4.72764 25.5355C3.7596 25.5071 3.02651 24.7519 2.98892 23.7606C2.96072 23.1375 2.96072 22.5144 2.98892 21.8914C3.02651 20.8529 3.79719 20.1259 4.83103 20.1165C5.31975 20.1165 5.81787 20.1165 6.30659 20.1165Z" fill="#002046"/>
<path d="M5.98701 32.1816C6.74829 32.1816 7.50957 32.1816 8.27085 32.1816C8.71258 32.1816 8.98514 32.4177 8.98514 32.7858C8.98514 33.1446 8.70318 33.3901 8.26145 33.3901C6.73889 33.3901 5.21634 33.3901 3.69378 33.3901C3.26145 33.3901 2.97949 33.1446 2.97949 32.7858C2.97949 32.4271 3.25205 32.1911 3.70318 32.1911C4.46446 32.1816 5.22574 32.1816 5.98701 32.1816Z" fill="#002046"/>
<path d="M14.3512 32.1823C15.1218 32.1823 15.9019 32.1823 16.6726 32.1823C17.1237 32.1823 17.3775 32.4089 17.3775 32.7771C17.3775 33.1452 17.1049 33.3813 16.6632 33.3813C15.1406 33.3813 13.6181 33.3813 12.0955 33.3813C11.6538 33.3813 11.3906 33.1452 11.3906 32.7676C11.3906 32.39 11.635 32.1729 12.1049 32.1729C12.8568 32.1823 13.6087 32.1823 14.3512 32.1823Z" fill="#002046"/>
<path d="M6.56953 29.1612C6.56953 29.3972 6.59772 29.6332 6.56013 29.8598C6.52253 30.1808 6.30637 30.3602 5.98682 30.3602C5.66727 30.3602 5.4417 30.1902 5.40411 29.8693C5.34772 29.4067 5.34772 28.9346 5.40411 28.472C5.4417 28.1511 5.66727 27.9717 5.97742 27.9717C6.29697 27.9717 6.51313 28.1416 6.56013 28.472C6.59772 28.6892 6.56953 28.9252 6.56953 29.1612Z" fill="#002046"/>
<path d="M17.3777 29.1893C17.3777 29.3876 17.3871 29.5858 17.3777 29.7841C17.3589 30.1239 17.1146 30.3505 16.795 30.36C16.4943 30.36 16.2123 30.1428 16.1935 29.8313C16.1653 29.3876 16.1653 28.9439 16.1935 28.5002C16.2123 28.1697 16.5037 27.9432 16.8138 27.962C17.1146 27.9809 17.3495 28.2075 17.3777 28.5285C17.3777 28.5474 17.3777 28.5757 17.3777 28.5946C17.3871 28.7928 17.3871 28.9911 17.3777 29.1893C17.3871 29.1893 17.3871 29.1893 17.3777 29.1893Z" fill="#002046"/>
<path d="M4.17294 29.1612C4.17294 29.3689 4.18234 29.586 4.17294 29.7937C4.15414 30.1242 3.92858 30.3507 3.62783 30.3696C3.30828 30.3885 3.01692 30.1808 2.99813 29.8409C2.96993 29.3878 2.96993 28.9252 3.00752 28.472C3.03572 28.151 3.31767 27.9528 3.61843 27.9622C3.92858 27.9811 4.15414 28.1983 4.17294 28.5287C4.19174 28.7364 4.17294 28.9441 4.17294 29.1612Z" fill="#002046"/>
<path d="M7.80089 29.1614C7.80089 28.9348 7.78209 28.7177 7.80089 28.4911C7.82909 28.1607 8.03586 27.9813 8.34601 27.9624C8.66556 27.9435 8.90052 28.104 8.95691 28.425C9.0321 28.9065 9.0321 29.4069 8.95691 29.8883C8.90992 30.1999 8.67496 30.3604 8.35541 30.3509C8.04525 30.3415 7.81969 30.1149 7.80089 29.7845C7.78209 29.5862 7.79149 29.3785 7.80089 29.1614Z" fill="#002046"/>
<path d="M11.3909 29.161C11.3909 28.9627 11.3815 28.7645 11.3909 28.5662C11.4097 28.2169 11.6259 27.9809 11.9454 27.962C12.2556 27.9432 12.5563 28.1697 12.5751 28.5002C12.6033 28.9439 12.6033 29.3876 12.5751 29.8313C12.5563 30.1617 12.265 30.3788 11.9454 30.36C11.6259 30.3411 11.4003 30.1145 11.3909 29.7558C11.3909 29.5575 11.3909 29.3593 11.3909 29.161Z" fill="#002046"/>
<path d="M20.9772 29.1798C20.9772 29.3875 20.9866 29.6047 20.9772 29.8124C20.9585 30.1333 20.7611 30.3222 20.4415 30.3599C20.1314 30.3977 19.8494 30.1994 19.8118 29.8879C19.7554 29.4159 19.7554 28.9249 19.8118 28.4529C19.8494 28.1414 20.1408 27.9431 20.4415 27.9714C20.7517 27.9998 20.9585 28.2263 20.9772 28.5568C20.9866 28.755 20.9772 28.9721 20.9772 29.1798Z" fill="#002046"/>
<path d="M23.3739 29.1801C23.3739 29.3878 23.3927 29.605 23.3739 29.8127C23.3457 30.1431 23.1108 30.3602 22.8006 30.3602C22.4811 30.3602 22.2555 30.1997 22.2085 29.8787C22.1427 29.4067 22.1427 28.9158 22.2085 28.4438C22.2555 28.1228 22.4811 27.9528 22.8006 27.9623C23.1202 27.9717 23.3269 28.1511 23.3645 28.4815C23.3927 28.7081 23.3739 28.9441 23.3739 29.1801Z" fill="#002046"/>
<path d="M24.6053 29.1324C24.6053 28.9059 24.5865 28.6887 24.6053 28.4621C24.6429 28.1506 24.8497 27.9901 25.141 27.9618C25.4324 27.9335 25.7049 28.1223 25.7519 28.4244C25.8271 28.9153 25.8271 29.4062 25.7519 29.8971C25.7049 30.2181 25.47 30.3786 25.1504 30.3597C24.8309 30.3408 24.6241 30.1615 24.5959 29.831C24.5865 29.6045 24.6053 29.3684 24.6053 29.1324Z" fill="#002046"/>
<path d="M13.7877 29.1713C13.7877 28.9636 13.7783 28.7465 13.7877 28.5388C13.8065 28.2083 14.0603 27.9629 14.3798 27.9629C14.69 27.9629 14.9625 28.1989 14.9719 28.5293C14.9907 28.9542 14.9907 29.3696 14.9719 29.7944C14.9625 30.1342 14.6994 30.3608 14.3798 30.3608C14.0415 30.3608 13.7971 30.1248 13.7783 29.7566C13.7877 29.5678 13.7877 29.3696 13.7877 29.1713Z" fill="#002046"/>
<path d="M6.30665 21.3255C6.77657 21.3255 7.2465 21.316 7.71642 21.3255C8.15815 21.3349 8.38372 21.5615 8.39311 22.0052C8.40251 22.5622 8.40251 23.1098 8.39311 23.6668C8.39311 24.1105 8.16755 24.3465 7.72582 24.3465C6.77657 24.3559 5.82732 24.3559 4.87808 24.3465C4.43635 24.3465 4.21078 24.1105 4.20138 23.6668C4.19199 23.1098 4.19199 22.5622 4.20138 22.0052C4.21078 21.5426 4.44575 21.3255 4.91567 21.3255C5.3668 21.316 5.83672 21.3255 6.30665 21.3255Z" fill="#F8F8F8"/>
</svg>
