<svg width="13" height="21" viewBox="0 0 13 21" fill="none" xmlns="http://www.w3.org/2000/svg">
<path fill-rule="evenodd" clip-rule="evenodd" d="M3.39823 1.49363V6.41381V6.9849C3.39823 7.11669 3.48765 7.24849 3.6218 7.33635L5.2762 8.34674C5.54448 8.52246 5.9469 8.30281 5.9469 7.9953V2.50402V0.527163V0.439302C5.9469 0.219651 5.76804 0 5.49976 0H3.39823H2.50396H0.447135C0.178854 0 0 0.219651 0 0.439302V5.18376V6.72132V7.73172V9.26927V19.7247C0 20.0761 0.357708 20.2518 0.670703 20.0761L2.50396 18.9779L3.39823 18.4507L5.72333 17.0449C5.85747 16.9571 5.9469 16.8253 5.9469 16.6935V13.1351C5.9469 13.0033 5.85747 12.8716 5.72333 12.7837L4.06893 11.7733C3.80065 11.5976 3.39823 11.8172 3.39823 12.1247V16.9131C3.39823 17.1328 3.17466 17.3524 2.95109 17.3524C2.72752 17.3524 2.50396 17.1328 2.50396 16.9131V10.7629V9.97216C2.50396 9.62072 2.86167 9.44499 3.17466 9.62072L3.39823 9.75251L5.23148 10.8508C5.49976 11.0265 5.90218 10.8068 5.90218 10.4993C5.90218 10.3675 5.81276 10.2357 5.67862 10.1479L3.35351 8.74211L2.45924 8.21495V7.86351V6.67739V6.41381V1.49363C2.45924 1.27398 2.68281 1.05433 2.90638 1.05433C3.17466 1.05433 3.39823 1.27398 3.39823 1.49363Z" fill="#002046"/>
<path fill-rule="evenodd" clip-rule="evenodd" d="M8.80868 7.02883L6.48358 8.4346C6.34944 8.52246 6.26001 8.65425 6.26001 8.78604V9.53286V11.0704V16.6496C6.26001 16.7813 6.34944 16.9131 6.48358 17.001L8.80868 18.4068L9.70295 18.9339L11.5362 20.0322C11.8045 20.2079 12.2069 19.9882 12.2069 19.6807V8.25888C12.2069 7.90744 11.8492 7.73172 11.5362 7.90744L9.88181 8.91783C9.74766 9.00569 9.65824 9.13748 9.65824 9.26928V16.8692C9.65824 17.0889 9.43467 17.3085 9.2111 17.3085C8.98753 17.3085 8.76397 17.0889 8.76397 16.8692V9.57679V8.25888C8.76397 8.12709 8.85339 7.9953 8.98753 7.90744L9.65824 7.51207L11.9833 6.1063C12.1175 6.01844 12.2069 5.88665 12.2069 5.75486V5.00804V3.42656V0.439302C12.2069 0.219651 12.0281 0 11.7598 0H9.70295H8.80868H6.70714C6.48358 0 6.26001 0.175721 6.26001 0.439302V0.527163V1.66935V6.19416C6.26001 6.5456 6.61772 6.72132 6.93071 6.5456L8.58511 5.53521C8.71925 5.44735 8.80868 5.31556 8.80868 5.18377V1.49363C8.80868 1.27398 8.98753 1.05433 9.25582 1.05433C9.47938 1.05433 9.70295 1.27398 9.70295 1.49363V4.92018V6.23809C9.70295 6.36988 9.61352 6.50167 9.47938 6.58953L8.80868 7.02883Z" fill="#002046"/>
</svg>
